<?xml version="1.0" encoding="UTF-8" standalone="no"?>
<svg
   xmlns:dc="http://purl.org/dc/elements/1.1/"
   xmlns:cc="http://creativecommons.org/ns#"
   xmlns:rdf="http://www.w3.org/1999/02/22-rdf-syntax-ns#"
   xmlns:svg="http://www.w3.org/2000/svg"
   xmlns="http://www.w3.org/2000/svg"
   viewBox="0 0 450 416.25"
   height="416.25"
   width="450"
   xml:space="preserve"
   version="1.1"
   id="svg2"><metadata
     id="metadata8"><rdf:RDF><cc:Work
         rdf:about=""><dc:format>image/svg+xml</dc:format><dc:type
           rdf:resource="http://purl.org/dc/dcmitype/StillImage" /></cc:Work></rdf:RDF></metadata><defs
     id="defs6"><clipPath
       id="clipPath20"
       clipPathUnits="userSpaceOnUse"><path
         id="path22"
         d="m 3178.08,1675.01 c 0,-771.158 -625.15,-1396.319 -1396.32,-1396.319 -771.17,0 -1396.322,625.161 -1396.322,1396.319 0,771.17 625.152,1396.33 1396.322,1396.33 771.17,0 1396.32,-625.16 1396.32,-1396.33 z" /></clipPath><radialGradient
       id="radialGradient24"
       spreadMethod="pad"
       gradientTransform="matrix(1396.32,0,0,-1396.32,1781.76,1675.01)"
       gradientUnits="userSpaceOnUse"
       r="1"
       cy="0"
       cx="0"
       fy="0"
       fx="0"><stop
         id="stop26"
         offset="0"
         style="stop-opacity:1;stop-color:#1f4b7f" /><stop
         id="stop28"
         offset="0.12"
         style="stop-opacity:1;stop-color:#1f4b7f" /><stop
         id="stop30"
         offset="1"
         style="stop-opacity:1;stop-color:#ffffff" /></radialGradient></defs><g
     transform="matrix(1.25,0,0,-1.25,0,416.25)"
     id="g10"><g
       transform="scale(0.1,0.1)"
       id="g12"><path
         id="path14"
         style="fill:#1f4b7f;fill-opacity:1;fill-rule:nonzero;stroke:none"
         d="M 1791.77,3291.96 C 894.664,3291.96 164.813,2562.11 164.813,1665 164.813,767.891 894.664,38.0391 1791.77,38.0391 c 897.12,0 1626.96,729.8519 1626.96,1626.9609 0,897.11 -729.84,1626.96 -1626.96,1626.96 z M 1791.77,0 C 873.688,0 126.773,746.91 126.773,1665 c 0,918.09 746.915,1665 1664.997,1665 918.09,0 1665,-746.91 1665,-1665 0,-918.09 -746.91,-1665 -1665,-1665" /><g
         id="g16"><g
           clip-path="url(#clipPath20)"
           id="g18"><path
             id="path32"
             style="fill:url(#radialGradient24);fill-opacity:1;fill-rule:nonzero;stroke:none"
             d="m 3178.08,1675.01 c 0,-771.158 -625.15,-1396.319 -1396.32,-1396.319 -771.17,0 -1396.322,625.161 -1396.322,1396.319 0,771.17 625.152,1396.33 1396.322,1396.33 771.17,0 1396.32,-625.16 1396.32,-1396.33" /></g></g><path
         id="path34"
         style="fill:#ffffff;fill-opacity:1;fill-rule:nonzero;stroke:none"
         d="m 2594.65,2788.22 c 6.53,-4.77 13.12,-9.49 19.58,-14.39 -19.92,-879.06 -251.64,-1712.66 -689.71,-2480.4 -8.07,-0.828 -16.08,-1.711 -24.17,-2.418 443.28,772.258 676.47,1611.668 694.3,2497.208" /><path
         id="path36"
         style="fill:#ffffff;fill-opacity:1;fill-rule:nonzero;stroke:none"
         d="m 1418.02,334.359 704.82,2675.731 c 3.22,-0.81 6.43,-1.43 9.65,-2.27 3.22,-0.85 6.33,-1.9 9.52,-2.78 L 1437.19,329.309 c -3.19,0.839 -6.42,1.453 -9.64,2.293 -3.23,0.847 -6.32,1.91 -9.53,2.757" /><path
         id="path38"
         style="fill:#ffffff;fill-opacity:1;fill-rule:nonzero;stroke:none"
         d="m 976.242,543.23 c -2.984,883.91 206.028,1723.47 621.728,2498.29 8.02,1.06 16.07,1.93 24.11,2.87 C 1201.39,2264.98 990.801,1419.64 996.047,529.23 c -6.668,4.579 -13.238,9.301 -19.805,14" /><path
         id="path40"
         style="fill:#ffffff;fill-opacity:1;fill-rule:nonzero;stroke:none"
         d="m 661.496,2484.34 c 4.785,6.53 9.512,13.12 14.391,19.57 879.063,-19.91 1712.643,-251.63 2480.403,-689.72 0.85,-8.05 1.73,-16.08 2.44,-24.15 -772.27,443.27 -1611.69,676.48 -2497.234,694.3" /><path
         id="path42"
         style="fill:#ffffff;fill-opacity:1;fill-rule:nonzero;stroke:none"
         d="M 3115.36,1307.7 439.629,2012.51 c 0.832,3.22 1.434,6.45 2.277,9.66 0.848,3.22 1.914,6.32 2.774,9.52 l 2675.73,-704.82 c -0.82,-3.2 -1.43,-6.43 -2.27,-9.64 -0.85,-3.22 -1.92,-6.32 -2.78,-9.53" /><path
         id="path44"
         style="fill:#ffffff;fill-opacity:1;fill-rule:nonzero;stroke:none"
         d="m 2906.49,865.93 c -883.92,-2.981 -1723.46,206.03 -2498.295,621.73 -1.05,8.02 -1.918,16.08 -2.867,24.11 C 1184.73,1091.08 2030.08,880.48 2920.5,885.73 c -4.57,-6.679 -9.3,-13.23 -14.01,-19.8" /><path
         id="path46"
         style="fill:#ffffff;fill-opacity:1;fill-rule:nonzero;stroke:none"
         d="m 0,1195.62 3600,0 0,948.258 -3600,0 0,-948.258 z" /><path
         id="path48"
         style="fill:#ffffff;fill-opacity:1;fill-rule:nonzero;stroke:none"
         d="m 299.539,1098.99 2964.37,0 0,1140 -2964.37,0 0,-1140 z" /><path
         id="path50"
         style="fill:#1f4b7f;fill-opacity:1;fill-rule:nonzero;stroke:none"
         d="m 0,2099.64 3600,0 0,88.4883 -3600,0 0,-88.4883 z" /><path
         id="path52"
         style="fill:#1f4b7f;fill-opacity:1;fill-rule:nonzero;stroke:none"
         d="m 0,1151.37 3600,0 0,88.4805 -3600,0 0,-88.4805 z" /><path
         id="path54"
         style="fill:#1f4b7f;fill-opacity:1;fill-rule:nonzero;stroke:none"
         d="m 1630.65,1470.15 0,146.56 c -21.27,-8.4 -38.7,-15.54 -52.27,-21.42 -13.59,-5.88 -23.45,-10.64 -29.61,-14.28 -22.12,-12.59 -37.94,-25.55 -47.45,-38.84 -9.52,-13.3 -14.27,-27.92 -14.27,-43.88 0,-10.08 1.6,-19.4 4.82,-27.93 3.22,-8.55 7.56,-15.96 13.02,-22.26 5.46,-6.3 11.82,-11.2 19.11,-14.69 7.27,-3.51 14.83,-5.25 22.67,-5.25 21.27,0 49.27,14 83.98,41.99 z m 0,-27.29 c -39.46,-30.8 -64.24,-48.44 -74.32,-52.91 -14.84,-6.99 -30.93,-10.5 -48.29,-10.5 -13.16,0 -25.34,2.38 -36.53,7.14 -11.2,4.76 -20.86,11.47 -28.98,20.16 -8.12,8.67 -14.48,19.1 -19.1,31.28 -4.62,12.17 -6.93,25.68 -6.93,40.52 0,10.92 1.47,21 4.41,30.24 2.94,9.24 7.35,17.98 13.23,26.24 5.87,8.25 13.36,16.17 22.46,23.73 9.09,7.56 19.8,14.97 32.13,22.25 28.82,17.07 76.14,37.51 141.92,61.31 l 0,15.12 c 0,19.32 -1.61,35.4 -4.82,48.29 -3.22,12.87 -7.84,23.15 -13.86,30.86 -6.02,7.69 -13.51,13.15 -22.46,16.38 -8.97,3.21 -19.05,4.83 -30.24,4.83 -8.96,0 -17,-1.34 -24.14,-3.99 -7.14,-2.67 -13.23,-6.17 -18.27,-10.5 -5.04,-4.35 -8.89,-9.39 -11.55,-15.12 -2.66,-5.74 -3.99,-11.55 -3.99,-17.43 l 0.84,-24.35 c 0,-12.88 -3.29,-22.82 -9.87,-29.81 -6.58,-7 -15.19,-10.5 -25.82,-10.5 -10.36,0 -18.83,3.63 -25.41,10.92 -6.58,7.27 -9.86,17.22 -9.86,29.81 0,11.76 3.15,23.37 9.44,34.85 6.3,11.48 15.39,21.84 27.3,31.08 11.89,9.23 26.59,16.65 44.09,22.25 17.49,5.6 37.44,8.4 59.84,8.4 29.67,0 54.86,-4.34 75.58,-13.02 20.71,-8.68 35.69,-23.66 44.93,-44.93 5.04,-12.32 7.56,-36.95 7.56,-73.9 l 0,-130.6 c 0,-18.47 0.22,-33.32 0.64,-44.51 0.42,-11.2 0.89,-18.89 1.46,-23.09 1.4,-8.13 3.71,-13.59 6.93,-16.38 3.22,-2.8 6.93,-4.2 11.13,-4.2 2.79,0 5.46,0.42 7.98,1.26 2.52,0.84 5.45,2.52 8.81,5.04 3.36,2.52 7.28,5.94 11.76,10.28 4.47,4.34 10.22,10.01 17.22,17.01 l 0,-23.51 c -31.64,-41.99 -61.59,-62.99 -89.86,-62.99 -13.44,0 -24.36,4.77 -32.76,14.28 -8.4,9.51 -12.6,25.75 -12.6,48.71" /><path
         id="path56"
         style="fill:#1f4b7f;fill-opacity:1;fill-rule:nonzero;stroke:none"
         d="m 2066.11,1460.08 0,198.2 c -1.4,15.96 -4.97,30.08 -10.7,42.41 -5.74,12.31 -12.74,22.74 -21,31.28 -8.26,8.54 -17.36,14.97 -27.29,19.32 -9.94,4.33 -19.95,6.51 -30.03,6.51 -14.84,0 -28.56,-3.86 -41.15,-11.55 -12.6,-7.71 -23.59,-18.63 -32.96,-32.76 -9.39,-14.14 -16.74,-31.07 -22.05,-50.81 -5.32,-19.73 -7.98,-41.64 -7.98,-65.71 0,-28.28 3.43,-53.33 10.29,-75.17 6.86,-21.83 15.88,-40.17 27.08,-55.01 11.19,-14.84 23.94,-26.03 38.21,-33.59 14.28,-7.56 28.83,-11.34 43.68,-11.34 25.47,0 50.1,12.74 73.9,38.22 z m 0,-29.4 c -18.76,-19.6 -37.02,-33.67 -54.79,-42.21 -17.79,-8.53 -37.17,-12.8 -58.17,-12.8 -20.99,0 -40.93,4.69 -59.83,14.06 -18.9,9.38 -35.56,22.4 -49.97,39.06 -14.42,16.65 -25.9,36.46 -34.43,59.42 -8.55,22.95 -12.82,48.15 -12.82,75.59 0,55.14 17.36,105.53 52.07,151.16 34.99,45.91 79.64,68.87 133.96,68.87 33.59,0 61.58,-10.78 83.98,-32.33 l 0,125.97 c 0,5.04 0.22,10.56 0.64,16.59 0.42,6.02 -0.08,11.68 -1.48,17.01 -1.4,5.31 -4.2,9.72 -8.4,13.22 -4.19,3.5 -11.06,5.25 -20.57,5.25 -7.56,0 -17.22,-2.24 -28.98,-6.71 l -5.46,14.69 114.64,47.03 18.9,0 0,-444.69 c 0,-45.63 0.98,-73.21 2.94,-82.72 2.24,-9.81 5.67,-16.66 10.29,-20.58 4.62,-3.93 10,-5.88 16.16,-5.88 7.28,0 17.36,2.37 30.24,7.14 l 4.62,-14.7 -114.22,-47.45 -19.32,0 0,55.01" /><path
         id="path58"
         style="fill:#1f4b7f;fill-opacity:1;fill-rule:nonzero;stroke:none"
         d="m 2336.12,1898.47 0,-126.4 89.87,0 0,-29.39 -89.87,0 0,-249.43 c 0,-12.6 0.98,-23.04 2.94,-31.29 1.96,-8.26 4.62,-14.76 7.98,-19.52 3.36,-4.77 7.35,-8.06 11.97,-9.87 4.62,-1.83 9.72,-2.73 15.33,-2.73 9.23,0 18.19,2.86 26.87,8.61 8.67,5.73 15.39,14.2 20.16,25.41 l 16.37,0 c -5.04,-13.73 -11.12,-25.77 -18.26,-36.12 -7.14,-10.36 -14.91,-18.97 -23.31,-25.83 -8.4,-6.86 -17.36,-12.04 -26.87,-15.54 -9.52,-3.49 -19.05,-5.24 -28.56,-5.24 -6.44,0 -12.95,0.91 -19.52,2.73 -6.58,1.82 -12.74,4.47 -18.48,7.97 -5.74,3.5 -10.99,7.78 -15.75,12.82 -4.76,5.04 -8.54,10.91 -11.34,17.63 -5.87,13.44 -8.81,34.02 -8.81,61.73 l 0,258.67 -60.89,0 0,13.86 c 15.39,6.15 31.14,16.58 47.24,31.28 16.1,14.7 30.44,32.12 43.04,52.28 3.08,5.31 6.93,12.81 11.55,22.47 4.62,9.65 9.72,21.62 15.33,35.9 l 13.01,0" /><path
         id="path60"
         style="fill:#1f4b7f;fill-opacity:1;fill-rule:nonzero;stroke:none"
         d="m 2528.03,1651.56 178.04,0 c -1.12,24.63 -4.06,41.99 -8.81,52.07 -7.01,15.67 -17.44,27.98 -31.28,36.95 -13.87,8.95 -28.35,13.44 -43.47,13.44 -11.48,0 -22.54,-2.31 -33.17,-6.93 -10.65,-4.62 -20.31,-11.34 -28.98,-20.16 -8.68,-8.82 -15.89,-19.52 -21.63,-32.12 -5.73,-12.6 -9.31,-27.02 -10.7,-43.25 z m 0,-24.36 c 0,-28.55 3.78,-54.17 11.33,-76.84 7.56,-22.68 17.78,-41.93 30.66,-57.74 12.87,-15.83 27.78,-27.87 44.73,-36.12 16.93,-8.26 34.77,-12.38 53.53,-12.38 25.2,0 47.1,6.92 65.72,20.78 18.62,13.86 34.22,37.59 46.82,71.18 l 13.02,-8.4 c -3.09,-18.76 -8.97,-37.23 -17.64,-55.43 -8.68,-18.2 -19.8,-34.43 -33.39,-48.71 -13.57,-14.27 -29.39,-25.83 -47.44,-34.65 -18.07,-8.81 -37.73,-13.22 -59,-13.22 -22.96,0 -44.58,4.69 -64.89,14.06 -20.29,9.38 -38.06,22.68 -53.32,39.9 -15.26,17.21 -27.37,38.06 -36.32,62.57 -8.97,24.49 -13.44,52 -13.44,82.51 0,33.32 4.55,62.91 13.65,88.81 9.09,25.89 21.62,47.8 37.58,65.72 15.96,17.91 34.78,31.5 56.48,40.73 21.69,9.24 44.99,13.86 69.92,13.86 21.26,0 40.94,-3.71 58.99,-11.13 18.07,-7.42 33.66,-17.99 46.83,-31.7 13.15,-13.72 23.44,-30.17 30.86,-49.34 7.42,-19.18 11.13,-40.67 11.13,-64.46 l -265.81,0" /><path
         id="path62"
         style="fill:#e32124;fill-opacity:1;fill-rule:nonzero;stroke:none"
         d="m 2908.19,1455.63 c 5.39,0 10.43,-1 15.12,-2.99 4.69,-1.99 8.79,-4.74 12.3,-8.26 3.52,-3.51 6.33,-7.68 8.44,-12.48 2.11,-4.8 3.17,-9.9 3.17,-15.29 0,-5.4 -1.06,-10.43 -3.17,-15.12 -2.11,-4.7 -4.92,-8.79 -8.44,-12.3 -3.51,-3.52 -7.61,-6.33 -12.3,-8.44 -4.69,-2.11 -9.73,-3.16 -15.12,-3.16 -5.39,0 -10.43,1.05 -15.11,3.16 -4.69,2.11 -8.79,4.92 -12.31,8.44 -3.51,3.51 -6.33,7.6 -8.44,12.3 -2.11,4.69 -3.16,9.72 -3.16,15.12 0,5.62 1.05,10.77 3.16,15.47 2.11,4.69 4.93,8.79 8.44,12.3 3.52,3.52 7.62,6.27 12.31,8.26 4.68,1.99 9.72,2.99 15.11,2.99" /><path
         id="path64"
         style="fill:#e32124;fill-opacity:1;fill-rule:nonzero;stroke:none"
         d="m 3203.76,1472.39 c -3.1,-14.81 -7.73,-27.92 -13.92,-39.31 -6.19,-11.39 -13.42,-20.99 -21.73,-28.8 -8.3,-7.82 -17.42,-13.73 -27.34,-17.71 -9.93,-3.98 -20.18,-5.98 -30.76,-5.98 -12.54,0 -24.5,2.77 -35.89,8.3 -11.4,5.53 -21.44,13.43 -30.15,23.69 -8.71,10.25 -15.67,22.65 -20.87,37.22 -5.22,14.57 -7.82,30.97 -7.82,49.2 0,17.58 2.84,33.64 8.55,48.21 5.69,14.57 13.39,27.07 23.07,37.49 9.68,10.41 21,18.5 33.93,24.28 12.95,5.78 26.65,8.67 41.14,8.67 10.9,0 20.96,-1.63 30.15,-4.88 9.2,-3.26 17.13,-7.49 23.81,-12.69 6.67,-5.22 11.92,-10.99 15.74,-17.34 3.83,-6.35 5.74,-12.62 5.74,-18.8 0,-6.19 -1.95,-11.19 -5.86,-15.02 -3.9,-3.82 -9.52,-5.73 -16.84,-5.73 -3.75,0 -7.2,0.4 -10.38,1.22 -3.17,0.81 -5.94,2.28 -8.3,4.4 -2.36,2.11 -4.27,5.04 -5.74,8.79 -1.46,3.74 -2.44,8.54 -2.93,14.4 -0.82,9.6 -4.03,16.88 -9.64,21.85 -5.62,4.96 -13.55,7.45 -23.8,7.45 -9.61,0 -18.07,-2.16 -25.39,-6.48 -7.33,-4.31 -13.52,-10.17 -18.56,-17.58 -5.05,-7.4 -8.83,-16.03 -11.35,-25.87 -2.53,-9.85 -3.79,-20.31 -3.79,-31.37 0,-13.03 1.67,-25.6 5,-37.73 3.34,-12.13 8.15,-22.91 14.42,-32.34 6.26,-9.44 13.86,-17.01 22.82,-22.71 8.95,-5.7 19.12,-8.54 30.52,-8.54 6.83,0 13.34,0.85 19.53,2.56 6.18,1.71 12.12,4.68 17.82,8.91 5.69,4.23 11.19,10.05 16.48,17.46 5.29,7.4 10.38,16.8 15.26,28.2 l 7.08,-3.42" /><path
         id="path66"
         style="fill:#e32124;fill-opacity:1;fill-rule:nonzero;stroke:none"
         d="m 3362.45,1435.53 0,85.2 c -12.37,-4.88 -22.5,-9.03 -30.4,-12.45 -7.89,-3.42 -13.63,-6.19 -17.21,-8.3 -12.86,-7.33 -22.06,-14.86 -27.58,-22.59 -5.54,-7.73 -8.31,-16.23 -8.31,-25.51 0,-5.86 0.94,-11.28 2.81,-16.24 1.87,-4.96 4.39,-9.27 7.58,-12.94 3.16,-3.66 6.86,-6.51 11.1,-8.54 4.23,-2.03 8.62,-3.05 13.18,-3.05 12.37,0 28.65,8.14 48.83,24.42 z m 0,-15.87 c -22.95,-17.91 -37.35,-28.17 -43.21,-30.77 -8.63,-4.07 -17.99,-6.1 -28.08,-6.1 -7.65,0 -14.73,1.39 -21.24,4.15 -6.51,2.76 -12.13,6.67 -16.84,11.72 -4.73,5.04 -8.43,11.1 -11.11,18.18 -2.69,7.08 -4.03,14.94 -4.03,23.57 0,6.35 0.85,12.21 2.57,17.58 1.7,5.37 4.27,10.45 7.68,15.25 3.42,4.8 7.78,9.4 13.06,13.8 5.29,4.39 11.51,8.7 18.68,12.94 16.76,9.92 44.27,21.8 82.52,35.64 l 0,8.79 c 0,11.23 -0.94,20.59 -2.8,28.08 -1.88,7.48 -4.56,13.46 -8.07,17.94 -3.49,4.47 -7.85,7.64 -13.05,9.52 -5.22,1.87 -11.08,2.81 -17.58,2.81 -5.22,0 -9.9,-0.78 -14.04,-2.32 -4.16,-1.55 -7.69,-3.59 -10.62,-6.11 -2.93,-2.52 -5.17,-5.45 -6.72,-8.79 -1.54,-3.34 -2.31,-6.7 -2.31,-10.12 l 0.48,-14.16 c 0,-7.49 -1.91,-13.27 -5.73,-17.34 -3.83,-4.07 -8.84,-6.1 -15.02,-6.1 -6.02,0 -10.95,2.11 -14.76,6.35 -3.83,4.23 -5.75,10.01 -5.75,17.33 0,6.84 1.84,13.59 5.49,20.27 3.67,6.67 8.96,12.69 15.88,18.06 6.92,5.37 15.46,9.68 25.63,12.94 10.17,3.25 21.76,4.88 34.79,4.88 17.25,0 31.9,-2.53 43.95,-7.56 12.04,-5.05 20.75,-13.76 26.12,-26.13 2.93,-7.17 4.39,-21.48 4.39,-42.97 l 0,-75.92 c 0,-10.75 0.12,-19.38 0.38,-25.88 0.23,-6.52 0.51,-10.99 0.84,-13.43 0.82,-4.73 2.16,-7.9 4.04,-9.52 1.86,-1.63 4.02,-2.44 6.46,-2.44 1.62,0 3.18,0.24 4.64,0.73 1.47,0.49 3.18,1.46 5.13,2.93 1.95,1.46 4.23,3.46 6.83,5.98 2.6,2.51 5.94,5.82 10.01,9.89 l 0,-13.67 c -18.39,-24.42 -35.81,-36.63 -52.24,-36.63 -7.81,0 -14.16,2.77 -19.04,8.31 -4.89,5.52 -7.33,14.97 -7.33,28.32" /></g></g></svg>