<?xml version="1.0" encoding="UTF-8" standalone="no"?>
<!-- Created with Inkscape (http://www.inkscape.org/) -->

<svg
   xmlns:dc="http://purl.org/dc/elements/1.1/"
   xmlns:cc="http://creativecommons.org/ns#"
   xmlns:rdf="http://www.w3.org/1999/02/22-rdf-syntax-ns#"
   xmlns:svg="http://www.w3.org/2000/svg"
   xmlns="http://www.w3.org/2000/svg"
   xmlns:sodipodi="http://sodipodi.sourceforge.net/DTD/sodipodi-0.dtd"
   xmlns:inkscape="http://www.inkscape.org/namespaces/inkscape"
   id="svg2"
   version="1.1"
   inkscape:version="0.91 r"
   xml:space="preserve"
   width="650"
   height="280"
   viewBox="0 0 650 280"
   sodipodi:docname="Aleph_Objects_Logo_Landscape_WEB.svg"><metadata
     id="metadata8"><rdf:RDF><cc:Work
         rdf:about=""><dc:format>image/svg+xml</dc:format><dc:type
           rdf:resource="http://purl.org/dc/dcmitype/StillImage" /><dc:title></dc:title></cc:Work></rdf:RDF></metadata><defs
     id="defs6"><clipPath
       clipPathUnits="userSpaceOnUse"
       id="clipPath28"><path
         d="M 0,543 612,543 612,0 0,0 0,543 Z"
         id="path30"
         inkscape:connector-curvature="0" /></clipPath><clipPath
       clipPathUnits="userSpaceOnUse"
       id="clipPath136"><path
         d="M 0,543 612,543 612,0 0,0 0,543 Z"
         id="path138"
         inkscape:connector-curvature="0" /></clipPath></defs><sodipodi:namedview
     pagecolor="#ffffff"
     bordercolor="#666666"
     borderopacity="1"
     objecttolerance="10"
     gridtolerance="10"
     guidetolerance="10"
     inkscape:pageopacity="0"
     inkscape:pageshadow="2"
     inkscape:window-width="1606"
     inkscape:window-height="884"
     id="namedview4"
     showgrid="false"
     fit-margin-top="0"
     fit-margin-left="0"
     fit-margin-right="0"
     fit-margin-bottom="0"
     inkscape:zoom="0.58111759"
     inkscape:cx="327.77687"
     inkscape:cy="156.3321"
     inkscape:window-x="102"
     inkscape:window-y="76"
     inkscape:window-maximized="0"
     inkscape:current-layer="g10"
     width="600px" /><g
     id="g10"
     inkscape:groupmode="layer"
     inkscape:label="Aleph_Logo_WEB"
     transform="matrix(1.25,0,0,-1.25,-221.90625,343.14163)"><g
       id="g12"
       transform="matrix(1.0232642,0,0,1.0232642,427.54578,215.96278)"><path
         d="m 0,0 -6.08,-17.896 12.049,0 L 0,0 Z m 14.001,-41.871 -4.138,12.534 -19.719,0 -4.263,-12.534 -12.896,0 17.403,53.067 19.106,0 17.411,-53.067 -12.904,0 z"
         style="fill:#231f20;fill-opacity:1;fill-rule:nonzero;stroke:none"
         id="path14"
         inkscape:connector-curvature="0" /></g><g
       id="g16"
       transform="matrix(1.0232642,0,0,1.0232642,476.38966,184.69929)"><path
         d="m 0,0 23.367,0 0,-11.318 -36.03,0 0,53.188 L 0,41.87 0,0 Z"
         style="fill:#231f20;fill-opacity:1;fill-rule:nonzero;stroke:none"
         id="path18"
         inkscape:connector-curvature="0" /></g><g
       id="g20"
       transform="matrix(1.0232642,0,0,1.0232642,523.92397,215.83692)"><path
         d="m 0,0 0,-9.737 15.214,0 0,-11.199 -15.214,0 0,-9.615 27.626,0 0,-11.197 -39.92,0 0,53.188 39.92,0 L 27.626,0 0,0 Z"
         style="fill:#231f20;fill-opacity:1;fill-rule:nonzero;stroke:none"
         id="path22"
         inkscape:connector-curvature="0" /></g><g
       id="g24"
       transform="matrix(1.0232642,0,0,1.0232642,218.24679,38.405452)"><g
         id="g26"
         clip-path="url(#clipPath28)"><path
           d="m 368.469,173.521 -17.405,0 0,-12.295 17.405,0 0,12.295 z m 6.33,11.317 c 1.703,0 3.164,-0.547 4.381,-1.641 1.216,-1.097 1.824,-2.419 1.824,-3.959 l 0,-23.613 c 0,-1.623 -0.608,-2.98 -1.824,-4.074 -1.217,-1.096 -2.678,-1.643 -4.381,-1.643 l -23.736,0 0,-18.259 -12.655,0 0,53.189 36.391,0 z"
           style="fill:#231f20;fill-opacity:1;fill-rule:nonzero;stroke:none"
           id="path32"
           inkscape:connector-curvature="0" /><g
           id="g34"
           transform="translate(434.0752,184.8379)"><path
             d="m 0,0 0,-53.188 -12.294,0 0,17.893 -17.288,0 0,-17.893 -12.534,0 0,53.188 12.534,0 0,-23.977 17.288,0 0,23.977 L 0,0 Z"
             style="fill:#231f20;fill-opacity:1;fill-rule:nonzero;stroke:none"
             id="path36"
             inkscape:connector-curvature="0" /></g><path
           d="m 186.884,89.334 13.26,0 0,22.793 -13.26,0 0,-22.793 z m 17.984,-8.451 -22.707,0 c -1.277,0 -2.365,0.395 -3.272,1.181 -0.91,0.79 -1.364,1.789 -1.364,2.999 l 0,31.337 c 0,1.149 0.454,2.136 1.364,2.955 0.907,0.815 1.995,1.223 3.272,1.223 l 22.707,0 c 1.269,0 2.357,-0.408 3.266,-1.223 0.909,-0.819 1.363,-1.806 1.363,-2.955 l 0,-31.337 c 0,-1.21 -0.454,-2.209 -1.363,-2.999 -0.909,-0.786 -1.997,-1.181 -3.266,-1.181"
           style="fill:#231f20;fill-opacity:1;fill-rule:nonzero;stroke:none"
           id="path38"
           inkscape:connector-curvature="0" /><path
           d="m 239.745,96.42 -12.989,0 0,-7.179 12.989,0 0,7.179 z m -12.989,8.534 12.989,0 0,7.083 -12.989,0 0,-7.083 z m 17.618,15.624 c 1.213,0 2.287,-0.408 3.229,-1.223 0.934,-0.819 1.408,-1.837 1.408,-3.044 l 0,-31.248 c 0,-1.21 -0.474,-2.209 -1.408,-2.999 -0.942,-0.786 -2.016,-1.181 -3.229,-1.181 l -26.883,0 0,39.695 26.883,0 z"
           style="fill:#231f20;fill-opacity:1;fill-rule:nonzero;stroke:none"
           id="path40"
           inkscape:connector-curvature="0" /><g
           id="g42"
           transform="translate(286.2471,120.5781)"><path
             d="m 0,0 0,-35.424 c 0,-1.211 -0.454,-2.228 -1.365,-3.045 -0.906,-0.816 -1.999,-1.226 -3.268,-1.226 l -20.802,0 c -1.271,0 -2.361,0.41 -3.265,1.226 -0.911,0.817 -1.365,1.834 -1.365,3.045 l 0,9.174 0,8.445 9.355,0 0,-13.439 11.264,0 L -9.446,0 0,0 Z"
             style="fill:#231f20;fill-opacity:1;fill-rule:nonzero;stroke:none"
             id="path44"
             inkscape:connector-curvature="0" /></g><g
           id="g46"
           transform="translate(304.5918,112.0371)"><path
             d="m 0,0 0,-7.264 11.353,0 0,-8.353 -11.353,0 0,-7.179 20.615,0 0,-8.358 -29.789,0 0,39.695 29.789,0 L 20.615,0 0,0 Z"
             style="fill:#231f20;fill-opacity:1;fill-rule:nonzero;stroke:none"
             id="path48"
             inkscape:connector-curvature="0" /></g><g
           id="g50"
           transform="translate(353.1855,107.0439)"><path
             d="m 0,0 0,4.993 -11.351,0 0,-22.796 11.351,0 0,4.995 9.354,0 0,-9.172 c 0,-1.211 -0.454,-2.21 -1.366,-2.999 -0.905,-0.787 -2.027,-1.182 -3.356,-1.182 l -20.619,0 c -1.329,0 -2.437,0.395 -3.316,1.182 -0.877,0.789 -1.314,1.788 -1.314,2.999 l 0,31.247 c 0,1.207 0.437,2.225 1.314,3.045 0.879,0.814 1.987,1.222 3.316,1.222 l 20.619,0 c 1.329,0 2.451,-0.408 3.356,-1.222 C 8.9,11.492 9.354,10.474 9.354,9.267 L 9.354,0 0,0 Z"
             style="fill:#231f20;fill-opacity:1;fill-rule:nonzero;stroke:none"
             id="path52"
             inkscape:connector-curvature="0" /></g><g
           id="g54"
           transform="translate(397.3271,112.2197)"><path
             d="m 0,0 -9.174,0 0,-31.337 -9.353,0 0,31.337 -9.175,0 0,8.358 L 0,8.358 0,0 Z"
             style="fill:#231f20;fill-opacity:1;fill-rule:nonzero;stroke:none"
             id="path56"
             inkscape:connector-curvature="0" /></g><g
           id="g58"
           transform="translate(429.3848,80.8828)"><path
             d="m 0,0 -23.34,0 0,8.451 18.617,0 0,7.447 -13.894,0 c -1.273,0 -2.375,0.406 -3.317,1.223 -0.935,0.818 -1.406,1.832 -1.406,3.044 l 0,15.532 c 0,1.152 0.471,2.139 1.406,2.953 0.942,0.82 2.044,1.225 3.317,1.225 l 23.254,0 0,-8.444 -18.53,0 0,-6.995 13.893,0 c 1.277,0 2.367,-0.408 3.273,-1.227 0.913,-0.814 1.364,-1.829 1.364,-3.044 l 0,-15.894 C 4.637,3.061 4.186,2.043 3.273,1.227 2.367,0.41 1.277,0 0,0"
             style="fill:#231f20;fill-opacity:1;fill-rule:nonzero;stroke:none"
             id="path60"
             inkscape:connector-curvature="0" /></g><path
           d="m 177.695,68.254 2.961,0 0,-17.541 -2.961,0 0,17.541 z"
           style="fill:#231f20;fill-opacity:1;fill-rule:nonzero;stroke:none"
           id="path62"
           inkscape:connector-curvature="0" /><g
           id="g64"
           transform="translate(203.1304,68.2539)"><path
             d="m 0,0 2.961,0 0,-17.541 -3.212,0 -9.932,12.801 0,-12.801 -2.963,0 0,17.541 2.963,0 L 0,-13.098 0,0 Z"
             style="fill:#231f20;fill-opacity:1;fill-rule:nonzero;stroke:none"
             id="path66"
             inkscape:connector-curvature="0" /></g><g
           id="g68"
           transform="translate(223.4258,53.4023)"><path
             d="M 0,0 C 1.018,0 1.898,0.17 2.634,0.51 3.37,0.857 4.138,1.403 4.942,2.159 L 6.848,0.199 C 4.991,-1.857 2.737,-2.889 0.089,-2.889 c -2.652,0 -4.852,0.854 -6.602,2.559 -1.743,1.712 -2.62,3.865 -2.62,6.473 0,2.609 0.892,4.783 2.674,6.525 1.779,1.738 4.028,2.605 6.745,2.605 2.72,0 4.991,-1.001 6.813,-3.009 L 5.215,10.209 c -0.837,0.803 -1.623,1.361 -2.371,1.678 -0.741,0.318 -1.616,0.474 -2.616,0.474 -1.775,0 -3.265,-0.568 -4.467,-1.711 -1.208,-1.148 -1.806,-2.611 -1.806,-4.394 0,-1.783 0.593,-3.27 1.792,-4.462 C -3.061,0.596 -1.64,0 0,0"
             style="fill:#231f20;fill-opacity:1;fill-rule:nonzero;stroke:none"
             id="path70"
             inkscape:connector-curvature="0" /></g><g
           id="g72"
           transform="translate(250.4771,64.1133)"><path
             d="m 0,0 c -1.193,1.233 -2.661,1.854 -4.402,1.854 -1.737,0 -3.207,-0.621 -4.4,-1.854 -1.195,-1.238 -1.793,-2.738 -1.793,-4.504 0,-1.768 0.598,-3.264 1.793,-4.502 1.193,-1.238 2.663,-1.856 4.4,-1.856 1.741,0 3.209,0.618 4.402,1.856 1.197,1.238 1.797,2.734 1.797,4.502 0,1.766 -0.6,3.266 -1.797,4.504 m 2.171,-10.979 c -1.772,-1.727 -3.964,-2.595 -6.573,-2.595 -2.607,0 -4.8,0.868 -6.571,2.595 -1.774,1.735 -2.657,3.891 -2.657,6.475 0,2.582 0.883,4.743 2.657,6.471 1.771,1.734 3.964,2.596 6.571,2.596 2.609,0 4.801,-0.862 6.573,-2.596 1.773,-1.728 2.663,-3.889 2.663,-6.471 0,-2.584 -0.89,-4.74 -2.663,-6.475"
             style="fill:#231f20;fill-opacity:1;fill-rule:nonzero;stroke:none"
             id="path74"
             inkscape:connector-curvature="0" /></g><g
           id="g76"
           transform="translate(273.5674,60.0732)"><path
             d="m 0,0 c 0.605,0.517 0.906,1.351 0.906,2.497 0,1.145 -0.311,1.93 -0.929,2.356 -0.621,0.425 -1.722,0.641 -3.31,0.641 l -3.764,0 0,-6.271 3.689,0 c 1.669,0 2.809,0.256 3.408,0.777 m 3.939,2.485 c 0,-2.895 -1.26,-4.719 -3.785,-5.474 l 4.593,-6.371 -3.767,0 -4.187,5.9 -3.89,0 0,-5.9 -2.956,0 0,17.541 6.517,0 c 2.677,0 4.594,-0.454 5.747,-1.36 1.153,-0.9 1.728,-2.348 1.728,-4.336"
             style="fill:#231f20;fill-opacity:1;fill-rule:nonzero;stroke:none"
             id="path78"
             inkscape:connector-curvature="0" /></g><g
           id="g80"
           transform="translate(295.9868,59.4824)"><path
             d="m 0,0 c 0.588,0.629 0.89,1.547 0.89,2.76 0,1.215 -0.38,2.07 -1.13,2.571 -0.75,0.499 -1.931,0.754 -3.538,0.754 l -3.01,0 0,-7.026 3.436,0 C -1.713,-0.941 -0.598,-0.627 0,0 M 2.094,7.238 C 3.312,6.219 3.925,4.649 3.925,2.523 3.925,0.397 3.301,-1.16 2.054,-2.146 0.81,-3.129 -1.104,-3.623 -3.679,-3.623 l -3.109,0 0,-5.147 -2.963,0 0,17.541 6.023,0 c 2.664,0 4.598,-0.513 5.822,-1.533"
             style="fill:#231f20;fill-opacity:1;fill-rule:nonzero;stroke:none"
             id="path82"
             inkscape:connector-curvature="0" /></g><g
           id="g84"
           transform="translate(320.3643,64.1133)"><path
             d="m 0,0 c -1.192,1.233 -2.659,1.854 -4.399,1.854 -1.74,0 -3.209,-0.621 -4.407,-1.854 -1.193,-1.238 -1.789,-2.738 -1.789,-4.504 0,-1.768 0.596,-3.264 1.789,-4.502 1.198,-1.238 2.667,-1.856 4.407,-1.856 1.74,0 3.207,0.618 4.399,1.856 1.195,1.238 1.796,2.734 1.796,4.502 C 1.796,-2.738 1.195,-1.238 0,0 m 2.173,-10.979 c -1.774,-1.727 -3.965,-2.595 -6.572,-2.595 -2.612,0 -4.8,0.868 -6.571,2.595 -1.775,1.735 -2.658,3.891 -2.658,6.475 0,2.582 0.883,4.743 2.658,6.471 1.771,1.734 3.959,2.596 6.571,2.596 2.607,0 4.798,-0.862 6.572,-2.596 1.775,-1.728 2.656,-3.889 2.656,-6.471 0,-2.584 -0.881,-4.74 -2.656,-6.475"
             style="fill:#231f20;fill-opacity:1;fill-rule:nonzero;stroke:none"
             id="path86"
             inkscape:connector-curvature="0" /></g><g
           id="g88"
           transform="translate(343.4551,60.0732)"><path
             d="m 0,0 c 0.607,0.517 0.905,1.351 0.905,2.497 0,1.145 -0.309,1.93 -0.928,2.356 -0.62,0.425 -1.721,0.641 -3.311,0.641 l -3.762,0 0,-6.271 3.688,0 c 1.672,0 2.811,0.256 3.408,0.777 m 3.944,2.485 c 0,-2.895 -1.263,-4.719 -3.791,-5.474 l 4.59,-6.371 -3.764,0 -4.188,5.9 -3.887,0 0,-5.9 -2.959,0 0,17.541 6.52,0 c 2.678,0 4.592,-0.454 5.748,-1.36 1.149,-0.9 1.731,-2.348 1.731,-4.336"
             style="fill:#231f20;fill-opacity:1;fill-rule:nonzero;stroke:none"
             id="path90"
             inkscape:connector-curvature="0" /></g><g
           id="g92"
           transform="translate(366.1836,57.4375)"><path
             d="M 0,0 -3.186,7.231 -6.369,0 0,0 Z m -7.574,-2.731 -1.756,-3.994 -3.162,0 7.724,17.541 3.164,0 7.727,-17.541 -3.164,0 -1.755,3.994 -8.778,0 z"
             style="fill:#231f20;fill-opacity:1;fill-rule:nonzero;stroke:none"
             id="path94"
             inkscape:connector-curvature="0" /></g><g
           id="g96"
           transform="translate(384.4492,65.5381)"><path
             d="m 0,0 0,-14.825 -2.963,0 0,14.825 -5.32,0 0,2.716 13.596,0 L 5.313,0 0,0 Z"
             style="fill:#231f20;fill-opacity:1;fill-rule:nonzero;stroke:none"
             id="path98"
             inkscape:connector-curvature="0" /></g><g
           id="g100"
           transform="translate(409.7559,68.2539)"><path
             d="m 0,0 0,-2.789 -9.357,0 0,-4.641 8.404,0 0,-2.634 -8.404,0 0,-4.688 9.661,0 0,-2.789 -12.618,0 0,17.541 L 0,0 Z"
             style="fill:#231f20;fill-opacity:1;fill-rule:nonzero;stroke:none"
             id="path102"
             inkscape:connector-curvature="0" /></g><g
           id="g104"
           transform="translate(431.1309,59.4961)"><path
             d="m 0,0 c 0,4.018 -2.304,6.019 -6.9,6.019 l -2.959,0 0,-12.013 3.284,0 c 2.13,0 3.753,0.505 4.883,1.517 C -0.564,-3.465 0,-1.975 0,0 M 0.447,6.46 C 2.139,4.929 2.984,2.801 2.984,0.074 c 0,-2.727 -0.822,-4.881 -2.457,-6.47 -1.641,-1.59 -4.152,-2.387 -7.525,-2.387 l -5.821,0 0,17.541 6.016,0 c 3.144,0 5.563,-0.769 7.25,-2.298"
             style="fill:#231f20;fill-opacity:1;fill-rule:nonzero;stroke:none"
             id="path106"
             inkscape:connector-curvature="0" /></g></g></g><g
       id="g108"
       transform="matrix(0.95688029,0,0,0.95688029,288.51571,163.07505)"><path
         d="m 0,0 39.386,-22.696 0,45.458 0,0.018 L 0,45.428 0,45.426 0,0 Z"
         style="fill:#f68712;fill-opacity:1;fill-rule:nonzero;stroke:none"
         id="path110"
         inkscape:connector-curvature="0" /></g><g
       id="g112"
       transform="matrix(0.95688029,0,0,0.95688029,288.54002,163.07505)"><path
         d="m 0,0 -39.417,-22.696 0,45.458 0,0.018 L 0,45.428 0,45.426 0,0 Z"
         style="fill:#fccf29;fill-opacity:1;fill-rule:nonzero;stroke:none"
         id="path114"
         inkscape:connector-curvature="0" /></g><g
       id="g116"
       transform="matrix(0.95688029,0,0,0.95688029,326.20321,141.35655)"><path
         d="M 0,0 -39.36,22.725 -78.777,0 -39.36,-22.73 0,0 Z"
         style="fill:#e45e1d;fill-opacity:1;fill-rule:nonzero;stroke:none"
         id="path118"
         inkscape:connector-curvature="0" /></g><g
       id="g120"
       transform="matrix(0.95688029,0,0,0.95688029,246.16304,192.90943)"><path
         d="m 0,0 43.556,25.005 0.709,0.406 0.701,-0.402 43.543,-25.016 30.116,17.414 4.922,2.844 -24.994,14.435 17.423,10.043 -15.78,9.111 -15.781,9.109 -0.04,-0.025 -0.078,0.051 L 66.92,52.942 44.25,66.03 21.581,52.945 4.216,62.967 4.134,62.92 4.097,62.949 -11.682,53.838 -27.459,44.731 -10.053,34.686 -35.059,20.245 -20.523,11.851 0,0 Z"
         style="fill:#443593;fill-opacity:1;fill-rule:nonzero;stroke:none"
         id="path122"
         inkscape:connector-curvature="0" /></g><g
       id="g124"
       transform="matrix(0.95688029,0,0,0.95688029,283.86403,111.5503)"><path
         d="m 0,0 -44.232,25.546 -10e-4,51.105 -20.526,11.851 -14.541,8.394 -0.004,-29.087 -17.594,10.157 0,-38.699 17.598,-10.166 0.002,-23.797 23.652,-13.655 -19.238,-11.1 15.776,-9.112 15.784,-9.107 0.031,0.027 0.079,-0.053 19.198,11.081 L 0,-40.478 0,-24.978 0,0 Z"
         style="fill:#50ade5;fill-opacity:1;fill-rule:nonzero;stroke:none"
         id="path126"
         inkscape:connector-curvature="0" /></g><g
       id="g128"
       transform="matrix(0.95688029,0,0,0.95688029,335.48227,184.87403)"><path
         d="m 0,0 -0.005,-51.084 -44.268,-25.559 0,-24.961 0,-15.527 23.823,13.756 18.97,-10.946 0.08,0.044 0.041,-0.022 15.773,9.111 15.779,9.102 -19.005,10.971 23.867,13.795 0,23.818 17.578,10.143 0.002,38.701 -17.58,-10.138 0,29.044 -4.93,-2.844 L 0,0 Z"
         style="fill:#94ceee;fill-opacity:1;fill-rule:nonzero;stroke:none"
         id="path130"
         inkscape:connector-curvature="0" /></g><g
       id="g132"
       transform="matrix(1.0232642,0,0,1.0232642,218.24679,38.405452)"><g
         id="g134"
         clip-path="url(#clipPath136)"><g
           id="g140"
           transform="translate(445.4385,113.8857)"><path
             d="M 0,0 1.402,0 C 2.868,0 3.799,0.805 3.799,2.02 3.799,3.391 2.807,3.989 1.355,4.005 0.692,4.005 0.221,3.942 0,3.88 L 0,0 Z M -1.373,4.84 C -0.679,4.982 0.314,5.062 1.26,5.062 2.727,5.062 3.672,4.793 4.333,4.194 4.871,3.721 5.17,2.995 5.17,2.176 5.17,0.771 4.288,-0.158 3.169,-0.536 l 0,-0.049 C 3.986,-0.868 4.476,-1.623 4.73,-2.729 5.076,-4.21 5.327,-5.234 5.548,-5.646 l -1.418,0 c -0.173,0.3 -0.409,1.215 -0.711,2.54 -0.315,1.465 -0.882,2.017 -2.128,2.066 l -1.291,0 0,-4.606 -1.373,0 0,10.486 z"
             style="fill:#231f20;fill-opacity:1;fill-rule:nonzero;stroke:none"
             id="path142"
             inkscape:connector-curvature="0" /></g><g
           id="g144"
           transform="translate(454.8867,113.3457)"><path
             d="m 0,0 c 0,-4.296 -3.481,-7.777 -7.775,-7.777 -4.294,0 -7.777,3.481 -7.777,7.777 0,4.294 3.483,7.776 7.777,7.776 C -3.481,7.776 0,4.294 0,0 Z"
             style="fill:none;stroke:#231f20;stroke-width:0.89700001;stroke-linecap:butt;stroke-linejoin:miter;stroke-miterlimit:10;stroke-dasharray:none;stroke-opacity:1"
             id="path146"
             inkscape:connector-curvature="0" /></g></g></g></g></svg>