<?xml version="1.0" encoding="UTF-8" standalone="no"?>
<!-- Created with Inkscape (http://www.inkscape.org/) -->

<svg
   xmlns:dc="http://purl.org/dc/elements/1.1/"
   xmlns:cc="http://creativecommons.org/ns#"
   xmlns:rdf="http://www.w3.org/1999/02/22-rdf-syntax-ns#"
   xmlns:svg="http://www.w3.org/2000/svg"
   xmlns="http://www.w3.org/2000/svg"
   xmlns:sodipodi="http://sodipodi.sourceforge.net/DTD/sodipodi-0.dtd"
   xmlns:inkscape="http://www.inkscape.org/namespaces/inkscape"
   version="1.1"
   id="svg2"
   xml:space="preserve"
   width="370.41333"
   height="496.74667"
   viewBox="0 0 370.41333 496.74667"
   sodipodi:docname="Aleph_Logo_CMYK.svg"
   inkscape:version="0.92.1 r15371"><metadata
     id="metadata8"><rdf:RDF><cc:Work
         rdf:about=""><dc:format>image/svg+xml</dc:format><dc:type
           rdf:resource="http://purl.org/dc/dcmitype/StillImage" /><dc:title></dc:title></cc:Work></rdf:RDF></metadata><defs
     id="defs6" /><sodipodi:namedview
     pagecolor="#ffffff"
     bordercolor="#666666"
     borderopacity="1"
     objecttolerance="10"
     gridtolerance="10"
     guidetolerance="10"
     inkscape:pageopacity="0"
     inkscape:pageshadow="2"
     inkscape:window-width="526"
     inkscape:window-height="454"
     id="namedview4"
     showgrid="false"
     inkscape:zoom="0.47509125"
     inkscape:cx="185.20667"
     inkscape:cy="248.37334"
     inkscape:window-x="0"
     inkscape:window-y="29"
     inkscape:window-maximized="0"
     inkscape:current-layer="g10" /><g
     id="g10"
     inkscape:groupmode="layer"
     inkscape:label="ink_ext_XXXXXX"
     transform="matrix(1.3333333,0,0,-1.3333333,0,496.74667)"><g
       id="g12"
       transform="scale(0.1)"><path
         d="M 270.152,1230.07 209.355,1051.11 H 329.844 Z M 410.16,811.359 368.777,936.699 H 171.594 L 128.965,811.359 H 0 L 174.031,1342.03 H 365.094 L 539.199,811.359 H 410.16"
         style="fill:#231f20;fill-opacity:1;fill-rule:nonzero;stroke:none"
         id="path14"
         inkscape:connector-curvature="0" /><path
         d="M 747.484,924.539 H 981.152 V 811.359 H 620.855 V 1343.24 H 747.484 V 924.539"
         style="fill:#231f20;fill-opacity:1;fill-rule:nonzero;stroke:none"
         id="path16"
         inkscape:connector-curvature="0" /><path
         d="m 1212.02,1228.84 v -97.37 h 152.14 v -111.99 h -152.14 v -96.148 h 276.26 V 811.359 h -399.2 v 531.881 h 399.2 v -114.4 h -276.26"
         style="fill:#231f20;fill-opacity:1;fill-rule:nonzero;stroke:none"
         id="path18"
         inkscape:connector-curvature="0" /><path
         d="m 1909.43,1230.07 h -174.05 v -122.95 h 174.05 z m 63.3,113.17 c 17.04,0 31.65,-5.47 43.81,-16.4 12.17,-10.98 18.25,-24.19 18.25,-39.59 v -236.14 c 0,-16.23 -6.08,-29.8 -18.25,-40.74 -12.16,-10.96 -26.77,-16.421 -43.81,-16.421 h -237.35 v -182.59 h -126.55 v 531.881 h 363.9"
         style="fill:#231f20;fill-opacity:1;fill-rule:nonzero;stroke:none"
         id="path20"
         inkscape:connector-curvature="0" /><path
         d="M 2565.5,1343.24 V 811.359 h -122.94 v 178.93 h -172.88 v -178.93 h -125.34 v 531.881 h 125.34 v -239.76 h 172.88 v 239.76 h 122.94"
         style="fill:#231f20;fill-opacity:1;fill-rule:nonzero;stroke:none"
         id="path22"
         inkscape:connector-curvature="0" /><path
         d="M 93.5898,388.199 H 226.188 v 227.93 H 93.5898 Z M 273.422,303.691 H 46.3516 c -12.7618,0 -23.6446,3.957 -32.7188,11.821 C 4.53516,323.398 0,333.391 0,345.5 v 313.371 c 0,11.481 4.53516,21.348 13.6328,29.551 9.0742,8.137 19.957,12.219 32.7188,12.219 H 273.422 c 12.691,0 23.574,-4.082 32.668,-12.219 9.09,-8.203 13.629,-18.07 13.629,-29.551 V 345.5 c 0,-12.109 -4.539,-22.102 -13.629,-29.988 -9.094,-7.864 -19.977,-11.821 -32.668,-11.821"
         style="fill:#231f20;fill-opacity:1;fill-rule:nonzero;stroke:none"
         id="path24"
         inkscape:connector-curvature="0" /><path
         d="m 622.191,387.281 v 71.778 H 492.305 V 387.281 Z M 492.305,615.23 v -70.832 h 129.886 v 70.832 z m 176.179,85.411 c 12.129,0 22.868,-4.082 32.286,-12.219 9.347,-8.203 14.085,-18.383 14.085,-30.453 V 345.5 c 0,-12.109 -4.738,-22.102 -14.085,-29.988 -9.418,-7.864 -20.157,-11.821 -32.286,-11.821 H 399.656 v 396.95 h 268.828"
         style="fill:#231f20;fill-opacity:1;fill-rule:nonzero;stroke:none"
         id="path26"
         inkscape:connector-curvature="0" /><path
         d="M 1087.22,700.641 V 346.41 c 0,-12.109 -4.54,-22.289 -13.66,-30.449 -9.05,-8.172 -19.99,-12.27 -32.68,-12.27 H 832.867 c -12.711,0 -23.609,4.098 -32.652,12.27 -9.106,8.16 -13.649,18.34 -13.649,30.449 v 91.731 84.461 h 93.551 V 388.199 h 112.641 v 312.442 h 94.462"
         style="fill:#231f20;fill-opacity:1;fill-rule:nonzero;stroke:none"
         id="path28"
         inkscape:connector-curvature="0" /><path
         d="m 1270.66,615.23 v -72.628 h 113.53 v -83.543 h -113.53 v -71.778 h 206.16 v -83.59 h -297.9 v 396.95 h 297.9 V 615.23 h -206.16"
         style="fill:#231f20;fill-opacity:1;fill-rule:nonzero;stroke:none"
         id="path30"
         inkscape:connector-curvature="0" /><path
         d="M 1756.6,565.301 V 615.23 H 1643.1 V 387.281 h 113.5 v 49.949 h 93.54 V 345.5 c 0,-12.109 -4.53,-22.102 -13.66,-29.988 -9.05,-7.864 -20.27,-11.821 -33.56,-11.821 h -206.19 c -13.29,0 -24.37,3.957 -33.16,11.821 -8.77,7.886 -13.14,17.879 -13.14,29.988 v 312.469 c 0,12.07 4.37,22.25 13.14,30.453 8.79,8.137 19.87,12.219 33.16,12.219 h 206.19 c 13.29,0 24.51,-4.082 33.56,-12.219 9.13,-8.203 13.66,-18.383 13.66,-30.453 v -92.668 h -93.54"
         style="fill:#231f20;fill-opacity:1;fill-rule:nonzero;stroke:none"
         id="path32"
         inkscape:connector-curvature="0" /><path
         d="m 2198.02,617.059 h -91.74 V 303.691 h -93.54 V 617.059 H 1921 v 83.582 h 277.02 v -83.582"
         style="fill:#231f20;fill-opacity:1;fill-rule:nonzero;stroke:none"
         id="path34"
         inkscape:connector-curvature="0" /><path
         d="M 2518.59,303.691 H 2285.2 v 84.508 h 186.17 v 74.481 h -138.95 c -12.72,0 -23.75,4.05 -33.16,12.218 -9.36,8.192 -14.06,18.321 -14.06,30.442 v 155.32 c 0,11.52 4.7,21.391 14.06,29.539 9.41,8.192 20.44,12.242 33.16,12.242 h 232.54 V 618 h -185.29 v -69.949 h 138.92 c 12.78,0 23.68,-4.082 32.74,-12.27 9.12,-8.14 13.63,-18.293 13.63,-30.441 V 346.41 c 0,-12.109 -4.51,-22.289 -13.63,-30.449 -9.06,-8.172 -19.96,-12.27 -32.74,-12.27"
         style="fill:#231f20;fill-opacity:1;fill-rule:nonzero;stroke:none"
         id="path36"
         inkscape:connector-curvature="0" /><path
         d="M 1.69922,177.398 H 31.3086 V 1.98828 H 1.69922 V 177.398"
         style="fill:#231f20;fill-opacity:1;fill-rule:nonzero;stroke:none"
         id="path38"
         inkscape:connector-curvature="0" /><path
         d="M 256.051,177.398 H 285.66 V 1.98828 H 253.535 L 154.219,130 V 1.98828 H 124.59 V 177.398 h 29.629 L 256.051,46.4297 V 177.398"
         style="fill:#231f20;fill-opacity:1;fill-rule:nonzero;stroke:none"
         id="path40"
         inkscape:connector-curvature="0" /><path
         d="m 459.004,28.8906 c 10.18,0 18.984,1.6992 26.34,5.0899 7.355,3.4804 15.043,8.9414 23.086,16.5 L 527.48,30.8789 C 508.918,10.3086 486.379,0 459.895,0 c -26.528,0 -48.524,8.53906 -66.024,25.5898 -17.426,17.1211 -26.195,38.6485 -26.195,64.7188 0,26.1014 8.918,47.8324 26.738,65.2614 17.789,17.379 40.277,26.051 67.445,26.051 27.207,0 49.914,-10.012 68.137,-30.101 l -18.84,-20.54 c -8.367,8.02 -16.23,13.61 -23.715,16.77 -7.414,3.191 -16.164,4.75 -26.156,4.75 -17.754,0 -32.652,-5.68 -44.676,-17.109 -12.074,-11.481 -18.054,-26.11 -18.054,-43.9418 0,-17.8398 5.925,-32.6992 17.914,-44.6211 11.929,-11.9883 26.136,-17.9375 42.535,-17.9375"
         style="fill:#231f20;fill-opacity:1;fill-rule:nonzero;stroke:none"
         id="path42"
         inkscape:connector-curvature="0" /><path
         d="m 729.516,136 c -11.934,12.332 -26.61,18.531 -44.02,18.531 -17.371,0 -32.066,-6.199 -43.996,-18.531 -11.953,-12.391 -17.937,-27.391 -17.937,-45.0391 0,-17.6914 5.984,-32.6406 17.937,-45.0195 11.93,-12.3828 26.625,-18.5703 43.996,-18.5703 17.41,0 32.086,6.1875 44.02,18.5703 11.968,12.3789 17.968,27.3281 17.968,45.0195 0,17.6481 -6,32.6481 -17.968,45.0391 z M 751.227,26.2109 C 733.512,8.94141 711.582,0.25 685.496,0.25 c -26.066,0 -47.996,8.69141 -65.711,25.9609 -17.734,17.3477 -26.57,38.9102 -26.57,64.75 0,25.8201 8.836,47.4301 26.57,64.6991 17.715,17.352 39.645,25.961 65.711,25.961 26.086,0 48.016,-8.609 65.731,-25.961 17.734,-17.269 26.628,-38.879 26.628,-64.6991 0,-25.8398 -8.894,-47.4023 -26.628,-64.75"
         style="fill:#231f20;fill-opacity:1;fill-rule:nonzero;stroke:none"
         id="path44"
         inkscape:connector-curvature="0" /><path
         d="m 960.422,95.6016 c 6.055,5.1604 9.055,13.5004 9.055,24.9684 0,11.442 -3.11,19.289 -9.289,23.551 -6.204,4.258 -17.215,6.418 -33.102,6.418 H 889.449 V 87.8203 h 36.895 c 16.683,0 28.09,2.5703 34.078,7.7813 z m 39.387,24.8474 c 0,-28.9607 -12.598,-47.199 -37.852,-54.7498 L 1007.89,1.98828 H 970.219 L 928.352,61 H 889.449 V 1.98828 H 859.895 V 177.398 h 65.164 c 26.773,0 45.937,-4.539 57.468,-13.589 11.536,-9 17.282,-23.489 17.282,-43.36"
         style="fill:#231f20;fill-opacity:1;fill-rule:nonzero;stroke:none"
         id="path46"
         inkscape:connector-curvature="0" /><path
         d="m 1184.61,89.6914 c 5.88,6.2891 8.9,15.4686 8.9,27.5976 0,12.141 -3.8,20.699 -11.3,25.711 -7.5,4.988 -19.3,7.539 -35.37,7.539 h -30.11 V 80.2695 h 34.37 c 16.38,0 27.53,3.1524 33.51,9.4219 z m 20.94,72.3786 c 12.18,-10.191 18.31,-25.89 18.31,-47.148 0,-21.2618 -6.23,-36.8322 -18.71,-46.7032 -12.44,-9.8204 -31.58,-14.7579 -57.32,-14.7579 h -31.1 V 1.98828 H 1087.1 V 177.398 h 60.24 c 26.63,0 45.97,-5.128 58.21,-15.328"
         style="fill:#231f20;fill-opacity:1;fill-rule:nonzero;stroke:none"
         id="path48"
         inkscape:connector-curvature="0" /><path
         d="m 1428.39,136 c -11.93,12.332 -26.59,18.531 -44,18.531 -17.39,0 -32.09,-6.199 -44.06,-18.531 -11.93,-12.391 -17.89,-27.391 -17.89,-45.0391 0,-17.6914 5.96,-32.6406 17.89,-45.0195 11.97,-12.3828 26.67,-18.5703 44.06,-18.5703 17.41,0 32.07,6.1875 44,18.5703 11.95,12.3789 17.96,27.3281 17.96,45.0195 0,17.6481 -6.01,32.6481 -17.96,45.0391 z M 1450.12,26.2109 C 1432.38,8.94141 1410.47,0.25 1384.39,0.25 c -26.11,0 -47.99,8.69141 -65.7,25.9609 -17.75,17.3477 -26.59,38.9102 -26.59,64.75 0,25.8201 8.84,47.4301 26.59,64.6991 17.71,17.352 39.59,25.961 65.7,25.961 26.08,0 47.99,-8.609 65.73,-25.961 17.75,-17.269 26.56,-38.879 26.56,-64.6991 0,-25.8398 -8.81,-47.4023 -26.56,-64.75"
         style="fill:#231f20;fill-opacity:1;fill-rule:nonzero;stroke:none"
         id="path50"
         inkscape:connector-curvature="0" /><path
         d="m 1659.3,95.6016 c 6.07,5.1604 9.05,13.5004 9.05,24.9684 0,11.442 -3.1,19.289 -9.29,23.551 -6.19,4.258 -17.2,6.418 -33.1,6.418 h -37.62 V 87.8203 h 36.87 c 16.72,0 28.12,2.5703 34.09,7.7813 z m 39.44,24.8474 c 0,-28.9607 -12.64,-47.199 -37.91,-54.7498 l 45.9,-63.71092 h -37.64 L 1627.21,61 h -38.87 V 1.98828 h -29.59 V 177.398 h 65.2 c 26.77,0 45.91,-4.539 57.48,-13.589 11.49,-9 17.31,-23.489 17.31,-43.36"
         style="fill:#231f20;fill-opacity:1;fill-rule:nonzero;stroke:none"
         id="path52"
         inkscape:connector-curvature="0" /><path
         d="m 1886.58,69.2383 -31.85,72.3127 -31.84,-72.3127 z M 1810.84,41.918 1793.28,1.98828 h -31.62 l 77.25,175.40972 h 31.64 L 1947.81,1.98828 h -31.64 L 1898.62,41.918 h -87.78"
         style="fill:#231f20;fill-opacity:1;fill-rule:nonzero;stroke:none"
         id="path54"
         inkscape:connector-curvature="0" /><path
         d="M 2069.24,150.238 V 1.98828 h -29.63 V 150.238 h -53.2 v 27.16 h 135.95 v -27.16 h -53.12"
         style="fill:#231f20;fill-opacity:1;fill-rule:nonzero;stroke:none"
         id="path56"
         inkscape:connector-curvature="0" /><path
         d="m 2322.3,177.398 v -27.886 h -93.57 v -46.403 h 84.04 V 76.7617 h -84.04 V 29.8789 h 96.61 V 1.98828 H 2199.16 V 177.398 h 123.14"
         style="fill:#231f20;fill-opacity:1;fill-rule:nonzero;stroke:none"
         id="path58"
         inkscape:connector-curvature="0" /><path
         d="m 2536.05,89.8203 c 0,40.1797 -23.03,60.1917 -69,60.1917 h -29.59 V 29.8789 h 32.84 c 21.3,0 37.53,5.0508 48.83,15.1797 11.28,10.1211 16.92,25.0195 16.92,44.7617 z m 4.48,64.5977 c 16.91,-15.309 25.37,-36.59 25.37,-63.8477 0,-27.2812 -8.22,-48.8086 -24.57,-64.7109 C 2524.91,9.96094 2499.8,1.98828 2466.07,1.98828 h -58.21 V 177.398 h 60.17 c 31.43,0 55.62,-7.679 72.5,-22.98"
         style="fill:#231f20;fill-opacity:1;fill-rule:nonzero;stroke:none"
         id="path60"
         inkscape:connector-curvature="0" /><path
         d="m 1279.33,2753.55 393.85,-226.96 v 454.77 l -393.85,226.47 v -0.02 -454.26"
         style="fill:#f68712;fill-opacity:1;fill-rule:nonzero;stroke:none"
         id="path62"
         inkscape:connector-curvature="0" /><path
         d="M 1279.58,2753.55 885.414,2526.59 v 454.77 l 394.166,226.47 v -0.02 -454.26"
         style="fill:#fccf29;fill-opacity:1;fill-rule:nonzero;stroke:none"
         id="path64"
         inkscape:connector-curvature="0" /><path
         d="m 1673.18,2526.58 -393.6,227.25 -394.166,-227.25 394.166,-227.3 393.6,227.3"
         style="fill:#e45e1d;fill-opacity:1;fill-rule:nonzero;stroke:none"
         id="path66"
         inkscape:connector-curvature="0" /><path
         d="m 836.715,3065.34 435.565,250.05 7.08,4.06 7.01,-4.02 435.44,-250.16 301.15,174.14 49.23,28.44 -249.94,144.35 174.22,100.43 -157.8,91.12 -157.81,91.09 -0.39,-0.25 -0.78,0.5 -173.77,-100.33 -226.71,130.88 -226.69,-130.85 -173.649,100.23 -0.812,-0.47 -0.379,0.29 -157.782,-91.11 -157.781,-91.08 174.071,-100.45 -250.067,-144.41 145.363,-83.94 205.231,-118.51"
         style="fill:#443593;fill-opacity:1;fill-rule:nonzero;stroke:none"
         id="path68"
         inkscape:connector-curvature="0" /><path
         d="m 1230.71,2215.09 -442.315,255.46 -0.016,511.05 -205.254,118.51 -145.414,83.93 -0.035,-290.86 -175.946,101.57 v -387 l 175.981,-101.66 0.019,-237.96 236.524,-136.55 -192.379,-111 157.758,-91.12 157.84,-91.07 0.304,0.27 0.797,-0.53 191.985,110.81 240.151,-138.63 v 155 249.78"
         style="fill:#51ade5;fill-opacity:1;fill-rule:nonzero;stroke:none"
         id="path70"
         inkscape:connector-curvature="0" /><path
         d="m 1770.16,2981.37 -0.05,-510.84 -442.69,-255.59 v -404.88 l 238.23,137.56 189.7,-109.47 0.8,0.44 0.41,-0.21 157.74,91.1 157.79,91.03 -190.06,109.71 238.67,137.94 v 238.19 l 175.78,101.42 0.02,387.02 -175.8,-101.38 v 290.44 l -49.29,-28.44 -301.25,-174.04"
         style="fill:#94ceee;fill-opacity:1;fill-rule:nonzero;stroke:none"
         id="path72"
         inkscape:connector-curvature="0" /><path
         d="m 2679.13,633.719 h 14.02 c 14.66,0 23.97,8.051 23.97,20.203 0,13.707 -9.92,19.687 -24.43,19.848 -6.64,0 -11.35,-0.629 -13.56,-1.25 z m -13.73,48.402 c 6.94,1.43 16.88,2.219 26.33,2.219 14.67,0 24.12,-2.692 30.73,-8.68 5.38,-4.73 8.37,-11.988 8.37,-20.18 0,-14.05 -8.82,-23.339 -20.01,-27.121 v -0.488 c 8.17,-2.832 13.07,-10.383 15.62,-21.43 3.45,-14.82 5.96,-25.062 8.17,-29.171 h -14.18 c -1.73,2.992 -4.09,12.14 -7.11,25.39 -3.14,14.649 -8.82,20.168 -21.28,20.66 h -12.91 v -46.05 h -13.73 v 104.851"
         style="fill:#231f20;fill-opacity:1;fill-rule:nonzero;stroke:none"
         id="path74"
         inkscape:connector-curvature="0" /><path
         d="m 2773.61,628.32 c 0,-42.961 -34.81,-77.769 -77.75,-77.769 -42.94,0 -77.76,34.808 -77.76,77.769 0,42.942 34.82,77.758 77.76,77.758 42.94,0 77.75,-34.816 77.75,-77.758 z"
         style="fill:none;stroke:#231f20;stroke-width:8.97237015;stroke-linecap:butt;stroke-linejoin:miter;stroke-miterlimit:10;stroke-dasharray:none;stroke-opacity:1"
         id="path76"
         inkscape:connector-curvature="0" /></g></g></svg>