<?xml version="1.0" encoding="UTF-8" standalone="no"?>
<!-- Created with Inkscape (http://www.inkscape.org/) -->

<svg
   xmlns:dc="http://purl.org/dc/elements/1.1/"
   xmlns:cc="http://creativecommons.org/ns#"
   xmlns:rdf="http://www.w3.org/1999/02/22-rdf-syntax-ns#"
   xmlns:svg="http://www.w3.org/2000/svg"
   xmlns="http://www.w3.org/2000/svg"
   xmlns:sodipodi="http://sodipodi.sourceforge.net/DTD/sodipodi-0.dtd"
   xmlns:inkscape="http://www.inkscape.org/namespaces/inkscape"
   id="svg2"
   version="1.1"
   inkscape:version="0.91 r13725"
   xml:space="preserve"
   width="121.625"
   height="50.487499"
   viewBox="0 0 121.625 50.487499"
   sodipodi:docname="BFH_Logo.svg"><metadata
     id="metadata8"><rdf:RDF><cc:Work
         rdf:about=""><dc:format>image/svg+xml</dc:format><dc:type
           rdf:resource="http://purl.org/dc/dcmitype/StillImage" /><dc:title></dc:title></cc:Work></rdf:RDF></metadata><defs
     id="defs6" /><sodipodi:namedview
     pagecolor="#ffffff"
     bordercolor="#666666"
     borderopacity="1"
     objecttolerance="10"
     gridtolerance="10"
     guidetolerance="10"
     inkscape:pageopacity="0"
     inkscape:pageshadow="2"
     inkscape:window-width="1920"
     inkscape:window-height="1016"
     id="namedview4"
     showgrid="false"
     inkscape:zoom="3.3956835"
     inkscape:cx="116.61864"
     inkscape:cy="25.24375"
     inkscape:window-x="0"
     inkscape:window-y="27"
     inkscape:window-maximized="1"
     inkscape:current-layer="g12" /><g
     id="g10"
     inkscape:groupmode="layer"
     inkscape:label="ink_ext_XXXXXX"
     transform="matrix(1.25,0,0,-1.25,0,50.4875)"><g
       id="g12"
       transform="scale(0.1,0.1)"><path
         d="m 329.117,355.207 8.406,0 c 7.207,0 9.758,2.773 9.758,9.082 0,6.231 -2.324,9.082 -9.461,9.082 l -8.703,0 0,-18.164 z m -0.078,24.023 8.559,0 c 6.078,0 7.429,2.547 7.429,7.958 0,5.402 -1.726,8.183 -7.804,8.183 l -8.184,0 0,-16.141 z m -4.879,-29.804 c -1.051,0 -1.953,0.898 -1.953,1.953 l 0,47.82 c 0,1.047 0.902,1.953 1.953,1.953 l 13.285,0 c 10.891,0 14.864,-5.711 14.864,-13.816 0,-5.402 -1.348,-8.332 -6.301,-10.43 5.027,-1.426 8.633,-5.332 8.633,-12.988 0,-10.285 -6.758,-14.492 -16.371,-14.492 l -14.11,0"
         style="fill:#697d91;fill-opacity:1;fill-rule:nonzero;stroke:none"
         id="path14"
         inkscape:connector-curvature="0" /><path
         d="m 380.816,382.91 c -4.355,0 -7.054,-2.254 -7.586,-11.269 l 14.946,0 c 0,8.644 -1.953,11.269 -7.36,11.269 z m 0.825,-34.461 c -9.832,0 -15.391,5.703 -15.391,19.824 0,14.258 5.855,19.735 14.719,19.735 8.929,0 14.035,-5.098 14.035,-18.692 l 0,-1.347 c 0,-0.672 -0.527,-1.199 -1.199,-1.199 l -20.645,0 c 0.145,-10.286 2.403,-12.844 8.633,-12.844 3.227,0 5.332,0.976 7.277,2.336 0.907,0.672 2.18,0.449 2.782,-0.383 l 1.199,-1.57 c 0.601,-0.832 0.449,-2.11 -0.449,-2.707 -3.075,-2.176 -6.231,-3.153 -10.961,-3.153"
         style="fill:#697d91;fill-opacity:1;fill-rule:nonzero;stroke:none"
         id="path16"
         inkscape:connector-curvature="0" /><path
         d="m 410.027,349.426 c -1.047,0 -1.953,0.898 -1.953,1.953 l 0,33.711 c 0,1.043 0.906,1.941 1.953,1.941 l 1.125,0 c 1.129,0 2.106,-0.82 2.328,-1.941 l 0.676,-3.379 c 2.778,3.445 6.231,6.004 10.586,6.004 0.223,0 0.528,0 0.75,-0.078 0.305,-0.078 0.602,-0.371 0.528,-0.672 l -0.528,-5.254 c -0.07,-0.527 -0.597,-0.977 -1.199,-0.91 -0.375,0.078 -0.824,0.078 -1.203,0.078 -3.449,0 -5.781,-1.277 -8.559,-3.828 l 0,-25.672 c 0,-1.055 -0.898,-1.953 -1.949,-1.953 l -2.555,0"
         style="fill:#697d91;fill-opacity:1;fill-rule:nonzero;stroke:none"
         id="path18"
         inkscape:connector-curvature="0" /><path
         d="m 439.551,349.426 c -1.051,0 -1.953,0.898 -1.953,1.953 l 0,33.711 c 0,1.043 0.902,1.941 1.953,1.941 l 1.125,0 c 1.125,0 2.101,-0.82 2.328,-1.875 l 0.601,-2.773 c 3.305,3.301 7.055,5.625 11.485,5.625 5.402,0 9.086,-2.774 9.086,-9.16 l 0,-27.469 c 0,-1.055 -0.906,-1.953 -1.953,-1.953 l -2.555,0 c -1.051,0 -1.949,0.898 -1.949,1.953 l 0,25.449 c 0,4.277 -1.199,5.477 -4.578,5.477 -3.004,0 -6.383,-2.098 -9.086,-4.5 l 0,-26.426 c 0,-1.055 -0.903,-1.953 -1.95,-1.953 l -2.554,0"
         style="fill:#697d91;fill-opacity:1;fill-rule:nonzero;stroke:none"
         id="path20"
         inkscape:connector-curvature="0" /><path
         d="m 512.844,348.449 c -7.207,0 -14.117,3.828 -14.117,15.84 l 0,34.91 c 0,1.047 0.902,1.953 1.953,1.953 l 3.004,0 c 1.046,0 1.953,-0.906 1.953,-1.953 l 0,-33.711 c 0,-7.578 1.426,-11.035 7.953,-11.035 5.41,0 9.16,2.707 11.336,4.805 l 0,39.941 c 0,1.047 0.902,1.953 1.953,1.953 l 3.004,0 c 1.051,0 1.953,-0.906 1.953,-1.953 l 0,-47.82 c 0,-1.055 -0.902,-1.953 -1.953,-1.953 l -1.199,0 c -1.129,0 -2.18,0.828 -2.407,1.875 l -0.75,2.929 c -2.925,-2.929 -7.132,-5.781 -12.683,-5.781"
         style="fill:#697d91;fill-opacity:1;fill-rule:nonzero;stroke:none"
         id="path22"
         inkscape:connector-curvature="0" /><path
         d="m 550.051,349.426 c -1.051,0 -1.953,0.898 -1.953,1.953 l 0,33.711 c 0,1.043 0.902,1.941 1.953,1.941 l 1.121,0 c 1.129,0 2.105,-0.82 2.328,-1.875 l 0.602,-2.773 c 3.304,3.301 7.054,5.625 11.484,5.625 5.406,0 9.086,-2.774 9.086,-9.16 l 0,-27.469 c 0,-1.055 -0.902,-1.953 -1.953,-1.953 l -2.551,0 c -1.051,0 -1.949,0.898 -1.949,1.953 l 0,25.449 c 0,4.277 -1.203,5.477 -4.582,5.477 -3,0 -6.379,-2.098 -9.086,-4.5 l 0,-26.426 c 0,-1.055 -0.899,-1.953 -1.949,-1.953 l -2.551,0"
         style="fill:#697d91;fill-opacity:1;fill-rule:nonzero;stroke:none"
         id="path24"
         inkscape:connector-curvature="0" /><path
         d="m 594.945,394.016 c -2.55,0 -4.425,2.031 -4.425,4.578 0,2.629 1.945,4.66 4.5,4.66 2.625,0 4.582,-1.953 4.582,-4.66 0,-2.547 -1.957,-4.578 -4.657,-4.578 z m -1.129,-44.59 c -1.046,0 -1.945,0.898 -1.945,1.953 l 0,30.625 -3.605,0.605 c -1.125,0.145 -1.953,1.121 -1.953,2.254 l 0,0.227 c 0,1.043 0.898,1.941 1.953,1.941 l 8.105,0 c 1.051,0 1.953,-0.898 1.953,-1.941 l 0,-33.711 c 0,-1.055 -0.902,-1.953 -1.953,-1.953 l -2.555,0"
         style="fill:#697d91;fill-opacity:1;fill-rule:nonzero;stroke:none"
         id="path26"
         inkscape:connector-curvature="0" /><path
         d="m 624.133,349.426 c -1.129,0 -2.18,0.75 -2.555,1.875 l -11.187,33.855 c -0.297,0.977 0.375,1.875 1.351,1.875 l 3.156,0 c 1.122,0 2.176,-0.742 2.473,-1.875 l 5.856,-19.668 c 0.832,-2.703 1.73,-7.207 2.332,-9.754 l 0.07,0 c 0.457,2.246 1.426,6.981 2.332,9.911 l 5.852,19.511 c 0.304,1.133 1.355,1.875 2.48,1.875 l 2.773,0 c 0.977,0 1.657,-0.898 1.356,-1.875 l -11.414,-33.855 c -0.375,-1.125 -1.426,-1.875 -2.547,-1.875 l -2.328,0"
         style="fill:#697d91;fill-opacity:1;fill-rule:nonzero;stroke:none"
         id="path28"
         inkscape:connector-curvature="0" /><path
         d="m 664.07,382.91 c -4.351,0 -7.054,-2.254 -7.582,-11.269 l 14.942,0 c 0,8.644 -1.953,11.269 -7.36,11.269 z m 0.828,-34.461 c -9.835,0 -15.39,5.703 -15.39,19.824 0,14.258 5.859,19.735 14.715,19.735 8.929,0 14.039,-5.098 14.039,-18.692 l 0,-1.347 c 0,-0.672 -0.528,-1.199 -1.199,-1.199 l -20.645,0 c 0.148,-10.286 2.398,-12.844 8.633,-12.844 3.226,0 5.324,0.976 7.277,2.336 0.902,0.672 2.18,0.449 2.777,-0.383 l 1.204,-1.57 c 0.601,-0.832 0.449,-2.11 -0.45,-2.707 -3.082,-2.176 -6.23,-3.153 -10.961,-3.153"
         style="fill:#697d91;fill-opacity:1;fill-rule:nonzero;stroke:none"
         id="path30"
         inkscape:connector-curvature="0" /><path
         d="m 693.293,349.426 c -1.051,0 -1.953,0.898 -1.953,1.953 l 0,33.711 c 0,1.043 0.902,1.941 1.953,1.941 l 1.121,0 c 1.129,0 2.106,-0.82 2.328,-1.941 l 0.676,-3.379 c 2.777,3.445 6.23,6.004 10.586,6.004 0.223,0 0.527,0 0.75,-0.078 0.305,-0.078 0.601,-0.371 0.527,-0.672 l -0.527,-5.254 c -0.07,-0.527 -0.602,-0.977 -1.199,-0.91 -0.375,0.078 -0.825,0.078 -1.203,0.078 -3.454,0 -5.782,-1.277 -8.559,-3.828 l 0,-25.672 c 0,-1.055 -0.898,-1.953 -1.949,-1.953 l -2.551,0"
         style="fill:#697d91;fill-opacity:1;fill-rule:nonzero;stroke:none"
         id="path32"
         inkscape:connector-curvature="0" /><path
         d="m 730.051,348.449 c -4.129,0 -8.11,1.348 -10.887,2.93 -0.902,0.594 -1.199,1.797 -0.68,2.703 l 0.829,1.426 c 0.527,0.976 1.726,1.269 2.628,0.754 2.629,-1.504 5.329,-2.403 8.411,-2.403 5.101,0 6.679,2.02 6.679,5.547 0,4.207 -1.953,5.028 -7.961,6.688 -5.254,1.426 -9.605,4.199 -9.605,11.633 0,5.476 3.527,10.281 11.785,10.281 3.605,0 6.309,-0.594 8.711,-1.57 0.973,-0.45 1.426,-1.653 0.973,-2.629 l -0.676,-1.504 c -0.449,-0.977 -1.574,-1.504 -2.625,-1.055 -2.18,0.977 -3.906,1.281 -6.156,1.281 -4.055,0 -5.93,-1.426 -5.93,-4.648 0,-3.535 1.578,-4.434 6.754,-5.86 5.781,-1.574 11.035,-3.828 11.035,-12.316 0,-7.801 -4.43,-11.258 -13.285,-11.258"
         style="fill:#697d91;fill-opacity:1;fill-rule:nonzero;stroke:none"
         id="path34"
         inkscape:connector-curvature="0" /><path
         d="m 761.602,394.016 c -2.555,0 -4.43,2.031 -4.43,4.578 0,2.629 1.953,4.66 4.504,4.66 2.625,0 4.578,-1.953 4.578,-4.66 0,-2.547 -1.953,-4.578 -4.652,-4.578 z m -1.129,-44.59 c -1.047,0 -1.953,0.898 -1.953,1.953 l 0,30.625 -3.602,0.605 c -1.125,0.145 -1.949,1.121 -1.949,2.254 l 0,0.227 c 0,1.043 0.898,1.941 1.949,1.941 l 8.109,0 c 1.051,0 1.953,-0.898 1.953,-1.941 l 0,-33.711 c 0,-1.055 -0.902,-1.953 -1.953,-1.953 l -2.554,0"
         style="fill:#697d91;fill-opacity:1;fill-rule:nonzero;stroke:none"
         id="path36"
         inkscape:connector-curvature="0" /><path
         d="m 778.992,381.777 c -1.047,0 -1.945,0.911 -1.945,1.953 l 0,1.36 c 0,1.043 0.898,1.941 1.945,1.941 l 2.332,0 0,7.735 c 0,1.132 0.824,2.109 1.875,2.402 l 2.703,0.527 c 0.977,0.227 1.875,-0.527 1.875,-1.504 l 0,-9.16 5.782,0 c 1.05,0 1.953,-0.898 1.953,-1.941 l 0,-1.36 c 0,-1.042 -0.903,-1.953 -1.953,-1.953 l -5.782,0 0,-24.695 c 0,-2.402 0.977,-3.449 3.082,-3.449 0.899,0 1.653,0.148 2.325,0.371 0.976,0.305 2.027,-0.301 2.328,-1.277 l 0.301,-1.125 c 0.226,-1.055 -0.301,-2.098 -1.348,-2.481 -1.203,-0.371 -2.555,-0.672 -4.133,-0.672 -5.102,0 -9.008,2.031 -9.008,8.035 l 0,25.293 -2.332,0"
         style="fill:#697d91;fill-opacity:1;fill-rule:nonzero;stroke:none"
         id="path38"
         inkscape:connector-curvature="0" /><path
         d="m 811.422,334.336 c -1.051,-0.301 -2.102,0.371 -2.402,1.426 l -0.372,1.426 c -0.304,1.054 0.297,2.179 1.348,2.48 4.656,1.496 6.606,3.527 8.484,9.758 l -0.078,0 c -0.898,0 -1.648,0.594 -1.953,1.426 l -10.656,34.304 c -0.301,0.977 0.375,1.875 1.352,1.875 l 3.152,0 c 1.125,0 2.18,-0.742 2.476,-1.875 l 5.782,-20.261 c 0.824,-3.008 1.726,-7.434 2.25,-10.293 l 0.078,0 c 0.523,2.703 1.203,6.609 2.324,10.293 l 6.086,20.261 c 0.371,1.133 1.426,1.875 2.547,1.875 l 2.777,0 c 0.981,0 1.656,-0.898 1.356,-1.875 l -11.864,-36.933 c -3.379,-10.137 -6.304,-12.383 -12.687,-13.887"
         style="fill:#697d91;fill-opacity:1;fill-rule:nonzero;stroke:none"
         id="path40"
         inkscape:connector-curvature="0" /><path
         d="m 337.594,263.555 c 5.707,0 8.406,3.078 8.406,14.64 0,11.629 -2.777,14.715 -8.48,14.715 -5.707,0 -8.411,-3.008 -8.411,-14.637 0,-11.562 2.782,-14.718 8.485,-14.718 z m 0,-5.106 c -9.16,0 -15.391,5.703 -15.391,19.824 0,14.11 6.082,19.735 15.238,19.735 9.161,0 15.469,-5.625 15.469,-19.735 0,-14.121 -6.156,-19.824 -15.316,-19.824"
         style="fill:#697d91;fill-opacity:1;fill-rule:nonzero;stroke:none"
         id="path42"
         inkscape:connector-curvature="0" /><path
         d="m 364.039,291.777 c -1.051,0 -1.953,0.911 -1.953,1.953 l 0,1.36 c 0,1.043 0.902,1.941 1.953,1.941 l 2.176,0 0,6.008 c 0,8.641 4.43,11.191 9.984,11.191 2.176,0 4.281,-0.382 6.082,-1.125 0.977,-0.378 1.426,-1.582 0.977,-2.558 l -0.602,-1.27 c -0.449,-0.976 -1.648,-1.504 -2.707,-1.211 -0.894,0.305 -1.875,0.461 -2.847,0.461 -3.157,0 -4.43,-1.582 -4.43,-5.41 l 0,-6.086 5.105,0 c 1.051,0 1.95,-0.898 1.95,-1.941 l 0,-1.36 c 0,-1.042 -0.899,-1.953 -1.95,-1.953 l -5.105,0 0,-30.398 c 0,-1.055 -0.899,-1.953 -1.953,-1.953 l -2.551,0 c -1.055,0 -1.953,0.898 -1.953,1.953 l 0,30.398 -2.176,0"
         style="fill:#697d91;fill-opacity:1;fill-rule:nonzero;stroke:none"
         id="path44"
         inkscape:connector-curvature="0" /><path
         d="m 421.348,289.23 -2.625,-8.937 12.609,0 -2.477,8.937 c -2.25,8.036 -2.855,10.958 -3.601,14.942 l -0.152,0 c -0.75,-4.133 -1.426,-7.063 -3.754,-14.942 z m -13.813,-29.804 c -0.976,0 -1.652,0.898 -1.347,1.875 l 14.785,48.047 c 0.375,1.121 1.425,1.875 2.55,1.875 l 3.758,0 c 1.121,0 2.176,-0.754 2.477,-1.875 l 14.488,-48.047 c 0.227,-0.977 -0.453,-1.875 -1.43,-1.875 l -3.675,0 c -1.129,0 -2.176,0.75 -2.477,1.875 l -3.68,13.133 -15.988,0 -3.832,-13.133 c -0.297,-1.125 -1.348,-1.875 -2.476,-1.875 l -3.153,0"
         style="fill:#697d91;fill-opacity:1;fill-rule:nonzero;stroke:none"
         id="path46"
         inkscape:connector-curvature="0" /><path
         d="m 471.332,264.004 c 5.332,0 7.656,1.953 7.656,14.043 0,12.082 -1.953,14.414 -7.054,14.414 -3.676,0 -6.231,-1.883 -8.938,-4.434 l 0,-20.339 c 2.18,-2.11 5.184,-3.684 8.336,-3.684 z m -12.836,-19.668 c -1.051,0 -1.953,0.898 -1.953,1.953 l 0,48.801 c 0,1.043 0.902,1.941 1.953,1.941 l 1.121,0 c 1.129,0 2.18,-0.82 2.403,-1.875 l 0.601,-2.402 c 2.859,3.156 6.461,5.254 10.442,5.254 7.207,0 12.835,-4.051 12.835,-19.512 0,-14.121 -4.128,-20.047 -12.914,-20.047 -4.132,0 -7.586,1.875 -9.988,4.207 l 0,-16.367 c 0,-1.055 -0.894,-1.953 -1.945,-1.953 l -2.555,0"
         style="fill:#697d91;fill-opacity:1;fill-rule:nonzero;stroke:none"
         id="path48"
         inkscape:connector-curvature="0" /><path
         d="m 514.355,264.004 c 5.329,0 7.657,1.953 7.657,14.043 0,12.082 -1.953,14.414 -7.055,14.414 -3.684,0 -6.23,-1.883 -8.937,-4.434 l 0,-20.339 c 2.179,-2.11 5.179,-3.684 8.335,-3.684 z M 501.52,244.336 c -1.055,0 -1.954,0.898 -1.954,1.953 l 0,48.801 c 0,1.043 0.899,1.941 1.954,1.941 l 1.121,0 c 1.129,0 2.179,-0.82 2.402,-1.875 l 0.602,-2.402 c 2.855,3.156 6.46,5.254 10.433,5.254 7.207,0 12.844,-4.051 12.844,-19.512 0,-14.121 -4.133,-20.047 -12.914,-20.047 -4.129,0 -7.586,1.875 -9.988,4.207 l 0,-16.367 c 0,-1.055 -0.899,-1.953 -1.954,-1.953 l -2.546,0"
         style="fill:#697d91;fill-opacity:1;fill-rule:nonzero;stroke:none"
         id="path50"
         inkscape:connector-curvature="0" /><path
         d="m 549.426,258.672 c -4.809,0 -6.832,2.558 -6.832,9.16 l 0,43.996 c 0,1.043 0.898,1.953 1.953,1.953 l 2.547,0 c 1.054,0 1.953,-0.91 1.953,-1.953 l 0,-45.195 c 0,-1.875 0.824,-2.629 2.629,-2.629 0.301,0 0.597,0 0.824,0.078 0.375,0 0.754,-0.223 0.824,-0.605 l 0.375,-2.176 c 0.227,-1.047 -0.445,-2.102 -1.496,-2.324 -0.902,-0.149 -1.883,-0.305 -2.777,-0.305"
         style="fill:#697d91;fill-opacity:1;fill-rule:nonzero;stroke:none"
         id="path52"
         inkscape:connector-curvature="0" /><path
         d="m 570.273,304.016 c -2.554,0 -4.429,2.031 -4.429,4.578 0,2.629 1.953,4.66 4.504,4.66 2.625,0 4.578,-1.953 4.578,-4.66 0,-2.547 -1.953,-4.578 -4.653,-4.578 z m -1.128,-44.59 c -1.047,0 -1.954,0.898 -1.954,1.953 l 0,30.625 -3.601,0.605 c -1.125,0.145 -1.949,1.121 -1.949,2.254 l 0,0.227 c 0,1.043 0.898,1.941 1.949,1.941 l 8.109,0 c 1.051,0 1.953,-0.898 1.953,-1.941 l 0,-33.711 c 0,-1.055 -0.902,-1.953 -1.953,-1.953 l -2.554,0"
         style="fill:#697d91;fill-opacity:1;fill-rule:nonzero;stroke:none"
         id="path54"
         inkscape:connector-curvature="0" /><path
         d="m 601.48,292.91 c -4.355,0 -7.054,-2.254 -7.585,-11.269 l 14.945,0 c 0,8.644 -1.953,11.269 -7.36,11.269 z m 0.825,-34.461 c -9.832,0 -15.391,5.703 -15.391,19.824 0,14.258 5.856,19.735 14.719,19.735 8.93,0 14.035,-5.098 14.035,-18.692 l 0,-1.347 c 0,-0.672 -0.527,-1.199 -1.199,-1.199 l -20.645,0 c 0.145,-10.286 2.403,-12.844 8.633,-12.844 3.227,0 5.332,0.976 7.277,2.336 0.907,0.672 2.18,0.449 2.782,-0.383 l 1.199,-1.57 c 0.601,-0.832 0.449,-2.11 -0.449,-2.707 -3.075,-2.176 -6.231,-3.153 -10.961,-3.153"
         style="fill:#697d91;fill-opacity:1;fill-rule:nonzero;stroke:none"
         id="path56"
         inkscape:connector-curvature="0" /><path
         d="m 641.148,264.004 c 3.676,0 6.231,1.504 8.93,4.055 l 0,20.339 c -2.18,2.11 -5.18,4.063 -8.332,4.063 -5.328,0 -7.66,-1.953 -7.66,-14.043 0,-12.09 1.953,-14.414 7.062,-14.414 z m -1.128,-5.555 c -7.207,0 -12.836,4.051 -12.836,19.52 0,14.113 4.129,20.039 12.91,20.039 4.129,0 7.582,-2.246 9.984,-4.578 l 0,18.398 c 0,1.043 0.902,1.953 1.953,1.953 l 2.555,0 c 1.051,0 1.953,-0.91 1.953,-1.953 l 0,-50.449 c 0,-1.055 -0.902,-1.953 -1.953,-1.953 l -1.129,0 c -1.129,0 -2.18,0.75 -2.477,1.875 l -0.527,2.031 c -2.851,-3.156 -6.453,-4.883 -10.433,-4.883"
         style="fill:#697d91;fill-opacity:1;fill-rule:nonzero;stroke:none"
         id="path58"
         inkscape:connector-curvature="0" /><path
         d="m 703.246,258.449 c -5.324,0 -10.355,1.571 -13.961,4.051 -0.902,0.605 -1.199,1.875 -0.597,2.785 l 0.976,1.719 c 0.602,0.906 1.801,1.199 2.625,0.605 3.379,-2.257 6.078,-3.234 10.438,-3.234 6.902,0 9.457,3.156 9.457,8.488 0,6.309 -3.528,8.106 -9.836,10.508 -8.559,3.309 -12.461,6.758 -12.461,15.391 0,8.855 5.558,13.367 14.562,13.367 4.731,0 7.957,-0.906 10.809,-2.559 0.902,-0.527 1.281,-1.726 0.754,-2.695 l -0.977,-1.953 c -0.523,-0.906 -1.722,-1.277 -2.629,-0.75 -2.324,1.348 -4.578,2.019 -7.582,2.019 -4.953,0 -8.105,-2.019 -8.105,-7.207 0,-5.254 2.027,-6.757 8.258,-9.16 8.031,-3.078 14.339,-6.23 14.339,-16.582 0,-7.664 -3.828,-14.793 -16.07,-14.793"
         style="fill:#697d91;fill-opacity:1;fill-rule:nonzero;stroke:none"
         id="path60"
         inkscape:connector-curvature="0" /><path
         d="m 746.238,258.449 c -9.605,0 -14.937,6.309 -14.937,19.824 0,14.336 5.707,19.735 15.012,19.735 3.605,0 6.457,-0.82 9.16,-2.996 0.898,-0.676 0.976,-1.875 0.304,-2.707 l -1.203,-1.504 c -0.75,-0.821 -1.953,-0.899 -2.777,-0.223 -1.656,1.277 -3.227,1.953 -5.707,1.953 -5.703,0 -7.883,-2.472 -7.883,-14.258 0,-11.562 2.402,-14.347 8.41,-14.347 2.324,0 3.903,0.898 5.477,2.179 0.828,0.672 2.105,0.606 2.777,-0.226 l 1.356,-1.426 c 0.75,-0.75 0.671,-2.031 -0.153,-2.707 -2.476,-2.176 -5.554,-3.297 -9.836,-3.297"
         style="fill:#697d91;fill-opacity:1;fill-rule:nonzero;stroke:none"
         id="path62"
         inkscape:connector-curvature="0" /><path
         d="m 775.613,304.016 c -2.55,0 -4.425,2.031 -4.425,4.578 0,2.629 1.953,4.66 4.5,4.66 2.628,0 4.582,-1.953 4.582,-4.66 0,-2.547 -1.954,-4.578 -4.657,-4.578 z m -1.125,-44.59 c -1.05,0 -1.953,0.898 -1.953,1.953 l 0,30.625 -3.605,0.605 c -1.121,0.145 -1.95,1.121 -1.95,2.254 l 0,0.227 c 0,1.043 0.903,1.941 1.95,1.941 l 8.113,0 c 1.047,0 1.949,-0.898 1.949,-1.941 l 0,-33.711 c 0,-1.055 -0.902,-1.953 -1.949,-1.953 l -2.555,0"
         style="fill:#697d91;fill-opacity:1;fill-rule:nonzero;stroke:none"
         id="path64"
         inkscape:connector-curvature="0" /><path
         d="m 806.82,292.91 c -4.355,0 -7.054,-2.254 -7.582,-11.269 l 14.942,0 c 0,8.644 -1.953,11.269 -7.36,11.269 z m 0.825,-34.461 c -9.832,0 -15.387,5.703 -15.387,19.824 0,14.258 5.851,19.735 14.715,19.735 8.929,0 14.039,-5.098 14.039,-18.692 l 0,-1.347 c 0,-0.672 -0.528,-1.199 -1.203,-1.199 l -20.645,0 c 0.149,-10.286 2.402,-12.844 8.633,-12.844 3.226,0 5.332,0.976 7.281,2.336 0.902,0.672 2.18,0.449 2.777,-0.383 l 1.204,-1.57 c 0.597,-0.832 0.449,-2.11 -0.45,-2.707 -3.078,-2.176 -6.23,-3.153 -10.964,-3.153"
         style="fill:#697d91;fill-opacity:1;fill-rule:nonzero;stroke:none"
         id="path66"
         inkscape:connector-curvature="0" /><path
         d="m 836.039,259.426 c -1.055,0 -1.953,0.898 -1.953,1.953 l 0,33.711 c 0,1.043 0.898,1.941 1.953,1.941 l 1.125,0 c 1.129,0 2.106,-0.82 2.328,-1.875 l 0.602,-2.773 c 3.301,3.301 7.054,5.625 11.484,5.625 5.402,0 9.086,-2.774 9.086,-9.16 l 0,-27.469 c 0,-1.055 -0.902,-1.953 -1.953,-1.953 l -2.555,0 c -1.051,0 -1.953,0.898 -1.953,1.953 l 0,25.449 c 0,4.277 -1.199,5.477 -4.574,5.477 -3.004,0 -6.383,-2.098 -9.086,-4.5 l 0,-26.426 c 0,-1.055 -0.898,-1.953 -1.953,-1.953 l -2.551,0"
         style="fill:#697d91;fill-opacity:1;fill-rule:nonzero;stroke:none"
         id="path68"
         inkscape:connector-curvature="0" /><path
         d="m 888.715,258.449 c -9.61,0 -14.942,6.309 -14.942,19.824 0,14.336 5.707,19.735 15.016,19.735 3.606,0 6.461,-0.82 9.16,-2.996 0.903,-0.676 0.977,-1.875 0.297,-2.707 l -1.199,-1.504 c -0.746,-0.821 -1.949,-0.899 -2.774,-0.223 -1.656,1.277 -3.234,1.953 -5.71,1.953 -5.704,0 -7.879,-2.472 -7.879,-14.258 0,-11.562 2.402,-14.347 8.41,-14.347 2.324,0 3.898,0.898 5.476,2.179 0.825,0.672 2.106,0.606 2.778,-0.226 l 1.351,-1.426 c 0.75,-0.75 0.676,-2.031 -0.148,-2.707 -2.477,-2.176 -5.559,-3.297 -9.836,-3.297"
         style="fill:#697d91;fill-opacity:1;fill-rule:nonzero;stroke:none"
         id="path70"
         inkscape:connector-curvature="0" /><path
         d="m 923.531,292.91 c -4.355,0 -7.054,-2.254 -7.586,-11.269 l 14.946,0 c 0,8.644 -1.953,11.269 -7.36,11.269 z m 0.824,-34.461 c -9.835,0 -15.39,5.703 -15.39,19.824 0,14.258 5.855,19.735 14.719,19.735 8.929,0 14.035,-5.098 14.035,-18.692 l 0,-1.347 c 0,-0.672 -0.528,-1.199 -1.199,-1.199 l -20.645,0 c 0.145,-10.286 2.402,-12.844 8.633,-12.844 3.226,0 5.332,0.976 7.277,2.336 0.906,0.672 2.18,0.449 2.781,-0.383 l 1.2,-1.57 c 0.601,-0.832 0.449,-2.11 -0.45,-2.707 -3.074,-2.176 -6.23,-3.153 -10.961,-3.153"
         style="fill:#697d91;fill-opacity:1;fill-rule:nonzero;stroke:none"
         id="path72"
         inkscape:connector-curvature="0" /><path
         d="m 959.684,258.449 c -4.133,0 -8.106,1.348 -10.883,2.93 -0.906,0.594 -1.203,1.797 -0.68,2.703 l 0.828,1.426 c 0.524,0.976 1.727,1.269 2.629,0.754 2.625,-1.504 5.324,-2.403 8.406,-2.403 5.106,0 6.68,2.02 6.68,5.547 0,4.207 -1.953,5.028 -7.957,6.688 -5.254,1.426 -9.609,4.199 -9.609,11.633 0,5.476 3.531,10.281 11.785,10.281 3.605,0 6.308,-0.594 8.711,-1.57 0.976,-0.45 1.426,-1.653 0.976,-2.629 l -0.675,-1.504 c -0.454,-0.977 -1.579,-1.504 -2.629,-1.055 -2.176,0.977 -3.903,1.281 -6.157,1.281 -4.054,0 -5.929,-1.426 -5.929,-4.648 0,-3.535 1.574,-4.434 6.754,-5.86 5.781,-1.574 11.039,-3.828 11.039,-12.316 0,-7.801 -4.434,-11.258 -13.289,-11.258"
         style="fill:#697d91;fill-opacity:1;fill-rule:nonzero;stroke:none"
         id="path74"
         inkscape:connector-curvature="0" /><path
         d="m 139.199,403.938 c 58.168,0 105.336,-47.149 105.336,-105.34 0,-39.071 -18.109,-72.981 -47.418,-91.368 -0.57,-0.363 -0.984,-0.906 -0.984,-1.621 0,-1.289 1.015,-1.613 1.09,-1.644 38.011,-14.711 61.863,-53.531 61.863,-98.613 C 259.086,47.1523 211.898,0 153.73,0 L 14.625,0.03125 C 6.54688,0.03125 0,6.57813 0,14.6328 L 0,389.316 c 0,8.082 6.54688,14.622 14.625,14.622 l 124.574,0"
         style="fill:#697d91;fill-opacity:1;fill-rule:nonzero;stroke:none"
         id="path76"
         inkscape:connector-curvature="0" /><path
         d="m 88.2734,71.5234 c -1.8593,0 -3.4492,1.586 -3.4492,3.4493 l 0,84.4653 c 0,1.855 1.5899,3.449 3.4492,3.449 l 5.3008,0 c 1.8555,0 3.461,-1.594 3.461,-3.449 l 0,-37.415 32.8828,0 0,37.415 c 0,1.855 1.59,3.449 3.445,3.449 l 5.305,0 c 1.852,0 3.445,-1.594 3.445,-3.449 l 0,-84.4653 c 0,-1.8633 -1.593,-3.4493 -3.445,-3.4493 l -5.305,0 c -1.855,0 -3.445,1.586 -3.445,3.4493 l 0,36.3123 -32.8828,0 0,-36.3123 c 0,-1.8633 -1.6055,-3.4493 -3.461,-3.4493 l -5.3008,0"
         style="fill:#fac300;fill-opacity:1;fill-rule:nonzero;stroke:none"
         id="path78"
         inkscape:connector-curvature="0" /><path
         d="m 87.918,241.379 c -1.8516,0 -3.4453,1.586 -3.4453,3.441 l 0,84.481 c 0,1.855 1.5937,3.465 3.4453,3.465 l 50.82,0 c 1.852,0 3.45,-1.61 3.45,-3.465 l 0,-3.578 c 0,-1.856 -1.598,-3.442 -3.45,-3.442 l -42.0583,0 0,-29.367 35.8163,0 c 1.867,0 3.461,-1.586 3.461,-3.445 l 0,-3.59 c 0,-1.859 -1.594,-3.445 -3.461,-3.445 l -35.8163,0 0,-37.614 c 0,-1.855 -1.5859,-3.441 -3.4492,-3.441 l -5.3125,0"
         style="fill:#fac300;fill-opacity:1;fill-rule:nonzero;stroke:none"
         id="path80"
         inkscape:connector-curvature="0" /></g></g></svg>