<?xml version="1.0" encoding="UTF-8" standalone="no"?>
<svg id="svg3692" xmlns="http://www.w3.org/2000/svg" height="100" width="500" version="1.1" viewBox="0 0 500.00001 100">
 <defs id="defs3694">
  <linearGradient id="SVGID_11_-3" y2="337.86" gradientUnits="userSpaceOnUse" x2="353.05" gradientTransform="matrix(3.2871 0 0 3.2871 -1119 -72.7)" y1="316.08" x1="353.05">
   <stop id="stop86-6" stop-color="#27AAE1" offset="0"/>
   <stop id="stop88-7" stop-color="#1C75BC" offset="1"/>
  </linearGradient>
  <linearGradient id="SVGID_12_-5" y2="338.08" gradientUnits="userSpaceOnUse" x2="366.27" gradientTransform="matrix(3.2871 0 0 3.2871 -1119 -72.7)" y1="315.55" x1="366.27">
   <stop id="stop93-3" stop-color="#27AAE1" offset="0"/>
   <stop id="stop95-5" stop-color="#1C75BC" offset="1"/>
  </linearGradient>
  <linearGradient id="SVGID_13_-6" y2="338.08" gradientUnits="userSpaceOnUse" x2="378.54" gradientTransform="matrix(3.2871 0 0 3.2871 -1119 -72.7)" y1="322.1" x1="378.54">
   <stop id="stop100-2" stop-color="#27AAE1" offset="0"/>
   <stop id="stop102-9" stop-color="#1C75BC" offset="1"/>
  </linearGradient>
  <linearGradient id="SVGID_14_-1" y2="338.08" gradientUnits="userSpaceOnUse" x2="394.6" gradientTransform="matrix(3.2871 0 0 3.2871 -1119 -72.7)" y1="322.01" x1="394.6">
   <stop id="stop107-2" stop-color="#27AAE1" offset="0"/>
   <stop id="stop109-7" stop-color="#1C75BC" offset="1"/>
  </linearGradient>
  <linearGradient id="SVGID_15_-0" y2="338.08" gradientUnits="userSpaceOnUse" x2="414.29" gradientTransform="matrix(3.2871 0 0 3.2871 -1119 -72.7)" y1="322.01" x1="414.29">
   <stop id="stop114-9" stop-color="#27AAE1" offset="0"/>
   <stop id="stop116-3" stop-color="#1C75BC" offset="1"/>
  </linearGradient>
  <linearGradient id="SVGID_16_-6" y2="338.08" gradientUnits="userSpaceOnUse" x2="461" gradientTransform="matrix(3.2871 0 0 3.2871 -1119 -72.7)" y1="322.01" x1="461">
   <stop id="stop121-0" stop-color="#27AAE1" offset="0"/>
   <stop id="stop123-6" stop-color="#1C75BC" offset="1"/>
  </linearGradient>
  <linearGradient id="SVGID_17_-2" y2="338.08" gradientUnits="userSpaceOnUse" x2="476.3" gradientTransform="matrix(3.2871 0 0 3.2871 -1119 -72.7)" y1="315.4" x1="476.3">
   <stop id="stop128-6" stop-color="#27AAE1" offset="0"/>
   <stop id="stop130-1" stop-color="#1C75BC" offset="1"/>
  </linearGradient>
  <linearGradient id="SVGID_18_-8" y2="340.71" gradientUnits="userSpaceOnUse" y1="334.26" gradientTransform="matrix(3.2871 0 0 3.2871 -1119 -72.7)" x2="440.96" x1="440.96">
   <stop id="stop137-7" stop-color="#6D6E71" offset="0"/>
   <stop id="stop139-9" stop-color="#414042" offset="1"/>
  </linearGradient>
  <linearGradient id="SVGID_19_-2" y2="332.62" gradientUnits="userSpaceOnUse" y1="313.66" gradientTransform="matrix(3.2871 0 0 3.2871 -1119 -72.7)" x2="440.98" x1="440.98">
   <stop id="stop144-0" stop-color="#27AAE1" offset="0"/>
   <stop id="stop146-2" stop-color="#1C75BC" offset="1"/>
  </linearGradient>
 </defs>
 <g id="layer1" transform="translate(0 -952.36)">
  <path id="path90" fill="url(#SVGID_11_-3)" d="m21.206 1037.9c-4.4705 0-7.4158-3.3529-6.9096-7.3172l8.0272-56.986c0.60812-4.1648 4.671-7.3139 8.941-7.3139h17.165c13.918 0 20.315 8.4315 20.315 17.576 0 8.6353-5.69 13.507-12.902 16.758 5.3843 2.3373 10.565 6.5021 10.565 14.02 0 12.498-11.377 23.263-28.444 23.263h-16.758zm10.667-30.577-2.541 17.678h11.38c7.5177 0 11.377-3.9643 11.377-9.9568 0-4.8781-3.3529-7.7215-8.2277-7.7215h-11.988zm13.507-13.004c3.8624 0 9.0429-2.8434 9.0429-9.1448 0-3.251-1.6239-6.0944-6.1963-6.0944h-12.396l-2.1334 15.239h11.683z"/>
  <path id="path97" fill="url(#SVGID_12_-5)" d="m74.129 1026.6 7.8234-55.767c0.50951-3.3529 3.9643-6.3015 7.9253-6.3015s6.6039 2.7448 6.0944 6.3015l-7.7215 54.547c-0.30242 2.1333-0.20052 2.6428 1.019 4.1648 0.71002 0.917 1.3181 1.5251 1.3181 2.9485 0 3.961-3.1491 6.0944-8.4315 6.0944-4.0629 0-9.5459-1.3214-8.0272-11.988z"/>
  <path id="path104" fill="url(#SVGID_13_-6)" d="m118.53 1038.6c-12.294 0-17.78-8.0272-16.15-19.91l3.7572-26.511c0.5095-3.4548 3.4548-6.0944 7.9253-6.0944s6.6039 2.6396 6.0944 6.0944l-3.7572 26.511c-0.71331 5.1838 1.0157 8.1291 5.4862 8.1291 2.1334 0 4.7729-0.71 8.1258-2.1334 0-0.71 0-1.3214 0.10193-1.9296l4.2667-30.577c0.5095-3.4548 3.251-6.0944 7.9253-6.0944 4.671 0 6.6039 2.6396 6.0944 6.0944l-4.5724 32.609c-0.2038 1.5218 0.30571 2.2351 1.4233 3.5566 0.71002 0.8119 1.0157 1.7257 1.0157 2.7415 0 4.4705-4.0629 6.9096-7.4158 6.9096-2.6429 0-4.4705-1.6272-5.69-3.8624-5.2857 3.3495-10.062 4.4672-14.631 4.4672z"/>
  <path id="path111" fill="url(#SVGID_14_-1)" d="m170.44 1017.9-0.50623 3.3529c-0.5095 3.4548 1.8277 5.69 7.3139 5.69 3.251 0 6.0944-0.8118 9.5492-2.2352 0.40761-0.2038 1.3214-0.6115 3.0472-0.6115 4.3686 0 5.5882 2.7449 5.5882 4.8783 0 7.7215-14.02 9.651-20.824 9.651-13.405 0-20.009-7.7215-18.586-17.78l2.3339-16.962c1.4233-10.259 10.059-18.079 24.177-18.079 11.988 0 17.78 5.9925 17.78 14.828 0 10.973-6.6039 17.882-22.146 17.882-2.6462 0-4.8814-0.2072-7.7281-0.6148zm10.466-21.232c-4.8781 0-7.8234 2.5377-8.4348 6.604l-0.60812 4.3686c3.251 0.3024 6.2982 0.4043 7.3139 0.4043 4.3686 0 7.1134-1.6238 7.1134-6.8044 0-3.251-1.8342-4.5725-5.3843-4.5725z"/>
  <path id="path118" fill="url(#SVGID_15_-0)" d="m265.52 1004.2c0.50622-3.5568-1.2195-6.4002-4.9767-6.4002-2.6429 0-5.5882 1.3215-8.6386 3.5535-0.0987 0.9172-0.0987 1.729-0.20051 2.6429l-3.9643 28.342c-0.50622 3.4548-3.251 6.1963-7.922 6.1963-4.6743 0-6.6039-2.7415-6.0977-6.1963l3.6586-26.31c0.71002-4.6744 0.40761-8.2279-4.0629-8.2279-2.541 0-5.792 1.1176-9.043 2.6397 0 0.3057 0 0.8152-0.10193 1.1176l-4.2667 30.781c-0.50952 3.4548-3.251 6.1963-7.9253 6.1963-4.671 0-6.6039-2.7415-6.0944-6.1963l4.2667-30.781c0.50952-3.3529 0.10193-3.6553-0.2038-4.2667-0.91383-1.522-1.2195-2.4391-1.2195-3.3529 0-3.8591 3.7605-6.502 7.5177-6.502 2.3372 0 3.8624 1.1176 4.98 2.8467 4.9768-2.8467 9.9568-4.4705 14.325-4.4705 4.2667 0 7.922 1.522 11.17 4.4705 5.8939-2.9486 10.466-4.4705 15.953-4.4705 11.988 0 18.385 7.3139 16.86 18.181l-3.0472 21.432c-0.30569 2.1334-0.2038 2.6429 1.0157 4.1649 0.71003 0.9171 1.3214 1.5252 1.3214 2.9485 0 3.9611-3.1491 6.0944-8.4348 6.0944-4.0629 0-9.5492-1.3214-8.0239-11.988l3.1557-22.445z"/>
  <path id="path125" fill="url(#SVGID_16_-6)" d="m401.92 985.79c6.2982 0 15.341 1.522 15.341 7.8234 0 5.0787-4.4705 5.9925-6.8077 5.9925-3.5534 0-5.0786-2.1334-10.055-2.1334-4.1681 0-6.4034 1.5253-6.4034 4.063 0 1.2195 0.71332 2.1334 2.541 2.9486 6.4001 2.9453 18.283 4.4673 18.283 16.048 0 10.871-8.1258 18.079-22.244 18.079-6.2982 0-17.165-1.5253-17.165-7.4158 0-3.0472 3.1491-6.502 7.4158-6.502 3.3529 0 6.1963 2.2352 11.17 2.2352 3.9643 0 6.8077-1.4233 6.8077-4.5724 0-1.4233-0.81193-2.2352-1.7258-2.7415-5.6901-3.4547-19.102-3.9643-19.102-16.054 0.003-10.253 7.521-17.77 21.945-17.77z"/>
  <path id="path132" fill="url(#SVGID_17_-2)" d="m455.87 1002.7c0.5095-3.8592-0.81193-5.7888-4.9768-5.7888-2.8467 0-6.6039 1.1176-9.2467 3.353l-4.4705 32.099c-0.50622 3.5567-3.8591 6.2982-7.8201 6.2982-3.9643 0-6.6039-2.7415-6.0977-6.2982l8.7372-61.966c0.40761-3.251 3.7605-6.2982 7.7215-6.2982s6.7058 2.7415 6.1963 6.2982l-2.5377 18.181c3.0472-1.7258 6.502-2.7415 9.9502-2.7415 13.004 0 17.984 7.3139 16.459 17.774l-3.1491 21.84c-0.20381 2.1334-0.20381 2.6429 1.0157 4.1649 0.71331 0.9171 1.3214 1.5252 1.3214 2.9485 0 3.9611-3.1491 6.0944-8.4315 6.0944-4.0629 0-9.5492-1.3214-8.0272-11.988l3.3562-23.97z"/>
  <path id="path141" d="m357.42 1031.9c-1.8244 0.6279-4.3818 1.5286-5.3054 1.9658-1.4956 0.7067-6.4395 2.1991-9.0462 2.0118-2.6067-0.1874-5.1378-0.8087-5.9037-2.0677 0 0 5.9925-0.3813 6.216-3.4976 0.22353-3.1161-2.61-3.4711-3.5107-3.5369-0.89739-0.065-3.4351-0.4142-9.6609 3.2017-6.2259 3.6158-11.955 4.1056-15.055 3.8821-3.0998-0.2235-4.2634-1.6633-4.2634-1.6633s6.5414 0.7429 6.8734-3.8394c0.0624-0.8546-0.11176-2.8105-4.6973-3.1425-3.9972-0.2892-8.1817 0.6443-11.216 1.9986-1.0453 0.503-2.827 1.6994-4.7927 3.1031 6.6269 7.8464 15.959 13.336 26.563 15.012l0.14792 0.1511 0.23339-0.092c2.1202 0.3157 4.293 0.4833 6.502 0.4833 13.346 0 25.291-5.9827 33.319-15.404-2.6067 0.4372-5.0063 0.9302-6.4034 1.4331z" fill="url(#SVGID_18_-8)"/>
  <path id="path148" d="m330.51 958.33c-24.17 0-43.765 19.595-43.765 43.765 0 5.5159 1.0256 10.795 2.8861 15.654 6.3705-1.0157 11.913-3.1524 11.913-3.1524s5.7887-1.9296 7.2843-2.6363c1.4957-0.7067 6.4395-2.1991 9.0462-2.0117 2.6067 0.1873 5.1378 0.8086 5.9037 2.0676 0 0-5.9925 0.3813-6.216 3.4975-0.22682 3.1162 2.61 3.4712 3.5107 3.537 0.89738 0.066 3.4351 0.4142 9.6609-3.2017 6.2259-3.6158 11.955-4.1056 15.055-3.8821 3.1031 0.2235 4.2634 1.6633 4.2634 1.6633s-6.5414-0.743-6.8734 3.8394c-0.0624 0.8546 0.11176 2.8104 4.6973 3.1425 3.7408 0.2695 7.636-0.5391 10.608-1.752 1.167-0.5753 9.7891-4.9012 15.2-9.6248 0.3813-2.3241 0.5884-4.7106 0.5884-7.1431 0.003-24.167-19.591-43.762-43.762-43.762zm30.58 47.494-4.2025-5.8253c-26.68-32.37-21.05-21.23-32.72-15.03l-25.96 21.129c1.3019 0.5762 0.15121 0.7225 0.0812-0.5001 0-17.402 14.71-36.124 32.112-36.124s31.511 14.108 31.511 31.511c-0.0263 1.1605-0.29584 2.1236-0.42414 3.2709z" fill="url(#SVGID_19_-2)"/>
 </g>
</svg>
