<?xml version="1.0" encoding="UTF-8" standalone="no"?>
<!-- Generator: Adobe Illustrator 16.0.4, SVG Export Plug-In . SVG Version: 6.00 Build 0)  -->

<svg
   xmlns:dc="http://purl.org/dc/elements/1.1/"
   xmlns:cc="http://creativecommons.org/ns#"
   xmlns:rdf="http://www.w3.org/1999/02/22-rdf-syntax-ns#"
   xmlns:svg="http://www.w3.org/2000/svg"
   xmlns="http://www.w3.org/2000/svg"
   xmlns:sodipodi="http://sodipodi.sourceforge.net/DTD/sodipodi-0.dtd"
   xmlns:inkscape="http://www.inkscape.org/namespaces/inkscape"
   version="1.1"
   id="supported__x5F__black_x26_orange"
   x="0px"
   y="0px"
   width="731.3028"
   height="360.30038"
   viewBox="0 0 731.30277 360.30037"
   enable-background="new 0 0 1190.551 841.89"
   xml:space="preserve"
   inkscape:version="0.91 r13725"
   sodipodi:docname="canonical.svg"><metadata
     id="metadata75"><rdf:RDF><cc:Work
         rdf:about=""><dc:format>image/svg+xml</dc:format><dc:type
           rdf:resource="http://purl.org/dc/dcmitype/StillImage" /><dc:title></dc:title></cc:Work></rdf:RDF></metadata><defs
     id="defs73" /><sodipodi:namedview
     pagecolor="#ffffff"
     bordercolor="#666666"
     borderopacity="1"
     objecttolerance="10"
     gridtolerance="10"
     guidetolerance="10"
     inkscape:pageopacity="0"
     inkscape:pageshadow="2"
     inkscape:window-width="1024"
     inkscape:window-height="720"
     id="namedview71"
     showgrid="false"
     fit-margin-top="0"
     fit-margin-left="0"
     fit-margin-right="0"
     fit-margin-bottom="0"
     inkscape:zoom="0.28032165"
     inkscape:cx="-37.708987"
     inkscape:cy="-62.31761"
     inkscape:window-x="0"
     inkscape:window-y="29"
     inkscape:window-maximized="1"
     inkscape:current-layer="supported__x5F__black_x26_orange" /><g
     id="g3"
     transform="translate(-223.7971,-245.0448)"><g
       id="g5"><g
         id="g7"><g
           id="g9"><circle
             cx="871.461"
             cy="356.04199"
             r="35.625999"
             id="circle11"
             style="fill:#e95420" /><path
             d="m 847.235,351.284 c -2.629,0 -4.758,2.129 -4.758,4.758 0,2.626 2.129,4.756 4.758,4.756 2.627,0 4.756,-2.129 4.756,-4.756 -10e-4,-2.629 -2.129,-4.758 -4.756,-4.758 z m 33.961,21.618 c -2.274,1.313 -3.055,4.222 -1.742,6.495 1.314,2.274 4.222,3.055 6.496,1.74 2.275,-1.312 3.056,-4.22 1.742,-6.495 -1.312,-2.273 -4.222,-3.053 -6.496,-1.74 z m -23.629,-16.86 c 0,-4.7 2.334,-8.854 5.906,-11.368 l -3.478,-5.825 c -4.161,2.782 -7.258,7.033 -8.543,12.012 1.5,1.225 2.461,3.09 2.461,5.181 0,2.089 -0.961,3.954 -2.461,5.18 1.283,4.98 4.382,9.23 8.543,12.013 l 3.478,-5.826 c -3.572,-2.514 -5.906,-6.667 -5.906,-11.367 z m 13.893,-13.895 c 7.258,0 13.213,5.564 13.838,12.661 l 6.776,-0.1 c -0.332,-5.239 -2.621,-9.943 -6.139,-13.402 -1.809,0.685 -3.896,0.579 -5.703,-0.462 -1.809,-1.044 -2.943,-2.805 -3.254,-4.716 -1.758,-0.485 -3.605,-0.75 -5.52,-0.75 -3.289,0 -6.396,0.772 -9.156,2.139 l 3.305,5.923 c 1.779,-0.828 3.76,-1.293 5.853,-1.293 z m 0,27.788 c -2.093,0 -4.074,-0.465 -5.853,-1.292 l -3.305,5.923 c 2.76,1.367 5.867,2.14 9.156,2.14 1.914,0 3.762,-0.266 5.52,-0.752 0.311,-1.911 1.445,-3.67 3.254,-4.716 1.808,-1.042 3.896,-1.146 5.703,-0.462 3.518,-3.458 5.807,-8.162 6.139,-13.401 l -6.778,-0.1 c -0.623,7.096 -6.578,12.66 -13.836,12.66 z m 9.734,-30.757 c 2.275,1.314 5.185,0.536 6.496,-1.738 1.312,-2.275 0.535,-5.183 -1.74,-6.497 -2.274,-1.312 -5.182,-0.533 -6.496,1.742 -1.312,2.273 -0.533,5.181 1.74,6.493 z"
             id="path13"
             inkscape:connector-curvature="0"
             style="fill:#ffffff" /></g><g
           id="g15"><path
             d="m 383.062,449.521 c -3.621,0.906 -8.397,1.865 -14.335,2.885 -5.938,1.018 -12.809,1.525 -20.613,1.525 -6.784,0 -12.497,-0.99 -17.134,-2.967 -4.639,-1.979 -8.372,-4.779 -11.196,-8.398 -2.828,-3.619 -4.864,-7.891 -6.107,-12.811 -1.247,-4.92 -1.867,-10.375 -1.867,-16.37 l 0,-49.535 15.777,0 0,46.144 c 0,10.746 1.697,18.436 5.09,23.071 3.392,4.639 9.103,6.957 17.134,6.957 1.696,0 3.448,-0.059 5.259,-0.172 1.809,-0.109 3.505,-0.254 5.09,-0.424 1.583,-0.17 3.024,-0.34 4.325,-0.508 1.299,-0.17 2.231,-0.365 2.8,-0.594 l 0,-74.475 15.776,0 0,85.672 0.001,0 z"
             id="path17"
             inkscape:connector-curvature="0" /><path
             d="m 421.57,367.751 c 1.921,-1.242 4.835,-2.544 8.737,-3.901 3.902,-1.356 8.396,-2.035 13.486,-2.035 6.333,0 11.96,1.131 16.88,3.392 4.919,2.264 9.075,5.429 12.468,9.501 3.394,4.071 5.964,8.935 7.72,14.589 1.752,5.656 2.629,11.875 2.629,18.66 0,7.126 -1.047,13.545 -3.139,19.256 -2.094,5.711 -5.063,10.545 -8.907,14.504 -3.846,3.961 -8.481,7.016 -13.911,9.162 -5.428,2.146 -11.536,3.223 -18.321,3.223 -7.354,0 -13.855,-0.508 -19.51,-1.525 -5.656,-1.02 -10.292,-2.035 -13.91,-3.055 l 0,-126.388 15.776,-2.713 0,47.33 0.002,0 z m 0,70.575 c 1.583,0.453 3.817,0.875 6.701,1.27 2.884,0.398 6.473,0.598 10.772,0.598 8.481,0 15.268,-2.803 20.356,-8.398 5.089,-5.6 7.634,-13.543 7.634,-23.836 0,-4.521 -0.454,-8.763 -1.356,-12.724 -0.907,-3.957 -2.375,-7.378 -4.411,-10.263 -2.036,-2.884 -4.666,-5.146 -7.889,-6.787 -3.225,-1.638 -7.1,-2.459 -11.621,-2.459 -4.301,0 -8.258,0.737 -11.875,2.205 -3.621,1.473 -6.392,2.999 -8.312,4.581 l 10e-4,55.813 0,0 z"
             id="path19"
             inkscape:connector-curvature="0" /><path
             d="m 571.535,449.521 c -3.623,0.906 -8.397,1.865 -14.337,2.885 -5.938,1.018 -12.808,1.525 -20.61,1.525 -6.786,0 -12.499,-0.99 -17.136,-2.967 -4.639,-1.979 -8.372,-4.779 -11.196,-8.398 -2.828,-3.619 -4.863,-7.891 -6.106,-12.811 -1.247,-4.92 -1.867,-10.375 -1.867,-16.37 l 0,-49.535 15.778,0 0,46.144 c 0,10.746 1.696,18.436 5.089,23.071 3.394,4.639 9.104,6.957 17.135,6.957 1.696,0 3.449,-0.059 5.26,-0.172 1.808,-0.109 3.505,-0.254 5.089,-0.424 1.583,-0.17 3.024,-0.34 4.327,-0.508 1.298,-0.17 2.23,-0.365 2.798,-0.594 l 0,-74.475 15.778,0 -0.002,85.672 0,0 z"
             id="path21"
             inkscape:connector-curvature="0" /><path
             d="m 594.265,366.395 c 3.62,-0.904 8.425,-1.866 14.421,-2.885 5.993,-1.017 12.892,-1.525 20.696,-1.525 7.012,0 12.834,0.99 17.473,2.968 4.637,1.979 8.34,4.75 11.111,8.312 2.771,3.563 4.721,7.834 5.854,12.81 1.129,4.978 1.697,10.462 1.697,16.456 l 0,49.536 -15.777,0 0,-46.145 c 0,-5.427 -0.368,-10.062 -1.104,-13.909 -0.736,-3.843 -1.949,-6.956 -3.646,-9.33 -1.696,-2.376 -3.959,-4.1 -6.784,-5.175 -2.83,-1.074 -6.336,-1.611 -10.519,-1.611 -1.697,0 -3.453,0.059 -5.26,0.17 -1.812,0.113 -3.535,0.256 -5.174,0.426 -1.642,0.168 -3.113,0.368 -4.41,0.593 -1.303,0.228 -2.236,0.397 -2.8,0.508 l 0,74.474 -15.778,0 0,-85.673 0,0 z"
             id="path23"
             inkscape:connector-curvature="0" /><path
             d="m 701.989,363.851 33.42,0 0,13.232 -33.42,0 0,40.714 c 0,4.412 0.338,8.058 1.019,10.941 0.678,2.887 1.694,5.146 3.053,6.787 1.356,1.641 3.053,2.801 5.09,3.477 2.035,0.68 4.41,1.021 7.125,1.021 4.861,0 8.709,-0.537 11.535,-1.613 2.824,-1.072 4.75,-1.836 5.768,-2.289 l 3.394,12.895 c -1.584,0.791 -4.385,1.811 -8.396,3.053 -4.016,1.242 -8.565,1.865 -13.658,1.865 -5.991,0 -10.938,-0.762 -14.842,-2.291 -3.901,-1.525 -7.041,-3.814 -9.414,-6.869 -2.377,-3.055 -4.047,-6.814 -5.006,-11.283 -0.963,-4.465 -1.442,-9.641 -1.442,-15.522 l 0,-78.715 15.778,-2.714 0,27.312 -0.004,0 z"
             id="path25"
             inkscape:connector-curvature="0" /><path
             d="m 821.246,449.521 c -3.618,0.906 -8.397,1.865 -14.334,2.885 -5.938,1.018 -12.809,1.525 -20.612,1.525 -6.785,0 -12.498,-0.99 -17.133,-2.967 -4.642,-1.979 -8.371,-4.779 -11.197,-8.398 -2.828,-3.619 -4.863,-7.891 -6.107,-12.811 -1.246,-4.92 -1.867,-10.375 -1.867,-16.37 l 0,-49.535 15.779,0 0,46.144 c 0,10.746 1.695,18.436 5.088,23.071 3.394,4.639 9.104,6.957 17.136,6.957 1.696,0 3.446,-0.059 5.26,-0.172 1.807,-0.109 3.504,-0.254 5.088,-0.424 1.584,-0.17 3.025,-0.34 4.326,-0.508 1.299,-0.17 2.231,-0.365 2.799,-0.594 l 0,-74.475 15.777,0 0,85.672 -0.003,0 z"
             id="path27"
             inkscape:connector-curvature="0" /></g></g></g><g
       id="g29"><path
         d="m 344.308,502.027 c 0,3.102 -0.488,5.801 -1.463,8.098 -0.975,2.301 -2.343,4.215 -4.1,5.748 -1.761,1.531 -3.859,2.684 -6.296,3.447 -2.438,0.766 -5.121,1.148 -8.047,1.148 -1.462,0 -2.993,-0.078 -4.597,-0.234 -1.604,-0.156 -3.013,-0.395 -4.231,-0.705 l 0,-34.9 c 1.219,-0.348 2.628,-0.6 4.231,-0.756 1.604,-0.158 3.135,-0.236 4.597,-0.236 2.926,0 5.608,0.385 8.047,1.15 2.437,0.766 4.535,1.914 6.296,3.447 1.757,1.533 3.125,3.449 4.1,5.746 0.975,2.299 1.463,4.982 1.463,8.047 z m -25.183,14.994 c 0.21,0.035 0.739,0.105 1.595,0.209 0.853,0.104 2.22,0.156 4.101,0.156 2.611,0 4.895,-0.355 6.845,-1.07 1.951,-0.711 3.587,-1.732 4.912,-3.057 1.321,-1.322 2.315,-2.934 2.978,-4.832 0.66,-1.896 0.992,-4.031 0.992,-6.4 0,-2.367 -0.333,-4.492 -0.992,-6.373 -0.662,-1.881 -1.656,-3.482 -2.978,-4.807 -1.324,-1.324 -2.961,-2.344 -4.912,-3.059 -1.95,-0.713 -4.232,-1.07 -6.845,-1.07 -1.881,0 -3.247,0.055 -4.101,0.158 -0.854,0.103 -1.385,0.174 -1.595,0.207 l 0,29.938 z"
         id="path31"
         inkscape:connector-curvature="0"
         style="fill:#888888" /><path
         d="m 349.679,506.625 c 0,-2.369 0.339,-4.432 1.019,-6.189 0.679,-1.76 1.568,-3.23 2.664,-4.418 1.099,-1.182 2.353,-2.061 3.763,-2.637 1.41,-0.574 2.864,-0.861 4.362,-0.861 3.309,0 5.946,1.078 7.915,3.236 1.967,2.164 2.952,5.488 2.952,9.98 0,0.279 -0.009,0.559 -0.025,0.836 -0.019,0.279 -0.045,0.541 -0.078,0.785 l -18.966,0 c 0.104,3.307 0.923,5.852 2.457,7.627 1.53,1.775 3.97,2.664 7.312,2.664 1.848,0 3.31,-0.174 4.391,-0.521 1.079,-0.348 1.861,-0.645 2.352,-0.889 l 0.626,2.926 c -0.49,0.279 -1.404,0.609 -2.743,0.992 -1.342,0.383 -2.917,0.574 -4.729,0.574 -2.369,0 -4.389,-0.35 -6.062,-1.045 -1.672,-0.695 -3.048,-1.672 -4.127,-2.926 -1.08,-1.254 -1.863,-2.744 -2.351,-4.467 -0.489,-1.724 -0.732,-3.611 -0.732,-5.667 z m 19.173,-2.143 c -0.068,-2.82 -0.729,-5.016 -1.983,-6.58 -1.255,-1.57 -3.03,-2.355 -5.33,-2.355 -1.221,0 -2.308,0.244 -3.266,0.732 -0.958,0.486 -1.794,1.143 -2.507,1.959 -0.715,0.818 -1.271,1.77 -1.672,2.848 -0.402,1.08 -0.637,2.211 -0.707,3.396 l 15.465,0 0,0 z"
         id="path33"
         inkscape:connector-curvature="0"
         style="fill:#888888" /><path
         d="m 385.508,520.626 c -1.149,-0.035 -2.151,-0.184 -3.004,-0.445 -0.854,-0.26 -1.566,-0.658 -2.142,-1.199 -0.574,-0.539 -1.012,-1.236 -1.307,-2.092 -0.297,-0.852 -0.444,-1.924 -0.444,-3.213 l 0,-33.436 3.397,-0.629 0,33.961 c 0,0.836 0.078,1.508 0.236,2.012 0.155,0.506 0.391,0.904 0.704,1.201 0.312,0.295 0.723,0.514 1.229,0.652 0.504,0.141 1.105,0.262 1.803,0.367 l -0.472,2.821 z"
         id="path35"
         inkscape:connector-curvature="0"
         style="fill:#888888" /><path
         d="m 395.366,484.994 c 0,0.803 -0.244,1.438 -0.73,1.908 -0.489,0.471 -1.081,0.705 -1.777,0.705 -0.696,0 -1.289,-0.234 -1.774,-0.705 -0.488,-0.471 -0.732,-1.105 -0.732,-1.908 0,-0.801 0.244,-1.436 0.732,-1.906 0.485,-0.469 1.078,-0.705 1.774,-0.705 0.697,0 1.289,0.236 1.777,0.705 0.486,0.47 0.73,1.105 0.73,1.906 z m -0.784,35.162 -3.396,0 0,-27.012 3.396,0 0,27.012 z"
         id="path37"
         inkscape:connector-curvature="0"
         style="fill:#888888" /><path
         d="m 411.192,516.5 c 0.733,-1.496 1.483,-3.213 2.253,-5.146 0.769,-1.932 1.51,-3.934 2.228,-6.008 0.716,-2.072 1.38,-4.162 1.991,-6.27 0.61,-2.107 1.126,-4.084 1.546,-5.932 l 3.396,0 c -0.631,2.475 -1.331,4.912 -2.103,7.314 -0.772,2.402 -1.586,4.756 -2.444,7.053 -0.86,2.301 -1.754,4.514 -2.682,6.637 -0.931,2.125 -1.831,4.127 -2.708,6.008 l -3.166,0 c -0.911,-1.881 -1.824,-3.883 -2.734,-6.008 -0.912,-2.123 -1.797,-4.336 -2.655,-6.637 -0.858,-2.297 -1.674,-4.648 -2.445,-7.053 -0.772,-2.402 -1.473,-4.842 -2.103,-7.314 l 3.604,0 c 0.418,1.848 0.936,3.822 1.545,5.932 0.612,2.105 1.274,4.195 1.992,6.27 0.715,2.074 1.458,4.076 2.229,6.008 0.77,1.933 1.521,3.649 2.256,5.146 z"
         id="path39"
         inkscape:connector-curvature="0"
         style="fill:#888888" /><path
         d="m 425.34,506.625 c 0,-2.369 0.34,-4.432 1.019,-6.189 0.679,-1.76 1.567,-3.23 2.664,-4.418 1.097,-1.182 2.351,-2.061 3.763,-2.637 1.411,-0.574 2.864,-0.861 4.362,-0.861 3.308,0 5.947,1.078 7.915,3.236 1.968,2.164 2.953,5.488 2.953,9.98 0,0.279 -0.01,0.559 -0.027,0.836 -0.018,0.279 -0.044,0.541 -0.078,0.785 l -18.963,0 c 0.104,3.307 0.921,5.852 2.455,7.627 1.532,1.775 3.97,2.664 7.314,2.664 1.845,0 3.309,-0.174 4.389,-0.521 1.079,-0.348 1.862,-0.645 2.351,-0.889 l 0.628,2.926 c -0.489,0.279 -1.403,0.609 -2.743,0.992 -1.344,0.383 -2.918,0.574 -4.729,0.574 -2.37,0 -4.389,-0.35 -6.06,-1.045 -1.672,-0.695 -3.048,-1.672 -4.127,-2.926 -1.082,-1.254 -1.864,-2.744 -2.352,-4.467 -0.492,-1.724 -0.734,-3.611 -0.734,-5.667 z m 19.174,-2.143 c -0.071,-2.82 -0.73,-5.016 -1.985,-6.58 -1.255,-1.57 -3.031,-2.355 -5.33,-2.355 -1.219,0 -2.307,0.244 -3.265,0.732 -0.959,0.486 -1.794,1.143 -2.509,1.959 -0.714,0.818 -1.271,1.77 -1.671,2.848 -0.4,1.08 -0.637,2.211 -0.705,3.396 l 15.465,0 0,0 z"
         id="path41"
         inkscape:connector-curvature="0"
         style="fill:#888888" /><path
         d="m 463.593,492.623 c 1.114,0 2.168,0.088 3.162,0.26 0.99,0.178 1.678,0.352 2.062,0.523 l -0.678,2.926 c -0.279,-0.139 -0.844,-0.287 -1.698,-0.443 -0.854,-0.156 -1.976,-0.234 -3.369,-0.234 -1.463,0 -2.638,0.104 -3.526,0.312 -0.888,0.208 -1.472,0.383 -1.75,0.521 l 0,23.668 -3.396,0 0,-25.758 c 0.87,-0.383 2.071,-0.773 3.605,-1.176 1.528,-0.398 3.394,-0.599 5.588,-0.599 z"
         id="path43"
         inkscape:connector-curvature="0"
         style="fill:#888888" /><path
         d="m 471.041,506.625 c 0,-2.369 0.34,-4.432 1.019,-6.189 0.68,-1.76 1.568,-3.23 2.666,-4.418 1.098,-1.182 2.352,-2.061 3.762,-2.637 1.41,-0.574 2.865,-0.861 4.362,-0.861 3.31,0 5.948,1.078 7.916,3.236 1.967,2.164 2.95,5.488 2.95,9.98 0,0.279 -0.009,0.559 -0.024,0.836 -0.019,0.279 -0.045,0.541 -0.079,0.785 l -18.965,0 c 0.104,3.307 0.922,5.852 2.455,7.627 1.534,1.775 3.972,2.664 7.315,2.664 1.846,0 3.31,-0.174 4.389,-0.521 1.079,-0.347 1.863,-0.645 2.352,-0.889 l 0.626,2.926 c -0.488,0.279 -1.401,0.609 -2.741,0.992 -1.342,0.383 -2.919,0.574 -4.729,0.574 -2.369,0 -4.389,-0.35 -6.061,-1.045 -1.673,-0.695 -3.049,-1.672 -4.129,-2.926 -1.078,-1.254 -1.863,-2.744 -2.351,-4.467 -0.489,-1.724 -0.733,-3.611 -0.733,-5.667 z m 19.176,-2.143 c -0.069,-2.82 -0.731,-5.016 -1.985,-6.58 -1.254,-1.57 -3.031,-2.355 -5.33,-2.355 -1.219,0 -2.306,0.244 -3.265,0.732 -0.958,0.486 -1.793,1.143 -2.507,1.959 -0.714,0.818 -1.273,1.77 -1.673,2.848 -0.4,1.08 -0.635,2.211 -0.706,3.396 l 15.466,0 0,0 z"
         id="path45"
         inkscape:connector-curvature="0"
         style="fill:#888888" /><path
         d="m 521.992,519.32 c -1.011,0.35 -2.3,0.68 -3.867,0.992 -1.566,0.312 -3.554,0.471 -5.957,0.471 -1.983,0 -3.787,-0.322 -5.406,-0.967 -1.62,-0.645 -3.014,-1.574 -4.18,-2.797 -1.168,-1.217 -2.074,-2.695 -2.717,-4.438 -0.646,-1.742 -0.966,-3.709 -0.966,-5.902 0,-2.057 0.269,-3.949 0.811,-5.672 0.537,-1.723 1.331,-3.211 2.375,-4.467 1.046,-1.254 2.325,-2.23 3.841,-2.926 1.516,-0.696 3.248,-1.043 5.199,-1.043 1.775,0 3.316,0.252 4.625,0.756 1.306,0.506 2.253,0.982 2.846,1.438 l 0,-14.523 3.396,-0.627 0,39.705 z m -3.396,-21.262 c -0.313,-0.244 -0.706,-0.506 -1.175,-0.783 -0.47,-0.279 -1.02,-0.541 -1.646,-0.785 -0.627,-0.242 -1.307,-0.445 -2.038,-0.602 -0.731,-0.157 -1.497,-0.234 -2.299,-0.234 -1.672,0 -3.073,0.297 -4.205,0.887 -1.132,0.594 -2.046,1.387 -2.744,2.379 -0.696,0.992 -1.202,2.16 -1.514,3.498 -0.314,1.344 -0.47,2.764 -0.47,4.262 0,3.553 0.888,6.277 2.665,8.176 1.775,1.898 4.126,2.848 7.052,2.848 1.672,0 3.021,-0.08 4.05,-0.234 1.027,-0.156 1.802,-0.322 2.324,-0.498 l 0,-18.914 0,0 z"
         id="path47"
         inkscape:connector-curvature="0"
         style="fill:#888888" /><path
         d="m 546.283,494.765 c 0.595,-0.453 1.543,-0.932 2.849,-1.438 1.309,-0.504 2.848,-0.756 4.625,-0.756 1.948,0 3.683,0.348 5.196,1.043 1.518,0.697 2.795,1.672 3.841,2.926 1.047,1.256 1.838,2.744 2.378,4.467 0.54,1.725 0.811,3.615 0.811,5.672 0,2.193 -0.323,4.16 -0.968,5.902 -0.644,1.742 -1.55,3.223 -2.715,4.439 -1.169,1.221 -2.562,2.15 -4.181,2.795 -1.621,0.645 -3.424,0.967 -5.408,0.967 -2.403,0 -4.389,-0.156 -5.956,-0.471 -1.566,-0.312 -2.855,-0.645 -3.865,-0.992 l 0,-39.078 3.395,-0.629 -0.002,15.153 0,0 z m 0,22.203 c 0.523,0.176 1.298,0.34 2.326,0.498 1.027,0.154 2.377,0.234 4.049,0.234 2.927,0 5.277,-0.949 7.054,-2.848 1.777,-1.899 2.666,-4.625 2.666,-8.176 0,-1.498 -0.158,-2.918 -0.472,-4.262 -0.313,-1.338 -0.818,-2.506 -1.515,-3.498 -0.698,-0.992 -1.612,-1.785 -2.743,-2.379 -1.133,-0.59 -2.535,-0.887 -4.207,-0.887 -0.801,0 -1.564,0.078 -2.298,0.234 -0.731,0.156 -1.411,0.357 -2.038,0.602 -0.627,0.245 -1.176,0.506 -1.645,0.785 -0.472,0.277 -0.863,0.539 -1.179,0.783 l 0.002,18.914 0,0 z"
         id="path49"
         inkscape:connector-curvature="0"
         style="fill:#888888" /><path
         d="m 579.555,520.73 c -1.134,-2.129 -2.235,-4.346 -3.3,-6.643 -1.067,-2.297 -2.063,-4.621 -2.99,-6.969 -0.927,-2.352 -1.773,-4.703 -2.543,-7.049 -0.771,-2.352 -1.431,-4.66 -1.98,-6.928 l 3.604,0 c 0.383,1.674 0.869,3.477 1.461,5.41 0.592,1.933 1.261,3.926 2.009,5.982 0.748,2.055 1.573,4.162 2.479,6.322 0.901,2.158 1.889,4.285 2.959,6.369 0.775,-2.148 1.463,-4.184 2.062,-6.098 0.599,-1.912 1.153,-3.818 1.663,-5.715 0.512,-1.898 1.004,-3.838 1.479,-5.822 0.476,-1.982 0.961,-4.133 1.456,-6.449 l 3.397,0 c -1.134,5.057 -2.408,9.971 -3.822,14.748 -1.414,4.775 -2.959,9.143 -4.635,13.1 -0.662,1.566 -1.342,2.916 -2.042,4.051 -0.699,1.131 -1.479,2.061 -2.334,2.793 -0.857,0.73 -1.854,1.271 -2.99,1.621 -1.138,0.348 -2.476,0.521 -4.014,0.521 -0.875,0 -1.671,-0.104 -2.388,-0.312 -0.718,-0.209 -1.163,-0.365 -1.339,-0.471 l 0.681,-2.82 c 0.141,0.104 0.531,0.252 1.18,0.441 0.646,0.191 1.316,0.287 2.016,0.287 0.978,0 1.858,-0.104 2.646,-0.311 0.784,-0.207 1.491,-0.566 2.12,-1.07 0.629,-0.506 1.196,-1.16 1.702,-1.963 0.505,-0.797 0.992,-1.804 1.463,-3.025 z"
         id="path51"
         inkscape:connector-curvature="0"
         style="fill:#888888" /><path
         d="m 624.119,520.941 c -2.335,0 -4.502,-0.42 -6.503,-1.256 -2.005,-0.836 -3.746,-2.055 -5.226,-3.656 -1.482,-1.602 -2.647,-3.578 -3.502,-5.932 -0.854,-2.35 -1.279,-5.041 -1.279,-8.07 0,-3.029 0.461,-5.723 1.385,-8.072 0.922,-2.35 2.15,-4.326 3.685,-5.93 1.532,-1.602 3.309,-2.812 5.329,-3.631 2.02,-0.819 4.127,-1.229 6.321,-1.229 1.357,0 2.595,0.088 3.709,0.262 1.114,0.174 2.09,0.393 2.927,0.652 0.836,0.262 1.549,0.521 2.142,0.783 0.592,0.262 1.045,0.496 1.357,0.705 l -1.147,3.084 c -0.871,-0.523 -1.977,-1.037 -3.317,-1.541 -1.344,-0.506 -3.005,-0.76 -4.99,-0.76 -2.265,0 -4.239,0.385 -5.929,1.15 -1.69,0.764 -3.109,1.846 -4.26,3.24 -1.148,1.393 -2.012,3.047 -2.586,4.961 -0.575,1.918 -0.86,4.041 -0.86,6.375 0,2.402 0.285,4.572 0.86,6.506 0.574,1.932 1.419,3.578 2.533,4.936 1.114,1.359 2.481,2.404 4.104,3.135 1.618,0.73 3.474,1.098 5.564,1.098 2.297,0 4.22,-0.217 5.771,-0.652 1.549,-0.436 2.725,-0.879 3.525,-1.332 l 0.992,3.029 c -0.244,0.176 -0.662,0.375 -1.254,0.602 -0.593,0.227 -1.341,0.463 -2.246,0.703 -0.907,0.244 -1.95,0.443 -3.133,0.604 -1.186,0.156 -2.51,0.236 -3.972,0.236 z"
         id="path53"
         inkscape:connector-curvature="0"
         style="fill:#888888" /><path
         d="m 648.697,492.519 c 1.774,0 3.28,0.254 4.519,0.758 1.235,0.506 2.237,1.201 3.005,2.088 0.766,0.891 1.322,1.943 1.671,3.164 0.348,1.219 0.523,2.541 0.523,3.969 l 0,17.033 c -0.349,0.104 -0.855,0.217 -1.518,0.338 -0.66,0.123 -1.428,0.254 -2.298,0.393 -0.871,0.141 -1.838,0.252 -2.9,0.34 -1.062,0.086 -2.148,0.131 -3.264,0.131 -1.429,0 -2.743,-0.156 -3.944,-0.471 -1.203,-0.312 -2.249,-0.809 -3.135,-1.488 -0.888,-0.68 -1.586,-1.551 -2.091,-2.611 -0.505,-1.06 -0.759,-2.359 -0.759,-3.893 0,-1.463 0.276,-2.717 0.837,-3.762 0.558,-1.045 1.342,-1.908 2.353,-2.586 1.008,-0.682 2.21,-1.178 3.604,-1.49 1.394,-0.314 2.908,-0.471 4.545,-0.471 0.487,0 1.001,0.027 1.542,0.078 0.538,0.053 1.061,0.123 1.566,0.211 0.505,0.086 0.939,0.174 1.308,0.26 0.365,0.088 0.616,0.166 0.758,0.234 l 0,-1.674 c 0,-0.938 -0.07,-1.852 -0.211,-2.74 -0.139,-0.889 -0.443,-1.688 -0.914,-2.402 -0.47,-0.715 -1.132,-1.289 -1.984,-1.725 -0.854,-0.438 -1.977,-0.654 -3.369,-0.654 -1.984,0 -3.468,0.141 -4.441,0.42 -0.973,0.279 -1.689,0.504 -2.142,0.678 l -0.472,-2.979 c 0.595,-0.279 1.506,-0.539 2.744,-0.783 1.236,-0.245 2.724,-0.366 4.467,-0.366 z m 0.314,25.182 c 1.32,0 2.479,-0.045 3.474,-0.131 0.992,-0.086 1.836,-0.201 2.534,-0.34 l 0,-9.508 c -0.384,-0.174 -0.993,-0.355 -1.83,-0.549 -0.835,-0.189 -1.986,-0.289 -3.449,-0.289 -0.834,0 -1.705,0.062 -2.61,0.186 -0.905,0.121 -1.742,0.383 -2.508,0.783 -0.767,0.398 -1.395,0.949 -1.881,1.645 -0.487,0.697 -0.73,1.621 -0.73,2.77 0,1.012 0.165,1.863 0.495,2.561 0.331,0.699 0.801,1.256 1.41,1.672 0.61,0.418 1.343,0.723 2.194,0.914 0.853,0.19 1.82,0.286 2.901,0.286 z"
         id="path55"
         inkscape:connector-curvature="0"
         style="fill:#888888" /><path
         d="m 666.168,494.085 c 1.01,-0.277 2.366,-0.592 4.071,-0.941 1.707,-0.346 3.796,-0.521 6.271,-0.521 2.054,0 3.769,0.297 5.146,0.889 1.375,0.594 2.475,1.439 3.29,2.533 0.818,1.098 1.403,2.414 1.751,3.945 0.35,1.533 0.522,3.223 0.522,5.066 l 0,15.1 -3.395,0 0,-14 c 0,-1.914 -0.133,-3.537 -0.394,-4.859 -0.261,-1.322 -0.697,-2.402 -1.307,-3.238 -0.608,-0.836 -1.409,-1.438 -2.402,-1.803 -0.994,-0.367 -2.239,-0.549 -3.736,-0.549 -1.602,0 -2.984,0.086 -4.154,0.262 -1.167,0.172 -1.923,0.33 -2.271,0.471 l 0,23.719 -3.396,0 0,-26.072 0.004,0 z"
         id="path57"
         inkscape:connector-curvature="0"
         style="fill:#888888" /><path
         d="m 718.123,506.679 c 0,2.123 -0.306,4.057 -0.914,5.797 -0.609,1.742 -1.463,3.225 -2.561,4.439 -1.099,1.221 -2.396,2.168 -3.894,2.85 -1.497,0.68 -3.152,1.018 -4.964,1.018 -1.812,0 -3.466,-0.338 -4.963,-1.018 -1.497,-0.682 -2.796,-1.629 -3.893,-2.85 -1.097,-1.217 -1.95,-2.697 -2.559,-4.439 -0.611,-1.74 -0.916,-3.674 -0.916,-5.797 0,-2.125 0.305,-4.061 0.916,-5.801 0.607,-1.742 1.462,-3.229 2.559,-4.469 1.097,-1.234 2.396,-2.193 3.893,-2.873 1.497,-0.68 3.151,-1.02 4.963,-1.02 1.812,0 3.467,0.34 4.964,1.02 1.498,0.68 2.795,1.639 3.894,2.873 1.098,1.238 1.95,2.727 2.561,4.469 0.609,1.741 0.914,3.676 0.914,5.801 z m -3.604,0 c 0,-3.383 -0.784,-6.07 -2.351,-8.072 -1.568,-2.006 -3.692,-3.008 -6.377,-3.008 -2.681,0 -4.806,1.002 -6.372,3.008 -1.567,2.002 -2.352,4.689 -2.352,8.072 0,3.377 0.783,6.059 2.352,8.043 1.566,1.984 3.691,2.98 6.372,2.98 2.685,0 4.809,-0.996 6.377,-2.98 1.566,-1.984 2.351,-4.666 2.351,-8.043 z"
         id="path59"
         inkscape:connector-curvature="0"
         style="fill:#888888" /><path
         d="m 724.653,494.085 c 1.011,-0.277 2.367,-0.592 4.075,-0.941 1.705,-0.346 3.795,-0.521 6.269,-0.521 2.056,0 3.771,0.297 5.146,0.889 1.376,0.594 2.474,1.439 3.292,2.533 0.818,1.098 1.404,2.414 1.751,3.945 0.348,1.533 0.521,3.223 0.521,5.066 l 0,15.1 -3.396,0 0,-14 c 0,-1.914 -0.13,-3.537 -0.393,-4.859 -0.262,-1.322 -0.697,-2.402 -1.307,-3.238 -0.607,-0.836 -1.41,-1.438 -2.403,-1.803 -0.991,-0.367 -2.236,-0.549 -3.734,-0.549 -1.603,0 -2.985,0.086 -4.153,0.262 -1.167,0.172 -1.925,0.33 -2.271,0.471 l 0,23.719 -3.396,0 0,-26.074 -10e-4,0 z"
         id="path61"
         inkscape:connector-curvature="0"
         style="fill:#888888" /><path
         d="m 757.506,484.994 c 0,0.803 -0.245,1.438 -0.732,1.908 -0.489,0.471 -1.08,0.705 -1.776,0.705 -0.696,0 -1.288,-0.234 -1.774,-0.705 -0.489,-0.471 -0.732,-1.105 -0.732,-1.908 0,-0.801 0.243,-1.436 0.732,-1.906 0.486,-0.469 1.078,-0.705 1.774,-0.705 0.696,0 1.287,0.236 1.776,0.705 0.487,0.47 0.732,1.105 0.732,1.906 z m -0.783,35.162 -3.396,0 0,-27.012 3.396,0 0,27.012 z"
         id="path63"
         inkscape:connector-curvature="0"
         style="fill:#888888" /><path
         d="m 775.899,520.73 c -2.089,0 -3.938,-0.33 -5.538,-0.99 -1.603,-0.662 -2.934,-1.611 -3.996,-2.852 -1.062,-1.232 -1.872,-2.715 -2.43,-4.438 -0.557,-1.727 -0.836,-3.631 -0.836,-5.723 0,-2.123 0.287,-4.059 0.863,-5.801 0.574,-1.74 1.399,-3.236 2.479,-4.492 1.079,-1.252 2.385,-2.219 3.918,-2.898 1.532,-0.68 3.257,-1.02 5.173,-1.02 1.462,0 2.831,0.121 4.101,0.365 1.271,0.244 2.257,0.561 2.953,0.941 l -0.889,2.924 c -0.697,-0.348 -1.481,-0.627 -2.352,-0.834 -0.871,-0.209 -2.036,-0.314 -3.501,-0.314 -2.996,0 -5.268,0.969 -6.816,2.9 -1.549,1.934 -2.325,4.676 -2.325,8.229 0,1.605 0.176,3.074 0.522,4.416 0.349,1.342 0.914,2.49 1.697,3.447 0.783,0.959 1.794,1.707 3.029,2.246 1.235,0.539 2.743,0.811 4.52,0.811 1.463,0 2.69,-0.164 3.685,-0.496 0.992,-0.33 1.715,-0.619 2.168,-0.861 l 0.73,2.926 c -0.627,0.35 -1.611,0.688 -2.951,1.02 -1.337,0.328 -2.739,0.494 -4.204,0.494 z"
         id="path65"
         inkscape:connector-curvature="0"
         style="fill:#888888" /><path
         d="m 796.735,492.519 c 1.778,0 3.282,0.254 4.52,0.758 1.236,0.506 2.237,1.201 3.005,2.088 0.767,0.891 1.322,1.943 1.673,3.164 0.348,1.219 0.521,2.541 0.521,3.969 l 0,17.033 c -0.348,0.104 -0.854,0.217 -1.516,0.338 -0.661,0.123 -1.429,0.254 -2.299,0.393 -0.87,0.141 -1.837,0.252 -2.898,0.34 -1.063,0.086 -2.153,0.131 -3.267,0.131 -1.428,0 -2.742,-0.156 -3.943,-0.471 -1.202,-0.312 -2.249,-0.809 -3.138,-1.488 -0.885,-0.68 -1.582,-1.551 -2.087,-2.611 -0.505,-1.06 -0.759,-2.359 -0.759,-3.893 0,-1.463 0.278,-2.717 0.837,-3.762 0.557,-1.045 1.34,-1.908 2.35,-2.586 1.01,-0.682 2.213,-1.178 3.605,-1.49 1.394,-0.314 2.907,-0.471 4.545,-0.471 0.488,0 1.003,0.027 1.542,0.078 0.54,0.053 1.062,0.123 1.566,0.211 0.505,0.086 0.94,0.174 1.308,0.26 0.364,0.088 0.615,0.166 0.757,0.234 l 0,-1.674 c 0,-0.938 -0.07,-1.852 -0.208,-2.74 -0.141,-0.889 -0.444,-1.688 -0.915,-2.402 -0.47,-0.715 -1.132,-1.289 -1.984,-1.725 -0.854,-0.438 -1.979,-0.654 -3.372,-0.654 -1.982,0 -3.466,0.141 -4.438,0.42 -0.979,0.279 -1.691,0.504 -2.144,0.678 l -0.471,-2.979 c 0.593,-0.279 1.506,-0.539 2.745,-0.783 1.234,-0.245 2.723,-0.366 4.465,-0.366 z m 0.314,25.182 c 1.323,0 2.481,-0.045 3.475,-0.131 0.992,-0.086 1.838,-0.201 2.533,-0.34 l 0,-9.508 c -0.382,-0.174 -0.991,-0.355 -1.829,-0.549 -0.835,-0.189 -1.983,-0.289 -3.447,-0.289 -0.837,0 -1.707,0.062 -2.612,0.186 -0.906,0.121 -1.742,0.383 -2.507,0.783 -0.767,0.398 -1.396,0.949 -1.883,1.645 -0.487,0.697 -0.731,1.621 -0.731,2.77 0,1.012 0.167,1.863 0.497,2.561 0.331,0.699 0.801,1.256 1.411,1.672 0.61,0.418 1.341,0.723 2.194,0.914 0.852,0.19 1.818,0.286 2.899,0.286 z"
         id="path67"
         inkscape:connector-curvature="0"
         style="fill:#888888" /><path
         d="m 820.987,520.626 c -1.147,-0.035 -2.15,-0.184 -3.005,-0.445 -0.853,-0.26 -1.565,-0.658 -2.143,-1.199 -0.573,-0.539 -1.013,-1.236 -1.306,-2.092 -0.296,-0.852 -0.444,-1.924 -0.444,-3.213 l 0,-33.436 3.396,-0.629 0,33.961 c 0,0.836 0.079,1.508 0.236,2.012 0.157,0.506 0.393,0.904 0.706,1.201 0.312,0.295 0.722,0.514 1.228,0.652 0.505,0.141 1.104,0.262 1.803,0.367 l -0.471,2.821 z"
         id="path69"
         inkscape:connector-curvature="0"
         style="fill:#888888" /></g></g><rect
     style="fill:none;fill-opacity:1;stroke:none;stroke-width:2.9000001;stroke-miterlimit:4.0999999;stroke-dasharray:2.9, 17.4;stroke-dashoffset:0;stroke-opacity:1"
     id="rect3403"
     width="731.3028"
     height="360.30038"
     x="0"
     y="0" /></svg>