<?xml version="1.0" encoding="UTF-8" standalone="no"?>
<!-- Created with Inkscape (http://www.inkscape.org/) -->

<svg
   xmlns:dc="http://purl.org/dc/elements/1.1/"
   xmlns:cc="http://creativecommons.org/ns#"
   xmlns:rdf="http://www.w3.org/1999/02/22-rdf-syntax-ns#"
   xmlns:svg="http://www.w3.org/2000/svg"
   xmlns="http://www.w3.org/2000/svg"
   xmlns:sodipodi="http://sodipodi.sourceforge.net/DTD/sodipodi-0.dtd"
   xmlns:inkscape="http://www.inkscape.org/namespaces/inkscape"
   id="svg3065"
   version="1.1"
   inkscape:version="0.48.4 r9939"
   width="1264.2"
   height="402.41125"
   xml:space="preserve"
   sodipodi:docname="CatalystLogo_RGB.svg"><metadata
     id="metadata3071"><rdf:RDF><cc:Work
         rdf:about=""><dc:format>image/svg+xml</dc:format><dc:type
           rdf:resource="http://purl.org/dc/dcmitype/StillImage" /><dc:title></dc:title></cc:Work></rdf:RDF></metadata><defs
     id="defs3069"><clipPath
       clipPathUnits="userSpaceOnUse"
       id="clipPath3079"><path
         d="m 0,321.929 1011.362,0 L 1011.362,0 0,0 0,321.929 z"
         id="path3081" /></clipPath></defs><sodipodi:namedview
     pagecolor="#ffffff"
     bordercolor="#666666"
     borderopacity="1"
     objecttolerance="10"
     gridtolerance="10"
     guidetolerance="10"
     inkscape:pageopacity="0"
     inkscape:pageshadow="2"
     inkscape:window-width="1920"
     inkscape:window-height="1028"
     id="namedview3067"
     showgrid="false"
     inkscape:zoom="1.1295681"
     inkscape:cx="598.15847"
     inkscape:cy="175.71309"
     inkscape:window-x="-8"
     inkscape:window-y="-8"
     inkscape:window-maximized="1"
     inkscape:current-layer="g3073" /><g
     id="g3073"
     inkscape:groupmode="layer"
     inkscape:label="CatalystLogo_RGB"
     transform="matrix(1.25,0,0,-1.25,0,402.41125)"><g
       clip-path="url(#clipPath3079)"
       id="g3077"><g
         transform="translate(160.9678,121.6758)"
         id="g3083"><path
           inkscape:connector-curvature="0"
           id="path3085"
           style="fill:#190f10;fill-opacity:1;fill-rule:nonzero;stroke:none"
           d="m 0,0 0,-9.995 c 0,-3.016 -2.576,-5.509 -5.619,-5.509 l -52.113,0 c -13.16,0 -22.752,11.015 -22.752,22.983 l 0,47.535 c 0,12.458 10.073,22.933 22.94,22.933 l 52.085,0 C -2.18,77.947 0,75.237 0,72.484 l 0,-9.991 c 0,-2.777 -2.174,-5.432 -5.461,-5.432 l -44.872,0 c -2.961,0 -5.472,-2.325 -5.472,-5.471 l 0,-40.721 c 0,-3.027 2.491,-5.446 5.472,-5.446 l 44.714,0 C -2.443,5.423 0,2.858 0,0" /></g><g
         transform="translate(204.2715,127.0986)"
         id="g3087"><path
           inkscape:connector-curvature="0"
           id="path3089"
           style="fill:#190f10;fill-opacity:1;fill-rule:nonzero;stroke:none"
           d="m 0,0 c -3.214,0 -5.477,2.609 -5.477,5.438 l 0,7.775 c 0,3.033 2.453,5.436 5.477,5.436 l 38.43,0 L 38.43,0 0,0 z m 40.153,72.524 -60.365,0 c -3.316,0 -5.47,-2.664 -5.47,-5.463 l 0,-9.991 c 0,-2.855 2.307,-5.432 5.47,-5.432 l 53.178,0 c 3.268,0 5.464,-2.725 5.464,-5.46 l 0,-6.619 -45.301,0 c -11.881,0 -22.953,-9.3 -22.953,-22.946 l 0,-14.557 c 0,-12.639 10.106,-22.983 22.953,-22.983 l 69.965,0 0,70.518 c 0,11.723 -9.387,22.933 -22.941,22.933" /></g><g
         transform="translate(336.3071,122.0215)"
         id="g3091"><path
           inkscape:connector-curvature="0"
           id="path3093"
           style="fill:#190f10;fill-opacity:1;fill-rule:nonzero;stroke:none"
           d="m 0,0 0,-10.341 c 0,-2.991 -2.316,-5.509 -5.633,-5.509 l -25.055,0 c -13.283,0 -22.943,10.312 -22.943,22.99 l 0,99.317 25.202,0 0,-28.855 17.964,0 c 3.126,0 5.444,-2.534 5.444,-5.488 l 0,-9.967 c 0,-3.078 -2.455,-5.432 -5.483,-5.432 l -17.925,0 0,-45.77 c 0,-3.367 2.758,-5.43 5.434,-5.43 l 17.543,0 C -2.507,5.515 0,3.113 0,0" /></g><g
         transform="translate(376.6455,127.0986)"
         id="g3095"><path
           inkscape:connector-curvature="0"
           id="path3097"
           style="fill:#190f10;fill-opacity:1;fill-rule:nonzero;stroke:none"
           d="m 0,0 c -3.219,0 -5.453,2.609 -5.453,5.438 l 0,7.775 c 0,3.033 2.424,5.436 5.453,5.436 l 38.437,0 L 38.437,0 0,0 z m 40.153,72.524 -60.362,0 c -3.317,0 -5.452,-2.664 -5.452,-5.463 l 0,-9.991 c 0,-2.855 2.296,-5.432 5.452,-5.432 l 53.177,0 c 3.262,0 5.469,-2.725 5.469,-5.46 l 0,-6.619 -45.311,0 c -11.88,0 -22.945,-9.3 -22.945,-22.946 l 0,-14.557 c 0,-12.639 10.107,-22.983 22.945,-22.983 l 69.984,0 0,70.518 c 0,11.723 -9.384,22.933 -22.957,22.933" /></g><path
         inkscape:connector-curvature="0"
         id="path3099"
         style="fill:#190f10;fill-opacity:1;fill-rule:nonzero;stroke:none"
         d="m 481.406,106.172 -24.492,0 0,122.306 24.492,0 0,-122.306 z" /><g
         transform="translate(589.7803,194.4224)"
         id="g3101"><path
           inkscape:connector-curvature="0"
           id="path3103"
           style="fill:#190f10;fill-opacity:1;fill-rule:nonzero;stroke:none"
           d="m 0,0 0,-98.869 c 0,-12.237 -9.535,-22.981 -22.97,-22.981 l -60.718,0 c -3.034,0 -5.468,2.481 -5.468,5.436 l 0,9.905 c 0,2.72 2.277,5.425 5.468,5.425 l 52.034,0 c 3.069,0 5.437,2.529 5.437,5.464 l 0,7.67 -44.447,0 c -12.734,0 -22.955,10.033 -22.955,22.928 l 0,65.022 c 0,2.923 2.314,5.443 5.448,5.443 l 13.738,0 c 3.386,0 5.468,-2.848 5.468,-5.443 l 0,-61.713 c 0,-2.814 2.266,-5.446 5.455,-5.446 l 37.606,0 0,67.176 c 0,2.765 2.188,5.426 5.443,5.426 l 14.995,0 C -2.026,5.443 0,2.636 0,0" /></g><g
         transform="translate(700.1445,129.1543)"
         id="g3105"><path
           inkscape:connector-curvature="0"
           id="path3107"
           style="fill:#190f10;fill-opacity:1;fill-rule:nonzero;stroke:none"
           d="m 0,0 c 0,-11.36 -8.999,-22.982 -22.969,-22.982 l -67.364,0 c -3.349,0 -5.442,2.801 -5.442,5.508 l 0,9.995 c 0,2.706 2.23,5.423 5.442,5.423 l 61.863,0 c 3.093,0 5.456,2.485 5.456,5.433 l 0,7.533 c 0,3.087 -2.546,5.428 -5.456,5.428 l -44.361,0 c -13.189,0 -22.944,10.843 -22.944,22.986 l 0,8.445 c 0,11.782 9.444,22.942 22.944,22.942 l 67.379,0 C -2.176,70.711 0,68.025 0,65.267 l 0,-9.988 c 0,-2.755 -2.165,-5.461 -5.452,-5.461 l -60.775,0 c -3.093,0 -5.459,-2.444 -5.459,-5.478 l 0,-1.632 c 0,-2.965 2.386,-5.447 5.459,-5.447 l 43.258,0 C -9.385,37.261 0,26.262 0,14.305 L 0,0 z" /></g><g
         transform="translate(784.5029,122.0215)"
         id="g3109"><path
           inkscape:connector-curvature="0"
           id="path3111"
           style="fill:#190f10;fill-opacity:1;fill-rule:nonzero;stroke:none"
           d="m 0,0 0,-10.341 c 0,-2.991 -2.312,-5.509 -5.645,-5.509 l -41.263,0 c -13.292,0 -22.957,10.312 -22.957,22.99 l 0,99.317 25.197,0 0,-28.855 17.977,0 c 3.119,0 5.447,-2.534 5.447,-5.488 l 0,-9.967 c 0,-3.078 -2.449,-5.432 -5.49,-5.432 l -17.934,0 0,-45.77 c 0,-3.367 2.771,-5.43 5.461,-5.43 l 33.747,0 C -2.51,5.515 0,3.113 0,0" /></g><g
         transform="translate(819.124,107.043)"
         id="g3113"><path
           inkscape:connector-curvature="0"
           id="path3115"
           style="fill:#bb2025;fill-opacity:1;fill-rule:nonzero;stroke:none"
           d="m 0,0 c 3.105,13.107 6.699,24.017 11.046,33.77 -0.031,0.007 -0.044,0.007 -0.069,0.031 -0.256,0.104 -3.704,1.293 -4.031,1.422 -1.092,0.491 -2.614,3.154 -1.156,8.129 2.554,8.705 6.473,18.555 10.004,25.734 -0.086,0.046 -3.077,0.985 -4.697,1.595 -2.534,1.007 -3.658,5.568 -2.63,8.788 2.052,6.445 11.962,27.555 20.974,41.966 l -26.964,0 c -6.938,0 -12.612,-5.659 -12.612,-12.613 l 0,-96.668 C -10.135,6.112 -5.78,0.957 -0.036,-0.218 -0.028,-0.139 -0.021,-0.05 0,0" /></g><g
         transform="translate(892.833,228.478)"
         id="g3117"><path
           inkscape:connector-curvature="0"
           id="path3119"
           style="fill:#bb2025;fill-opacity:1;fill-rule:nonzero;stroke:none"
           d="m 0,0 c -0.219,-0.215 -0.453,-0.431 -0.692,-0.657 -6.035,-5.418 -20.195,-20.655 -20.356,-20.811 0.161,-0.072 6.398,-2.048 6.743,-2.191 4.781,-1.73 4.051,-5.412 1.174,-8.496 -17.245,-18.643 -23.749,-27.095 -23.834,-27.221 0.166,-0.031 6.153,-2.069 6.483,-2.193 2.148,-0.764 3.066,-2.971 -0.575,-5.738 -4.239,-3.215 -8.062,-6.274 -13.399,-11.168 -9.468,-8.758 -22.262,-22.742 -28.924,-42.798 -0.056,-0.162 -0.116,-0.288 -0.169,-0.422 0.759,-0.084 1.526,-0.197 2.317,-0.197 l 96.671,0 c 6.937,0 12.606,5.713 12.606,12.611 L 38.045,0 0,0 z" /></g></g></g></svg>