<?xml version="1.0" encoding="UTF-8" standalone="no"?>
<svg
   xmlns:dc="http://purl.org/dc/elements/1.1/"
   xmlns:cc="http://creativecommons.org/ns#"
   xmlns:rdf="http://www.w3.org/1999/02/22-rdf-syntax-ns#"
   xmlns:svg="http://www.w3.org/2000/svg"
   xmlns="http://www.w3.org/2000/svg"
   id="svg4530"
   version="1.2"
   viewBox="0 0 699 285"
   height="285pt"
   width="699pt">
  <metadata
     id="metadata4534">
    <rdf:RDF>
      <cc:Work
         rdf:about="">
        <dc:format>image/svg+xml</dc:format>
        <dc:type
           rdf:resource="http://purl.org/dc/dcmitype/StillImage" />
        <dc:title></dc:title>
      </cc:Work>
    </rdf:RDF>
  </metadata>
  <defs
     id="defs4513">
    <clipPath
       id="clip1">
      <path
         id="path4504"
         d="M 0 0.00390625 L 469 0.00390625 L 469 284.289062 L 0 284.289062 Z M 0 0.00390625 " />
    </clipPath>
    <clipPath
       id="clip2">
      <path
         id="path4507"
         d="M 654 71 L 698.351562 71 L 698.351562 195 L 654 195 Z M 654 71 " />
    </clipPath>
    <clipPath
       id="clip3">
      <path
         id="path4510"
         d="M 654 10 L 698.351562 10 L 698.351562 47 L 654 47 Z M 654 10 " />
    </clipPath>
  </defs>
  <g
     id="surface8294">
    <g
       id="g4517"
       clip-rule="nonzero"
       clip-path="url(#clip1)">
      <path
         id="path4515"
         d="M 87.917969 224.070312 L 67.449219 224.070312 L 67.449219 65.917969 L 94.351562 65.917969 C 114.820312 65.917969 140.605469 65.542969 158.785156 89.929688 C 170.917969 106.707031 172.804688 125.371094 172.804688 144.039062 C 172.804688 221.410156 123.539062 223.308594 87.917969 224.070312 M 352.351562 179.871094 L 412.21875 179.871094 C 410.332031 193.96875 408.066406 208.449219 390.613281 219.882812 C 379.632812 227.121094 365.992188 230.167969 353.867188 230.167969 C 333.402344 230.167969 315.207031 221.785156 304.984375 210.742188 C 292.09375 197.394531 283.746094 172.625 283.746094 142.128906 C 283.746094 97.171875 303.070312 54.875 353.867188 54.875 C 390.992188 54.875 406.539062 78.496094 416.011719 92.976562 L 466.789062 62.113281 C 454.28125 45.726562 419.808594 0 348.9375 0 C 293.339844 0 248.757812 30.75 228.667969 80.941406 C 222.542969 65.785156 213.601562 52.015625 201.230469 40.769531 C 167.121094 10.292969 117.855469 9.523438 85.261719 9.148438 L 0.00390625 9.148438 L 0.00390625 278.183594 L 105.367188 278.183594 C 131.808594 277.820312 199.746094 276.414062 228.019531 206.480469 C 245.753906 253.113281 284.257812 284.285156 337.570312 284.285156 C 382.65625 284.285156 405.402344 263.332031 416.398438 253.027344 L 416.398438 278.183594 L 468.6875 278.183594 L 468.6875 128.808594 L 352.351562 128.808594 Z M 352.351562 179.871094 "
         style=" stroke:none;fill-rule:nonzero;fill:rgb(13.725281%,27.450562%,46.273804%);fill-opacity:1;" />
    </g>
    <path
       id="path4519"
       d="M 516.738281 132.1875 L 612.839844 132.1875 L 612.839844 89.21875 L 516.738281 89.21875 Z M 516.738281 132.1875 "
       style=" stroke:none;fill-rule:nonzero;fill:rgb(13.725281%,27.450562%,46.273804%);fill-opacity:1;" />
    <g
       id="g4523"
       clip-rule="nonzero"
       clip-path="url(#clip2)">
      <path
         id="path4521"
         d="M 654.449219 194.976562 L 698.351562 194.976562 L 698.351562 71.769531 L 654.449219 71.769531 Z M 654.449219 194.976562 "
         style=" stroke:none;fill-rule:nonzero;fill:rgb(13.725281%,27.450562%,46.273804%);fill-opacity:1;" />
    </g>
    <g
       id="g4527"
       clip-rule="nonzero"
       clip-path="url(#clip3)">
      <path
         id="path4525"
         d="M 654.449219 46.003906 L 698.351562 46.003906 L 698.351562 10.476562 L 654.449219 10.476562 Z M 654.449219 46.003906 "
         style=" stroke:none;fill-rule:nonzero;fill:rgb(13.725281%,27.450562%,46.273804%);fill-opacity:1;" />
    </g>
  </g>
</svg>
