<?xml version="1.0" encoding="UTF-8" standalone="no"?>
<!-- Created with Inkscape (http://www.inkscape.org/) -->

<svg
   xmlns:dc="http://purl.org/dc/elements/1.1/"
   xmlns:cc="http://creativecommons.org/ns#"
   xmlns:rdf="http://www.w3.org/1999/02/22-rdf-syntax-ns#"
   xmlns:svg="http://www.w3.org/2000/svg"
   xmlns="http://www.w3.org/2000/svg"
   xmlns:sodipodi="http://sodipodi.sourceforge.net/DTD/sodipodi-0.dtd"
   xmlns:inkscape="http://www.inkscape.org/namespaces/inkscape"
   id="svg2"
   version="1.1"
   inkscape:version="0.91 r13725"
   xml:space="preserve"
   width="413.22501"
   height="256.35001"
   viewBox="0 0 413.22501 256.35001"
   sodipodi:docname="isgee.svg"><metadata
     id="metadata8"><rdf:RDF><cc:Work
         rdf:about=""><dc:format>image/svg+xml</dc:format><dc:type
           rdf:resource="http://purl.org/dc/dcmitype/StillImage" /><dc:title></dc:title></cc:Work></rdf:RDF></metadata><defs
     id="defs6"><clipPath
       clipPathUnits="userSpaceOnUse"
       id="clipPath20"><path
         d="M 0,0 331,0 331,206 0,206 0,0 Z"
         id="path22"
         inkscape:connector-curvature="0" /></clipPath></defs><sodipodi:namedview
     pagecolor="#ffffff"
     bordercolor="#666666"
     borderopacity="1"
     objecttolerance="10"
     gridtolerance="10"
     guidetolerance="10"
     inkscape:pageopacity="0"
     inkscape:pageshadow="2"
     inkscape:window-width="640"
     inkscape:window-height="480"
     id="namedview4"
     showgrid="false"
     inkscape:zoom="0.92061632"
     inkscape:cx="206.6125"
     inkscape:cy="128.175"
     inkscape:window-x="878"
     inkscape:window-y="309"
     inkscape:window-maximized="0"
     inkscape:current-layer="g24" /><g
     id="g10"
     inkscape:groupmode="layer"
     inkscape:label="isgee"
     transform="matrix(1.25,0,0,-1.25,0,256.35)"><g
       id="g12" /><g
       id="g14"><g
         id="g16"
         transform="translate(0,-0.919998)"><g
           id="g18" /><g
           id="g24"><g
             clip-path="url(#clipPath20)"
             id="g26"><g
               id="g28"><path
                 d="m 213.121,205.805 -12.777,0 0,-19.254 59.64,0 0,19.254 -46.863,0"
                 style="fill:#050301;fill-opacity:1;fill-rule:nonzero;stroke:none"
                 id="path30"
                 inkscape:connector-curvature="0" /><path
                 d="m 213.121,170.422 -12.777,0 0,-19.25 59.64,0 0,19.25 -46.863,0"
                 style="fill:#050301;fill-opacity:1;fill-rule:nonzero;stroke:none"
                 id="path32"
                 inkscape:connector-curvature="0" /><path
                 d="m 213.121,134.48 -12.777,0 0,-19.25 59.64,0 0,19.25 -46.863,0"
                 style="fill:#050301;fill-opacity:1;fill-rule:nonzero;stroke:none"
                 id="path34"
                 inkscape:connector-curvature="0" /><path
                 d="m 317.805,205.805 -46.864,0 0,-19.254 59.641,0 0,19.254 -12.777,0"
                 style="fill:#050301;fill-opacity:1;fill-rule:nonzero;stroke:none"
                 id="path36"
                 inkscape:connector-curvature="0" /><path
                 d="m 283.723,170.422 -12.782,0 0,-19.25 59.641,0 0,19.25 -46.859,0"
                 style="fill:#050301;fill-opacity:1;fill-rule:nonzero;stroke:none"
                 id="path38"
                 inkscape:connector-curvature="0" /><path
                 d="m 283.723,134.48 -12.782,0 0,-19.25 59.641,0 0,19.25 -46.859,0"
                 style="fill:#050301;fill-opacity:1;fill-rule:nonzero;stroke:none"
                 id="path40"
                 inkscape:connector-curvature="0" /><path
                 d="m 0.156,186.551 0,-71.317 19.449,0 0,90.77 -19.449,0 0,-19.453"
                 style="fill:#050301;fill-opacity:1;fill-rule:nonzero;stroke:none"
                 id="path42"
                 inkscape:connector-curvature="0" /><path
                 d="m 72.621,134.688 -38.898,0 0,-19.454 58.351,0 0,19.454 -19.453,0"
                 style="fill:#050301;fill-opacity:1;fill-rule:nonzero;stroke:none"
                 id="path44"
                 inkscape:connector-curvature="0" /><path
                 d="m 76.996,151.281 15.078,0 0,19.453 -38.902,0 0,15.817 38.902,0 0,19.453 -58.351,0 0,-54.723 43.273,0"
                 style="fill:#050301;fill-opacity:1;fill-rule:nonzero;stroke:none"
                 id="path46"
                 inkscape:connector-curvature="0" /><path
                 d="m 101.797,115.234 60.937,0 0,49.664 -27.875,0 0,-16.859 8.426,0 0,-13.351 -22.039,0 0,51.863 41.488,0 0,19.453 -60.937,0 0,-90.77"
                 style="fill:#050301;fill-opacity:1;fill-rule:nonzero;stroke:none"
                 id="path48"
                 inkscape:connector-curvature="0" /><path
                 d="m 171.812,134.039 18.801,0 0,-18.805 -18.801,0 0,18.805 z"
                 style="fill:#050301;fill-opacity:1;fill-rule:nonzero;stroke:none"
                 id="path50"
                 inkscape:connector-curvature="0" /><path
                 d="m 0,78.004 4.355,0 0,-22.609 -4.355,0 0,22.609 z"
                 style="fill:#050301;fill-opacity:1;fill-rule:nonzero;stroke:none"
                 id="path52"
                 inkscape:connector-curvature="0" /><path
                 d="m 17.246,74.285 0,-18.89 -4.355,0 0,18.89 -5.86,0 0,3.719 16.074,0 0,-3.719 -5.859,0"
                 style="fill:#050301;fill-opacity:1;fill-rule:nonzero;stroke:none"
                 id="path54"
                 inkscape:connector-curvature="0" /><path
                 d="m 37.445,55.023 c -1.605,0 -3.215,0.168 -4.621,0.539 l 0.27,4.051 c 1.269,-0.433 3.078,-0.801 4.722,-0.801 2.211,0 3.918,0.903 3.918,2.981 0,4.32 -9.48,2.344 -9.48,9.777 0,4.02 3.184,6.801 8.609,6.801 1.274,0 2.746,-0.168 4.086,-0.402 l -0.234,-3.821 c -1.274,0.372 -2.68,0.606 -4.055,0.606 -2.512,0 -3.781,-1.141 -3.781,-2.746 0,-4.055 9.512,-2.547 9.512,-9.613 0,-4.254 -3.383,-7.372 -8.946,-7.372"
                 style="fill:#050301;fill-opacity:1;fill-rule:nonzero;stroke:none"
                 id="path56"
                 inkscape:connector-curvature="0" /><path
                 d="m 60.527,55.395 c 0,0.769 0.032,2.078 0.2,2.945 l -0.032,0.035 c -1.007,-1.977 -2.914,-3.352 -5.66,-3.352 -3.754,0 -4.957,2.415 -4.957,5.329 l 0,11.687 4.254,0 0,-10.648 c 0,-1.743 0.469,-2.782 2.074,-2.782 2.18,0 3.852,2.481 3.852,5.395 l 0,8.035 4.289,0 0,-16.644 -4.02,0"
                 style="fill:#050301;fill-opacity:1;fill-rule:nonzero;stroke:none"
                 id="path58"
                 inkscape:connector-curvature="0" /><path
                 d="m 77.043,68.859 c -2.246,0 -3.586,-2.613 -3.586,-5.461 l 0,-4.621 c 0.672,-0.203 1.375,-0.3 2.246,-0.3 2.41,0 4.188,1.539 4.188,5.66 0,3.113 -0.907,4.722 -2.848,4.722 z M 75.602,55.16 c -0.805,0 -1.442,0.031 -2.145,0.133 l 0,-7.973 -4.285,0 0,24.719 3.984,0 c 0,-0.805 -0.031,-1.906 -0.168,-2.777 l 0.067,0 c 0.937,1.941 2.715,3.113 5.226,3.113 3.953,0 6.098,-2.848 6.098,-7.77 0,-5.793 -3.016,-9.445 -8.777,-9.445"
                 style="fill:#050301;fill-opacity:1;fill-rule:nonzero;stroke:none"
                 id="path60"
                 inkscape:connector-curvature="0" /><path
                 d="m 95.77,68.859 c -2.247,0 -3.586,-2.613 -3.586,-5.461 l 0,-4.621 c 0.671,-0.203 1.375,-0.3 2.246,-0.3 2.41,0 4.183,1.539 4.183,5.66 0,3.113 -0.902,4.722 -2.843,4.722 z M 94.328,55.16 c -0.805,0 -1.441,0.031 -2.144,0.133 l 0,-7.973 -4.286,0 0,24.719 3.985,0 c 0,-0.805 -0.035,-1.906 -0.168,-2.777 l 0.066,0 c 0.938,1.941 2.715,3.113 5.227,3.113 3.953,0 6.097,-2.848 6.097,-7.77 0,-5.793 -3.015,-9.445 -8.777,-9.445"
                 style="fill:#050301;fill-opacity:1;fill-rule:nonzero;stroke:none"
                 id="path62"
                 inkscape:connector-curvature="0" /><path
                 d="m 113.625,68.758 c -1.91,0 -3.785,-1.473 -3.785,-4.891 0,-3.414 1.238,-5.156 3.719,-5.156 2.109,0 3.714,1.707 3.714,5.09 0,3.215 -1.136,4.957 -3.648,4.957 z m -0.437,-13.699 c -4.723,0 -7.77,2.445 -7.77,8.375 0,5.191 3.449,8.941 8.508,8.941 4.722,0 7.769,-2.613 7.769,-8.34 0,-5.223 -3.515,-8.976 -8.507,-8.976"
                 style="fill:#050301;fill-opacity:1;fill-rule:nonzero;stroke:none"
                 id="path64"
                 inkscape:connector-curvature="0" /><path
                 d="m 134.059,68.188 c -3.082,0.636 -4.621,-1.372 -4.621,-5.997 l 0,-6.796 -4.29,0 0,16.644 4.055,0 c 0,-0.836 -0.101,-2.176 -0.305,-3.348 l 0.071,0 c 0.801,2.11 2.41,3.954 5.289,3.719 l -0.199,-4.222"
                 style="fill:#050301;fill-opacity:1;fill-rule:nonzero;stroke:none"
                 id="path66"
                 inkscape:connector-curvature="0" /><path
                 d="m 143.199,55.059 c -3.683,0 -4.824,1.339 -4.824,5.226 l 0,8.438 -2.879,0 0,3.316 2.848,0 0,5.125 4.285,1.141 0,-6.266 4.055,0 0,-3.316 -4.055,0 0,-7.301 c 0,-2.145 0.504,-2.746 1.976,-2.746 0.704,0 1.473,0.101 2.079,0.269 l 0,-3.449 c -1.075,-0.269 -2.313,-0.437 -3.485,-0.437"
                 style="fill:#050301;fill-opacity:1;fill-rule:nonzero;stroke:none"
                 id="path68"
                 inkscape:connector-curvature="0" /><path
                 d="m 175.254,73.312 c -1.809,0.704 -3.887,1.141 -5.996,1.141 -4.453,0 -7.672,-2.816 -7.672,-7.871 0,-4.789 2.613,-7.605 7.203,-7.605 1.07,0 2.008,0.136 2.879,0.402 l 0,7.871 4.355,0 0,-10.785 c -2.246,-0.903 -5.023,-1.406 -7.738,-1.406 -7.168,0 -11.422,4.218 -11.422,11.121 0,7.097 4.825,12.156 12.66,12.156 2.247,0 4.457,-0.402 6.399,-0.973 l -0.668,-4.051"
                 style="fill:#050301;fill-opacity:1;fill-rule:nonzero;stroke:none"
                 id="path70"
                 inkscape:connector-curvature="0" /><path
                 d="m 189.492,68.188 c -3.082,0.636 -4.621,-1.372 -4.621,-5.997 l 0,-6.796 -4.289,0 0,16.644 4.055,0 c 0,-0.836 -0.102,-2.176 -0.305,-3.348 l 0.07,0 c 0.801,2.11 2.41,3.954 5.289,3.719 l -0.199,-4.222"
                 style="fill:#050301;fill-opacity:1;fill-rule:nonzero;stroke:none"
                 id="path72"
                 inkscape:connector-curvature="0" /><path
                 d="m 199.105,68.758 c -1.906,0 -3.785,-1.473 -3.785,-4.891 0,-3.414 1.242,-5.156 3.719,-5.156 2.109,0 3.719,1.707 3.719,5.09 0,3.215 -1.141,4.957 -3.653,4.957 z m -0.433,-13.699 c -4.723,0 -7.77,2.445 -7.77,8.375 0,5.191 3.45,8.941 8.504,8.941 4.727,0 7.774,-2.613 7.774,-8.34 0,-5.223 -3.52,-8.976 -8.508,-8.976"
                 style="fill:#050301;fill-opacity:1;fill-rule:nonzero;stroke:none"
                 id="path74"
                 inkscape:connector-curvature="0" /><path
                 d="m 221.082,55.395 c 0,0.769 0.035,2.078 0.199,2.945 l -0.031,0.035 c -1.004,-1.977 -2.914,-3.352 -5.66,-3.352 -3.75,0 -4.957,2.415 -4.957,5.329 l 0,11.687 4.254,0 0,-10.648 c 0,-1.743 0.468,-2.782 2.074,-2.782 2.18,0 3.851,2.481 3.851,5.395 l 0,8.035 4.29,0 0,-16.644 -4.02,0"
                 style="fill:#050301;fill-opacity:1;fill-rule:nonzero;stroke:none"
                 id="path76"
                 inkscape:connector-curvature="0" /><path
                 d="m 237.598,68.859 c -2.243,0 -3.582,-2.613 -3.582,-5.461 l 0,-4.621 c 0.668,-0.203 1.371,-0.3 2.242,-0.3 2.414,0 4.187,1.539 4.187,5.66 0,3.113 -0.906,4.722 -2.847,4.722 z M 236.156,55.16 c -0.801,0 -1.437,0.031 -2.14,0.133 l 0,-7.973 -4.289,0 0,24.719 3.988,0 c 0,-0.805 -0.035,-1.906 -0.168,-2.777 l 0.066,0 c 0.938,1.941 2.711,3.113 5.223,3.113 3.953,0 6.098,-2.848 6.098,-7.77 0,-5.793 -3.016,-9.445 -8.778,-9.445"
                 style="fill:#050301;fill-opacity:1;fill-rule:nonzero;stroke:none"
                 id="path78"
                 inkscape:connector-curvature="0" /><path
                 d="m 0,9.395 0,22.609 12.293,0 0,-3.652 -7.938,0 0,-5.559 7.536,0 0,-3.551 -7.536,0 0,-6.129 7.938,0 0,-3.718 -12.293,0"
                 style="fill:#050301;fill-opacity:1;fill-rule:nonzero;stroke:none"
                 id="path80"
                 inkscape:connector-curvature="0" /><path
                 d="m 16.48,33.844 4.289,0 0,-24.449 -4.289,0 0,24.449 z"
                 style="fill:#050301;fill-opacity:1;fill-rule:nonzero;stroke:none"
                 id="path82"
                 inkscape:connector-curvature="0" /><path
                 d="m 31.891,23.262 c -1.778,0 -3.016,-1.309 -3.25,-3.317 l 6.129,0 c 0.066,2.075 -1.071,3.317 -2.879,3.317 z m 7,-6.231 -10.317,0 c -0.035,-3.113 1.508,-4.625 4.59,-4.625 1.641,0 3.414,0.371 4.856,1.039 l 0.402,-3.312 C 36.645,9.43 34.535,9.059 32.461,9.059 c -5.293,0 -8.242,2.648 -8.242,8.507 0,5.09 2.812,8.844 7.804,8.844 4.856,0 7,-3.316 7,-7.437 0,-0.571 -0.035,-1.239 -0.132,-1.942"
                 style="fill:#050301;fill-opacity:1;fill-rule:nonzero;stroke:none"
                 id="path84"
                 inkscape:connector-curvature="0" /><path
                 d="m 48.941,9.094 c -4.621,0 -7.503,2.41 -7.503,8.07 0,5.191 2.714,9.176 8.609,9.176 1.137,0 2.344,-0.164 3.414,-0.465 l -0.434,-3.719 c -0.906,0.332 -1.941,0.602 -3.015,0.602 -2.711,0 -4.086,-2.008 -4.086,-5.156 0,-2.848 1.105,-4.79 3.953,-4.79 1.141,0 2.379,0.235 3.281,0.704 L 53.496,9.863 C 52.355,9.43 50.715,9.094 48.941,9.094"
                 style="fill:#050301;fill-opacity:1;fill-rule:nonzero;stroke:none"
                 id="path86"
                 inkscape:connector-curvature="0" /><path
                 d="m 62.77,9.059 c -3.684,0 -4.825,1.339 -4.825,5.226 l 0,8.438 -2.879,0 0,3.316 2.844,0 0,5.125 4.289,1.141 0,-6.266 4.055,0 0,-3.316 -4.055,0 0,-7.301 c 0,-2.145 0.504,-2.746 1.977,-2.746 0.703,0 1.472,0.101 2.078,0.269 l 0,-3.449 C 65.18,9.227 63.941,9.059 62.77,9.059"
                 style="fill:#050301;fill-opacity:1;fill-rule:nonzero;stroke:none"
                 id="path88"
                 inkscape:connector-curvature="0" /><path
                 d="m 78.648,22.188 c -3.082,0.636 -4.625,-1.372 -4.625,-5.997 l 0,-6.796 -4.285,0 0,16.644 4.051,0 c 0,-0.836 -0.098,-2.176 -0.301,-3.348 l 0.067,0 c 0.804,2.11 2.414,3.954 5.293,3.719 l -0.2,-4.222"
                 style="fill:#050301;fill-opacity:1;fill-rule:nonzero;stroke:none"
                 id="path90"
                 inkscape:connector-curvature="0" /><path
                 d="m 81.629,9.395 0,16.644 4.289,0 0,-16.644 -4.289,0 z m 2.144,18.789 c -1.472,0 -2.644,1.171 -2.644,2.613 0,1.406 1.172,2.578 2.644,2.578 1.473,0 2.68,-1.141 2.68,-2.578 0,-1.442 -1.207,-2.613 -2.68,-2.613"
                 style="fill:#050301;fill-opacity:1;fill-rule:nonzero;stroke:none"
                 id="path92"
                 inkscape:connector-curvature="0" /><path
                 d="m 96.871,9.094 c -4.621,0 -7.504,2.41 -7.504,8.07 0,5.191 2.715,9.176 8.61,9.176 1.136,0 2.343,-0.164 3.418,-0.465 l -0.438,-3.719 c -0.902,0.332 -1.941,0.602 -3.016,0.602 -2.711,0 -4.086,-2.008 -4.086,-5.156 0,-2.848 1.106,-4.79 3.954,-4.79 1.14,0 2.379,0.235 3.281,0.704 l 0.336,-3.653 C 100.289,9.43 98.648,9.094 96.871,9.094"
                 style="fill:#050301;fill-opacity:1;fill-rule:nonzero;stroke:none"
                 id="path94"
                 inkscape:connector-curvature="0" /><path
                 d="m 113.352,16.762 c -4.52,0 -5.528,-1.305 -5.528,-2.645 0,-1.07 0.738,-1.777 1.977,-1.777 2.109,0 3.551,2.012 3.551,4.019 l 0,0.403 z m 0.336,-7.367 c 0,0.968 0.035,1.941 0.167,2.812 l -0.035,0.035 c -0.8,-1.879 -2.843,-3.183 -5.324,-3.183 -3.016,0 -4.758,1.707 -4.758,4.386 0,3.989 3.953,6.098 9.614,6.098 l 0,0.902 c 0,1.743 -0.836,2.649 -3.247,2.649 -1.507,0 -3.519,-0.504 -4.925,-1.305 l -0.368,3.582 c 1.672,0.602 3.817,1.039 5.961,1.039 5.36,0 6.868,-2.18 6.868,-5.797 l 0,-6.933 c 0,-1.34 0.031,-2.914 0.097,-4.285 l -4.05,0"
                 style="fill:#050301;fill-opacity:1;fill-rule:nonzero;stroke:none"
                 id="path96"
                 inkscape:connector-curvature="0" /><path
                 d="m 122.332,33.844 4.285,0 0,-24.449 -4.285,0 0,24.449 z"
                 style="fill:#050301;fill-opacity:1;fill-rule:nonzero;stroke:none"
                 id="path98"
                 inkscape:connector-curvature="0" /><path
                 d="m 138.578,9.395 0,22.609 12.293,0 0,-3.652 -7.937,0 0,-5.559 7.535,0 0,-3.551 -7.535,0 0,-6.129 7.937,0 0,-3.718 -12.293,0"
                 style="fill:#050301;fill-opacity:1;fill-rule:nonzero;stroke:none"
                 id="path100"
                 inkscape:connector-curvature="0" /><path
                 d="m 165.277,9.395 0,10.652 c 0,1.742 -0.468,2.777 -2.043,2.777 -2.179,0 -3.886,-2.476 -3.886,-5.39 l 0,-8.039 -4.286,0 0,16.644 4.051,0 c 0,-0.769 -0.066,-2.074 -0.234,-2.945 l 0.031,-0.035 c 1.008,1.976 2.949,3.351 5.664,3.351 3.75,0 4.953,-2.414 4.953,-5.328 l 0,-11.687 -4.25,0"
                 style="fill:#050301;fill-opacity:1;fill-rule:nonzero;stroke:none"
                 id="path102"
                 inkscape:connector-curvature="0" /><path
                 d="m 180.82,23.293 c -2.043,0 -3.281,-1.238 -3.281,-3.016 0,-1.839 1.203,-2.98 3.281,-2.98 1.942,0 3.215,1.105 3.215,2.949 0,1.91 -1.207,3.047 -3.215,3.047 z m 1.641,-14.27 -3.684,0 c -0.972,-0.535 -1.507,-1.437 -1.507,-2.375 0,-1.543 1.406,-2.445 3.55,-2.445 2.813,0 4.289,1.172 4.289,2.746 0,1.207 -0.804,2.074 -2.648,2.074 z m -2.277,-8.101 c -4.422,0 -7.133,1.672 -7.133,4.922 0,1.742 1.172,3.316 2.547,4.019 -1.008,0.5 -1.645,1.371 -1.645,2.543 0,1.207 0.805,2.449 1.977,2.883 -1.641,0.836 -2.477,2.613 -2.477,4.656 0,3.516 2.645,6.465 7.535,6.465 1.106,0 1.977,-0.168 2.914,-0.371 l 5.625,0 0,-3.348 -2.242,0 c 0.5,-0.468 0.836,-1.273 0.836,-2.211 0,-3.683 -2.578,-6.097 -7.199,-6.097 -0.57,0 -1.207,0.035 -1.641,0.137 -0.539,-0.235 -0.804,-0.672 -0.804,-1.075 0,-0.769 0.636,-1.039 2.578,-1.039 l 2.578,0 c 3.617,0 5.695,-1.672 5.695,-4.886 0,-3.618 -3.586,-6.598 -9.144,-6.598"
                 style="fill:#050301;fill-opacity:1;fill-rule:nonzero;stroke:none"
                 id="path104"
                 inkscape:connector-curvature="0" /><path
                 d="m 192.781,9.395 0,16.644 4.285,0 0,-16.644 -4.285,0 z m 2.145,18.789 c -1.477,0 -2.649,1.171 -2.649,2.613 0,1.406 1.172,2.578 2.649,2.578 1.472,0 2.679,-1.141 2.679,-2.578 0,-1.442 -1.207,-2.613 -2.679,-2.613"
                 style="fill:#050301;fill-opacity:1;fill-rule:nonzero;stroke:none"
                 id="path106"
                 inkscape:connector-curvature="0" /><path
                 d="m 211.906,9.395 0,10.652 c 0,1.742 -0.468,2.777 -2.043,2.777 -2.175,0 -3.883,-2.476 -3.883,-5.39 l 0,-8.039 -4.289,0 0,16.644 4.055,0 c 0,-0.769 -0.066,-2.074 -0.234,-2.945 l 0.031,-0.035 c 1.004,1.976 2.949,3.351 5.66,3.351 3.75,0 4.957,-2.414 4.957,-5.328 l 0,-11.687 -4.254,0"
                 style="fill:#050301;fill-opacity:1;fill-rule:nonzero;stroke:none"
                 id="path108"
                 inkscape:connector-curvature="0" /><path
                 d="m 227.316,23.262 c -1.773,0 -3.011,-1.309 -3.246,-3.317 l 6.129,0 c 0.067,2.075 -1.074,3.317 -2.883,3.317 z m 7,-6.231 -10.312,0 c -0.035,-3.113 1.504,-4.625 4.586,-4.625 1.64,0 3.418,0.371 4.855,1.039 l 0.403,-3.312 c -1.774,-0.703 -3.883,-1.074 -5.961,-1.074 -5.293,0 -8.239,2.648 -8.239,8.507 0,5.09 2.813,8.844 7.805,8.844 4.856,0 7,-3.316 7,-7.437 0,-0.571 -0.035,-1.239 -0.137,-1.942"
                 style="fill:#050301;fill-opacity:1;fill-rule:nonzero;stroke:none"
                 id="path110"
                 inkscape:connector-curvature="0" /><path
                 d="m 244.535,23.262 c -1.773,0 -3.012,-1.309 -3.246,-3.317 l 6.129,0 c 0.066,2.075 -1.074,3.317 -2.883,3.317 z m 7,-6.231 -10.312,0 c -0.035,-3.113 1.504,-4.625 4.586,-4.625 1.64,0 3.418,0.371 4.855,1.039 l 0.402,-3.312 c -1.773,-0.703 -3.882,-1.074 -5.961,-1.074 -5.293,0 -8.238,2.648 -8.238,8.507 0,5.09 2.813,8.844 7.805,8.844 4.855,0 7,-3.316 7,-7.437 0,-0.571 -0.035,-1.239 -0.137,-1.942"
                 style="fill:#050301;fill-opacity:1;fill-rule:nonzero;stroke:none"
                 id="path112"
                 inkscape:connector-curvature="0" /><path
                 d="m 264.168,22.188 c -3.082,0.636 -4.621,-1.372 -4.621,-5.997 l 0,-6.796 -4.289,0 0,16.644 4.054,0 c 0,-0.836 -0.101,-2.176 -0.304,-3.348 l 0.066,0 c 0.805,2.11 2.414,3.954 5.293,3.719 l -0.199,-4.222"
                 style="fill:#050301;fill-opacity:1;fill-rule:nonzero;stroke:none"
                 id="path114"
                 inkscape:connector-curvature="0" /><path
                 d="m 267.148,9.395 0,16.644 4.29,0 0,-16.644 -4.29,0 z m 2.145,18.789 c -1.473,0 -2.645,1.171 -2.645,2.613 0,1.406 1.172,2.578 2.645,2.578 1.477,0 2.68,-1.141 2.68,-2.578 0,-1.442 -1.203,-2.613 -2.68,-2.613"
                 style="fill:#050301;fill-opacity:1;fill-rule:nonzero;stroke:none"
                 id="path116"
                 inkscape:connector-curvature="0" /><path
                 d="m 286.277,9.395 0,10.652 c 0,1.742 -0.468,2.777 -2.043,2.777 -2.175,0 -3.886,-2.476 -3.886,-5.39 l 0,-8.039 -4.286,0 0,16.644 4.051,0 c 0,-0.769 -0.066,-2.074 -0.234,-2.945 l 0.035,-0.035 c 1.004,1.976 2.945,3.351 5.66,3.351 3.75,0 4.957,-2.414 4.957,-5.328 l 0,-11.687 -4.254,0"
                 style="fill:#050301;fill-opacity:1;fill-rule:nonzero;stroke:none"
                 id="path118"
                 inkscape:connector-curvature="0" /><path
                 d="m 301.82,23.293 c -2.043,0 -3.281,-1.238 -3.281,-3.016 0,-1.839 1.207,-2.98 3.281,-2.98 1.946,0 3.215,1.105 3.215,2.949 0,1.91 -1.203,3.047 -3.215,3.047 z m 1.645,-14.27 -3.688,0 c -0.968,-0.535 -1.507,-1.437 -1.507,-2.375 0,-1.543 1.41,-2.445 3.55,-2.445 2.817,0 4.289,1.172 4.289,2.746 0,1.207 -0.804,2.074 -2.644,2.074 z m -2.277,-8.101 c -4.422,0 -7.137,1.672 -7.137,4.922 0,1.742 1.172,3.316 2.547,4.019 -1.004,0.5 -1.645,1.371 -1.645,2.543 0,1.207 0.809,2.449 1.981,2.883 -1.645,0.836 -2.481,2.613 -2.481,4.656 0,3.516 2.645,6.465 7.535,6.465 1.106,0 1.977,-0.168 2.914,-0.371 l 5.625,0 0,-3.348 -2.242,0 c 0.504,-0.468 0.836,-1.273 0.836,-2.211 0,-3.683 -2.578,-6.097 -7.199,-6.097 -0.57,0 -1.207,0.035 -1.641,0.137 -0.535,-0.235 -0.804,-0.672 -0.804,-1.075 0,-0.769 0.636,-1.039 2.578,-1.039 l 2.582,0 c 3.617,0 5.691,-1.672 5.691,-4.886 0,-3.618 -3.582,-6.598 -9.14,-6.598"
                 style="fill:#050301;fill-opacity:1;fill-rule:nonzero;stroke:none"
                 id="path120"
                 inkscape:connector-curvature="0" /></g></g></g></g></g></g></svg>