<?xml version="1.0" encoding="UTF-8" standalone="no"?>
<svg id="svg2" xmlns:rdf="http://www.w3.org/1999/02/22-rdf-syntax-ns#" xmlns="http://www.w3.org/2000/svg" xml:space="preserve" height="256.35" viewBox="0 0 413.22501 256.35001" width="413.23" version="1.1"><defs id="defs6"><clipPath id="clipPath20" clipPathUnits="userSpaceOnUse"><path id="path22" d="m0 0h331v206h-331v-206z"/></clipPath></defs><g id="g10" transform="matrix(1.25,0,0,-1.25,0,256.35)"><g id="g14"><g id="g16" transform="translate(0 -0.92)"><g id="g24"><g id="g26" clip-path="url(#clipPath20)"><g id="g28" fill="#050301"><path id="path30" d="m213.12 205.8h-12.777v-19.254h59.64v19.254h-46.863"/><path id="path32" d="m213.12 170.42h-12.777v-19.25h59.64v19.25h-46.863"/><path id="path34" d="m213.12 134.48h-12.777v-19.25h59.64v19.25h-46.863"/><path id="path36" d="m317.8 205.8h-46.864v-19.254h59.641v19.254h-12.777"/><path id="path38" d="m283.72 170.42h-12.782v-19.25h59.641v19.25h-46.859"/><path id="path40" d="m283.72 134.48h-12.782v-19.25h59.641v19.25h-46.859"/><path id="path42" d="m0.156 186.55v-71.317h19.449v90.77h-19.449v-19.453"/><path id="path44" d="m72.621 134.69h-38.898v-19.454h58.351v19.454h-19.453"/><path id="path46" d="m76.996 151.28h15.078v19.453h-38.902v15.817h38.902v19.453h-58.351v-54.723h43.273"/><path id="path48" d="m101.8 115.23h60.937v49.664h-27.875v-16.859h8.426v-13.351h-22.039v51.863h41.488v19.453h-60.937v-90.77"/><path id="path50" d="m171.81 134.04h18.801v-18.805h-18.801v18.805z"/><path id="path52" d="m0 78.004h4.355v-22.609h-4.355v22.609z"/><path id="path54" d="m17.246 74.285v-18.89h-4.355v18.89h-5.86v3.719h16.074v-3.719h-5.859"/><path id="path56" d="m37.445 55.023c-1.605 0-3.215 0.168-4.621 0.539l0.27 4.051c1.269-0.433 3.078-0.801 4.722-0.801 2.211 0 3.918 0.903 3.918 2.981 0 4.32-9.48 2.344-9.48 9.777 0 4.02 3.184 6.801 8.609 6.801 1.274 0 2.746-0.168 4.086-0.402l-0.234-3.821c-1.274 0.372-2.68 0.606-4.055 0.606-2.512 0-3.781-1.141-3.781-2.746 0-4.055 9.512-2.547 9.512-9.613 0-4.254-3.383-7.372-8.946-7.372"/><path id="path58" d="m60.527 55.395c0 0.769 0.032 2.078 0.2 2.945l-0.032 0.035c-1.007-1.977-2.914-3.352-5.66-3.352-3.754 0-4.957 2.415-4.957 5.329v11.687h4.254v-10.648c0-1.743 0.469-2.782 2.074-2.782 2.18 0 3.852 2.481 3.852 5.395v8.035h4.289v-16.644h-4.02"/><path id="path60" d="m77.043 68.859c-2.246 0-3.586-2.613-3.586-5.461v-4.621c0.672-0.203 1.375-0.3 2.246-0.3 2.41 0 4.188 1.539 4.188 5.66 0 3.113-0.907 4.722-2.848 4.722zm-1.441-13.699c-0.805 0-1.442 0.031-2.145 0.133v-7.973h-4.285v24.719h3.984c0-0.805-0.031-1.906-0.168-2.777h0.067c0.937 1.941 2.715 3.113 5.226 3.113 3.953 0 6.098-2.848 6.098-7.77 0-5.793-3.016-9.445-8.777-9.445"/><path id="path62" d="m95.77 68.859c-2.247 0-3.586-2.613-3.586-5.461v-4.621c0.671-0.203 1.375-0.3 2.246-0.3 2.41 0 4.183 1.539 4.183 5.66 0 3.113-0.902 4.722-2.843 4.722zm-1.442-13.699c-0.805 0-1.441 0.031-2.144 0.133v-7.973h-4.286v24.719h3.985c0-0.805-0.035-1.906-0.168-2.777h0.066c0.938 1.941 2.715 3.113 5.227 3.113 3.953 0 6.097-2.848 6.097-7.77 0-5.793-3.015-9.445-8.777-9.445"/><path id="path64" d="m113.62 68.758c-1.91 0-3.785-1.473-3.785-4.891 0-3.414 1.238-5.156 3.719-5.156 2.109 0 3.714 1.707 3.714 5.09 0 3.215-1.136 4.957-3.648 4.957zm-0.437-13.699c-4.723 0-7.77 2.445-7.77 8.375 0 5.191 3.449 8.941 8.508 8.941 4.722 0 7.769-2.613 7.769-8.34 0-5.223-3.515-8.976-8.507-8.976"/><path id="path66" d="m134.06 68.188c-3.082 0.636-4.621-1.372-4.621-5.997v-6.796h-4.29v16.644h4.055c0-0.836-0.101-2.176-0.305-3.348h0.071c0.801 2.11 2.41 3.954 5.289 3.719l-0.199-4.222"/><path id="path68" d="m143.2 55.059c-3.683 0-4.824 1.339-4.824 5.226v8.438h-2.879v3.316h2.848v5.125l4.285 1.141v-6.266h4.055v-3.316h-4.055v-7.301c0-2.145 0.504-2.746 1.976-2.746 0.704 0 1.473 0.101 2.079 0.269v-3.449c-1.075-0.269-2.313-0.437-3.485-0.437"/><path id="path70" d="m175.25 73.312c-1.809 0.704-3.887 1.141-5.996 1.141-4.453 0-7.672-2.816-7.672-7.871 0-4.789 2.613-7.605 7.203-7.605 1.07 0 2.008 0.136 2.879 0.402v7.871h4.355v-10.785c-2.246-0.903-5.023-1.406-7.738-1.406-7.168 0-11.422 4.218-11.422 11.121 0 7.097 4.825 12.156 12.66 12.156 2.247 0 4.457-0.402 6.399-0.973l-0.668-4.051"/><path id="path72" d="m189.49 68.188c-3.082 0.636-4.621-1.372-4.621-5.997v-6.796h-4.289v16.644h4.055c0-0.836-0.102-2.176-0.305-3.348h0.07c0.801 2.11 2.41 3.954 5.289 3.719l-0.199-4.222"/><path id="path74" d="m199.1 68.758c-1.906 0-3.785-1.473-3.785-4.891 0-3.414 1.242-5.156 3.719-5.156 2.109 0 3.719 1.707 3.719 5.09 0 3.215-1.141 4.957-3.653 4.957zm-0.433-13.699c-4.723 0-7.77 2.445-7.77 8.375 0 5.191 3.45 8.941 8.504 8.941 4.727 0 7.774-2.613 7.774-8.34 0-5.223-3.52-8.976-8.508-8.976"/><path id="path76" d="m221.08 55.395c0 0.769 0.035 2.078 0.199 2.945l-0.031 0.035c-1.004-1.977-2.914-3.352-5.66-3.352-3.75 0-4.957 2.415-4.957 5.329v11.687h4.254v-10.648c0-1.743 0.468-2.782 2.074-2.782 2.18 0 3.851 2.481 3.851 5.395v8.035h4.29v-16.644h-4.02"/><path id="path78" d="m237.6 68.859c-2.243 0-3.582-2.613-3.582-5.461v-4.621c0.668-0.203 1.371-0.3 2.242-0.3 2.414 0 4.187 1.539 4.187 5.66 0 3.113-0.906 4.722-2.847 4.722zm-1.44-13.699c-0.801 0-1.437 0.031-2.14 0.133v-7.973h-4.289v24.719h3.988c0-0.805-0.035-1.906-0.168-2.777h0.066c0.938 1.941 2.711 3.113 5.223 3.113 3.953 0 6.098-2.848 6.098-7.77 0-5.793-3.016-9.445-8.778-9.445"/><path id="path80" d="m0 9.395v22.609h12.293v-3.652h-7.938v-5.559h7.536v-3.551h-7.536v-6.129h7.938v-3.718h-12.293"/><path id="path82" d="m16.48 33.844h4.289v-24.449h-4.289v24.449z"/><path id="path84" d="m31.891 23.262c-1.778 0-3.016-1.309-3.25-3.317h6.129c0.066 2.075-1.071 3.317-2.879 3.317zm7-6.231h-10.317c-0.035-3.113 1.508-4.625 4.59-4.625 1.641 0 3.414 0.371 4.856 1.039l0.402-3.312c-1.777-0.703-3.887-1.074-5.961-1.074-5.293 0-8.242 2.648-8.242 8.507 0 5.09 2.812 8.844 7.804 8.844 4.856 0 7-3.316 7-7.437 0-0.571-0.035-1.239-0.132-1.942"/><path id="path86" d="m48.941 9.094c-4.621 0-7.503 2.41-7.503 8.07 0 5.191 2.714 9.176 8.609 9.176 1.137 0 2.344-0.164 3.414-0.465l-0.434-3.719c-0.906 0.332-1.941 0.602-3.015 0.602-2.711 0-4.086-2.008-4.086-5.156 0-2.848 1.105-4.79 3.953-4.79 1.141 0 2.379 0.235 3.281 0.704l0.336-3.653c-1.141-0.433-2.781-0.769-4.555-0.769"/><path id="path88" d="m62.77 9.059c-3.684 0-4.825 1.339-4.825 5.226v8.438h-2.879v3.316h2.844v5.125l4.289 1.141v-6.266h4.055v-3.316h-4.055v-7.301c0-2.145 0.504-2.746 1.977-2.746 0.703 0 1.472 0.101 2.078 0.269v-3.449c-1.074-0.269-2.313-0.437-3.484-0.437"/><path id="path90" d="m78.648 22.188c-3.082 0.636-4.625-1.372-4.625-5.997v-6.796h-4.285v16.644h4.051c0-0.836-0.098-2.176-0.301-3.348h0.067c0.804 2.11 2.414 3.954 5.293 3.719l-0.2-4.222"/><path id="path92" d="m81.629 9.395v16.644h4.289v-16.644h-4.289zm2.144 18.789c-1.472 0-2.644 1.171-2.644 2.613 0 1.406 1.172 2.578 2.644 2.578 1.473 0 2.68-1.141 2.68-2.578 0-1.442-1.207-2.613-2.68-2.613"/><path id="path94" d="m96.871 9.094c-4.621 0-7.504 2.41-7.504 8.07 0 5.191 2.715 9.176 8.61 9.176 1.136 0 2.343-0.164 3.418-0.465l-0.438-3.719c-0.902 0.332-1.941 0.602-3.016 0.602-2.711 0-4.086-2.008-4.086-5.156 0-2.848 1.106-4.79 3.954-4.79 1.14 0 2.379 0.235 3.281 0.704l0.336-3.653c-1.14-0.433-2.782-0.769-4.559-0.769"/><path id="path96" d="m113.35 16.762c-4.52 0-5.528-1.305-5.528-2.645 0-1.07 0.738-1.777 1.977-1.777 2.109 0 3.551 2.012 3.551 4.019v0.403zm0.336-7.367c0 0.968 0.035 1.941 0.167 2.812l-0.035 0.035c-0.8-1.879-2.843-3.183-5.324-3.183-3.016 0-4.758 1.707-4.758 4.386 0 3.989 3.953 6.098 9.614 6.098v0.902c0 1.743-0.836 2.649-3.247 2.649-1.507 0-3.519-0.504-4.925-1.305l-0.368 3.582c1.672 0.602 3.817 1.039 5.961 1.039 5.36 0 6.868-2.18 6.868-5.797v-6.933c0-1.34 0.031-2.914 0.097-4.285h-4.05"/><path id="path98" d="m122.33 33.844h4.285v-24.449h-4.285v24.449z"/><path id="path100" d="m138.58 9.395v22.609h12.293v-3.652h-7.937v-5.559h7.535v-3.551h-7.535v-6.129h7.937v-3.718h-12.293"/><path id="path102" d="m165.28 9.395v10.652c0 1.742-0.468 2.777-2.043 2.777-2.179 0-3.886-2.476-3.886-5.39v-8.039h-4.286v16.644h4.051c0-0.769-0.066-2.074-0.234-2.945l0.031-0.035c1.008 1.976 2.949 3.351 5.664 3.351 3.75 0 4.953-2.414 4.953-5.328v-11.687h-4.25"/><path id="path104" d="m180.82 23.293c-2.043 0-3.281-1.238-3.281-3.016 0-1.839 1.203-2.98 3.281-2.98 1.942 0 3.215 1.105 3.215 2.949 0 1.91-1.207 3.047-3.215 3.047zm1.641-14.27h-3.684c-0.972-0.535-1.507-1.437-1.507-2.375 0-1.543 1.406-2.445 3.55-2.445 2.813 0 4.289 1.172 4.289 2.746 0 1.207-0.804 2.074-2.648 2.074zm-2.277-8.101c-4.422 0-7.133 1.672-7.133 4.922 0 1.742 1.172 3.316 2.547 4.019-1.008 0.5-1.645 1.371-1.645 2.543 0 1.207 0.805 2.449 1.977 2.883-1.641 0.836-2.477 2.613-2.477 4.656 0 3.516 2.645 6.465 7.535 6.465 1.106 0 1.977-0.168 2.914-0.371h5.625v-3.348h-2.242c0.5-0.468 0.836-1.273 0.836-2.211 0-3.683-2.578-6.097-7.199-6.097-0.57 0-1.207 0.035-1.641 0.137-0.539-0.235-0.804-0.672-0.804-1.075 0-0.769 0.636-1.039 2.578-1.039h2.578c3.617 0 5.695-1.672 5.695-4.886 0-3.618-3.586-6.598-9.144-6.598"/><path id="path106" d="m192.78 9.395v16.644h4.285v-16.644h-4.285zm2.145 18.789c-1.477 0-2.649 1.171-2.649 2.613 0 1.406 1.172 2.578 2.649 2.578 1.472 0 2.679-1.141 2.679-2.578 0-1.442-1.207-2.613-2.679-2.613"/><path id="path108" d="m211.91 9.395v10.652c0 1.742-0.468 2.777-2.043 2.777-2.175 0-3.883-2.476-3.883-5.39v-8.039h-4.289v16.644h4.055c0-0.769-0.066-2.074-0.234-2.945l0.031-0.035c1.004 1.976 2.949 3.351 5.66 3.351 3.75 0 4.957-2.414 4.957-5.328v-11.687h-4.254"/><path id="path110" d="m227.32 23.262c-1.773 0-3.011-1.309-3.246-3.317h6.129c0.067 2.075-1.074 3.317-2.883 3.317zm7-6.231h-10.312c-0.035-3.113 1.504-4.625 4.586-4.625 1.64 0 3.418 0.371 4.855 1.039l0.403-3.312c-1.774-0.703-3.883-1.074-5.961-1.074-5.293 0-8.239 2.648-8.239 8.507 0 5.09 2.813 8.844 7.805 8.844 4.856 0 7-3.316 7-7.437 0-0.571-0.035-1.239-0.137-1.942"/><path id="path112" d="m244.54 23.262c-1.773 0-3.012-1.309-3.246-3.317h6.129c0.066 2.075-1.074 3.317-2.883 3.317zm7-6.231h-10.312c-0.035-3.113 1.504-4.625 4.586-4.625 1.64 0 3.418 0.371 4.855 1.039l0.402-3.312c-1.773-0.703-3.882-1.074-5.961-1.074-5.293 0-8.238 2.648-8.238 8.507 0 5.09 2.813 8.844 7.805 8.844 4.855 0 7-3.316 7-7.437 0-0.571-0.035-1.239-0.137-1.942"/><path id="path114" d="m264.17 22.188c-3.082 0.636-4.621-1.372-4.621-5.997v-6.796h-4.289v16.644h4.054c0-0.836-0.101-2.176-0.304-3.348h0.066c0.805 2.11 2.414 3.954 5.293 3.719l-0.199-4.222"/><path id="path116" d="m267.15 9.395v16.644h4.29v-16.644h-4.29zm2.145 18.789c-1.473 0-2.645 1.171-2.645 2.613 0 1.406 1.172 2.578 2.645 2.578 1.477 0 2.68-1.141 2.68-2.578 0-1.442-1.203-2.613-2.68-2.613"/><path id="path118" d="m286.28 9.395v10.652c0 1.742-0.468 2.777-2.043 2.777-2.175 0-3.886-2.476-3.886-5.39v-8.039h-4.286v16.644h4.051c0-0.769-0.066-2.074-0.234-2.945l0.035-0.035c1.004 1.976 2.945 3.351 5.66 3.351 3.75 0 4.957-2.414 4.957-5.328v-11.687h-4.254"/><path id="path120" d="m301.82 23.293c-2.043 0-3.281-1.238-3.281-3.016 0-1.839 1.207-2.98 3.281-2.98 1.946 0 3.215 1.105 3.215 2.949 0 1.91-1.203 3.047-3.215 3.047zm1.645-14.27h-3.688c-0.968-0.535-1.507-1.437-1.507-2.375 0-1.543 1.41-2.445 3.55-2.445 2.817 0 4.289 1.172 4.289 2.746 0 1.207-0.804 2.074-2.644 2.074zm-2.277-8.101c-4.422 0-7.137 1.672-7.137 4.922 0 1.742 1.172 3.316 2.547 4.019-1.004 0.5-1.645 1.371-1.645 2.543 0 1.207 0.809 2.449 1.981 2.883-1.645 0.836-2.481 2.613-2.481 4.656 0 3.516 2.645 6.465 7.535 6.465 1.106 0 1.977-0.168 2.914-0.371h5.625v-3.348h-2.242c0.504-0.468 0.836-1.273 0.836-2.211 0-3.683-2.578-6.097-7.199-6.097-0.57 0-1.207 0.035-1.641 0.137-0.535-0.235-0.804-0.672-0.804-1.075 0-0.769 0.636-1.039 2.578-1.039h2.582c3.617 0 5.691-1.672 5.691-4.886 0-3.618-3.582-6.598-9.14-6.598"/></g></g></g></g></g></g></svg>
