<?xml version="1.0" encoding="UTF-8"?>
<!-- Generator: Adobe Illustrator 18.1.1, SVG Export Plug-In . SVG Version: 6.00 Build 0)  -->
<svg version="1.1" id="Calque_1" xmlns="http://www.w3.org/2000/svg" xmlns:xlink="http://www.w3.org/1999/xlink" x="0px" y="0px" viewBox="32.2 1041.7 229.4 61.6" enable-background="new 32.2 1041.7 229.4 61.6" xml:space="preserve">
<g>
	<g id="g298_24_">
		<g>
			
				<line fill="none" stroke="#727375" stroke-width="0.672" stroke-miterlimit="10" x1="233.9" y1="1068.5" x2="216.6" y2="1064.6"/>
			<line fill="none" stroke="#727375" stroke-width="0.672" stroke-miterlimit="10" x1="230.6" y1="1061.4" x2="218.4" y2="1064"/>
			<line fill="none" stroke="#727375" stroke-width="0.672" stroke-miterlimit="10" x1="235" y1="1068.7" x2="250.7" y2="1065.3"/>
			
				<line fill="none" stroke="#727375" stroke-width="0.672" stroke-miterlimit="10" x1="236.2" y1="1053.6" x2="249.6" y2="1063.6"/>
			
				<line fill="none" stroke="#727375" stroke-width="0.672" stroke-miterlimit="10" x1="251.2" y1="1065.1" x2="259.6" y2="1063.4"/>
			
				<line fill="none" stroke="#727375" stroke-width="0.672" stroke-miterlimit="10" x1="259.7" y1="1063.1" x2="250.7" y2="1053.5"/>
			
				<line fill="none" stroke="#727375" stroke-width="0.672" stroke-miterlimit="10" x1="250.5" y1="1053.5" x2="235.2" y2="1052.2"/>
			
				<line fill="none" stroke="#727375" stroke-width="0.672" stroke-miterlimit="10" x1="234.6" y1="1052.1" x2="206.9" y2="1061.1"/>
			
				<line fill="none" stroke="#727375" stroke-width="0.672" stroke-miterlimit="10" x1="206.5" y1="1061.5" x2="214.5" y2="1080.6"/>
			
				<line fill="none" stroke="#727375" stroke-width="0.672" stroke-miterlimit="10" x1="214.9" y1="1079.8" x2="215.9" y2="1064.4"/>
			
				<line fill="none" stroke="#727375" stroke-width="0.672" stroke-miterlimit="10" x1="214.9" y1="1080.5" x2="234.3" y2="1069.3"/>
			
				<line fill="none" stroke="#727375" stroke-width="0.672" stroke-miterlimit="10" x1="234.1" y1="1069.9" x2="228.7" y2="1079.4"/>
			<line fill="none" stroke="#727375" stroke-width="0.672" stroke-miterlimit="10" x1="228.4" y1="1080" x2="215.2" y2="1080.8"/>
			<line fill="none" stroke="#727375" stroke-width="0.672" stroke-miterlimit="10" x1="215" y1="1081.3" x2="224.8" y2="1088"/>
			
				<line fill="none" stroke="#727375" stroke-width="0.672" stroke-miterlimit="10" x1="225.5" y1="1087.8" x2="228.6" y2="1080.5"/>
			
				<line fill="none" stroke="#727375" stroke-width="0.672" stroke-miterlimit="10" x1="225.9" y1="1088.3" x2="240.4" y2="1086.6"/>
			<line fill="none" stroke="#727375" stroke-width="0.672" stroke-miterlimit="10" x1="228.9" y1="1080" x2="239.4" y2="1085.6"/>
			
				<line fill="none" stroke="#727375" stroke-width="0.672" stroke-miterlimit="10" x1="241.7" y1="1085.1" x2="251.8" y2="1076.2"/>
			<line fill="none" stroke="#727375" stroke-width="0.672" stroke-miterlimit="10" x1="252.1" y1="1075.8" x2="250.8" y2="1066"/>
			<line fill="none" stroke="#727375" stroke-width="0.672" stroke-miterlimit="10" x1="252.3" y1="1076" x2="259.5" y2="1064.1"/>
			<line fill="none" stroke="#727375" stroke-width="0.672" stroke-miterlimit="10" x1="226" y1="1087.9" x2="249.7" y2="1067.2"/>
			
				<line fill="none" stroke="#727375" stroke-width="0.672" stroke-miterlimit="10" x1="234.9" y1="1070.8" x2="240.4" y2="1085.2"/>
			
				<line fill="none" stroke="#727375" stroke-width="0.672" stroke-miterlimit="10" x1="216.2" y1="1063.8" x2="207.3" y2="1061.6"/>
			
				<line fill="none" stroke="#727375" stroke-width="0.672" stroke-miterlimit="10" x1="216.6" y1="1063.9" x2="235.1" y2="1052.7"/>
			
				<line fill="none" stroke="#727375" stroke-width="0.672" stroke-miterlimit="10" x1="235.2" y1="1054.3" x2="231.3" y2="1060.9"/>
			
				<line fill="none" stroke="#727375" stroke-width="0.672" stroke-miterlimit="10" x1="231.3" y1="1061.7" x2="234.5" y2="1068.2"/>
			<line fill="none" stroke="#727375" stroke-width="0.672" stroke-miterlimit="10" x1="250.7" y1="1063.8" x2="250.2" y2="1054"/>
			
				<line fill="none" stroke="#727375" stroke-width="0.672" stroke-miterlimit="10" x1="234.8" y1="1069.4" x2="250.8" y2="1075.4"/>
		</g>
		<g id="g336_252_">
			<path id="path338_252_" fill="#D60121" d="M220.8,1064.4c0,2.3-1.8,4.2-4.2,4.2c-2.3,0-4.2-1.8-4.2-4.2c0-2.3,1.8-4.2,4.2-4.2     C219,1060.2,220.8,1062,220.8,1064.4"/>
		</g>
		<g id="g336_251_">
			<path id="path338_251_" fill="#363736" d="M238.7,1068.7c0,2.3-1.8,4.2-4.2,4.2c-2.3,0-4.2-1.8-4.2-4.2c0-2.3,1.8-4.2,4.2-4.2     C236.9,1064.4,238.7,1066.3,238.7,1068.7"/>
		</g>
		<g id="g336_250_">
			<path id="path338_250_" fill="#363736" d="M254.7,1065.2c0,2.3-1.8,4.2-4.2,4.2c-2.3,0-4.2-1.8-4.2-4.2c0-2.3,1.8-4.2,4.2-4.2     C252.9,1060.9,254.7,1062.8,254.7,1065.2"/>
		</g>
		<g id="g336_249_">
			<path id="path338_249_" fill="#363736" d="M245.2,1085.9c0,2.3-1.8,4.2-4.2,4.2c-2.3,0-4.2-1.8-4.2-4.2c0-2.3,1.8-4.2,4.2-4.2     C243.4,1081.7,245.2,1083.5,245.2,1085.9"/>
		</g>
		<g id="g336_248_">
			<path id="path338_248_" fill="#363736" d="M238.8,1052.2c0,1.8-1.4,3.3-3.3,3.3c-1.8,0-3.3-1.4-3.3-3.3s1.4-3.3,3.3-3.3     C237.3,1048.8,238.8,1050.2,238.8,1052.2"/>
		</g>
		<g id="g336_247_">
			<path id="path338_247_" fill="#363736" d="M233.7,1061.2c0,1.2-1,2.2-2.2,2.2s-2.2-1-2.2-2.2c0-1.2,1-2.2,2.2-2.2     C232.7,1059.1,233.7,1060,233.7,1061.2"/>
		</g>
		<g id="g336_246_">
			<path id="path338_246_" fill="#363736" d="M252.9,1053.5c0,1.2-1,2.2-2.2,2.2s-2.2-1-2.2-2.2c0-1.2,1-2.2,2.2-2.2     C251.9,1051.2,252.9,1052.2,252.9,1053.5"/>
		</g>
		<g id="g336_245_">
			<path id="path338_245_" fill="#363736" d="M261.6,1063.3c0,1.2-1,2.2-2.2,2.2c-1.2,0-2.2-1-2.2-2.2s1-2.2,2.2-2.2     C260.7,1061.1,261.6,1062,261.6,1063.3"/>
		</g>
		<g id="g336_244_">
			<path id="path338_244_" fill="#363736" d="M254.1,1075.8c0,1.2-1,2.2-2.2,2.2c-1.2,0-2.2-1-2.2-2.2c0-1.2,1-2.2,2.2-2.2     C253.1,1073.6,254.1,1074.6,254.1,1075.8"/>
		</g>
		<g id="g336_243_">
			<path id="path338_243_" fill="#363736" d="M227.5,1088c0,1.2-1,2.2-2.2,2.2c-1.2,0-2.2-1-2.2-2.2s1-2.2,2.2-2.2     C226.5,1085.9,227.5,1086.8,227.5,1088"/>
		</g>
		<g id="g336_242_">
			<path id="path338_242_" fill="#363736" d="M208.9,1061.3c0,1.2-1,2.2-2.2,2.2s-2.2-1-2.2-2.2c0-1.2,1-2.2,2.2-2.2     C208,1059.1,208.9,1060,208.9,1061.3"/>
		</g>
		<g id="g336_241_">
			<path id="path338_241_" fill="#363736" d="M231.8,1079.5c0,1.8-1.4,3.3-3.3,3.3c-1.8,0-3.3-1.4-3.3-3.3s1.4-3.3,3.3-3.3     C230.3,1076.2,231.8,1077.7,231.8,1079.5"/>
		</g>
		<g id="g336_240_">
			<path id="path338_240_" fill="#363736" d="M218.3,1079.9c0,1.8-1.4,3.3-3.3,3.3c-1.8,0-3.3-1.4-3.3-3.3s1.4-3.3,3.3-3.3     C216.8,1076.5,218.3,1078,218.3,1079.9"/>
		</g>
	</g>
	<g id="g456_24_">
		<path id="path458_24_" fill="#363736" d="M42.8,1078.6c0.3,1.4,0.9,2.7,1.5,3.8c0.6,1,1.6,1.9,2.6,2.5c1,0.6,2.2,0.9,3.7,0.9    c2.9,0,5.5-1,7.7-2.8l0.7,0.6l-1.4,3.5c-1,0.8-2.2,1.4-3.8,1.9c-1.4,0.5-3.4,0.7-5.8,0.7c-2,0-4-0.3-5.8-0.9    c-1.8-0.6-3.4-1.4-4.9-2.8c-1.4-1.3-2.5-2.9-3.3-4.9c-0.8-2-1.2-4.3-1.2-7.1c0-2.7,0.4-5.1,1.1-7.1s1.8-3.7,3-5    c1.3-1.4,2.8-2.3,4.6-3c1.8-0.6,3.7-1,5.8-1c4.2,0,7.3,1.2,9.5,3.6c2.2,2.4,3.3,5.9,3.3,10.3v1.3c0,0.4-0.1,0.6-0.1,0.7h-18    C42.3,1075.5,42.4,1077.1,42.8,1078.6z M50.7,1063.6c-0.6-1.8-1.8-2.8-3.4-2.8c-1,0-1.7,0.3-2.3,1c-0.6,0.6-1.1,1.4-1.4,2.4    c-0.4,1-0.6,2.1-0.9,3.3s-0.3,2.5-0.3,3.6h9.6C51.8,1067.9,51.4,1065.4,50.7,1063.6z"/>
		<path id="path460_24_" fill="#363736" d="M83.7,1069.7c1.2-3.6,2.5-7.3,3.6-11c0.5,0.1,0.9,0.2,1.3,0.2s0.9,0.1,1.3,0.1    c0.4,0,0.9-0.1,1.3-0.1c0.4-0.1,0.9-0.2,1.4-0.2c-0.6,1.6-1.4,3.5-2.5,5.7c-1,2.2-2,4.5-3,7.1c-1,2.6-2.2,5.3-3.3,8.3    c-1.1,3-2.1,5.9-3.1,9.1c-0.6-0.1-1.1-0.2-1.7-0.2s-1.1,0-1.7,0c-0.6,0-1.1,0-1.7,0c-0.6,0-1.1,0.1-1.7,0.2    c-0.9-2.4-1.8-5-2.8-7.9c-1-2.9-2-5.7-3-8.5c-1-2.8-1.9-5.4-2.8-7.8c-0.9-2.4-1.6-4.4-2.2-5.9c0.9,0.1,1.8,0.2,2.6,0.2    s1.6,0.1,2.4,0.1c0.8,0,1.6-0.1,2.3-0.1c0.7-0.1,1.6-0.2,2.3-0.2c1.1,3.7,2.2,7.3,3.4,11c1.1,3.6,2.3,7.3,3.5,11h0.2    C81.2,1077,82.5,1073.3,83.7,1069.7z"/>
		<path id="path462_24_" fill="#363736" d="M95.7,1067.3c0.9-2.1,2-3.8,3.4-5.2c1.4-1.4,3-2.5,4.9-3.1c1.8-0.6,3.8-1,5.7-1    c4.9,0,8.7,1.4,11.3,4.2c2.6,2.7,4,6.5,4,11.1c0,2.6-0.4,4.8-1.1,6.9c-0.7,2-1.8,3.8-3.2,5.2c-1.4,1.4-3,2.5-4.9,3.2    c-1.8,0.7-3.9,1-6.2,1c-1.8,0-3.7-0.2-5.5-0.7s-3.4-1.4-4.9-2.6c-1.4-1.2-2.6-2.7-3.5-4.7c-0.9-1.9-1.4-4.3-1.4-7.1    C94.4,1071.8,94.8,1069.4,95.7,1067.3z M114.4,1063.8c-1-2-2.5-3-4.6-3c-1.9,0-3.4,1.1-4.5,3.4c-1.1,2.2-1.7,5.8-1.7,10.6    c0,1.8,0.1,3.4,0.3,4.9c0.2,1.5,0.6,2.8,1,3.9c0.5,1.1,1.1,2,1.8,2.6c0.7,0.6,1.8,1,2.9,1c4,0,6-4.9,6-14.7    C115.8,1068.6,115.3,1065.8,114.4,1063.8z"/>
		<path id="path464_24_" fill="#363736" d="M131.5,1052c-0.1-3.4-0.2-6.9-0.4-10.3c0.6,0.1,1.2,0.2,2.1,0.2s1.7,0.1,2.6,0.1    s1.8-0.1,2.6-0.1c0.9-0.1,1.5-0.2,2.1-0.2c-0.2,3.5-0.3,7-0.4,10.3c-0.1,3.4-0.2,7.1-0.2,11.2v4.1c0,4.1,0.1,7.9,0.2,11.2    c0.1,3.4,0.2,6.8,0.4,10.2c-0.6-0.1-1.2-0.2-2.1-0.2s-1.7,0-2.6,0s-1.8,0-2.6,0s-1.5,0.1-2.1,0.2c0.2-3.4,0.3-6.7,0.4-10.2    c0.1-3.4,0.2-7.1,0.2-11.2v-4.1C131.5,1059.2,131.5,1055.5,131.5,1052z"/>
		<path id="path466_24_" fill="#363736" d="M149.7,1043.4c1-1,2.1-1.4,3.5-1.4c1.4,0,2.6,0.5,3.5,1.4s1.4,2.1,1.4,3.5    s-0.5,2.6-1.4,3.5c-1,1-2.1,1.4-3.5,1.4s-2.6-0.5-3.5-1.4c-1-1-1.4-2.1-1.4-3.5S148.7,1044.4,149.7,1043.4z M148.9,1065.5    c-0.1-2.2-0.2-4.5-0.4-6.7c0.6,0.1,1.3,0.2,2.1,0.2c0.8,0.1,1.7,0.1,2.6,0.1c1.9,0,3.5-0.1,4.7-0.3c-0.2,2.2-0.3,4.5-0.4,6.7    s-0.1,4.6-0.1,7.1v2.5c0,2.6,0.1,5,0.1,7.2c0.1,2.2,0.2,4.4,0.4,6.5c-0.6-0.1-1.2-0.2-2-0.2c-0.8,0-1.7,0-2.6,0s-1.8,0-2.6,0    c-0.8,0-1.4,0.1-2.1,0.2c0.2-2.1,0.3-4.3,0.4-6.5s0.1-4.7,0.1-7.2v-2.5C149,1070.1,149,1067.7,148.9,1065.5z"/>
		<path id="path468_24_" fill="#363736" d="M172,1083.7c-1.1,1.8-2.2,3.5-3.2,5.1c-0.9-0.1-1.7-0.2-2.6-0.2c-0.4,0-0.9,0-1.3,0    s-1,0.1-1.5,0.2c0.3-0.2,0.9-0.9,1.7-1.9c0.8-1,1.7-2.2,2.7-3.6c1-1.4,2-2.7,3-4.2c1-1.4,1.9-2.7,2.6-3.8    c-0.7-1.4-1.6-2.9-2.6-4.5c-1-1.7-1.9-3.3-2.9-4.9c-1-1.6-1.8-3-2.6-4.3c-0.8-1.3-1.4-2.2-1.8-2.9c1,0.1,1.9,0.2,2.8,0.2    c0.9,0.1,1.8,0.1,2.6,0.1c0.8,0,1.7-0.1,2.6-0.1c0.9-0.1,1.7-0.2,2.6-0.2c0.9,1.6,1.8,3.3,2.6,5s1.8,3.4,2.7,5    c1.1-1.8,2.2-3.4,3.4-5c1.1-1.6,2.2-3.2,3.2-5c0.5,0.1,0.9,0.2,1.3,0.2c0.4,0.1,0.9,0.1,1.3,0.1c0.4,0,1-0.1,1.4-0.1    s1-0.2,1.6-0.2c-0.4,0.5-1,1.2-1.8,2.2c-0.8,1-1.7,2.2-2.7,3.4c-1,1.3-2,2.6-3,3.9c-1,1.4-1.9,2.6-2.7,3.6    c1.7,2.9,3.4,5.7,5.1,8.6c1.7,2.8,3.4,5.6,5.2,8.4c-0.9-0.1-1.7-0.2-2.6-0.2c-0.9,0-1.8,0-2.6,0c-0.9,0-1.7,0-2.6,0    s-1.8,0.1-2.6,0.2l-5.8-10.5C174.3,1080.1,173.1,1081.9,172,1083.7z"/>
	</g>
	<text transform="matrix(1 0 0 1 32.2401 1101.3066)" fill="#363736" font-family="'Cabin-Regular'" font-size="7.9824">Hébergement et Infogérance en Logiciels Libres</text>
</g>
</svg>