<?xml version="1.0" encoding="UTF-8" standalone="no"?>
<!-- Created with Inkscape (http://www.inkscape.org/) -->

<svg
   xmlns:dc="http://purl.org/dc/elements/1.1/"
   xmlns:cc="http://creativecommons.org/ns#"
   xmlns:rdf="http://www.w3.org/1999/02/22-rdf-syntax-ns#"
   xmlns:svg="http://www.w3.org/2000/svg"
   xmlns="http://www.w3.org/2000/svg"
   xmlns:sodipodi="http://sodipodi.sourceforge.net/DTD/sodipodi-0.dtd"
   xmlns:inkscape="http://www.inkscape.org/namespaces/inkscape"
   version="1.1"
   id="svg2"
   xml:space="preserve"
   width="220"
   height="68"
   viewBox="0 0 220 68"
   sodipodi:docname="fadq.svg"
   inkscape:version="0.92.1 r15371"><metadata
     id="metadata8"><rdf:RDF><cc:Work
         rdf:about=""><dc:format>image/svg+xml</dc:format><dc:type
           rdf:resource="http://purl.org/dc/dcmitype/StillImage" /><dc:title></dc:title></cc:Work></rdf:RDF></metadata><defs
     id="defs6" /><sodipodi:namedview
     pagecolor="#ffffff"
     bordercolor="#666666"
     borderopacity="1"
     objecttolerance="10"
     gridtolerance="10"
     guidetolerance="10"
     inkscape:pageopacity="0"
     inkscape:pageshadow="2"
     inkscape:window-width="640"
     inkscape:window-height="480"
     id="namedview4"
     showgrid="false"
     inkscape:zoom="1.7863636"
     inkscape:cx="110"
     inkscape:cy="34"
     inkscape:window-x="0"
     inkscape:window-y="29"
     inkscape:window-maximized="0"
     inkscape:current-layer="g10" /><g
     id="g10"
     inkscape:groupmode="layer"
     inkscape:label="ink_ext_XXXXXX"
     transform="matrix(1.3333333,0,0,-1.3333333,0,68)"><g
       id="g12"
       transform="scale(0.1)"><path
         d="m 800.273,66.582 -0.007,88.645 h -0.676 c -3.152,-2.903 -14.817,-3.125 -19.735,-3.125 h -8.578 v -0.707 c 9.914,-6.082 8.578,-15.106 8.578,-26.278 V 87.6172 c 0,-18.7227 -18.429,-31.875 -33.292,-31.875 -19.543,0 -27.668,13.8672 -27.668,36.2773 v 63.2075 h -0.665 c -3.152,-2.903 -14.851,-3.125 -19.812,-3.125 h -8.484 v -0.707 c 9.89,-6.082 8.562,-15.106 8.562,-26.278 V 87.7734 c 0,-34.2382 14.817,-50.4882 41.359,-50.4882 15.711,0 31.903,5.6132 40,18.9062 V 40.0391 h 28.954 v 0.7304 c -9.883,5.586 -8.536,14.6016 -8.536,25.8125"
         style="fill:#000000;fill-opacity:1;fill-rule:nonzero;stroke:none"
         id="path14"
         inkscape:connector-curvature="0" /><path
         d="m 845.195,113.945 c 2.696,15.254 13.953,24.922 29.004,24.922 16.199,0 26.563,-7.976 29.024,-24.922 z m 81.66,-14.0895 c 0.879,31.2575 -20.039,54.8715 -50.625,54.8715 -33.515,0 -56.23,-24.317 -56.23,-58.0395 0,-33.9922 26.316,-59.8711 64.551,-59.8711 10.586,0 21.387,1.6602 31.054,5.9961 l 11.25,22.832 h -0.671 c -10.371,-8.8281 -23.391,-12.957 -36.914,-12.957 -25.415,0 -44.524,17.332 -44.961,47.168 h 82.546"
         style="fill:#000000;fill-opacity:1;fill-rule:nonzero;stroke:none"
         id="path16"
         inkscape:connector-curvature="0" /><path
         d="m 944.688,206.699 c 5.41,0 16.406,0.344 19.707,3.621 h 0.671 V 56.8086 c 6.039,-1.6914 12.289,-2.8633 18.539,-2.8633 24.615,0 38.665,17.1602 38.665,41.1133 0,23.5154 -10.92,41.6714 -33.5,41.6714 -7.161,0 -12.747,-1.945 -18.77,-5.324 l 12.07,20.657 c 5.118,1.921 10.489,2.664 15.868,2.664 25.482,0 47.142,-22.122 47.142,-55.2934 0,-38.0273 -25.72,-62.5859 -66.369,-62.5859 -15.215,0 -29.773,2.6718 -40.813,4.375 v 0.7304 c 7.434,3.418 6.743,11.4649 6.743,19.4532 V 173.02 c 0,11.179 1.355,26.855 -8.313,32.957 v 0.722 h 8.36"
         style="fill:#000000;fill-opacity:1;fill-rule:nonzero;stroke:none"
         id="path18"
         inkscape:connector-curvature="0" /><path
         d="m 1085.02,113.945 c 2.71,15.254 13.96,24.922 29.02,24.922 16.19,0 26.53,-7.976 29.03,-24.922 z m 81.66,-14.0895 c 0.9,31.2575 -20.04,54.8715 -50.62,54.8715 -33.5,0 -56.22,-24.317 -56.22,-58.0395 0,-33.9922 26.3,-59.8711 64.55,-59.8711 10.58,0 21.38,1.6602 31.05,5.9961 l 11.24,22.832 h -0.66 c -10.38,-8.8281 -23.41,-12.957 -36.91,-12.957 -25.42,0 -44.54,17.332 -44.99,47.168 h 82.56"
         style="fill:#000000;fill-opacity:1;fill-rule:nonzero;stroke:none"
         id="path20"
         inkscape:connector-curvature="0" /><path
         d="m 1267.27,126.914 h -0.66 c -6.53,8.027 -17.34,11.953 -27.43,11.953 -21.82,0 -37.57,-16.554 -37.57,-39.7068 0,-27.9766 21.81,-46.4727 46.78,-46.4727 11.47,0 24.07,4.8516 32.86,11.9141 h 0.65 l -11.71,-22.9805 c -9.42,-3.8281 -19.79,-4.8047 -29.7,-4.8047 -34.6,0 -61.68,24.3672 -61.68,56.0156 0,41.895 30.21,61.895 64.18,61.895 8.08,0 16.41,-0.957 24.28,-2.879 v -24.934"
         style="fill:#000000;fill-opacity:1;fill-rule:nonzero;stroke:none"
         id="path22"
         inkscape:connector-curvature="0" /><path
         d="m 898.777,174.824 c 0,11.328 0,24.364 0,24.364 -14.734,-6.61 -28.425,-18.961 -37.554,-30.985 v -9.48 c 21.863,14.754 37.554,15.398 37.554,16.101"
         style="fill:#000000;fill-opacity:1;fill-rule:nonzero;stroke:none"
         id="path24"
         inkscape:connector-curvature="0" /><path
         d="m 597.355,53.5352 c -33.957,0 -57.582,38.3203 -57.582,70.8788 0,0.359 0,3.352 0,3.652 0.415,31.543 20.852,61.145 56.477,61.145 37.48,0 56.816,-35.481 57.129,-69.094 0,-0.254 0,-3.222 0,-3.469 0,-35.8277 -22.274,-63.1128 -56.024,-63.1128 z M 713.789,16.2695 c -25.066,-4.082 -49.187,3.8086 -74.805,33.125 24.739,12.4219 40.039,43.3789 40.039,72.1215 0,0.293 0,3.269 0,3.589 -0.449,49.172 -37.402,81.653 -81.457,81.653 -44.109,0 -83.125,-33.82 -83.457,-83.399 0,-0.234 -0.007,-3.093 -0.007,-3.32 0,-48.2226 35.793,-84.0156 79.668,-84.0156 6.289,0 12.375,0.9571 18.418,2.4141 28.75,-26.9141 54.355,-38.3789062 76.496,-35.70312 10.476,1.25 21.57,5.44921 28.218,14.11332 l -3.113,-0.5782"
         style="fill:#000000;fill-opacity:1;fill-rule:nonzero;stroke:none"
         id="path26"
         inkscape:connector-curvature="0" /><path
         d="m 1471.39,163.418 v 83.574 h -136.33 v -83.574 h 136.33"
         style="fill:#1a67bb;fill-opacity:1;fill-rule:nonzero;stroke:none"
         id="path28"
         inkscape:connector-curvature="0" /><path
         d="m 1403.23,242.598 c -0.96,-1.828 -3.23,-4.461 -6.95,-9.168 -4.35,-5.403 -3.57,-12.66 -1.53,-16.953 2.36,-4.946 3.73,-9.055 4.81,-12.922 1.49,-5.657 0.5,-13.211 0.63,-12.508 h -3.8 c 0,9.187 -2.89,17.871 -9.83,21.726 -9.9,5.481 -19.66,-4.023 -16.54,-13.886 1.66,-5.176 4.55,-6.907 5.38,-6.907 0,0 -1.36,5.688 2.75,8.586 3.87,2.747 8.69,1.106 10.89,-2.168 2.11,-3.117 2.44,-7.351 2.44,-7.351 h -7.1 v -5.254 h 14.29 c 0,0 -0.4,-7.434 -8.22,-6.711 0,0 0.96,-5.84 8.22,-2.793 0,0 -0.4,-6.094 4.56,-9.187 v 0 0 c 4.96,3.093 4.6,9.187 4.6,9.187 7.25,-3.047 8.19,2.793 8.19,2.793 -7.83,-0.723 -8.19,6.711 -8.19,6.711 h 14.27 v 5.254 h -7.08 c 0,0 0.33,4.234 2.42,7.351 2.23,3.274 7.01,4.915 10.88,2.168 4.12,-2.898 2.79,-8.586 2.79,-8.586 0.82,0 3.7,1.731 5.37,6.907 3.08,9.863 -6.67,19.367 -16.55,13.886 -6.96,-3.855 -9.81,-12.539 -9.81,-21.726 h -3.79 c 0.08,-0.703 -0.9,6.851 0.61,12.508 1.05,3.867 2.42,7.976 4.8,12.922 2.07,4.293 2.83,11.55 -1.51,16.953 -3.73,4.707 -5.97,7.34 -7,9.168"
         style="fill:#ffffff;fill-opacity:1;fill-rule:nonzero;stroke:none"
         id="path30"
         inkscape:connector-curvature="0" /><path
         d="m 1647.48,163.418 v 83.574 h -136.35 v -83.574 h 136.35"
         style="fill:#1a67bb;fill-opacity:1;fill-rule:nonzero;stroke:none"
         id="path32"
         inkscape:connector-curvature="0" /><path
         d="m 1579.28,242.598 c -1.02,-1.828 -3.24,-4.461 -7.01,-9.168 -4.36,-5.403 -3.56,-12.66 -1.5,-16.953 2.37,-4.946 3.72,-9.055 4.82,-12.922 1.48,-5.657 0.5,-13.211 0.6,-12.508 h -3.8 c 0,9.187 -2.87,17.871 -9.83,21.726 -9.87,5.481 -19.62,-4.023 -16.51,-13.886 1.64,-5.176 4.56,-6.907 5.34,-6.907 0,0 -1.33,5.688 2.8,8.586 3.84,2.747 8.66,1.106 10.85,-2.168 2.11,-3.117 2.46,-7.351 2.46,-7.351 h -7.1 v -5.254 h 14.27 c 0,0 -0.37,-7.434 -8.19,-6.711 0,0 0.96,-5.84 8.19,-2.793 0,0 -0.37,-6.094 4.61,-9.187 v 0 0 c 4.94,3.093 4.55,9.187 4.55,9.187 7.24,-3.047 8.23,2.793 8.23,2.793 -7.84,-0.723 -8.23,6.711 -8.23,6.711 h 14.31 v 5.254 h -7.12 c 0,0 0.37,4.234 2.44,7.351 2.2,3.274 7.01,4.915 10.92,2.168 4.08,-2.898 2.77,-8.586 2.77,-8.586 0.82,0 3.7,1.731 5.32,6.907 3.1,9.863 -6.67,19.367 -16.53,13.886 -6.92,-3.855 -9.81,-12.539 -9.81,-21.726 h -3.77 c 0.1,-0.703 -0.91,6.851 0.61,12.508 1.05,3.867 2.42,7.976 4.8,12.922 2.05,4.293 2.83,11.55 -1.54,16.953 -3.73,4.707 -5.98,7.34 -6.95,9.168"
         style="fill:#ffffff;fill-opacity:1;fill-rule:nonzero;stroke:none"
         id="path34"
         inkscape:connector-curvature="0" /><path
         d="M 1471.39,40.1055 V 123.645 H 1335.06 V 40.1055 h 136.33"
         style="fill:#1a67bb;fill-opacity:1;fill-rule:nonzero;stroke:none"
         id="path36"
         inkscape:connector-curvature="0" /><path
         d="m 1403.23,119.27 c -0.96,-1.836 -3.23,-4.485 -6.95,-9.165 -4.35,-5.417 -3.57,-12.6636 -1.53,-16.9605 2.36,-4.9414 3.73,-9.0234 4.81,-12.9179 1.49,-5.625 0.5,-13.2071 0.63,-12.5 h -3.8 c 0,9.1679 -2.89,17.8789 -9.83,21.7265 -9.9,5.4883 -19.66,-4.0156 -16.54,-13.8945 1.66,-5.1875 4.55,-6.9063 5.38,-6.9063 0,0 -1.36,5.6954 2.75,8.6211 3.87,2.7071 8.69,1.0469 10.89,-2.1953 2.11,-3.0976 2.44,-7.3515 2.44,-7.3515 h -7.1 v -5.2539 h 14.29 c 0,0 -0.4,-7.4336 -8.22,-6.7032 0,0 0.96,-5.8359 8.22,-2.7812 0,0 -0.4,-6.1328 4.56,-9.1992 v 0 0 c 4.96,3.0664 4.6,9.1992 4.6,9.1992 7.25,-3.0547 8.19,2.7812 8.19,2.7812 -7.83,-0.7304 -8.19,6.7032 -8.19,6.7032 h 14.27 v 5.2539 h -7.08 c 0,0 0.33,4.2539 2.42,7.3515 2.23,3.2422 7.01,4.9024 10.88,2.1953 4.12,-2.9257 2.79,-8.6211 2.79,-8.6211 0.82,0 3.7,1.7188 5.37,6.9063 3.08,9.8789 -6.67,19.3828 -16.55,13.8945 -6.96,-3.8476 -9.81,-12.5586 -9.81,-21.7265 h -3.79 c 0.08,-0.7071 -0.9,6.875 0.61,12.5 1.05,3.8945 2.42,7.9765 4.8,12.9179 2.07,4.2969 2.83,11.5435 -1.51,16.9605 -3.73,4.68 -5.97,7.329 -7,9.165"
         style="fill:#ffffff;fill-opacity:1;fill-rule:nonzero;stroke:none"
         id="path38"
         inkscape:connector-curvature="0" /><path
         d="M 1647.48,40.1055 V 123.645 H 1511.13 V 40.1055 h 136.35"
         style="fill:#1a67bb;fill-opacity:1;fill-rule:nonzero;stroke:none"
         id="path40"
         inkscape:connector-curvature="0" /><path
         d="m 1579.28,119.27 c -1.02,-1.836 -3.24,-4.485 -7.01,-9.165 -4.36,-5.417 -3.56,-12.6636 -1.5,-16.9605 2.37,-4.9414 3.72,-9.0234 4.82,-12.9179 1.48,-5.625 0.5,-13.2071 0.6,-12.5 h -3.8 c 0,9.1679 -2.87,17.8789 -9.83,21.7265 -9.87,5.4883 -19.62,-4.0156 -16.51,-13.8945 1.64,-5.1875 4.56,-6.9063 5.34,-6.9063 0,0 -1.33,5.6954 2.8,8.6211 3.84,2.7071 8.66,1.0469 10.85,-2.1953 2.11,-3.0976 2.46,-7.3515 2.46,-7.3515 h -7.1 v -5.2539 h 14.27 c 0,0 -0.37,-7.4336 -8.19,-6.7032 0,0 0.96,-5.8359 8.19,-2.7812 0,0 -0.37,-6.1328 4.61,-9.1992 v 0 0 c 4.94,3.0664 4.55,9.1992 4.55,9.1992 7.24,-3.0547 8.23,2.7812 8.23,2.7812 -7.84,-0.7304 -8.23,6.7032 -8.23,6.7032 h 14.31 v 5.2539 h -7.12 c 0,0 0.37,4.2539 2.44,7.3515 2.2,3.2422 7.01,4.9024 10.92,2.1953 4.08,-2.9257 2.77,-8.6211 2.77,-8.6211 0.82,0 3.7,1.7188 5.32,6.9063 3.1,9.8789 -6.67,19.3828 -16.53,13.8945 -6.92,-3.8476 -9.81,-12.5586 -9.81,-21.7265 h -3.77 c 0.1,-0.7071 -0.91,6.875 0.61,12.5 1.05,3.8945 2.42,7.9765 4.8,12.9179 2.05,4.2969 2.83,11.5435 -1.54,16.9605 -3.73,4.68 -5.98,7.329 -6.95,9.165"
         style="fill:#ffffff;fill-opacity:1;fill-rule:nonzero;stroke:none"
         id="path42"
         inkscape:connector-curvature="0" /><path
         d="M 24.5195,503.75 H 52.6172 L 35.3906,420.5 H 78.7891 L 74.4805,399.988 H 2.98047 L 24.5195,503.75"
         style="fill:#231f20;fill-opacity:1;fill-rule:nonzero;stroke:none"
         id="path44"
         inkscape:connector-curvature="0" /><path
         d="m 137.969,410.84 -0.293,0.285 v -0.285 c -5.656,-8.926 -15.613,-12.656 -26.028,-12.656 -16.648,0 -25.8667,7.461 -25.8667,22.441 0,19.043 19.0317,28.438 42.6757,28.438 5.352,0 10.691,-0.45 14.402,-0.77 0.305,1.043 0.305,2.098 0.305,3.125 0,5.496 -5.488,9.961 -14.277,9.961 -9.657,0 -16.192,-1.496 -25.117,-6.098 l 2.668,19.485 c 7.878,2.683 16.355,4.453 28.406,4.453 18.426,0 33.594,-7.285 33.594,-26.309 0,-12.207 -6.836,-29.578 -9.805,-52.922 H 136.77 Z m -17.852,5.195 c 11.465,0 18.301,7.883 20.215,18.289 -2.227,0.442 -5.488,0.442 -7.129,0.442 -12.773,0.449 -22.148,-4.161 -22.148,-10.989 0,-3.57 3.425,-7.742 9.062,-7.742"
         style="fill:#231f20;fill-opacity:1;fill-rule:nonzero;stroke:none"
         id="path46"
         inkscape:connector-curvature="0" /><path
         d="m 242.48,503.75 h 69.422 l -3.855,-19.629 h -42.234 l -5.188,-22.742 h 40.73 l -4,-19.629 h -40.148 l -8.789,-41.762 H 220.48 l 22,103.762"
         style="fill:#231f20;fill-opacity:1;fill-rule:nonzero;stroke:none"
         id="path48"
         inkscape:connector-curvature="0" /><path
         d="m 322.313,477.449 h 27.062 L 333.313,399.988 H 306.27 Z m 6.835,32.258 h 27.075 l -4.172,-19.629 H 324.98 l 4.168,19.629"
         style="fill:#231f20;fill-opacity:1;fill-rule:nonzero;stroke:none"
         id="path50"
         inkscape:connector-curvature="0" /><path
         d="m 364.98,457.227 c 1.336,6.679 2.54,13.222 3.282,20.222 h 24.824 l -2.07,-12.652 h 0.273 c 7.754,8.621 15.774,14.422 29.902,14.422 15.586,0 24.082,-11.59 24.082,-26.77 0,-5.183 -0.46,-8.16 -2.089,-16.336 l -7.129,-36.125 h -27.657 l 7.422,36.282 c 0.743,3.847 1.785,7.726 1.785,11.73 0,4.617 -2.964,9.227 -10.398,8.914 -11.309,0 -17.988,-9.793 -19.922,-21.25 l -7.578,-35.676 h -26.769 l 12.042,57.239"
         style="fill:#231f20;fill-opacity:1;fill-rule:nonzero;stroke:none"
         id="path52"
         inkscape:connector-curvature="0" /><path
         d="m 505.645,410.84 -0.332,0.285 v -0.285 c -5.606,-8.926 -15.586,-12.656 -26.004,-12.656 -16.633,0 -25.871,7.461 -25.871,22.441 0,19.043 19.042,28.438 42.675,28.438 5.332,0 10.723,-0.45 14.407,-0.77 0.32,1.043 0.32,2.098 0.32,3.125 0,5.496 -5.527,9.961 -14.258,9.961 -9.68,0 -16.25,-1.496 -25.144,-6.098 l 2.683,19.485 c 7.859,2.683 16.328,4.453 28.379,4.453 18.457,0 33.613,-7.285 33.613,-26.309 0,-12.207 -6.843,-29.578 -9.824,-52.922 h -21.855 z m -17.852,5.195 c 11.445,0 18.281,7.883 20.227,18.289 -2.25,0.442 -5.52,0.442 -7.141,0.442 -12.781,0.449 -22.149,-4.161 -22.149,-10.989 0,-3.57 3.411,-7.742 9.063,-7.742"
         style="fill:#231f20;fill-opacity:1;fill-rule:nonzero;stroke:none"
         id="path54"
         inkscape:connector-curvature="0" /><path
         d="m 554.98,457.227 c 1.368,6.679 2.547,13.222 3.29,20.222 h 24.796 l -2.07,-12.652 h 0.313 c 7.714,8.621 15.754,14.422 29.882,14.422 15.586,0 24.063,-11.59 24.063,-26.77 0,-5.183 -0.441,-8.16 -2.07,-16.336 l -7.161,-36.125 h -27.625 l 7.415,36.282 c 0.75,3.847 1.804,7.726 1.804,11.73 0,4.617 -2.976,9.227 -10.39,8.914 -11.329,0 -18.008,-9.793 -19.954,-21.25 l -7.566,-35.676 h -26.769 l 12.042,57.239"
         style="fill:#231f20;fill-opacity:1;fill-rule:nonzero;stroke:none"
         id="path56"
         inkscape:connector-curvature="0" /><path
         d="m 705.293,401.164 c -5.352,-1.789 -12.48,-2.98 -22.898,-2.98 -22.61,0 -36.575,15.918 -36.575,35.39 0,25.449 20.203,45.645 49.981,45.645 6.512,0 16.472,-1.934 24.355,-5.188 l -5.801,-18.601 c -5.468,2.531 -11.289,4.16 -17.253,4.16 -13.821,0 -23.625,-8.906 -23.625,-24.969 0,-9.211 7.128,-16.789 18.425,-16.789 6.672,0 11.457,1.035 17.246,3.406 l -3.855,-20.074"
         style="fill:#231f20;fill-opacity:1;fill-rule:nonzero;stroke:none"
         id="path58"
         inkscape:connector-curvature="0" /><path
         d="m 735.313,477.449 h 27.05 l -16.035,-77.461 h -27.051 z m 6.855,32.258 h 27.062 l -4.171,-19.629 H 737.98 l 4.188,19.629"
         style="fill:#231f20;fill-opacity:1;fill-rule:nonzero;stroke:none"
         id="path60"
         inkscape:connector-curvature="0" /><path
         d="m 836.563,402.488 c -9.395,-2.793 -19.356,-4.304 -27.051,-4.304 -25.879,0 -39.824,15.918 -39.824,35.39 0,18.008 11.875,45.645 46.347,45.645 20.36,0 35.703,-10.262 35.703,-33.75 0,-3.106 -0.886,-9.961 -1.925,-14.563 h -54.879 c 0.3,-8.328 4.468,-14.871 20.796,-14.871 7.168,0 16.797,1.797 24.25,5.352 z m -7.161,43.586 c 0,8.321 -3.25,15.305 -13.054,15.305 -11.614,0 -17.832,-7.883 -19.766,-15.305 z m -31.199,59.004 v 3.293 h 27.793 l 14.277,-19.641 v -1.777 h -17.539 l -24.531,18.125"
         style="fill:#231f20;fill-opacity:1;fill-rule:nonzero;stroke:none"
         id="path62"
         inkscape:connector-curvature="0" /><path
         d="m 896.914,477.449 -2.949,-15.918 h 0.293 c 4.305,9.074 12.949,17.688 23.933,17.688 3.547,0 7.727,-0.442 11.301,-1.934 l -6.094,-23.633 c -3.418,2.676 -7.265,3.262 -12.335,3.262 -11.336,0 -17.977,-9.793 -19.93,-21.25 l -7.598,-35.676 h -26.758 l 12.051,57.239 c 1.317,6.679 2.52,13.222 3.274,20.222 h 24.812"
         style="fill:#231f20;fill-opacity:1;fill-rule:nonzero;stroke:none"
         id="path64"
         inkscape:connector-curvature="0" /><path
         d="m 990.762,402.488 c -9.367,-2.793 -19.324,-4.304 -27.032,-4.304 -25.878,0 -39.875,15.918 -39.875,35.39 0,18.008 11.887,45.645 46.379,45.645 20.391,0 35.686,-10.262 35.686,-33.75 0,-3.106 -0.9,-9.961 -1.94,-14.563 h -54.871 c 0.305,-8.328 4.496,-14.871 20.852,-14.871 7.129,0 16.797,1.797 24.227,5.352 z m -7.129,43.586 c 0,8.321 -3.281,15.305 -13.106,15.305 -11.562,0 -17.832,-7.883 -19.757,-15.305 h 32.863"
         style="fill:#231f20;fill-opacity:1;fill-rule:nonzero;stroke:none"
         id="path66"
         inkscape:connector-curvature="0" /><path
         d="m 54.668,262.156 -0.2735,0.305 v -0.305 c -5.664,-8.914 -15.625,-12.625 -26.0351,-12.625 -16.6289,0 -25.83987,7.442 -25.83987,22.442 0,19.043 19.00387,28.398 42.65627,28.398 5.3437,0 10.7148,-0.457 14.414,-0.723 0.3047,1.016 0.3047,2.063 0.3047,3.098 0,5.508 -5.5,9.969 -14.289,9.969 -9.6485,0 -16.2032,-1.477 -25.125,-6.113 l 2.6836,19.492 c 7.8906,2.683 16.3554,4.472 28.3984,4.472 18.4375,0 33.6133,-7.304 33.6133,-26.316 0,-12.199 -6.8555,-29.594 -9.8242,-52.941 H 53.4844 Z m -17.8125,5.219 c 11.4258,0 18.289,7.871 20.207,18.277 -2.2187,0.434 -5.5,0.434 -7.1289,0.434 -12.7852,0.457 -22.1602,-4.152 -22.1602,-10.988 0,-3.567 3.418,-7.723 9.0821,-7.723"
         style="fill:#231f20;fill-opacity:1;fill-rule:nonzero;stroke:none"
         id="path68"
         inkscape:connector-curvature="0" /><path
         d="m 100.918,244.043 c 6.98,-4.016 14.121,-5.969 22.461,-6.094 18.723,-0.312 25.41,6.836 29.59,26.594 l -0.313,0.281 c -5.957,-8.625 -14.707,-13.515 -25.261,-13.515 -21.262,0 -31.6723,14.726 -31.6723,35.234 0,23.926 16.5043,44.023 41.4653,44.023 11.75,0 22.324,-4.773 26.789,-15.918 h 0.281 l 3.418,14.129 H 192.5 c -1.035,-4.156 -2.98,-10.281 -4.922,-18.601 l -11.887,-52.762 c -6.836,-30.039 -17.546,-39.113 -49.636,-39.113 -13.399,0 -22.168,2.383 -30.3323,4.902 z m 41.777,65.977 c -13.379,0 -19.316,-13.067 -19.316,-23.934 0,-8.012 5.476,-14.262 13.976,-14.262 13.668,0 19.625,14.153 19.625,24.231 0,8.195 -4.917,13.965 -14.285,13.965"
         style="fill:#231f20;fill-opacity:1;fill-rule:nonzero;stroke:none"
         id="path70"
         inkscape:connector-curvature="0" /><path
         d="m 231.289,328.777 -2.949,-15.918 h 0.293 c 4.305,9.075 12.93,17.707 23.933,17.707 3.579,0 7.727,-0.468 11.289,-1.941 l -6.089,-23.664 c -3.411,2.707 -7.286,3.293 -12.336,3.293 -11.289,0 -17.989,-9.816 -19.922,-21.25 l -7.578,-35.695 h -26.778 l 12.051,57.226 c 1.348,6.711 2.527,13.242 3.274,20.242 h 24.812"
         style="fill:#231f20;fill-opacity:1;fill-rule:nonzero;stroke:none"
         id="path72"
         inkscape:connector-curvature="0" /><path
         d="m 276.035,328.777 h 27.07 L 287.063,251.309 H 260 Z m 6.863,32.258 h 27.063 l -4.16,-19.629 H 278.73 l 4.168,19.629"
         style="fill:#231f20;fill-opacity:1;fill-rule:nonzero;stroke:none"
         id="path74"
         inkscape:connector-curvature="0" /><path
         d="m 369.863,252.488 c -5.351,-1.765 -12.5,-2.957 -22.89,-2.957 -22.598,0 -36.575,15.918 -36.575,35.383 0,25.418 20.207,45.652 49.954,45.652 6.543,0 16.503,-1.941 24.375,-5.214 l -5.789,-18.575 c -5.52,2.512 -11.301,4.129 -17.25,4.129 -13.836,0 -23.661,-8.902 -23.661,-24.929 0,-9.239 7.161,-16.817 18.45,-16.817 6.707,0 11.453,1.047 17.253,3.399 l -3.867,-20.071"
         style="fill:#231f20;fill-opacity:1;fill-rule:nonzero;stroke:none"
         id="path76"
         inkscape:connector-curvature="0" /><path
         d="m 425,249.531 c -28.684,0 -40.273,15.918 -40.273,35.383 0,27.207 19.628,45.652 49.941,45.652 26.316,0 40.312,-15.175 40.312,-34.66 0,-32.273 -20.957,-46.375 -49.98,-46.375 z m 8.352,62.285 c -12.942,0 -20.957,-13.984 -20.957,-26.289 0,-10.429 5.496,-17.422 14.546,-17.285 12.5,0 20.372,10.422 20.372,27.969 0,8.039 -3.543,15.605 -13.961,15.605"
         style="fill:#231f20;fill-opacity:1;fill-rule:nonzero;stroke:none"
         id="path78"
         inkscape:connector-curvature="0" /><path
         d="m 506.191,362.813 h 27.051 L 510.059,251.309 h -27.051 l 23.183,111.504"
         style="fill:#231f20;fill-opacity:1;fill-rule:nonzero;stroke:none"
         id="path80"
         inkscape:connector-curvature="0" /><path
         d="m 600.293,253.848 c -9.355,-2.832 -19.316,-4.317 -27.063,-4.317 -25.847,0 -39.812,15.918 -39.812,35.383 0,17.977 11.875,45.652 46.367,45.652 20.36,0 35.684,-10.273 35.684,-33.769 0,-3.098 -0.906,-9.942 -1.946,-14.551 h -54.851 c 0.305,-8.328 4.453,-14.871 20.808,-14.871 7.161,0 16.797,1.785 24.243,5.332 z m -7.148,43.554 c 0,8.321 -3.25,15.313 -13.067,15.313 -11.594,0 -17.851,-7.891 -19.746,-15.313 h 32.813"
         style="fill:#231f20;fill-opacity:1;fill-rule:nonzero;stroke:none"
         id="path82"
         inkscape:connector-curvature="0" /></g></g></svg>