<?xml version="1.0" encoding="UTF-8" standalone="no"?>
<svg id="svg10017" width="774.73" xmlns="http://www.w3.org/2000/svg" version="1.0" height="222.15" viewBox="0 0 775.13 222.15">
 <g id="layer1" transform="translate(20.222 -576.04)">
  <g id="g10183" fill-rule="evenodd">
   <path id="path9590" d="m577.05 578.84v41.91h56.23s-0.34-41.91 0-41.91h27.6v104.78h-27.6v-46.1h-56.23v46.1h-27.6v-104.78h27.6" class="ps03" fill="#4d4d4d"/>
   <path id="path9592" d="m313.69 578.84v17.81h-42.61v86.97h-27.94v-86.97h-42.27v-17.81h112.82" class="ps03" fill="#4d4d4d"/>
   <path id="path9594" d="m421.62 683.62h-31.08l-9.09-22.7h-52.04l-9.08 22.7h-30.74l48.9-104.78h33.88l49.25 104.78zm-66.01-86.97l-19.56 47.5h38.77l-19.21-47.5" class="ps03" fill="#4d4d4d"/>
   <path id="path9596" d="m682.9 683.62v-104.78h27.95v104.78h-27.95" class="ps03" fill="#4d4d4d"/>
   <path id="path9598" d="m57.319 578.84v41.91h55.881v-41.91h27.95v104.78h-27.95v-46.1h-55.881v46.1h-27.943s0.35-104.78 0-104.78h27.943" class="ps03" fill="#4d4d4d"/>
   <path id="path9600" d="m163.15 683.62v-104.78h27.6v104.78h-27.6" class="ps03" fill="#4d4d4d"/>
   <path id="path9602" d="m420.57 654.63c-2.44-7.33-3.84-14.67-3.84-22.35 0-11.18 2.1-21.66 7.34-30.74s13.62-16.07 23.75-19.91c9.43-3.49 19.89-5.59 30.75-5.59 12.57 0 24.45 2.8 34.93 7.34 10.09 4.54 17.81 13.62 19.89 24.45 0.34 2.09 0.68 4.19 1.07 6.63h-29.01c-0.34-2.79-0.68-5.58-1.75-8.03-2.08-5.94-6.98-10.48-12.9-12.22-3.88-1.05-8.05-1.75-12.23-1.75-4.9 0-9.46 0.7-13.63 2.44-7.34 2.45-12.93 8.04-15.38 15.37-2.44 6.64-3.84 14.32-3.84 22.01 0 6.28 1.05 12.57 2.8 18.16 2.09 7.68 7.68 13.97 15.02 16.77 4.9 1.74 9.79 2.79 15.03 2.79 4.52 0 8.74-0.7 12.91-2.1 5.24-1.74 9.8-5.58 12.22-10.82 1.41-3.5 2.09-7.34 2.09-11.18h29.35c-0.34 3.14-0.68 6.64-1.41 9.78-2.42 10.48-9.75 19.21-19.55 23.05-10.82 4.89-23.04 7.34-35.61 7.34-9.8 0-19.23-1.4-28.31-4.19-13.27-4.2-25.15-13.98-29.69-27.25" class="ps03" fill="#4d4d4d"/>
   <path id="path9604" d="m4.5785 712.97l-24.8 2.09v3.83h1.049c9.7782 1.06 9.7782 1.06 9.7782 8.39v51.7h15.02l0.0002-66.01h-1.0469" class="ps03" fill="#4d4d4d"/>
   <path id="path9606" d="m56.97 732.52c-9.082 0-14.67 6.29-17.115 10.13v-10.48l-1.048 0.35-19.909 3.15v3.48h0.698c6.287 0.35 7.684 1.41 7.684 7.35v32.48h12.575v-23.76c0-6.28 5.937-14.66 12.225-14.66 5.937 0 6.287 5.23 6.287 13.27v25.15h12.574v-32.48c0-9.09-4.89-13.98-13.971-13.98" class="ps03" fill="#4d4d4d"/>
   <path id="path9614" d="m105.87 750.68c-4.89-2.44-9.082-4.53-9.082-8.03 0-3.84 4.542-4.19 6.632-4.19 5.24 0 9.78 2.8 11.88 3.84l1.75 1.4v-1.75-7.69l-1.4-0.34c-2.45-0.35-6.64-1.4-11.53-1.4-11.523 0-18.858 4.89-18.858 13.63 0 7.33 7.335 11.17 13.971 14.31 4.887 2.45 9.777 4.54 9.777 8.39 0 3.49-3.14 5.24-8.38 5.24-5.938 0-10.828-2.8-13.622-4.54l-1.397-1.05v9.78h0.698c2.795 0.7 7.335 1.75 13.971 1.75 12.57 0 20.26-5.24 20.26-13.98 0-8.38-7.69-12.22-14.67-15.37" class="ps03" fill="#4d4d4d"/>
   <path id="path9616" d="m161.06 732.52c-4.54 0-9.09 2.1-13.28 6.29v-6.64l-1.04 0.35-19.91 3.15v3.48h1.04c5.94 0.35 7.34 1.41 7.34 7.35v51.69h12.57v-23.4c2.1 2.79 5.94 5.24 12.93 5.24 12.92 0 19.91-8.39 19.91-24.46 0-14.67-6.99-23.05-19.56-23.05zm-3.5 6.98c8.39 0 9.43 9.09 9.43 16.07 0 11.88-3.14 17.82-9.43 17.82-8.03 0-9.78-7.69-9.78-13.97v-4.2c0-4.54 1.05-15.72 9.78-15.72" class="ps03" fill="#4d4d4d"/>
   <path id="path9618" d="m189.35 735.67v3.48h0.7c6.28 0.35 7.68 1.41 7.68 7.35v32.48h12.23v-46.81l-0.7 0.35-19.91 3.15" class="ps03" fill="#4d4d4d"/>
   <path id="path9620" d="m204.02 726.93c4.19 0 7.68-3.15 7.68-6.98 0-3.5-3.49-6.63-7.68-6.63s-7.69 3.13-7.69 6.63c0 3.83 3.5 6.98 7.69 6.98" class="ps03" fill="#4d4d4d"/>
   <path id="path9622" d="m262.7 742.65v-9.43l-1.05-0.35c-1.75-0.35-3.84-0.35-5.94-0.35-6.98 0-10.83 5.24-12.57 9.09v-9.44l-1.05 0.35-19.91 3.15v3.48h0.7c6.29 0.35 7.68 1.41 7.68 7.35v32.48h12.58v-23.41c0-3.83 1.39-12.92 12.92-12.92 1.4 0 3.14 0.35 4.54 0.7l2.1 0.7v-1.4" class="ps03" fill="#4d4d4d"/>
   <path id="path9624" d="m311.95 751.39c0-12.58-6.99-18.87-20.61-18.87-15.72 0-23.4 7.34-23.4 22.35 0 15.72 10.13 25.16 27.24 25.16 7.34 0 12.92-1.75 15.02-2.45l0.7-0.35v-5.94l-1.05 0.35c-2.09 0.7-5.59 1.75-9.78 1.75-13.27 0-18.51-11.17-18.51-21.31h30.39v-0.69zm-20.96-13.98c6.64 0 8.38 4.89 8.38 9.43h-17.81c0.35-3.49 2.09-9.43 9.43-9.43" class="ps03" fill="#4d4d4d"/>
   <path id="path9626" d="m426.17 732.52c-9.44 0-14.68 5.59-17.12 9.78v-31.09h-1.05l-19.91 2.79v3.5h0.7c6.29 0 7.69 1.39 7.69 7.69v53.79h12.57v-23.06c0-8.73 6.28-15.36 11.52-15.36 6.99 0 6.99 5.23 6.99 9.77v28.65h12.58v-30.04c0-4.89 0-16.42-13.97-16.42" class="ps03" fill="#4d4d4d"/>
   <path id="path9628" d="m496.38 751.39c0-12.58-6.99-18.87-20.62-18.87-15.72 0-23.4 7.34-23.4 22.35 0 15.72 10.13 25.16 26.89 25.16 7.67 0 13.3-1.75 15.38-2.45l0.68-0.35v-5.94l-1.02 0.35c-2.13 0.7-5.58 1.75-9.8 1.75-13.29 0-18.53-11.17-18.53-21.31h30.42v-0.69zm-21.3-13.98c6.99 0 8.73 4.89 8.73 9.43h-17.85c0-3.49 2.14-9.43 9.12-9.43" class="ps03" fill="#4d4d4d"/>
   <path id="path9630" d="m355.96 719.25v14.32h-8.38v5.58h8.38v27.95c0 12.23 7.68 12.93 17.11 12.93 2.45 0 4.89-0.35 7.34-0.7h0.7v-5.59h-1.05c-1.05 0.35-2.45 0.35-3.85 0.35-7.33 0-7.68-2.1-7.68-8.39v-26.55h13.98v-5.58h-13.98v-14.32h-12.57" class="ps03" fill="#4d4d4d"/>
   <path id="path9632" d="m602.18 714h-12.56v49.26c-2.43-3.84-32.46-49.26-32.46-49.26h-29.01v3.5l2.43 0.71c7.71 1.04 8.05 1.39 8.05 8.72v52.05h13.63v-51.7c2.43 3.85 34.25 51.7 34.25 51.7h16.4v-64.98h-0.73" class="ps03" fill="#4d4d4d"/>
   <path id="path9634" d="m659.13 751.39c0-12.58-6.98-18.87-20.95-18.87-15.38 0-23.39 7.34-23.39 22.35 0 15.72 10.14 25.16 27.22 25.16 7.37 0 13.29-1.75 15.38-2.45l0.73-0.35v-5.94l-1.07 0.35c-2.09 0.7-5.97 1.75-10.14 1.75-13.24 0-18.14-11.17-18.53-20.96h30.75v-1.04zm-21.29-13.98c6.64 0 8.39 4.89 8.73 9.43h-18.19c0.39-3.49 2.47-9.43 9.46-9.43" class="ps03" fill="#4d4d4d"/>
   <path id="path9636" d="m727.92 719.25v14.32h-8.34v5.58h8.34v27.95c0 12.23 7.72 12.93 17.13 12.93 2.47 0 4.9-0.35 7.32-0.7h1.07v-5.59h-1.41c-1.02 0.35-2.08 0.35-3.49 0.35-7.66 0-8-2.1-8-8.39v-26.55h13.97v-5.58h-13.97v-14.32h-12.62" class="ps03" fill="#4d4d4d"/>
   <path id="path9638" d="m702.79 748.24l12.91-14.67h-13.25l-12.22 13.97-10.82-13.97h-19.21v3.49h1.02c6.31 0.7 8.05 1.75 11.89 6.99l8.05 10.48-12.95 14.67h13.29l5.58-6.64 12.56 16.42h14.7l-23.43-30.74h11.88" class="ps03" fill="#4d4d4d"/>
   <path id="path9640" d="m727.92 719.25h-13.24l16.06-18.52h13.29l-16.11 18.52" class="ps03" fill="#d40000"/>
  </g>
 </g>
</svg>
