<?xml version="1.0" encoding="UTF-8" standalone="no"?>
<svg id="svg2" xmlns:rdf="http://www.w3.org/1999/02/22-rdf-syntax-ns#" xmlns="http://www.w3.org/2000/svg" xml:space="preserve" height="401" viewBox="0 0 1001 400.99997" width="1001" version="1.1"><g id="g10" transform="matrix(1.25 0 0 -1.25 0 401)"><g id="g12"><path id="path14" d="m0.398 320.4v-21.895h155.72v21.895h-155.72zm177.78 0v-21.895h221.91s-22.664 21.895-52.688 21.895h-169.22zm265.44 0v-21.895h134.25l-7.969 21.895h-126.28zm230.5 0-7.969-21.895h133.03v21.895h-125.06zm-673.72-42.58v-21.894h155.72v21.894h-155.72zm177.78-0.031v-21.863h247.66s-2.891 16.851-7.938 21.863h-239.72zm265.44 0v-21.863h148.97l-7.375 21.863h-141.59zm214.56 0-7.375-21.863h148.38v21.863h-141zm-613.03-42.547v-21.925h67.438v21.925h-67.438zm177.78 0v-21.925h67.437v21.925h-67.437zm133.03 0v-21.925h67.437s4.282 11.578 4.282 21.925h-71.719zm132.41 0v-21.925h119.56l-7.969 21.925h-111.59zm155.12 0-8-21.925h120.16v21.925h-112.16zm-598.34-42.609v-21.895h67.438v21.895h-67.438zm177.78 0v-21.895h172.25s14.41 11.235 19 21.895h-191.25zm265.44 0v-21.895h67.438v12.188l4.281-12.188h123.53l4.594 12.188v-12.188h67.437v21.895h-126.59l-6.719-18.543-6.75 18.543h-127.22zm-443.22-42.578v-21.895h67.438v21.895h-67.438zm177.78 0v-21.895h191.25c-4.59 10.625-19 21.895-19 21.895h-172.25zm265.44 0v-21.895h67.438v21.895h-67.438zm79.688 0 8.156-21.895h92.625l7.75 21.895h-108.53zm120.16 0v-21.895h67.437v21.895h-67.437zm-643.07-42.57v-21.895h67.438v21.895h-67.438zm177.78 0v-21.895h67.437v21.895h-67.437zm133.03 0v-21.895h71.719c0 10.332-4.282 21.895-4.282 21.895h-67.437zm132.41 0v-21.895h67.438v21.895h-67.438zm95 0 7.906-21.895h62.094l7.969 21.895h-77.969zm104.84 0v-21.895h67.437v21.895h-67.437zm-686.59-42.578v-21.922h155.72v21.922h-155.72zm176.56 0v-21.922h239.72c5.047 5.019 7.938 21.922 7.938 21.922h-247.66zm266.66 0v-21.922h110.97v21.922h-110.97zm153.88 0 8.125-21.922h31.594l7.625 21.922h-47.344zm89.5 0v-21.922h112.19v21.922h-112.19zm-686.6-42.61v-21.89h155.72v21.89h-155.72zm176.56 0v-21.859h169.22c30.024 0 52.688 21.859 52.688 21.859h-221.91zm266.66 0v-21.89h110.97v21.89h-110.97zm169.28 0 7.813-21.832 1.343-0.027 7.938 21.859h-17.094zm74.094 0v-21.89h112.19v21.89h-112.19z" fill="#1f70c1"/></g></g></svg>
