<?xml version="1.0" encoding="UTF-8" standalone="no"?>
<!-- Created with Inkscape (http://www.inkscape.org/) -->

<svg
   xmlns:dc="http://purl.org/dc/elements/1.1/"
   xmlns:cc="http://creativecommons.org/ns#"
   xmlns:rdf="http://www.w3.org/1999/02/22-rdf-syntax-ns#"
   xmlns:svg="http://www.w3.org/2000/svg"
   xmlns="http://www.w3.org/2000/svg"
   xmlns:sodipodi="http://sodipodi.sourceforge.net/DTD/sodipodi-0.dtd"
   xmlns:inkscape="http://www.inkscape.org/namespaces/inkscape"
   id="svg2"
   version="1.1"
   inkscape:version="0.91 r13725"
   xml:space="preserve"
   width="1001"
   height="400.99997"
   viewBox="0 0 1001 400.99997"
   sodipodi:docname="ibm.svg"><metadata
     id="metadata8"><rdf:RDF><cc:Work
         rdf:about=""><dc:format>image/svg+xml</dc:format><dc:type
           rdf:resource="http://purl.org/dc/dcmitype/StillImage" /><dc:title></dc:title></cc:Work></rdf:RDF></metadata><defs
     id="defs6" /><sodipodi:namedview
     pagecolor="#ffffff"
     bordercolor="#666666"
     borderopacity="1"
     objecttolerance="10"
     gridtolerance="10"
     guidetolerance="10"
     inkscape:pageopacity="0"
     inkscape:pageshadow="2"
     inkscape:window-width="640"
     inkscape:window-height="480"
     id="namedview4"
     showgrid="false"
     inkscape:zoom="0.3986014"
     inkscape:cx="500.5"
     inkscape:cy="200.49998"
     inkscape:window-x="983"
     inkscape:window-y="280"
     inkscape:window-maximized="0"
     inkscape:current-layer="g12" /><g
     id="g10"
     inkscape:groupmode="layer"
     inkscape:label="ibm"
     transform="matrix(1.25,0,0,-1.25,0,400.99998)"><g
       id="g12"><path
         d="m 0.398,320.402 0,-21.895 155.719,0 0,21.895 -155.719,0 z m 177.782,0 0,-21.895 221.906,0 c 0,0 -22.664,21.895 -52.688,21.895 l -169.218,0 z m 265.437,0 0,-21.895 134.25,0 -7.969,21.895 -126.281,0 z m 230.5,0 -7.969,-21.895 133.032,0 0,21.895 -125.063,0 z M 0.398,277.823 l 0,-21.894 155.719,0 0,21.894 -155.719,0 z m 177.782,-0.031 0,-21.863 247.656,0 c 0,0 -2.891,16.851 -7.938,21.863 l -239.718,0 z m 265.437,0 0,-21.863 148.969,0 -7.375,21.863 -141.594,0 z m 214.563,0 -7.375,-21.863 148.375,0 0,21.863 -141,0 z m -613.032,-42.547 0,-21.925 67.438,0 0,21.925 -67.438,0 z m 177.782,0 0,-21.925 67.437,0 0,21.925 -67.437,0 z m 133.031,0 0,-21.925 67.437,0 c 0,0 4.282,11.578 4.282,21.925 l -71.719,0 z m 132.406,0 0,-21.925 119.563,0 -7.969,21.925 -111.594,0 z m 155.125,0 -8,-21.925 120.156,0 0,21.925 -112.156,0 z m -598.344,-42.609 0,-21.895 67.438,0 0,21.895 -67.438,0 z m 177.782,0 0,-21.895 172.25,0 c 0,0 14.41,11.235 19,21.895 l -191.25,0 z m 265.437,0 0,-21.895 67.438,0 0,12.188 4.281,-12.188 123.531,0 4.594,12.188 0,-12.188 67.437,0 0,21.895 -126.593,0 -6.719,-18.543 -6.75,18.543 -127.219,0 z m -443.219,-42.578 0,-21.895 67.438,0 0,21.895 -67.438,0 z m 177.782,0 0,-21.895 191.25,0 c -4.59,10.625 -19,21.895 -19,21.895 l -172.25,0 z m 265.437,0 0,-21.895 67.438,0 0,21.895 -67.438,0 z m 79.688,0 8.156,-21.895 92.625,0 7.75,21.895 -108.531,0 z m 120.156,0 0,-21.895 67.437,0 0,21.895 -67.437,0 z M 45.148,107.48 l 0,-21.895 67.438,0 0,21.895 -67.438,0 z m 177.782,0 0,-21.895 67.437,0 0,21.895 -67.437,0 z m 133.031,0 0,-21.895 71.719,0 c 0,10.332 -4.282,21.895 -4.282,21.895 l -67.437,0 z m 132.406,0 0,-21.895 67.438,0 0,21.895 -67.438,0 z m 95,0 7.906,-21.895 62.094,0 7.969,21.895 -77.969,0 z m 104.844,0 0,-21.895 67.437,0 0,21.895 -67.437,0 z M 1.617,64.902 l 0,-21.922 155.719,0 0,21.922 -155.719,0 z m 176.563,0 0,-21.922 239.718,0 c 5.047,5.019 7.938,21.922 7.938,21.922 l -247.656,0 z m 266.656,0 0,-21.922 110.969,0 0,21.922 -110.969,0 z m 153.875,0 8.125,-21.922 31.594,0 7.625,21.922 -47.344,0 z m 89.5,0 0,-21.922 112.187,0 0,21.922 -112.187,0 z M 1.617,22.292 l 0,-21.89 155.719,0 0,21.89 -155.719,0 z m 176.563,0 0,-21.859 169.218,0 c 30.024,0 52.688,21.859 52.688,21.859 l -221.906,0 z m 266.656,0 0,-21.89 110.969,0 0,21.89 -110.969,0 z m 169.281,0 7.813,-21.832 1.343,-0.027 7.938,21.859 -17.094,0 z m 74.094,0 0,-21.89 112.187,0 0,21.89 -112.187,0 z"
         style="fill:#1f70c1;fill-opacity:1;fill-rule:nonzero;stroke:none"
         id="path14"
         inkscape:connector-curvature="0" /></g></g></svg>