<?xml version="1.0" encoding="UTF-8" standalone="no"?>
<!-- Created with Inkscape (http://www.inkscape.org/) -->

<svg
   xmlns:dc="http://purl.org/dc/elements/1.1/"
   xmlns:cc="http://creativecommons.org/ns#"
   xmlns:rdf="http://www.w3.org/1999/02/22-rdf-syntax-ns#"
   xmlns:svg="http://www.w3.org/2000/svg"
   xmlns="http://www.w3.org/2000/svg"
   xmlns:sodipodi="http://sodipodi.sourceforge.net/DTD/sodipodi-0.dtd"
   xmlns:inkscape="http://www.inkscape.org/namespaces/inkscape"
   width="1466.4731"
   height="191.10669"
   id="svg4144"
   version="1.1"
   inkscape:version="0.48.5 r10040"
   sodipodi:docname="New document 3">
  <defs
     id="defs4146" />
  <sodipodi:namedview
     id="base"
     pagecolor="#ffffff"
     bordercolor="#666666"
     borderopacity="1.0"
     inkscape:pageopacity="0.0"
     inkscape:pageshadow="2"
     inkscape:zoom="0.175"
     inkscape:cx="1067.9205"
     inkscape:cy="835.49464"
     inkscape:document-units="px"
     inkscape:current-layer="layer1"
     showgrid="false"
     showguides="true"
     inkscape:guide-bbox="true"
     fit-margin-top="0"
     fit-margin-left="0"
     fit-margin-right="0"
     fit-margin-bottom="0"
     inkscape:window-width="1366"
     inkscape:window-height="702"
     inkscape:window-x="0"
     inkscape:window-y="27"
     inkscape:window-maximized="1">
    <sodipodi:guide
       orientation="0,1"
       position="930.33033,7.892401"
       id="guide4878" />
  </sodipodi:namedview>
  <metadata
     id="metadata4149">
    <rdf:RDF>
      <cc:Work
         rdf:about="">
        <dc:format>image/svg+xml</dc:format>
        <dc:type
           rdf:resource="http://purl.org/dc/dcmitype/StillImage" />
        <dc:title></dc:title>
      </cc:Work>
    </rdf:RDF>
  </metadata>
  <g
     inkscape:label="Layer 1"
     inkscape:groupmode="layer"
     id="layer1"
     transform="translate(681.7589,-1183.4336)">
    <path
       style="fill:#acd546;fill-opacity:1;stroke:none"
       d="m -624.64285,1309.1479 c 0,0 -2.5,5.7143 12.5,10.7143 15,5 31.42857,13.5714 46.07142,5.3571 14.64286,-8.2143 24.28572,-12.5 27.5,-19.2857 3.21429,-6.7857 8.21429,-11.4286 8.21429,-14.6428 0,-3.2143 5.35714,-11.0715 5.35714,-15.7143 0,-4.6429 8.57143,-66.0715 6.07143,-92.1429 0,0 -11.07143,6.4286 -13.57143,6.7857 -2.5,0.3572 -87.85714,22.1429 -99.28571,45 -11.42857,22.8572 -11.07143,39.6429 -9.64286,42.8572 1.42857,3.2143 16.78572,31.0714 16.78572,31.0714 z"
       id="path4366"
       inkscape:connector-curvature="0"
       sodipodi:nodetypes="cssssscsssc" />
    <path
       style="fill:#d34728;fill-opacity:1"
       d="m 257.16518,1281.442 c -19.47157,-0.029 -31.65776,7.3927 -37.53125,22.8437 -2.66015,6.9979 -3.73186,24.8973 -2,33.2188 3.21444,15.4453 12.08118,25.4872 26.09375,29.5624 2.84098,0.8262 8.55538,1.2128 15.5,1.0313 9.57587,-0.2502 11.80431,-0.6543 17.28125,-3.125 13.05263,-5.8881 19.67505,-17.169 20.90625,-35.5937 2.0349,-30.4512 -12.6147,-47.8965 -40.25,-47.9375 z m 0.4375,9.3437 c 3.35486,0.1198 6.6719,1.3594 9.0625,3.75 4.47355,4.4735 6.14193,10.8057 6.75,25.4063 0.82726,19.8635 -2.1523,33.0996 -8.34375,37.1562 -3.72295,2.4394 -10.29008,2.7241 -14.34375,0.625 -7.62012,-3.9457 -10.54711,-15.276 -9.75,-37.7187 0.52391,-14.7502 1.46498,-18.971 5.40625,-24.2813 2.52471,-3.4016 6.90536,-5.0915 11.21875,-4.9375 z"
       id="path4289"
       inkscape:connector-curvature="0" />
    <path
       style="fill:#d34728;fill-opacity:1"
       d="m 336.94747,1367.3672 c -1.7968,-0.5498 -5.2382,-2.8972 -7.6477,-5.2166 -6.6969,-6.4467 -7.5732,-10.6474 -7.6451,-36.6485 -0.0853,-30.8707 -0.8955,-34.0685 -8.6315,-34.0685 -3.1937,0 -3.3089,-0.1392 -3.3089,-4 l 0,-4 17.4357,0 17.4357,0 0.3143,31.25 c 0.2761,27.4559 0.5261,31.6373 2.0586,34.4393 2.3839,4.3589 5.4855,6.3106 10.0279,6.3106 5.6699,0 9.2055,-2.2997 11.8723,-7.7226 2.1999,-4.4736 2.3717,-6.13 2.7024,-26.0609 0.1942,-11.7059 0.072,-22.4049 -0.2724,-23.7754 -0.9826,-3.9152 -4.1489,-6.441 -8.0745,-6.441 -3.4167,0 -3.5,-0.095 -3.5,-4 l 0,-4 17.5,0 17.5,0 0,33.8508 c 0,21.0582 0.3967,34.9888 1.0498,36.8622 1.116,3.2013 4.4681,5.2869 8.4973,5.2869 2.1951,0 2.4529,0.4205 2.4529,4 l 0,4 -15.429,0 -15.4291,0 -1.5989,-5.5 c -0.8794,-3.025 -1.9238,-5.4999 -2.3209,-5.4999 -0.3972,0 -1.9796,1.5761 -3.5166,3.5024 -4.4578,5.5869 -9.8362,7.8095 -19.7055,8.1433 -4.675,0.1581 -9.9701,-0.1623 -11.7668,-0.7121 z"
       id="path4285"
       inkscape:connector-curvature="0" />
    <path
       style="fill:#d34728;fill-opacity:1"
       d="m 569.72764,1248.442 0,3.5 c 0,2.1303 0.4892,3.497 1.25,3.5 4.1337,0.018 8.8713,2.3336 10.25,5 2.2156,4.2846 2.244,89.6585 0.031,93.9375 -1.4238,2.7534 -5.8429,5.0624 -9.6875,5.0624 -1.4946,0 -1.8438,0.7794 -1.8438,4.0313 l 0,4 14.7188,-0.25 14.75,-0.2813 2.125,-5.9687 c 1.1603,-3.2737 2.5241,-6.0809 3.0312,-6.25 0.5073,-0.169 1.7144,1.04 2.6876,2.6875 2.1911,3.7095 7.4816,7.8097 12.4374,9.6562 2.4268,0.9044 6.581,1.2744 11.8126,1.0626 10.2857,-0.4164 17.2621,-3.9137 22.1874,-11.1563 5.6076,-8.2458 6.7458,-13.8293 6.7188,-33.0312 -0.022,-15.3915 -0.2525,-17.5461 -2.3438,-22.7813 -3.2215,-8.065 -7.8006,-13.6934 -13.625,-16.6875 -4.3099,-2.2155 -6.2422,-2.5412 -14.5,-2.5312 -10.8646,0.011 -13.7445,1.1154 -19.7812,7.5312 -2.0496,2.1783 -3.9437,3.9688 -4.2188,3.9688 -0.2753,0 -0.3628,-10.1244 -0.1874,-22.5 l 0.3124,-22.5 -18.0624,0 -18.0626,0 z m 52.5626,44.125 c 8.616,-0.1331 12.5593,5.5129 14.5,20.3125 1.3517,10.3093 0.555,25.0194 -1.75,32.7812 -0.9118,3.0701 -2.8508,6.507 -4.8126,8.4688 -2.5941,2.594 -4.1322,3.3134 -7.1562,3.3124 -5.9325,0 -10.5285,-2.8035 -13.125,-8.0312 -3.046,-6.1328 -4.4921,-21.7144 -3.25,-34.75 1.4936,-15.6758 4.9123,-21.1135 13.8125,-21.9687 0.6169,-0.059 1.2068,-0.1162 1.7813,-0.125 z"
       id="path4283"
       inkscape:connector-curvature="0" />
    <path
       style="fill:#d34728;fill-opacity:1"
       d="m 753.03194,1367.1696 c -4.6164,-1.7931 -8.2007,-5.2646 -10.3709,-10.0448 -1.7321,-3.8151 -1.9048,-6.8608 -1.9248,-33.9412 l -0.022,-29.75 -6,0 -6,0 0,-3.8683 c 0,-3.7754 0.099,-3.8816 4.1181,-4.4207 7.1422,-0.9579 14.8383,-8.7894 17.1592,-17.461 l 1.1375,-4.25 6.2926,0 6.2926,0 0,10 0,10 10,0 10,0 0,5 0,5 -10,0 -10,0 0,27.0322 c 0,35.5227 0.5087,36.802 14.1775,35.6561 l 6.8225,-0.572 0,4.774 c 0,4.6267 -0.1158,4.8129 -3.75,6.0307 -5.3832,1.8038 -23.9888,2.3467 -27.9323,0.815 z"
       id="path4279"
       inkscape:connector-curvature="0" />
    <path
       style="fill:#d34728;fill-opacity:1"
       d="m 98.714273,1363.4335 0,-4 4.065737,0 c 4.10465,0 7.81834,-1.3769 9.16895,-3.3997 0.40408,-0.6051 0.74158,-20.7877 0.75,-44.8502 0.0149,-42.4273 -0.0452,-43.8104 -1.98469,-45.75 -1.46667,-1.4667 -3.33333,-2 -7,-2 l -4.999997,0 0,-4 0,-4 26.499997,0 26.5,0 0,4 0,4 -5.47695,0 c -8.49428,0 -8.61935,0.3876 -8.29336,25.6997 l 0.27031,20.9887 14.5,-15.7881 c 15.39681,-16.7646 19.67531,-23.0735 18.58735,-27.4083 -0.65962,-2.6281 -1.023,-2.8726 -5.83735,-3.9275 -2.35792,-0.5167 -2.75,-1.0989 -2.75,-4.0835 l 0,-3.481 21,0 21,0 0,3.4615 c 0,3.2205 -0.29279,3.5403 -4.20677,4.5942 -2.31373,0.623 -6.14202,2.4642 -8.50733,4.0916 -3.9292,2.7034 -29.3372,29.6025 -30.12201,31.8898 -0.51384,1.4976 30.70211,50.4956 34.74695,54.5405 2.06988,2.0697 5.33712,4.0313 7.82192,4.6958 4.07227,1.0892 4.26724,1.3146 4.26724,4.9339 l 0,3.7926 -6.75,-0.031 c -10.25302,-0.047 -20.76855,-1.6828 -25.13482,-3.9103 -5.47125,-2.7912 -8.08732,-6.3026 -20.4934,-27.5065 -5.98302,-10.2259 -11.1794,-18.7788 -11.5475,-19.0063 -0.36809,-0.2275 -2.11039,0.7143 -3.87177,2.0927 l -3.20251,2.5064 0.0318,16.6775 c 0.0378,19.8148 0.22754,20.2856 8.44998,20.9675 l 5.51822,0.4576 0,3.8762 0,3.8761 -26.5,0 -26.499997,0 0,-4 z"
       id="path4273"
       inkscape:connector-curvature="0" />
    <path
       style="fill:#d34728;fill-opacity:1"
       d="m 413.71427,1363.5652 c 0,-3.7798 0.095,-3.881 4.1467,-4.4245 2.2808,-0.3059 5.0933,-1.502 6.25,-2.658 2.0257,-2.0242 2.1141,-3.1644 2.3957,-30.8866 0.2846,-28.0175 0.236,-28.8566 -1.8224,-31.4734 -1.3903,-1.7676 -3.4602,-2.9037 -6.0424,-3.3166 -3.6695,-0.5868 -3.9276,-0.8497 -3.9276,-4.0003 l 0,-3.3722 16.4121,0 16.4121,0 0.7005,4.25 c 1.1514,6.986 1.6915,7.1811 5.9093,2.1352 5.2106,-6.2336 10.1466,-8.3357 19.6379,-8.3632 9.8513,-0.029 15.8589,2.0521 20.3827,7.0595 1.95,2.1583 3.5454,4.373 3.5454,4.9214 0,2.2101 2.6699,0.6426 5.5,-3.2291 4.5076,-6.1665 9.2747,-8.2135 20,-8.5881 8.2305,-0.2875 9.4702,-0.074 14.499,2.5 3.197,1.6362 6.4451,4.2425 7.7592,6.226 4.5442,6.8588 5.2418,11.7992 5.2418,37.1206 0,13.9487 0.4311,24.906 1.0498,26.6807 1.0645,3.0535 4.4428,5.2869 7.9973,5.2869 1.6117,0 1.9529,0.6988 1.9529,4 l 0,4 -16.9237,0 -16.9237,0 -0.3826,-30.7499 c -0.4076,-32.7639 -0.8144,-35.7595 -5.4316,-40 -3.5712,-3.2798 -11.117,-3.1486 -15.1724,0.2638 -5.3242,4.48 -6.166,9.1823 -6.166,34.4419 0,25.6656 0.2327,26.5781 7.0545,27.669 3.8061,0.6086 3.9455,0.7677 3.9455,4.5031 l 0,3.8721 -17.5,0 -17.5,0 0,-30.1338 c 0,-20.2046 -0.3875,-31.4274 -1.176,-34.0593 -2.7067,-9.0341 -12.8991,-11.9316 -19.3344,-5.4964 -5.1157,5.1158 -5.8788,9.4505 -5.9375,33.7279 -0.06,24.8815 0.3629,26.4447 7.465,27.5804 3.8485,0.6154 3.9829,0.7675 3.9829,4.5091 l 0,3.8721 -24,0 -24,0 0,-3.8683 z"
       id="path4271"
       inkscape:connector-curvature="0" />
    <path
       style="fill:#d34728;fill-opacity:1"
       d="m 671.71424,1363.4335 c 0,-3.6207 0.2417,-4 2.5497,-4 3.3289,0 8.1203,-2.5148 9.4207,-4.9446 1.4535,-2.7158 1.381,-55.1898 -0.081,-58.3979 -1.2969,-2.8471 -4.7705,-4.6574 -8.9365,-4.6574 -2.7784,0 -2.9529,-0.2363 -2.9529,-4 l 0,-4 17.9518,0 17.9517,0 0.2983,34.9786 0.2982,34.9785 2.5974,2.5961 c 1.626,1.6252 4.1504,2.8044 6.75,3.1531 4.0585,0.5444 4.1526,0.6447 4.1526,4.4253 l 0,3.8683 -25,0 -25,0 0,-4 z"
       id="path4269"
       inkscape:connector-curvature="0" />
    <path
       style="fill:#d34728;fill-opacity:1"
       d="m 689.09254,1266.9967 c -4.0186,-1.749 -6.3783,-5.1669 -6.3783,-9.2385 0,-7.884 5.3301,-11.8766 14.806,-11.0908 4.6496,0.3856 5.9808,0.9632 8.362,3.6282 3.2962,3.6891 3.8131,9.2923 1.2013,13.0211 -3.2686,4.6666 -11.7419,6.3998 -17.991,3.68 z"
       id="path4259"
       inkscape:connector-curvature="0" />
    <path
       style="fill:#3a130d;fill-opacity:1"
       d="m -653.0684,1277.7169 c -3.64761,0.2239 -5.92319,4.9082 -2.375,7.7812 1.6637,1.3473 2.8101,1.5652 4.625,0.875 2.0226,-0.769 2.68305,-0.4659 4.28125,1.8126 1.9776,2.8194 3.5913,7.3776 4.5625,12.9374 0.5437,3.1127 0.43405,3.25 -2.65625,3.25 -2.6915,0 -3.79815,-0.7881 -6.71875,-4.75 -1.9882,-2.697 -5.49085,-5.7802 -8.09375,-7.1562 -2.5213,-1.3329 -4.9982,-3.3579 -5.5,-4.5 -1.3549,-3.0835 -6.77365,-2.9216 -7.21875,0.2188 -0.4902,3.4578 1.6699,5.4723 5.125,4.7812 1.7544,-0.3508 4.27895,0.083 6.34375,1.0625 3.4118,1.619 9.34375,7.8691 9.34375,9.8437 0,0.57 -2.3625,2.138 -5.25,3.5 -6.4451,3.0405 -19.60755,15.7504 -22.78125,22 -1.2568,2.4752 -2.322,6.3864 -2.375,8.6876 -0.1275,5.5942 3.81865,9.8175 11.21875,11.9687 6.3901,1.8577 22.906,2.0496 29.3125,0.3437 4.4227,-1.1775 11.84425,-4.8893 11.90625,-5.9374 0.0183,-0.3113 0.9152,-1.604 2,-2.9063 1.6204,-1.9452 2.24105,-2.175 3.46875,-1.1563 2.1868,1.8152 1.9655,2.2318 -3.375,6.2188 -4.4437,3.3176 -5.21965,4.5713 -9.03125,14.4062 -2.2947,5.9214 -3.9184,11.3917 -3.625,12.1563 1.3568,3.5358 3.9889,0.2947 7.8125,-9.5937 3.7208,-9.6228 4.3362,-10.5739 9.3125,-14.25 7.6902,-5.6812 11.45355,-5.5055 17.59375,0.8124 2.7228,2.8018 6.50195,8.5442 9.21875,14 4.4018,8.8399 6.8944,11.2448 8.1875,7.875 0.8256,-2.1515 -8.2087,-19.2242 -12.8125,-24.2187 -4.8828,-5.2972 -4.21565,-6.8265 3.03125,-7.0625 3.6902,-0.1201 5.2247,0.3735 7.1875,2.2188 2.8739,2.7012 8.9698,5.4374 12.0625,5.4374 1.7039,0 3.0226,1.9439 6.75,10 3.2175,6.9544 5.1254,10 6.3125,10 2.9227,0 2.67605,-2.1843 -1.28125,-10.75 -2.1052,-4.5566 -3.84375,-8.4157 -3.84375,-8.5937 0,-0.178 1.9172,-0.8947 4.25,-1.5937 2.3329,-0.6991 5.12935,-1.8932 6.21875,-2.6563 1.0895,-0.7631 2.2456,-1.4063 2.5625,-1.4063 0.317,0 3.03315,4.7084 6.03125,10.4688 5.444,10.4599 7.30275,12.5794 9.34375,10.5 0.7806,-0.7952 -0.60675,-4.3616 -5.03125,-12.7812 l -6.15625,-11.6876 3.84375,-4.4374 c 5.6951,-6.6049 10.2017,-16.1377 10.75,-22.75 l 0.46875,-5.5938 -6.21875,5.1562 c -11.9609,9.9541 -24.3119,14.4563 -39.5625,14.4063 -9.8645,-0.032 -14.81195,-1.0223 -24.15625,-4.875 l -6.1875,-2.5625 -4.71875,2.0938 c -5.6913,2.5174 -5.4375,2.4952 -5.4375,0.2187 0,-4.1327 -9.8622,-15.1563 -13.5625,-15.1563 -0.6635,0 -1.4855,-2.251 -1.875,-5.1874 -0.818,-6.1666 -3.98245,-13.9555 -6.65625,-16.375 -1.0492,-0.9497 -1.90625,-2.5671 -1.90625,-3.5626 0,-0.9953 -0.91055,-2.275 -2.03125,-2.875 -0.9342,-0.4998 -1.84574,-0.7079 -2.6875,-0.6562 z m 3.53125,36.6562 c 8.582,-0.01 13.1975,4.8113 13.1875,13.7188 -0.005,6.0351 -2.8639,10.9066 -7.5,12.8438 -4.3147,1.8031 -11.98835,1.8129 -16.15625,0 -7.0596,-3.0709 -8.1872,-10.8422 -2.6875,-18.7813 3.6917,-5.3292 7.81625,-7.7713 13.15625,-7.7813 z m -3.3125,11 c -4.2111,0 -5.958,4.4171 -2.9375,7.4376 3.0204,3.0204 7.4375,1.2735 7.4375,-2.9376 0,-2.6804 -1.8195,-4.5 -4.5,-4.5 z"
       id="path4358"
       inkscape:connector-curvature="0" />
    <path
       style="fill:#333333;fill-opacity:1"
       d="m -322.84965,1279.9981 c -4.4,-0.025 -9.90438,0.5039 -12.21875,1.1876 -9.07287,2.6799 -17.65485,12.1223 -21,23.0624 -2.63344,8.6126 -2.34635,30.6678 0.5,38.375 4.2288,11.4507 10.58721,18.2291 20.375,21.75 6.58764,2.3698 18.43766,2.6286 25.5,0.5313 10.33475,-3.0691 17.00919,-10.5745 14.4375,-16.2187 l -1.1875,-2.5938 -3.1875,3.0938 c -10.8806,10.5286 -31.04445,10.2339 -38.15625,-0.5626 -2.9023,-4.406 -5.5625,-13.9067 -5.5625,-19.9374 l 0,-4.3126 26.125,0 26.15625,0 -0.46875,-10.25 c -0.3761,-8.3982 -0.96309,-11.3556 -3.21875,-16.375 -5.3748,-11.9601 -14.42636,-17.672 -28.09375,-17.75 z m -2.5,7 c 3.5239,-0.1264 7.58656,0.502 10.03125,1.8126 5.04264,2.7034 8.15303,9.3853 8.75,18.6874 l 0.5,7.4688 -18.75,0 -18.71875,0 0.71875,-5.25 c 1.46484,-10.7964 5.68068,-18.3293 12.15625,-21.6562 1.27134,-0.6532 3.19816,-0.9867 5.3125,-1.0626 z"
       id="path4352"
       inkscape:connector-curvature="0" />
    <path
       style="fill:#333333;fill-opacity:1"
       d="m -263.34521,1364.4779 c -6.40693,-2.2705 -10.57766,-6.6359 -11.48799,-12.0242 -1.00184,-5.9298 1.86075,-10.8815 7.23799,-12.5202 2.05796,-0.6271 2.25187,-0.3598 2.27196,3.1318 0.0314,5.4576 3.27114,11.9159 7.1699,14.293 4.2374,2.5834 12.943,2.7174 17.73706,0.2728 5.10022,-2.6007 7.41125,-6.3452 7.4975,-12.148 0.1099,-7.3936 -2.03027,-9.52 -17.90432,-17.7889 -7.58992,-3.9536 -15.32469,-8.6663 -17.18838,-10.4727 -3.26197,-3.1616 -6.34076,-10.591 -6.32814,-15.2703 0.0194,-7.2129 5.15958,-15.0817 12.19715,-18.672 9.25609,-4.7221 25.71747,-4.664 33.58172,0.1186 3.71138,2.257 7.20635,7.4517 7.21181,10.7191 0.005,2.8761 -4.73552,8.0168 -8.12117,8.8071 -2.49245,0.5818 -2.66038,0.3691 -3.32792,-4.2143 -1.50801,-10.3542 -7.95007,-14.9113 -17.45935,-12.3507 -5.93482,1.5981 -9.08782,5.923 -9.08782,12.4655 0,7.5855 2.17278,9.8171 15.78671,16.2139 14.94036,7.02 19.58082,10.434 22.70555,16.7046 6.11496,12.2711 0.99119,26.0976 -11.75062,31.7089 -7.44527,3.2788 -22.92677,3.7955 -30.74164,1.026 z"
       id="path4348"
       inkscape:connector-curvature="0" />
    <path
       style="fill:#333333;fill-opacity:1"
       d="m -166.84965,1279.9981 c -4.4,-0.025 -9.90438,0.5039 -12.21875,1.1876 -9.07287,2.6797 -17.65485,12.1223 -21,23.0624 -2.63344,8.6126 -2.34635,30.6678 0.5,38.375 4.2288,11.4507 10.58721,18.2291 20.375,21.75 6.58764,2.3699 18.43766,2.6286 25.5,0.5313 10.33475,-3.0691 17.00919,-10.5745 14.4375,-16.2187 l -1.1875,-2.5938 -3.1875,3.0938 c -10.8806,10.5286 -31.04445,10.2339 -38.15625,-0.5626 -2.9023,-4.4059 -5.5625,-13.9066 -5.5625,-19.9374 l 0,-4.3126 26.125,0 26.15625,0 -0.46875,-10.25 c -0.3761,-8.3981 -0.96309,-11.3556 -3.21875,-16.375 -5.3748,-11.9601 -14.42636,-17.672 -28.09375,-17.75 z m -2.5,8.4376 c 3.5239,-0.1265 7.58656,0.5019 10.03125,1.8124 5.04264,2.7035 8.15303,9.3542 8.75,18.6563 l 0.5,7.4687 -18.75,0 -18.71875,0 0.71875,-5.25 c 1.46484,-10.7963 5.68068,-18.298 12.15625,-21.625 1.27134,-0.6531 3.19816,-0.9866 5.3125,-1.0624 z"
       id="path4346"
       inkscape:connector-curvature="0" />
    <path
       style="fill:#333333;fill-opacity:1"
       d="m -83.005904,1279.5919 c -2.97482,-0.021 -6.09627,0.2246 -9.28125,0.7188 -12.399526,1.9237 -19.062496,6.7945 -19.062496,13.9687 0,4.8109 2.22628,7.7975 6.78125,9.0625 5.872706,1.631 6.214746,1.4389 6.218746,-3.2188 0.004,-5.0959 2.96484,-10.4134 6.5625,-11.7812 3.8258,-1.4545 13.15712,-1.164 16.375,0.5 4.18317,2.1632 6.0625,7.8934 6.0625,18.4062 l 0,8.8438 -10.75,0.6562 c -14.02415,0.8536 -20.800016,2.2185 -26.781246,5.4688 -6.57908,3.5751 -10.41316,9.2064 -11.15625,16.4062 -1.1883,11.5136 3.19206,20.8294 11.8125,25.125 11.290546,5.6265 24.958976,2.5317 32.624996,-7.4062 2.06477,-2.6767 4.20892,-4.7488 4.75,-4.5938 0.54108,0.1551 1.34213,2.2866 1.78125,4.7188 1.78026,9.8602 0.48879,8.9062 12.25,8.9062 l 10.46875,0 0,-2.9374 c 0,-2.5941 -0.43978,-3.0392 -3.5625,-3.625 -6.6685,-1.2511 -6.86004,-2.2337 -7.4375,-34.875 -0.55882,-31.5883 -0.64641,-32.0415 -6.65625,-37.75 -4.41904,-4.1976 -12.07553,-6.5293 -21,-6.5938 z m 13.65625,42.7812 0,8.75 c -0.003,4.8126 -0.46318,10.4234 -1.03125,12.4688 -1.38154,4.9745 -5.50562,9.666 -10.4375,11.9062 -5.35404,2.432 -13.14112,2.4171 -17.15625,-0.031 -3.649056,-2.2251 -5.374996,-6.4787 -5.374996,-13.2188 0,-11.8903 5.711166,-17.2146 20.156246,-18.875 4.5972,-0.5284 9.58125,-0.9687 11.09375,-0.9687 l 2.75,-0.031 z"
       id="path4342"
       inkscape:connector-curvature="0" />
    <path
       style="fill:#333333;fill-opacity:1"
       d="m -5.7204343,1364.9714 c -5.2496497,-1.95 -10.0271597,-6.8053 -12.7629297,-12.9708 -2.12645,-4.7923 -2.30583,-6.8522 -2.81647,-32.3433 -0.52,-25.9583 -0.64323,-27.3227 -2.64862,-29.3254 -1.15679,-1.1553 -3.96929,-2.3508 -6.25,-2.6567 -3.76926,-0.5056 -4.14675,-0.8173 -4.14675,-3.4245 l 0,-2.8683 14,0 13.9999997,0 0.022,31.75 c 0.0201,29.0267 0.18488,32.1088 1.92142,35.9336 5.92404,13.0482 28.4781503,9.4988 33.0823703,-5.2062 1.72783,-5.5183 2.53024,-43.6989 1.03508,-49.2516 -1.26521,-4.6984 -4.76683,-7.2258 -10.01121,-7.2258 -2.72184,0 -3.04966,-0.3225 -3.04966,-3 l 0,-3 14,0 14.00001,0 0,35.0496 c 0,41.9482 -0.35043,40.4223 9.75,42.4552 2.77548,0.5586 3.25,1.0805 3.25,3.5746 l 0,2.9206 -11.93261,0 c -13.34272,0 -12.37685,0.5848 -13.62397,-8.25 -0.36878,-2.6125 -0.95692,-4.733 -1.30697,-4.7121 -0.35005,0.021 -1.84345,1.784 -3.31865,3.9181 -1.47521,2.1341 -4.81881,5.1323 -7.43023,6.6627 -4.00674,2.3481 -6.08598,2.8315 -13.3178003,3.0961 -5.70492,0.2088 -9.86526,-0.1675 -12.44501,-1.1258 z"
       id="path4338"
       inkscape:connector-curvature="0" />
    <path
       style="fill:#333333;fill-opacity:1"
       d="m -464.34965,1253.3731 0,3 c 0,2.8964 0.17495,3 4.59375,3 3.7254,10e-5 5.1208,0.5583 7.5,2.9376 l 2.90625,2.9062 0,44.125 0,44.125 -2.34375,2.3438 c -1.5383,1.5381 -4.1047,2.5956 -7.5,3.0624 -4.8684,0.6696 -5.15625,0.8526 -5.15625,3.5938 l 0,2.9062 23,0 23,0 0,-2.9062 c 0,-2.7411 -0.28775,-2.9243 -5.15625,-3.5938 -3.3953,-0.4669 -5.9617,-1.5242 -7.5,-3.0624 -2.2835,-2.2833 -2.34375,-2.7681 -2.34375,-20.875 l 0,-18.5626 6.78125,0 6.75,0 10.40625,17.25 c 17.7926,29.5068 18.3721,30.0576 34.3125,31.3438 l 8.75,0.6875 0,-3.0937 c 0,-2.7655 -0.42501,-3.2021 -3.96875,-4.1563 -2.7672,-0.7452 -5.1958,-2.5237 -8,-5.8125 -3.9752,-4.6621 -26.04125,-38.5367 -26.03125,-39.9688 0.002,-0.4069 2.02505,-1.5577 4.46875,-2.5624 6.1483,-2.5283 12.8673,-8.7258 15.625,-14.4063 1.8576,-3.8264 2.304,-6.3645 2.25,-12.7813 -0.0984,-11.7017 -3.87895,-18.7882 -12.71875,-23.9687 -7.8591,-4.6057 -14.8403,-5.484 -43.375,-5.5 l -26.25,-0.031 z m 31,7 7.46875,0 c 16.9804,10e-5 24.19255,4.2347 26.53125,15.5 1.2913,6.2201 0.76845,16.366 -1.09375,21.2813 -1.4888,3.9298 -4.80625,7.2207 -9.40625,9.3437 -3.0081,1.3883 -6.4176,1.859 -13.75,1.875 l -9.75,0 0,-24 0,-24 z"
       id="path4336"
       inkscape:connector-curvature="0" />
    <path
       style="fill:#333333;fill-opacity:1"
       d="m -330.3452,1268.7404 c 0,-0.353 1.73565,-3.3905 3.857,-6.75 2.12135,-3.3594 5.05393,-8.4705 6.51685,-11.358 l 2.65984,-5.25 8.56719,0 8.56718,0 -3.00542,3.75 c -3.1846,3.9735 -11.15798,11.7721 -17.44744,17.0649 -2.39208,2.013 -4.87591,3.1851 -6.75,3.1851 -1.63086,0 -2.9652,-0.2889 -2.9652,-0.642 z"
       id="path4191"
       inkscape:connector-curvature="0" />
    <path
       style="fill:#739f23;fill-opacity:1"
       d="m -588.10858,1281.5651 c -1.05555,-0.1437 -27.44145,33.3708 -27.53125,34.9687 -0.0339,0.6035 0.95,1.5906 2.1875,2.1876 2.1345,1.0293 2.12141,1.0922 0.1875,1.1562 -0.0172,6e-4 -0.0446,-10e-4 -0.0625,0 l 5.9375,2.4375 c 9.3443,3.8527 14.29175,4.874 24.15625,4.9063 15.2506,0.05 27.6016,-4.4523 39.5625,-14.4063 l 6.21875,-5.1875 c 0,0 0.75271,-3.0095 1.375,-3.7812 1.78307,-2.2111 6.375,-11.7106 6.375,-13.1876 0,-0.9945 -7.34266,-2.3072 -28.75,-5.1562 -15.8125,-2.1044 -29.16604,-3.8705 -29.65625,-3.9375 z m -25.96875,38.4375 c -1.30066,0.2649 -3.28506,0.97 -4.9375,1.8125 0,0 -1.38424,1.0066 0.75,0.062 z"
       id="path4317"
       inkscape:connector-curvature="0"
       sodipodi:nodetypes="ccccccscccssccccc" />
    <path
       inkscape:connector-curvature="0"
       id="path4319"
       d="m -627.63004,1306.3603 c -5.72124,-6.26 -11.30221,-17.1016 -13.12948,-25.5055 -0.71837,-3.3039 -1.02756,-9.6392 -0.75648,-15.5 0.50945,-11.0143 2.66375,-18.3114 8.01049,-27.1335 l 3.24664,-5.3569 10.27252,30.7891 c 5.64989,16.934 10.09463,31.239 9.87721,31.789 -0.21743,0.55 -3.10023,4.488 -6.40622,8.7511 l -6.0109,7.751 -5.10378,-5.5843 z"
       style="fill:#739f23;fill-opacity:1" />
    <path
       inkscape:connector-curvature="0"
       id="path4321"
       d="m -604.98107,1287.2797 c -1.90853,-3.3426 -19.80642,-59.7044 -19.11956,-60.2089 5.80549,-4.2642 15.45448,-10.0407 22.04305,-13.1963 7.23788,-3.4666 24.96192,-10.932 25.95443,-10.932 0.20587,0 0.3626,10.9125 0.34827,24.25 l -0.0261,24.25 -13.50934,17.4854 c -15.24743,19.7351 -15.0397,19.4921 -15.69079,18.3518 z"
       style="fill:#739f23;fill-opacity:1" />
    <path
       inkscape:connector-curvature="0"
       id="path4323"
       d="m -556.43247,1279.0423 c -14.412,-2.0205 -26.42813,-3.8982 -26.7025,-4.1726 -0.27437,-0.2743 8.57788,-12.3244 19.67168,-26.7779 l 20.17053,-26.279 7.53197,0.598 c 4.14258,0.3289 9.49053,0.8426 11.88435,1.1415 l 4.35238,0.5435 -0.6941,10.1734 c -0.97575,14.3016 -3.17158,31.8099 -5.13246,40.9233 -1.26313,5.8706 -2.05682,7.7226 -3.27286,7.6368 -0.88294,-0.062 -13.39699,-1.7665 -27.80899,-3.787 z"
       style="fill:#739f23;fill-opacity:1" />
    <path
       inkscape:connector-curvature="0"
       id="path4325"
       d="m -568.72883,1221.1522 0,-21.1237 12.75,-3.9666 c 20.36581,-6.3359 27.40754,-8.2952 27.93141,-7.7713 0.34363,0.3437 -33.253,44.9592 -40.3385,53.5686 -0.1886,0.2292 -0.34291,-9.089 -0.34291,-20.707 z"
       style="fill:#739f23;fill-opacity:1" />
    <path
       inkscape:connector-curvature="0"
       id="path4327"
       d="m -532.4228,1216.2036 -6.19398,-0.3536 9.69398,-12.5906 c 11.13449,-14.4616 10.909,-14.5414 9.69423,3.4331 l -0.69272,10.25 -3.15377,-0.1926 c -1.73457,-0.106 -5.94106,-0.3518 -9.34774,-0.5463 z"
       style="fill:#739f23;fill-opacity:1" />
  </g>
</svg>
