<?xml version="1.0" encoding="UTF-8" standalone="no"?>
<!-- Created with Inkscape (http://www.inkscape.org/) -->

<svg
   xmlns:dc="http://purl.org/dc/elements/1.1/"
   xmlns:cc="http://creativecommons.org/ns#"
   xmlns:rdf="http://www.w3.org/1999/02/22-rdf-syntax-ns#"
   xmlns:svg="http://www.w3.org/2000/svg"
   xmlns="http://www.w3.org/2000/svg"
   xmlns:sodipodi="http://sodipodi.sourceforge.net/DTD/sodipodi-0.dtd"
   xmlns:inkscape="http://www.inkscape.org/namespaces/inkscape"
   id="svg2"
   version="1.1"
   inkscape:version="0.91 r13725"
   width="395.21646"
   height="129.89999"
   viewBox="0 0 395.21647 129.89999"
   sodipodi:docname="LF_logo_NEW_Pantone.svg">
  <metadata
     id="metadata8">
    <rdf:RDF>
      <cc:Work
         rdf:about="">
        <dc:format>image/svg+xml</dc:format>
        <dc:type
           rdf:resource="http://purl.org/dc/dcmitype/StillImage" />
        <dc:title></dc:title>
      </cc:Work>
    </rdf:RDF>
  </metadata>
  <defs
     id="defs6" />
  <sodipodi:namedview
     pagecolor="#ffffff"
     bordercolor="#666666"
     borderopacity="1"
     objecttolerance="10"
     gridtolerance="10"
     guidetolerance="10"
     inkscape:pageopacity="0"
     inkscape:pageshadow="2"
     inkscape:window-width="960"
     inkscape:window-height="1016"
     id="namedview4"
     showgrid="false"
     fit-margin-top="0"
     fit-margin-left="0"
     fit-margin-right="0"
     fit-margin-bottom="0"
     inkscape:zoom="1.0098709"
     inkscape:cx="219.95089"
     inkscape:cy="6.5266841"
     inkscape:window-x="960"
     inkscape:window-y="27"
     inkscape:window-maximized="0"
     inkscape:current-layer="g3338" />
  <g
     id="g3338">
    <path
       style="fill:#fdfdfe"
       d="M 0,64.949995 0,0 l 197.55,0 197.55001,0 0,64.949995 0,64.949995 -197.55001,0 -197.55,0 0,-64.949995 z"
       id="path3354"
       inkscape:connector-curvature="0" />
    <path
       style="fill:#b3c7d5"
       d="m 180.67737,129.4496 c -5.48918,-1.34045 -9.18012,-7.19733 -9.16902,-14.54961 0.014,-9.30474 5.56342,-15.311614 14.13142,-15.296437 6.43202,0.0114 11.43854,4.031877 13.16983,10.576047 0.77243,2.91973 0.64874,7.60591 -0.2758,10.44968 -1.17478,3.61341 -3.53332,6.67704 -6.21332,8.07079 -2.21234,1.15054 -8.3761,1.54734 -11.64311,0.74953 z m 7.73476,-2.731 c 4.07781,-1.21098 6.43334,-4.39842 7.18925,-9.72829 0.35406,-2.49648 0.004,-5.45065 -0.94585,-7.99032 -0.89208,-2.38431 -3.39921,-4.90057 -5.61661,-5.63707 -2.35551,-0.78238 -6.25887,-0.54356 -8.28892,0.50714 -3.69193,1.91084 -5.63414,5.78337 -5.60713,11.17993 0.0227,4.52961 1.63573,8.38336 4.27439,10.21196 2.65688,1.84122 5.92029,2.3697 8.99487,1.45665 z m 21.04559,2.72664 c -2.16557,-0.52824 -3.75632,-1.65021 -4.9967,-3.52422 -1.83553,-2.7732 -1.97903,-3.94197 -1.89007,-15.39414 l 0.0791,-10.17689 1.65,0 1.65,0 0.15,10.65 0.15,10.65 0.85455,1.7403 c 0.55561,1.13152 1.23775,1.99215 1.95,2.46026 2.94868,1.93798 8.19869,1.70138 10.68489,-0.48153 0.61441,-0.53946 1.2794,-1.56916 1.64577,-2.54838 0.57447,-1.5354 0.61479,-2.2977 0.61479,-11.62456 0,-7.6617 0.0897,-10.10405 0.38587,-10.50913 0.29057,-0.39738 0.71664,-0.50416 1.725,-0.43234 l 1.33913,0.0954 0.0791,10.65 c 0.0694,9.34547 0.0165,10.84929 -0.4324,12.27694 -0.96992,3.08491 -3.42021,5.49676 -6.27768,6.1792 -2.17364,0.51912 -7.21254,0.51326 -9.36132,-0.0109 z m 138.69229,0.0194 c -2.95134,-0.72605 -4.94865,-2.22171 -6.81348,-5.10218 -1.77777,-2.74603 -2.4714,-5.36521 -2.46624,-9.31246 0.007,-5.01467 1.22955,-8.41118 4.1346,-11.48284 2.49051,-2.63335 5.71539,-3.956954 9.65709,-3.963599 6.77946,-0.01143 11.75277,3.912389 13.47891,10.634469 0.60216,2.34505 0.59511,7.20055 -0.0138,9.55067 -1.29216,4.98661 -4.62933,8.69348 -8.70204,9.66605 -2.14569,0.5124 -7.21038,0.5178 -9.27498,0.01 z m 8.8143,-3.17789 c 2.01915,-0.86861 4.27797,-3.32788 5.15529,-5.61275 1.00914,-2.62816 1.16052,-7.44421 0.32088,-10.20853 -1.12722,-3.71113 -3.58929,-6.42304 -6.58728,-7.25572 -1.65429,-0.45947 -5.16306,-0.37219 -6.74802,0.16786 -4.6338,1.57889 -7.56813,7.97492 -6.51225,14.19483 0.78624,4.63131 3.39687,8.02895 7.02846,9.14723 2.05419,0.63255 5.31276,0.44044 7.34292,-0.43292 z M 0,90.63209 C 0,55.375208 0.04519138,51.646847 0.47453626,51.482093 0.7355312,51.381938 6.4633886,51.299996 13.203108,51.299996 c 10.740032,0 12.312281,0.05824 12.725464,0.471429 0.42117,0.42117 0.471429,3.187662 0.471429,25.949998 l 0,25.478567 25.617903,0 c 23.083432,0 25.635919,0.0469 25.800001,0.47454 0.100155,0.26099 0.182097,6.03899 0.182097,12.84 0,9.21758 -0.09164,12.4571 -0.36,12.72546 -0.276273,0.27627 -9.346668,0.36 -39.000001,0.36 L 0,129.59999 0,90.63209 Z m 90.360002,38.6079 c -0.268497,-0.2685 -0.36,-3.5419 -0.36,-12.87857 0,-10.98052 0.05792,-12.57649 0.471429,-12.99 0.397029,-0.39703 1.414935,-0.47143 6.45,-0.47143 l 5.978569,0 0,-38.249995 0,-38.249997 -38.249998,0 -38.250001,0 0,5.869722 c 0,3.472445 -0.126836,6.106715 -0.310556,6.449999 -0.299356,0.559353 -0.758244,0.580278 -12.725463,0.580278 -6.8282004,0 -12.6284508,-0.08194 -12.88944574,-0.182097 C 0.04856706,38.954442 0,36.943335 0,19.467902 L 0,0 64.767905,0 C 123.55102,0 129.55264,0.0438489 129.71791,0.47453621 129.81806,0.73553112 129.9,29.733529 129.9,64.914532 c 0,49.350908 -0.0823,64.047708 -0.36,64.325458 -0.52033,0.52034 -38.659663,0.52034 -39.179998,0 z m 61.213438,0.0134 c -0.54278,-0.54278 -0.54129,-27.80953 0.001,-28.55086 0.34163,-0.46654 1.18911,-0.50501 9.525,-0.43234 l 9.15,0.0798 0.0969,1.18803 c 0.15747,1.93052 0.0251,1.96196 -8.26196,1.96196 l -7.30047,0 0.0828,4.575 0.0828,4.575 6.75,0.15 6.75,0.15 0,1.5 0,1.5 -6.75,0.15 -6.75,0.15 -0.15,6.6 -0.15,6.6 -1.35156,0.0884 c -0.79171,0.0518 -1.50625,-0.0662 -1.725,-0.285 z m 78.96401,-0.0284 c -0.079,-0.20625 -0.10856,-6.7875 -0.0656,-14.625 l 0.0781,-14.25 1.70492,-0.0894 1.70491,-0.0894 1.16373,1.58937 c 0.64005,0.87415 4.26034,6.09106 8.04508,11.59313 l 6.88136,10.00376 0.0787,-11.17748 c 0.0555,-7.87784 0.18055,-11.3002 0.42372,-11.59321 0.22572,-0.27197 0.82091,-0.38479 1.7213,-0.32628 l 1.37628,0.0894 0,14.55 0,14.55 -1.65,0.0778 c -0.9075,0.0428 -1.7998,-0.0247 -1.98289,-0.15 -0.18308,-0.12529 -3.67425,-5.08779 -7.75815,-11.02779 -4.08389,-5.94 -7.61285,-10.99768 -7.84211,-11.23929 -0.3562,-0.37536 -0.41685,1.2023 -0.41685,10.84291 0,12.56436 0.1682,11.64638 -2.13396,11.64638 -0.67125,0 -1.24718,-0.16256 -1.3286,-0.375 z m 28.42256,0.015 c -0.47342,-0.47342 -0.52052,-27.57952 -0.0495,-28.45972 0.29055,-0.5429 0.68313,-0.58028 6.0949,-0.58028 3.18139,0 6.5854,0.14759 7.56445,0.32798 5.1563,0.95004 8.63047,4.41662 9.74332,9.72202 0.54065,2.57747 0.46363,7.69566 -0.15096,10.03201 -1.44555,5.49517 -4.96122,8.56476 -10.36226,9.04745 -4.24728,0.37958 -12.42796,0.32259 -12.84,-0.0895 z m 14.49,-3.53579 c 2.57631,-0.98155 4.14649,-2.69106 4.97396,-5.41533 0.55544,-1.82868 0.62849,-2.67224 0.52829,-6.10103 -0.11075,-3.79006 -0.16375,-4.07537 -1.11632,-6.01034 -0.78785,-1.60034 -1.29562,-2.21887 -2.39299,-2.91495 -2.26078,-1.43405 -3.8725,-1.76256 -8.64739,-1.76256 l -4.29555,0 0,11.58648 0,11.58647 4.575,-0.14148 c 3.81399,-0.11794 4.87441,-0.25555 6.375,-0.82726 z m 10.05,3.27556 c 0,-0.81437 11.06483,-28.26372 11.50857,-28.55017 0.18778,-0.12123 0.94893,-0.22041 1.69143,-0.22041 0.7425,0 1.50484,0.0992 1.69409,0.22041 0.43783,0.28045 11.20591,27.71323 11.20591,28.5482 0,0.54292 -0.18159,0.62162 -1.425,0.61761 -0.78375,-0.002 -1.59054,-0.10977 -1.79289,-0.23832 -0.20235,-0.12854 -1.08447,-2.05023 -1.96029,-4.2704 l -1.5924,-4.03669 -6.28972,0 -6.2897,0 -1.5401,3.9 c -0.84706,2.145 -1.69613,4.06875 -1.88683,4.275 -0.1907,0.20625 -1.01641,0.375 -1.8349,0.375 -1.30435,0 -1.48817,-0.0766 -1.48817,-0.62023 z m 17.7,-11.77537 c 0,-0.77336 -4.42822,-12.05238 -4.68684,-11.93771 -0.21465,0.0952 -4.14334,9.78043 -4.77651,11.77535 -0.16762,0.52814 0.0805,0.55796 4.64313,0.55796 3.79002,0 4.82022,-0.0846 4.82022,-0.3956 z m 14.91348,12.20908 c -0.11742,-0.11742 -0.21348,-5.99598 -0.21348,-13.06348 l 0,-12.85 -4.62858,0 c -3.80778,0 -4.71216,-0.0836 -5.1,-0.47143 -0.56685,-0.56687 -0.61071,-1.62392 -0.0964,-2.32538 0.34377,-0.46891 1.32408,-0.5049 11.775,-0.43234 l 11.4,0.0791 0.0944,1.14594 c 0.15852,1.92509 -0.0475,2.00406 -5.22789,2.00406 l -4.6101,0 -0.0782,12.975 -0.0782,12.975 -1.51152,0.0885 c -0.83133,0.0487 -1.60758,-0.008 -1.725,-0.125 z m 15.76152,-0.005 c -0.5928,-0.25029 -0.54132,-28.39683 0.0528,-28.88993 0.23529,-0.19529 1.01154,-0.31307 1.725,-0.26174 l 1.29717,0.0933 0,14.55 0,14.55 -1.35,0.0583 c -0.7425,0.0321 -1.51875,-0.0129 -1.725,-0.1 z m 38.46246,-0.18333 c -0.079,-0.20625 -0.10857,-6.7875 -0.0656,-14.625 l 0.0781,-14.25 1.79913,0 1.79916,0 7.74468,11.25 c 4.25955,6.1875 7.86957,11.29445 8.02221,11.34879 0.16605,0.0591 0.30915,-4.46106 0.35619,-11.25 l 0.0786,-11.34881 1.65,0 1.65,0 0,14.55 0,14.55 -1.65024,0.0877 c -1.02288,0.0544 -1.83423,-0.0597 -2.1342,-0.3 -0.26619,-0.21326 -3.91107,-5.38164 -8.09976,-11.4853 l -7.6158,-11.09755 -0.0788,11.07133 c -0.0538,7.56208 -0.18429,11.1985 -0.41172,11.47255 -0.42603,0.51333 -2.92734,0.53434 -3.12207,0.0262 z M 304.07908,90.558359 c -5.45795,-0.700353 -9.7241,-2.578416 -12.74279,-5.609688 -2.29136,-2.300909 -3.61653,-4.739972 -4.62113,-8.505488 -0.65207,-2.444145 -0.66515,-2.85021 -0.66515,-20.643187 l 0,-18.149999 8.25,0 8.25,0 0.16299,16.949999 c 0.11133,11.577623 0.27207,17.262403 0.50712,17.935642 1.10727,3.171552 2.7036,4.320672 6.26148,4.507413 3.87438,0.203355 5.64489,-0.903375 6.90438,-4.315839 0.49503,-1.341212 0.55989,-3.023957 0.70461,-18.277216 l 0.15942,-16.799999 7.91316,-0.08006 c 5.58684,-0.05652 8.03424,0.02043 8.325,0.261732 0.3393,0.281595 0.411,3.016686 0.4071,15.530054 -0.003,8.353547 -0.1341,16.748939 -0.2922,18.656428 -0.49278,5.94534 -2.10684,9.899901 -5.35047,13.109111 -3.98337,3.941082 -10.18557,5.833545 -18.79473,5.734776 -1.81932,-0.02088 -4.23978,-0.15753 -5.37879,-0.303684 z M 151.51056,89.119715 C 151.30356,88.732934 151.2,80.142018 151.2,63.356452 c 0,-20.981551 0.0687,-25.240012 0.41183,-25.524778 0.29076,-0.241308 2.73818,-0.318252 8.32501,-0.261732 l 7.91316,0.08006 0.0772,18.974999 0.0772,18.974998 11.03776,0 c 8.18493,0 11.13081,0.09305 11.39776,0.36 0.50964,0.509631 0.50964,12.870368 0,13.379999 -0.27247,0.272472 -5.01098,0.36 -19.48944,0.36 -18.60569,0 -19.13795,-0.0159 -19.44,-0.580278 z m 49.02946,0.210192 c -0.0797,-0.208953 -0.11007,-11.922413 -0.0675,-26.029912 l 0.0775,-25.649998 8.1,0 8.1,0 0,25.949998 0,25.949998 -8.03253,0.07991 c -6.26409,0.06232 -8.06444,-0.0037 -8.17746,-0.3 z m 27.79503,-0.03769 c -0.24675,-0.297314 -0.31765,-7.347547 -0.26174,-26.025 l 0.0767,-25.61722 8.30122,-0.0797 8.30122,-0.0797 0.57049,0.829704 c 0.31377,0.456336 3.53072,6.285372 7.14878,12.953408 l 6.57829,12.123704 0.0783,-12.546977 c 0.0546,-8.748995 0.18052,-12.670115 0.41593,-12.953771 0.27111,-0.326655 1.82178,-0.391017 7.87167,-0.326724 l 7.53407,0.08006 0,25.949998 0,25.949998 -7.85106,0.07994 -7.85106,0.07993 -0.56938,-0.829935 c -0.31316,-0.456465 -3.73268,-6.481094 -7.59894,-13.388063 l -7.02956,-12.558131 -0.0782,12.981275 c -0.0541,8.975339 -0.18114,13.105283 -0.41173,13.383128 -0.49114,0.591786 -14.73355,0.586245 -15.225,-0.0059 z m 111.76929,0.212097 c -0.11238,-0.112377 -0.20433,-0.384354 -0.20433,-0.604395 0,-0.220041 3.82578,-6.03629 8.50176,-12.924998 4.67595,-6.888707 8.73846,-12.891557 9.02778,-13.339661 l 0.52602,-0.81474 -8.16867,-11.60567 c -4.4928,-6.38312 -8.18403,-11.82149 -8.20278,-12.085262 -0.0304,-0.42825 0.9576,-0.488088 9.22986,-0.558981 6.49461,-0.05566 9.38478,0.02088 9.6681,0.256005 0.22227,0.18447 1.97475,3.163935 3.89439,6.621033 1.91964,3.4571 3.56469,6.211196 3.65568,6.120212 0.091,-0.09098 1.73781,-3.034719 3.65964,-6.54164 l 3.49422,-6.376218 8.91471,-0.07948 c 7.47237,-0.06662 8.94111,-0.01062 9.078,0.346089 0.095,0.247524 -3.17148,5.317653 -7.80771,12.118934 -4.38405,6.431355 -7.971,11.820248 -7.971,11.975324 0,0.155076 3.8475,5.990736 8.55,12.968135 4.7025,6.977403 8.55,12.847013 8.55,13.043585 0,0.196572 0.16761,0.525027 0.37248,0.729897 0.79689,0.79689 -0.65889,0.938388 -9.70098,0.942915 -8.36934,0.0042 -9.21912,-0.04169 -9.6393,-0.520407 -0.25341,-0.28875 -2.17362,-3.526527 -4.26714,-7.195055 -2.09349,-3.668532 -3.90594,-6.731592 -4.02762,-6.806802 -0.12168,-0.07521 -2.17116,3.128814 -4.55436,7.120056 l -4.33308,7.256801 -9.02067,0.07932 c -4.9614,0.04363 -9.11265,-0.01263 -9.225,-0.124998 z M 161.76,29.339998 C 161.49123,29.071219 161.4,25.728316 161.4,16.14743 l 0,-12.8325674 -4.86809,-0.082432 -4.86809,-0.082431 -0.29539,-0.8408306 c -0.20054,-0.5708447 -0.19226,-1.0043219 0.0258,-1.34999988 0.29297,-0.46447341 1.33218,-0.50916935 11.83847,-0.50916935 l 11.5173,0 0,1.34999993 0,1.3499999 -4.875,0.082431 -4.875,0.082432 0,12.8325674 c 0,9.580886 -0.0912,12.923789 -0.36,13.192568 -0.46574,0.46574 -2.41425,0.46574 -2.88,0 z m 15.25894,-0.204614 C 176.80697,28.739304 176.7,23.917022 176.7,14.756455 c 0,-11.568102 0.0688,-13.84004633 0.42783,-14.13805434 0.23531,-0.19528636 1.01156,-0.31306638 1.725,-0.26173339 l 1.29717,0.0933327 0.15,5.99999953 0.15,5.9999995 8.025,0.0799 8.025,0.0799 0,-5.7948996 c 0,-4.107144 0.10485,-5.8997489 0.36,-6.15489945 0.4663,-0.46629641 2.71371,-0.46629641 3.18001,0 0.47341,0.47341835 0.52051,27.57952405 0.0494,28.45972005 -0.23528,0.439632 -0.63265,0.580278 -1.63944,0.580278 -1.0068,0 -1.40417,-0.140646 -1.63945,-0.580278 C 196.62468,28.772398 196.5,26.002361 196.5,22.219721 l 0,-6.319722 -8.09436,0 -8.09437,0 -0.0806,6.824999 -0.0806,6.825 -1.40606,0.09066 c -1.15123,0.07423 -1.46386,-0.01734 -1.725,-0.505278 z m 28.51484,0.155304 c -0.24487,-0.295041 -0.31793,-4.377929 -0.26174,-14.624999 l 0.078,-14.21568903 10.2,0 10.2,0 0.0955,0.99459713 c 0.1791,1.8658453 0.22886,1.8554026 -8.83982,1.8554026 l -8.22088,0 0.0826,4.7249997 0.0826,4.7249996 7.8,0.15 7.8,0.15 0,1.35 0,1.35 -7.8,0.15 -7.8,0.15 -0.0821,5.170315 -0.0821,5.170316 8.47496,0.07968 8.47497,0.07968 0.28576,0.812913 c 0.19397,0.551807 0.17423,1.057693 -0.0615,1.575 l -0.34723,0.762087 -9.8697,0 c -7.971,0 -9.93505,-0.07874 -10.20939,-0.40931 z"
       id="path3352"
       inkscape:connector-curvature="0" />
    <path
       style="fill:#8ea4b5"
       d="m 181.13279,129.45623 c -2.00506,-0.55191 -3.78266,-1.66971 -5.39287,-3.39115 -6.50221,-6.95139 -4.87151,-20.46232 2.96631,-24.5769 2.48301,-1.3035 4.47525,-1.691835 7.78991,-1.518456 2.4795,0.129696 3.08973,0.280306 5.03899,1.243676 3.46365,1.71184 5.69252,4.52225 6.93892,8.7494 0.64978,2.20375 0.73423,7.10781 0.1625,9.43719 -1.24243,5.062 -4.71576,8.90342 -9.10735,10.07249 -1.94493,0.51775 -6.48839,0.50896 -8.39641,-0.0162 z m 8.32088,-2.82695 c 1.92715,-0.85247 3.06248,-1.71873 4.06326,-3.10027 2.62541,-3.62427 3.23243,-9.73604 1.43839,-14.48229 -0.97457,-2.57831 -3.66269,-5.22992 -6.05674,-5.97449 -2.50099,-0.77782 -6.10327,-0.55651 -8.14858,0.50063 -2.77452,1.43404 -4.8423,4.29657 -5.57643,7.71973 -0.51542,2.4033 -0.20687,7.30685 0.58853,9.35316 1.77049,4.55492 5.56221,7.02841 10.30338,6.7213 1.10851,-0.0718 2.63319,-0.4038 3.38819,-0.73777 z m 20.39634,2.85106 c -2.00296,-0.63345 -3.0089,-1.28525 -4.43985,-2.87681 -2.39299,-2.66159 -2.46015,-3.07936 -2.46015,-15.30354 l 0,-10.65 1.35,0 1.35,0 0.16815,10.35 c 0.0988,6.07935 0.29996,10.72859 0.48758,11.26753 0.99653,2.86253 2.6561,4.37441 5.43498,4.9513 3.38245,0.7022 6.89901,-0.19589 8.67141,-2.21456 1.73426,-1.97524 1.88788,-3.10499 1.88788,-13.88418 0,-5.31906 0.0819,-9.88456 0.18209,-10.14555 0.12781,-0.33307 0.57499,-0.47454 1.5,-0.47454 l 1.31791,0 0,10.6575 c 0,9.88925 -0.0433,10.78057 -0.60014,12.36498 -1.06277,3.02378 -3.3069,5.13484 -6.30725,5.93328 -2.00176,0.53269 -6.8915,0.54677 -8.54261,0.0246 z m 138.75,-0.009 c -5.51595,-1.53082 -8.96217,-6.32229 -9.49047,-13.19507 -0.52098,-6.77767 2.57319,-12.75579 7.88985,-15.24376 1.67136,-0.78213 2.44395,-0.95031 4.91106,-1.069113 5.0529,-0.243312 8.66136,1.319343 11.42532,4.947763 2.013,2.6426 2.70579,4.86394 2.88135,9.2385 0.11118,2.77094 0.0285,4.04414 -0.35844,5.52858 -1.31064,5.02642 -4.6086,8.64366 -8.92947,9.7939 -1.92141,0.5115 -6.48486,0.51106 -8.3292,-9e-4 z m 8.53374,-2.97565 c 3.89532,-1.78334 6.15462,-5.98394 6.16269,-11.458 0.008,-5.35542 -2.10612,-9.52238 -5.82738,-11.48633 -1.36725,-0.72158 -1.83384,-0.8017 -4.66905,-0.8017 -2.68587,0 -3.35754,0.10222 -4.55847,0.69376 -3.0321,1.4935 -4.97208,4.35711 -5.84355,8.62564 -1.09854,5.3806 0.98679,11.43528 4.75851,13.81626 2.7738,1.75103 6.9303,2.00531 9.97725,0.61037 z M 0,90.599993 0,51.899996 l 12.898325,0 12.898325,0 0.07668,25.724998 0.07668,25.724996 25.725,0.0767 25.725001,0.0767 0,12.89833 0,12.89832 -38.700001,0 -38.700001,0 0,-38.699997 z m 90.502172,38.502167 c -0.111192,-0.11119 -0.20217,-5.82267 -0.20217,-12.69217 0,-9.31444 0.09153,-12.58153 0.36,-12.85 0.256359,-0.25636 2.113587,-0.36 6.451137,-0.36 l 6.091131,0 -0.0761,-38.474995 -0.0761,-38.474997 -38.399998,0 -38.400001,0 -0.08152,5.977113 c -0.05169,3.790343 -0.202328,6.122681 -0.411734,6.374999 -0.264798,0.319062 -2.848825,0.397887 -13.043484,0.397887 L 0,38.999997 0,19.499998 0,0 l 64.644287,0 64.644283,0 0.16272,0.67499995 c 0.0895,0.37124995 0.12581,29.42999805 0.0807,64.57499505 l -0.082,63.899995 -19.37283,0.0772 c -10.655052,0.0424 -19.463803,-0.0138 -19.574998,-0.125 z M 151.7,129.10006 c -0.28738,-0.28738 -0.23859,-27.77472 0.0501,-28.22954 0.18739,-0.29521 2.23642,-0.36187 9.22041,-0.3 l 8.97948,0.0795 0.0931,1.125 c 0.0512,0.61875 0.0512,1.15291 0,1.18702 -0.0512,0.0341 -3.53562,0.13536 -7.74312,0.225 l -7.65,0.16298 -0.0863,4.2 c -0.0474,2.31 -0.0118,4.50117 0.0793,4.86927 0.16428,0.66423 0.21578,0.66988 6.83625,0.75 l 6.67072,0.0807 0.0923,1.275 0.0922,1.275 -6.73515,0 c -5.86483,0 -6.75868,0.0613 -6.91725,0.47454 -0.10015,0.26099 -0.1821,3.29849 -0.1821,6.75 l 0,6.27546 -1.3,0 c -0.715,0 -1.39,-0.09 -1.5,-0.2 z m 79.07209,-14.10851 0.0779,-14.34156 1.61616,0 1.61617,0 7.01433,10.2 c 3.85788,5.61 7.5181,10.875 8.13383,11.7 l 1.11951,1.5 0.15,-11.7 0.15,-11.7 1.35,0 1.35,0 0.0779,14.325 0.0779,14.325 -1.64344,0 c -1.95886,0 -0.85233,1.3446 -10.80112,-13.125 -3.77216,-5.48625 -6.96999,-9.975 -7.1063,-9.975 -0.1363,0 -0.28318,5.16375 -0.32639,11.475 l -0.0786,11.475 -1.42792,0.0916 -1.42792,0.0916 0.0779,-14.34155 z m 28.32792,14.10844 c -0.2956,-0.2956 -0.23428,-27.78143 0.063,-28.25044 0.20285,-0.32001 1.60303,-0.37809 6.97041,-0.28915 7.45539,0.12355 8.75546,0.38893 11.47588,2.34259 3.66783,2.63403 5.47836,8.33228 4.69602,14.77961 -0.72524,5.97677 -3.24462,9.4249 -8.03663,10.9993 -1.66715,0.54773 -2.62619,0.61809 -8.425,0.61809 -3.59904,0 -6.6337,-0.09 -6.7437,-0.2 z m 12.44319,-2.63288 c 2.62113,-0.55557 4.15524,-1.36943 5.46448,-2.89899 1.75819,-2.05404 2.14233,-3.63643 2.14233,-8.82497 0,-4.4953 -0.002,-4.512 -0.99307,-6.52351 -1.06608,-2.16496 -2.05561,-3.09926 -4.42345,-4.17663 -1.30602,-0.59423 -2.08459,-0.68865 -6.50848,-0.78925 l -5.025,-0.11427 0,11.68025 c 0,6.42414 0.09,11.77025 0.2,11.88025 0.3673,0.3673 7.12341,0.19522 9.14319,-0.23288 z m 12.25681,2.35915 c 0,-0.53637 10.73807,-27.3721 11.18445,-27.95127 0.15946,-0.2069 0.92846,-0.375 1.71555,-0.375 0.78608,0 1.55713,0.16836 1.71743,0.375 0.43345,0.55877 10.88257,27.39395 10.88257,27.94836 0,0.3703 -0.3261,0.47664 -1.46169,0.47664 l -1.46172,0 -1.71357,-4.35578 -1.71357,-4.35578 -6.4576,0.0808 -6.45759,0.0808 -1.65946,4.275 -1.65947,4.275 -1.45767,0 c -1.12815,0 -1.45766,-0.10709 -1.45766,-0.47373 z m 17.79654,-11.15127 c 0.21045,-0.35889 -4.71469,-13.13003 -5.04353,-13.07811 -0.28871,0.0456 -5.20285,12.17833 -5.23629,12.92811 -0.0127,0.2859 1.19082,0.375 5.06557,0.375 2.79526,0 5.14168,-0.10125 5.21425,-0.225 z m 14.53164,-1.35 -0.0782,-12.975 -4.76802,-0.15 c -5.20272,-0.16367 -5.57292,-0.29996 -5.17044,-1.90356 l 0.19989,-0.79644 11.41152,0 11.41155,0 -0.0922,1.275 -0.0922,1.275 -4.8,0.15 -4.8,0.15 -0.0782,12.975 -0.0782,12.975 -1.49364,0 -1.49364,0 -0.0782,-12.975 z m 15.80922,12.6 c -0.079,-0.20625 -0.10857,-6.6525 -0.0656,-14.325 l 0.0782,-13.95 1.35,0 1.35,0 0.0779,14.325 0.0779,14.325 -1.36233,0 c -0.81318,0 -1.42026,-0.15116 -1.50609,-0.375 z m 38.5626,-14.00856 0,-14.41644 1.61658,0 1.61661,0 7.96278,11.5642 c 4.37952,6.36031 8.07333,11.55793 8.20842,11.55026 0.13509,-0.008 0.31311,-5.17781 0.39561,-11.4892 l 0.15,-11.47526 1.35,0 1.35,0 0.0779,14.325 0.0779,14.325 -1.72791,-9e-4 -1.72791,-9e-4 -7.94511,-11.54898 c -4.3698,-6.35218 -8.04696,-11.54922 -8.17143,-11.54922 -0.12447,0 -0.26169,5.16375 -0.30489,11.475 l -0.0786,11.475 -1.425,0.0914 -1.425,0.0914 0,-14.41643 z m -67.05,-24.750954 c -10.29079,-1.608594 -15.67875,-6.90899 -16.9408,-16.665482 -0.21492,-1.661502 -0.30012,-8.299094 -0.24453,-19.049998 l 0.0853,-16.499999 8.025,-0.0799 8.025,-0.0799 0,15.849803 c 0,10.16627 0.11736,16.484708 0.3273,17.620382 0.79632,4.307642 2.93379,6.136268 7.1727,6.136268 3.6201,0 5.73546,-1.462176 6.74637,-4.66323 0.51609,-1.634141 0.57291,-3.171248 0.67884,-18.363286 l 0.11559,-16.579859 8.0046,0.07986 8.0046,0.07986 0.0883,14.999999 c 0.11889,20.201254 -0.21462,23.708626 -2.70126,28.409806 -1.0257,1.939137 -3.89094,4.828808 -6.01854,6.069839 -4.65963,2.717985 -13.90779,3.90204 -21.36846,2.735835 z M 151.83686,88.994399 c -0.24913,-0.300183 -0.31973,-7.19159 -0.26357,-25.727206 l 0.0767,-25.317196 8.02277,-0.0799 8.02276,-0.0799 0.0772,18.979895 0.0772,18.979894 11.25,0.15 11.25,0.15 0,6.6 0,6.599999 -19.08643,0.07721 c -15.84226,0.06408 -19.14427,0.0075 -19.42671,-0.332802 z m 49.0681,0.210546 c -0.11273,-0.112722 -0.20495,-11.72495 -0.20495,-25.804951 l 0,-25.599997 7.95167,0 7.95168,0 -0.0767,25.724998 -0.0767,25.724998 -7.67005,0.07995 c -4.21853,0.04397 -7.76228,-0.01227 -7.875,-0.125001 z m 27.60017,1.68e-4 c -0.11282,-0.112815 -0.20512,-11.727254 -0.20512,-25.809865 l 0,-25.604743 8.30222,0.07975 8.30222,0.07975 6.71028,12.299999 c 3.69066,6.765 6.94092,12.704999 7.22279,13.199999 0.49076,0.861843 0.51885,0.340353 0.66249,-12.299999 l 0.15,-13.199999 7.57667,-0.08015 7.57668,-0.08016 -0.0767,25.730155 -0.0767,25.730152 -7.54848,0.0801 c -6.03125,0.064 -7.62918,-0.0015 -7.95,-0.326022 -0.22084,-0.223362 -3.70837,-6.300653 -7.75007,-13.505093 -4.0417,-7.204439 -7.44906,-13.09898 -7.57191,-13.09898 -0.12285,0 -0.25851,6.04125 -0.30145,13.424999 l -0.0781,13.424999 -7.36988,0.08012 c -4.05344,0.04407 -7.46219,-0.01218 -7.575,-0.125001 z m 111.69488,-0.229458 c 0,-0.233385 4.05,-6.394157 9,-13.690604 4.95,-7.296449 8.99604,-13.349246 8.99118,-13.450664 -0.005,-0.101415 -3.71736,-5.445041 -8.25,-11.874722 -4.53264,-6.42968 -8.24118,-11.797853 -8.24118,-11.929271 0,-0.131421 4.21815,-0.203271 9.37365,-0.159672 l 9.37365,0.07928 3.60282,6.45 c 1.98156,3.547499 3.73677,6.449999 3.90048,6.449999 0.16371,0 1.9062,-2.93625 3.87219,-6.524999 l 3.57453,-6.525 8.80134,0 c 5.35143,0 8.80134,0.111582 8.80134,0.284661 0,0.156567 -3.53013,5.455317 -7.84476,11.774999 -4.3146,6.319686 -7.90065,11.699027 -7.96896,11.954093 -0.0683,0.255063 0.33282,1.132563 0.89139,1.95 0.5586,0.817434 4.64334,6.886245 9.07722,13.486244 l 8.06157,11.999999 -9.43047,0.07937 c -5.18676,0.04366 -9.58047,0.02181 -9.76377,-0.04852 -0.18333,-0.07034 -2.19699,-3.384006 -4.4748,-7.363691 -2.27784,-3.979686 -4.28196,-7.188984 -4.45356,-7.131774 -0.17163,0.05721 -2.18409,3.265008 -4.4721,7.128441 -2.28804,3.863432 -4.32018,7.12625 -4.5159,7.250705 -0.19572,0.124452 -4.30461,0.228348 -9.13086,0.230874 -7.36629,0.0039 -8.775,-0.06353 -8.775,-0.419745 z M 161.84749,29.042381 c -0.0809,-0.215811 -0.18088,-6.129883 -0.22226,-13.142382 L 161.55,3.1499998 l -4.768,-0.15 c -5.20275,-0.1636766 -5.57294,-0.2999659 -5.17046,-1.9035669 l 0.19989,-0.79643292 11.41154,0 11.41153,0 -0.0923,1.27499992 -0.0923,1.2749999 -4.8,0.15 -4.8,0.15 -0.15,13.0499992 -0.15,13.049999 -1.27774,0.09238 c -0.84772,0.06129 -1.32723,-0.03967 -1.42477,-0.3 z m 15.52623,0.01133 C 177.08633,28.766325 177,25.511752 177,14.964535 c 0,-7.5435043 0.082,-13.9290039 0.1821,-14.18999881 0.12781,-0.33306687 0.57499,-0.47453621 1.5,-0.47453621 l 1.3179,0 0,5.96326602 c 0,4.689056 0.088,6.036299 0.41184,6.305055 0.29075,0.241309 2.73817,0.318254 8.325,0.261734 l 7.91316,-0.08006 0.16573,-6.1499995 c 0.0911,-3.3824997 0.1924,-6.18374953 0.225,-6.22499953 0.0326,-0.04125 0.65233,-0.075 1.37718,-0.075 0.92501,0 1.37219,0.14146934 1.5,0.47453621 0.10015,0.26099492 0.1821,6.64649452 0.1821,14.18999882 0,10.267582 -0.0905,13.805962 -0.36,14.075463 -0.46503,0.465025 -2.11498,0.465025 -2.58001,0 C 196.90201,28.782 196.8,26.82561 196.8,22.135253 l 0,-6.544745 -8.325,0.07975 -8.325,0.07975 -0.15,6.749999 -0.15,6.75 -1.05128,0.08871 c -0.57821,0.04879 -1.21946,-0.07946 -1.425,-0.285 z m 28.32629,0.146285 c -0.11,-0.109999 -0.2,-6.657499 -0.2,-14.549998 l 0,-14.34999902 10.06725,0 10.06725,0 -0.0923,1.27499992 -0.0923,1.2749999 -8.4,0.15 -8.4,0.15 -0.0829,4.7774219 c -0.0628,3.6210403 0.01,4.8362363 0.3,5.0204053 0.21059,0.133642 3.79164,0.245051 7.95789,0.247578 l 7.575,0.0046 0,1.2 0,1.2 -7.575,0.0046 c -4.16625,0.0025 -7.74705,0.113777 -7.95732,0.247223 -0.29117,0.18479 -0.36268,1.488871 -0.3,5.470406 l 0.0823,5.227777 8.22518,0.07991 c 5.45563,0.053 8.3598,0.191642 8.625,0.411733 0.49752,0.412907 0.51955,1.518619 0.0398,1.998354 -0.26507,0.265062 -2.90223,0.36 -10,0.36 -5.30201,0 -9.73001,-0.09 -9.84,-0.2 z"
       id="path3350"
       inkscape:connector-curvature="0" />
    <path
       style="fill:#708ca2"
       d="m 180.85687,129.22378 c -1.09623,-0.38391 -2.56138,-1.09182 -3.25589,-1.57311 -5.53063,-3.83273 -7.38214,-13.1867 -4.05307,-20.47647 3.62364,-7.934814 15.30697,-9.693714 21.42443,-3.2254 2.64045,2.79188 3.93155,6.42536 3.92323,11.04096 -0.0116,6.45096 -2.82841,11.50005 -7.68298,13.77178 -1.79401,0.83952 -2.3898,0.96044 -5.19451,1.05427 -2.7194,0.091 -3.45035,0.007 -5.16121,-0.59203 z m 8.14841,-2.23219 c 1.96126,-0.63342 4.5494,-2.92742 5.56587,-4.93332 2.84256,-5.60953 1.79631,-13.49432 -2.27649,-17.15611 -2.49698,-2.245 -6.1044,-3.06988 -9.55705,-2.18535 -4.63712,1.18797 -7.54424,5.11598 -8.03533,10.85706 -0.5551,6.48944 2.6047,12.09074 7.69772,13.64558 1.37832,0.42078 4.98176,0.29648 6.60528,-0.22786 z m 21.27353,2.49819 c -3.21672,-0.86732 -5.64819,-3.1469 -6.75541,-6.33344 -0.44598,-1.28348 -0.54262,-3.00562 -0.65325,-11.63966 -0.0987,-7.70192 -0.0419,-10.23928 0.23675,-10.57499 0.45247,-0.5452 1.90595,-0.57868 2.34145,-0.0539 0.21133,0.25464 0.35268,3.93658 0.41173,10.725 l 0.0899,10.33724 0.81632,1.66217 c 1.33547,2.71924 3.51684,3.88908 7.24639,3.88616 3.49091,-0.003 5.60722,-0.90045 7.00201,-2.97018 1.27873,-1.8975 1.38072,-2.781 1.56134,-13.5244 0.16322,-9.70904 0.20773,-10.35273 0.72266,-10.45157 0.30181,-0.0579 0.88332,-0.0213 1.29226,0.0813 l 0.74354,0.18662 -0.10396,10.71495 c -0.12163,12.53691 -0.13629,12.61399 -2.93117,15.41178 -1.39999,1.40146 -2.04909,1.80618 -3.72883,2.325 -2.32468,0.71802 -6.07182,0.81652 -8.29176,0.21796 z m 138.80651,0.0765 c -4.42869,-1.03968 -8.01096,-4.88245 -9.32619,-10.00434 -0.59205,-2.30574 -0.59196,-7.02595 2.4e-4,-9.2995 1.85109,-7.1068 7.96467,-11.201187 15.09504,-10.10941 7.3701,1.1285 11.81967,7.31903 11.35434,15.79694 -0.47277,8.61416 -5.71767,14.01604 -13.51533,13.91987 -1.34388,-0.0166 -2.96751,-0.15318 -3.6081,-0.30356 z m 8.39697,-3.04477 c 4.30317,-2.21396 6.7011,-7.85736 5.86143,-13.79472 -0.39138,-2.76765 -1.55064,-5.53046 -3.02517,-7.20986 -0.53343,-0.60755 -1.86315,-1.5444 -2.95497,-2.08188 -1.74072,-0.85696 -2.28225,-0.97743 -4.39932,-0.97866 -3.08646,-0.002 -5.10108,0.6855 -6.99159,2.38522 -2.82033,2.53572 -4.13253,6.23017 -3.89223,10.95836 0.29085,5.72345 2.7789,9.64241 7.12119,11.2167 2.1252,0.7705 6.30663,0.52046 8.28066,-0.49516 z M 0,90.628868 0,51.893555 l 12.825,0.07822 12.825001,0.07822 0.07667,25.690444 0.07667,25.690451 0.673331,0.18045 c 0.370333,0.0993 11.979582,0.1823 25.798332,0.18456 l 25.125001,0.004 0,12.6 0,12.6 -38.225464,0 c -21.024006,0 -38.4390068,0.0819 -38.70000174,0.1821 C 0.04333119,129.34756 0,125.82716 0,90.628868 Z m 90.73805,38.298152 c -0.07966,-0.20757 -0.109551,-5.97982 -0.06644,-12.82722 l 0.07839,-12.44981 6.3,-0.15 6.3,-0.15 0,-38.549995 0,-38.549997 -38.7,0 -38.700001,0 -0.08109,6.224999 -0.08109,6.225 -12.893914,0 L 0,38.699997 0,19.349999 0,0 l 64.650686,0 64.650684,0 -0.0757,64.574995 -0.0757,64.574995 -19.13356,0.0772 c -15.152337,0.0612 -19.163697,-0.001 -19.27839,-0.30019 z m 61.20637,0.0162 c -0.0829,-0.2163 -0.11558,-6.67076 -0.0726,-14.34326 l 0.0782,-13.95 8.66364,-0.0797 c 9.29481,-0.0855 9.59448,-0.0408 9.42653,1.40398 l -0.0902,0.77568 -7.65,0.15 -7.65,0.15 -0.0823,5.025 c -0.0452,2.76375 -0.0452,5.05223 0,5.0855 0.0452,0.0333 3.11975,0.13453 6.83225,0.225 l 6.75,0.1645 0.094,0.975 c 0.0517,0.53625 0.0517,1.00223 0,1.0355 -0.0517,0.0333 -3.13151,0.13453 -6.84401,0.225 l -6.75,0.1645 -0.15,6.6 -0.15,6.6 -1.12741,0.0932 c -0.72526,0.06 -1.18119,-0.047 -1.27817,-0.3 z M 230.90001,129.1 c -0.11,-0.11001 -0.2,-6.42801 -0.2,-14.04001 0,-10.36444 0.0904,-13.9304 0.36,-14.2 0.198,-0.198 0.86862,-0.36 1.49028,-0.36 1.36701,0 0.87159,-0.629704 10.14911,12.9 7.11854,10.38121 7.49905,10.90138 7.77377,10.62715 0.0973,-0.0971 0.24434,-5.39667 0.32684,-11.77684 l 0.15,-11.60031 0.92555,-0.0903 c 0.53164,-0.0519 1.07556,0.0904 1.27802,0.33438 0.26132,0.31488 0.3323,4.02328 0.27445,14.34032 l -0.078,13.91562 -1.52723,0.089 -1.52723,0.089 -8.06462,-11.71674 c -4.43554,-6.4442 -8.20329,-11.67054 -8.37277,-11.61409 -0.20196,0.0673 -0.33521,4.1001 -0.38668,11.70272 l -0.0785,11.60007 -1.14648,0 c -0.63056,0 -1.23648,-0.09 -1.34647,-0.2 z m 28.43741,-0.17501 c -0.0791,-0.20625 -0.10858,-6.6525 -0.0656,-14.325 l 0.0782,-13.95 6.3,0.004 c 5.68787,0.004 6.50404,0.0692 8.4,0.67459 5.27616,1.6847 7.83957,5.57124 8.17431,12.3936 0.27068,5.51645 -0.74311,9.13376 -3.33703,11.90686 -1.5293,1.63495 -3.12453,2.52776 -5.72819,3.20592 -2.33233,0.6075 -13.59518,0.68082 -13.82168,0.09 z m 12.99178,-2.45251 c 5.21872,-1.38926 7.12302,-4.5369 7.09201,-11.72249 -0.0207,-4.79427 -0.62448,-6.71673 -2.78947,-8.88173 -2.25844,-2.25843 -3.98417,-2.7502 -9.78173,-2.78744 l -4.8,-0.0308 -0.0786,11.54917 c -0.0433,6.35204 -0.0137,11.71829 0.0656,11.925 0.20925,0.5453 8.20041,0.50518 10.29224,-0.0517 z m 11.47081,2.54255 c 0,-0.47762 10.76393,-27.06018 11.27311,-27.84004 0.33421,-0.51188 0.72737,-0.675 1.62689,-0.675 0.90001,0 1.29209,0.16285 1.62523,0.675 0.48124,0.73984 10.97477,27.37821 10.97477,27.86002 0,0.16799 -0.61749,0.25799 -1.4163,0.20642 l -1.41627,-0.0914 -1.59096,-4.05 c -0.87501,-2.2275 -1.81599,-4.21875 -2.09103,-4.425 -0.36057,-0.27037 -2.14803,-0.375 -6.40605,-0.375 -5.07755,0 -5.96248,0.0682 -6.30917,0.48588 -0.22178,0.26723 -1.08972,2.25848 -1.92875,4.425 l -1.52551,3.93912 -1.40798,0.0914 c -0.84887,0.0551 -1.40798,-0.0348 -1.40798,-0.2264 z m 17.52546,-10.99714 c 0.261,-0.10015 0.47454,-0.31495 0.47454,-0.47733 0,-0.34607 -4.42081,-12.12804 -4.85825,-12.94778 -0.16368,-0.30673 -0.41075,-0.44159 -0.54965,-0.3 -0.13877,0.14147 -1.39342,3.15971 -2.78812,6.70721 -1.79859,4.57485 -2.44782,6.55902 -2.23316,6.825 0.21828,0.27047 1.5818,0.375 4.89138,0.375 2.5238,0 4.80226,-0.0819 5.06326,-0.1821 z m 15.02202,10.92448 c -0.0808,-0.21581 -0.18087,-6.12988 -0.22224,-13.14238 l -0.0752,-12.75 -4.8,-0.15 -4.8,-0.15 0,-1.05 0,-1.05 10.65,-0.0837 c 5.8575,-0.046 10.96197,-0.008 11.34324,0.0853 0.57318,0.1397 0.6771,0.33604 0.6,1.13367 l -0.0932,0.9647 -4.8,0.15 -4.8,0.15 -0.15,13.05 -0.15,13.05 -1.27773,0.0924 c -0.84774,0.0613 -1.32723,-0.0397 -1.42479,-0.3 z m 15.82461,-13.94999 0.0779,-14.34239 0.92556,-0.0903 c 0.53163,-0.0519 1.07556,0.0904 1.27803,0.33438 0.2613,0.31488 0.33228,4.02328 0.27444,14.34032 l -0.078,13.91562 -1.27791,0.0924 -1.27794,0.0924 0.0779,-14.3424 z m 38.5422,14.12189 c -0.11787,-0.11786 -0.21429,-6.52234 -0.21429,-14.23218 0,-15.510059 -0.15366,-14.3821 1.95927,-14.3821 1.22139,0 0.44487,-0.997069 9.57915,12.3 3.91038,5.6925 7.36896,10.61625 7.6857,10.94167 0.56811,0.58369 0.57588,0.43588 0.57588,-10.965 0,-8.58852 0.0925,-11.64913 0.36,-11.91667 0.48624,-0.48623 1.88667,-0.45624 2.30628,0.0494 0.24477,0.29493 0.31794,4.29981 0.26175,14.325 l -0.078,13.91562 -1.61166,0 -1.61166,0 -7.98834,-11.6178 c -4.39359,-6.38978 -8.1555,-11.62103 -8.35983,-11.625 -0.2877,-0.006 -0.38916,2.61415 -0.45,11.6178 l -0.0785,11.625 -1.06071,0.0893 c -0.58341,0.0491 -1.15716,-0.007 -1.275,-0.125 z M 305.55001,90.270905 c -10.05785,-0.918525 -16.03157,-5.311263 -18.35398,-13.496486 -0.50125,-1.766625 -0.54602,-3.437304 -0.54602,-20.374423 l 0,-18.449999 7.71801,-0.08005 7.71801,-0.08005 0.15735,0.680049 c 0.0865,0.374028 0.19092,8.105051 0.23196,17.180051 l 0.0747,16.499998 0.85455,1.740297 c 1.03476,2.107314 2.39091,3.09693 4.87494,3.55737 2.64873,0.490974 4.9209,-0.05913 6.5868,-1.594722 2.39832,-2.210691 2.34501,-1.768149 2.52483,-20.952943 l 0.15888,-16.949999 7.8,0 7.8,0 0,17.999999 c 0,16.350484 -0.05,18.213157 -0.5457,20.326072 -2.01294,8.580206 -8.06751,13.062767 -18.94449,14.025761 -3.6744,0.325311 -4.23234,0.323184 -8.10981,-0.03092 z M 151.87332,63.5272 151.95,37.949997 l 7.62905,-0.08027 c 5.90334,-0.06211 7.68363,0.0058 7.8704,0.3 0.13275,0.209145 0.24344,8.784014 0.24596,19.055264 0.002,10.271249 0.0383,18.704626 0.0796,18.740839 0.0412,0.03621 5.1375,0.13746 11.325,0.225 l 11.25,0.159159 0,6.3 0,6.299999 -19.27668,0.0772 -19.27669,0.07721 0.0767,-25.577203 z m 48.96675,25.202872 c -0.0797,-0.209043 -0.11014,-11.720078 -0.0675,-25.580077 l 0.0775,-25.199998 7.8,0 7.8,0 0,25.499998 0,25.499998 -7.73247,0.08008 c -6.02386,0.06238 -7.76451,-0.0039 -7.87747,-0.3 z m 27.65994,0.16992 c -0.24987,-0.249867 -0.26746,-49.975145 -0.0179,-50.625458 0.15968,-0.416115 1.15605,-0.474537 8.09309,-0.474537 l 7.91098,0 0.51528,0.786411 c 0.2834,0.432525 3.56455,6.388563 7.29144,13.235636 3.72689,6.847073 6.90688,12.43328 7.06664,12.413789 0.17976,-0.02193 0.34765,-5.038233 0.44048,-13.160636 l 0.15,-13.1252 7.35,0 7.35,0 0,25.499998 0,25.499998 -7.76442,0 -7.76441,0 -7.53559,-13.424723 c -4.14457,-7.383599 -7.67058,-13.379873 -7.83558,-13.325054 -0.19247,0.06395 -0.32799,4.90281 -0.37809,13.499723 l -0.0781,13.400054 -7.29691,0 c -4.0133,0 -7.38692,-0.09 -7.49691,-0.200001 z m 112.07287,-0.34623 c 0.0799,-0.3054 4.02858,-6.265778 8.77491,-13.245287 4.74633,-6.979508 8.6925,-12.930143 8.76927,-13.223633 0.0919,-0.351357 -2.63679,-4.480547 -7.98876,-12.089123 -4.47057,-6.355526 -8.12829,-11.699552 -8.12829,-11.875613 0,-0.219669 2.81235,-0.320109 8.96328,-0.320109 7.94691,0 9.00993,0.05589 9.375,0.492891 0.22644,0.271089 1.96422,3.274839 3.86172,6.675 1.8975,3.40016 3.585,6.169721 3.75,6.154583 0.165,-0.01515 1.92915,-2.985138 3.92034,-6.599999 l 3.62037,-6.572475 8.64084,-0.07966 c 8.26041,-0.07615 8.63451,-0.05538 8.49666,0.471753 -0.0793,0.303279 -3.31464,5.199126 -7.18965,10.879661 -3.87498,5.680533 -7.41618,10.89344 -7.86927,11.584235 l -0.82386,1.255989 9.02727,13.367459 c 4.96503,7.352103 9.0273,13.437554 9.0273,13.523222 0,0.08567 -4.28625,0.120117 -9.525,0.07655 l -9.525,-0.07921 -4.12572,-7.199999 c -2.26914,-3.96 -4.27734,-7.2 -4.46268,-7.2 -0.18534,0 -2.2563,3.24 -4.60215,7.2 l -4.26519,7.199999 -8.93331,0.07952 c -8.56659,0.07625 -8.92734,0.05672 -8.78808,-0.475752 z M 161.90001,28.899998 C 161.79,28.789998 161.7,22.931942 161.7,15.882095 c 0,-11.4115028 -0.0521,-12.8378818 -0.47453,-12.9999986 -0.261,-0.1001531 -2.4885,-0.1820966 -4.95,-0.1820966 l -4.47547,0 0,-1.0536075 0,-1.05360744 11.325,0.0786075 11.325,0.0786076 0,0.89999994 0,0.8999999 -4.73667,0.15 c -3.76672,0.1192835 -4.79478,0.2421493 -5.02041,0.5999999 -0.16653,0.2641272 -0.28563,5.685416 -0.28832,13.1249993 l -0.005,12.674999 -1.14999,0 c -0.63251,0 -1.24001,-0.09 -1.35,-0.2 z M 177.3,14.849999 l 0,-14.28449775 1.275,0.0922494 1.275,0.0922493 0.15,5.99999955 0.15,5.9999995 8.4,0 8.4,0 0.0812,-6.0749995 0.0812,-6.07499954 1.34379,0 1.34379,0 0,14.24999904 0,14.249999 -1.34437,0 -1.34437,0 -0.0806,-6.825 -0.0806,-6.824999 -8.4,0 -8.4,0 -0.15,6.749999 -0.15,6.75 -1.275,0.09225 -1.275,0.09225 0,-14.284498 z m 28.3374,13.874999 c -0.0791,-0.20625 -0.10859,-6.585 -0.0656,-14.174999 l 0.0782,-13.79999906 9.9,0 9.9,0 0,0.89999996 0,0.8999999 -8.33631,0.15 c -6.97002,0.1254157 -8.38286,0.2237528 -8.6204,0.5999999 -0.34086,0.539886 -0.38454,8.9918943 -0.0492,9.5198123 0.17408,0.274056 2.25082,0.390575 8.0204,0.45 l 7.78551,0.08019 0,1.05 0,1.05 -7.78551,0.08019 c -5.76958,0.05942 -7.84632,0.175944 -8.0204,0.45 -0.1292,0.203397 -0.23698,2.55392 -0.2395,5.223384 -0.004,4.016609 0.0767,4.934865 0.46683,5.324999 0.40566,0.405655 1.61949,0.471429 8.7,0.471429 l 8.22858,0 0,1.05 0,1.05 -9.90942,0 c -7.65085,0 -9.94218,-0.08547 -10.05319,-0.375 z"
       id="path3348"
       inkscape:connector-curvature="0" />
    <path
       style="fill:#1899d5"
       d="m 182.4,129.70381 c -1.78269,-0.35924 -5.03627,-2.22347 -6.37106,-3.65047 -2.72611,-2.91443 -3.97322,-6.47313 -3.96114,-11.30335 0.0163,-6.50166 2.71623,-11.18342 7.83144,-13.5798 1.61475,-0.75648 2.04209,-0.8202 5.50076,-0.8202 3.57037,0 3.84341,0.0444 5.7,0.92711 2.51649,1.19643 3.73481,2.24706 5.15656,4.44679 2.28595,3.5368 3.11334,8.32527 2.20937,12.78655 -1.00925,4.98083 -3.32345,8.177 -7.30836,10.09367 -2.05828,0.98999 -2.54129,1.10011 -5.13967,1.17176 -1.57734,0.0435 -3.2054,0.0111 -3.6179,-0.0721 z m 7.57195,-3.01025 c 2.81095,-1.26148 4.69795,-3.68373 5.78633,-7.42764 0.72509,-2.49422 0.49746,-7.75039 -0.43539,-10.05322 -1.96616,-4.85372 -5.50034,-7.13569 -10.60602,-6.84818 -2.96488,0.16696 -4.76328,0.92926 -6.65487,2.82084 -3.85725,3.85725 -4.67055,11.90933 -1.7457,17.28324 2.54847,4.68237 8.51971,6.52983 13.65565,4.22496 z m 20.47806,2.80449 c -3.58297,-1.19197 -5.7818,-3.28401 -6.75153,-6.42363 -0.54808,-1.77448 -0.59847,-2.79381 -0.59847,-12.10603 l 0,-10.1684 1.2,0 1.2,0 0,9.20043 c 0,9.72628 0.22244,12.13576 1.29729,14.05194 1.56922,2.79751 5.24967,4.19099 9.22139,3.49139 2.77157,-0.48821 4.4179,-1.61466 5.52672,-3.78149 l 0.9046,-1.76774 0.15,-10.52227 0.15,-10.52226 1.01854,-0.0973 c 0.61255,-0.0585 1.11893,0.0611 1.2704,0.3 0.36096,0.56932 0.31636,17.72848 -0.052,19.99843 -0.60923,3.7545 -2.49887,6.35719 -5.64156,7.77042 -1.36479,0.61372 -2.28042,0.78319 -4.6954,0.86904 -1.96657,0.0699 -3.41338,-0.0309 -4.2,-0.29258 z m 138.19869,-0.17677 c -2.40786,-0.89485 -3.96444,-1.90519 -5.55498,-3.60561 -4.20774,-4.49839 -5.01351,-12.84397 -1.8258,-18.91019 1.33827,-2.54672 3.12465,-4.24899 5.77821,-5.50613 1.91784,-0.90859 2.16522,-0.94936 5.76069,-0.94936 3.65016,0 3.81432,0.0283 5.78388,0.99818 4.88535,2.40563 7.54611,7.2579 7.51344,13.70182 -0.0332,6.5452 -2.82114,11.42234 -7.84323,13.7207 -1.72206,0.7881 -2.44182,0.93648 -5.0109,1.03299 -2.44833,0.092 -3.29448,0.003 -4.60131,-0.4824 z m 8.86371,-2.74082 c 3.90567,-1.89928 6.0876,-6.12227 6.0876,-11.7822 0,-5.27173 -2.27508,-9.53681 -6.15,-11.52936 -1.96137,-1.00857 -5.58609,-1.26263 -8.00046,-0.56075 -3.25518,0.94631 -5.72703,3.62849 -6.89862,7.48561 -0.52185,1.71812 -0.60291,2.62246 -0.49821,5.55889 0.11253,3.15626 0.21858,3.70685 1.06053,5.50603 2.16093,4.61785 5.66256,6.72421 10.58676,6.36836 1.33968,-0.0968 2.5329,-0.42437 3.8124,-1.04658 z M 0,90.628868 0,51.893555 l 12.825,0.07822 12.825001,0.07822 0.07667,25.690444 0.07667,25.690451 0.673331,0.18045 c 0.370333,0.0993 11.979582,0.1823 25.798332,0.18456 l 25.125001,0.004 0,12.6 0,12.6 -38.225464,0 c -21.024006,0 -38.4390068,0.0819 -38.70000174,0.1821 C 0.04333119,129.34756 0,125.82716 0,90.628868 Z m 90.73805,38.298152 c -0.07966,-0.20757 -0.109551,-5.97982 -0.06644,-12.82722 l 0.07839,-12.44981 6.3,-0.15 6.3,-0.15 0,-38.699995 0,-38.699997 -38.7,0 -38.700001,0 -0.15,6.3 -0.15,6.299999 L 12.825,38.628219 0,38.706438 0,19.353219 0,0 l 64.650686,0 64.650684,0 -0.0757,64.574995 -0.0757,64.574995 -19.13356,0.0772 c -15.152337,0.0612 -19.163697,-0.001 -19.27839,-0.30019 z m 61.19935,-0.002 c -0.0791,-0.20625 -0.10859,-6.585 -0.0656,-14.17499 l 0.0782,-13.8 8.94435,-0.0795 8.94434,-0.0795 -0.0943,0.97949 -0.0943,0.97956 -7.58206,0.0802 -7.58206,0.0802 0.0821,5.16984 0.0821,5.16983 6.65659,0.0807 c 6.1607,0.0747 6.66965,0.12182 6.83181,0.63274 0.0964,0.30363 0.0912,0.77102 -0.0115,1.03865 -0.16312,0.42507 -1.02704,0.4968 -6.83181,0.56726 l -6.64507,0.0807 -0.0811,6.42663 c -0.0521,4.12352 -0.1996,6.5694 -0.41174,6.825 -0.41859,0.50438 -2.02884,0.52133 -2.21975,0.0234 z m 79.27682,0.18922 c -0.11782,-0.11775 -0.21421,-6.53665 -0.21421,-14.26415 l 0,-14.05 1.43563,0 1.43564,0 8.05954,11.7 c 4.43274,6.435 8.24012,11.7 8.46084,11.7 0.32681,0 0.41588,-2.15776 0.47982,-11.625 l 0.0785,-11.625 1.12795,-0.0933 1.12794,-0.0933 -0.0779,14.19329 -0.078,14.19328 -1.21553,0.0893 c -0.87712,0.0645 -1.34565,-0.0608 -1.68294,-0.45 -0.25709,-0.29664 -3.47664,-4.92684 -7.15457,-10.28934 -7.68676,-11.20746 -8.90738,-12.9 -9.3032,-12.9 -0.17619,0 -0.31707,4.54105 -0.36528,11.775 l -0.0785,11.775 -0.91079,0.0892 c -0.50093,0.0491 -1.00718,-0.007 -1.125,-0.125 z m 28.13602,-0.15577 c -0.0861,-0.22458 -0.12142,-6.61838 -0.0784,-14.20838 l 0.0782,-13.8 5.7,-0.0904 c 8.37517,-0.13286 11.05117,0.57575 13.88544,3.67689 2.43233,2.66136 3.64787,7.30135 3.21898,12.28752 -0.53881,6.26397 -3.10538,10.01301 -7.95442,11.61914 -1.6762,0.55521 -2.84465,0.6654 -8.32158,0.78483 -5.19449,0.11327 -6.40052,0.0635 -6.52819,-0.26951 z m 13.49977,-2.47474 c 4.65916,-1.43865 6.75,-4.94875 6.75,-11.3319 0,-3.38395 -0.39532,-5.55105 -1.35934,-7.45174 -0.90544,-1.78519 -2.00864,-2.78751 -4.19066,-3.80745 -1.75032,-0.81814 -1.94078,-0.84138 -6.9,-0.84196 l -5.1,-6e-4 -0.0786,11.69929 c -0.0432,6.4346 -0.006,11.88763 0.082,12.11783 0.22197,0.57846 8.65083,0.27907 10.79657,-0.38348 z m 11.25392,2.29136 c 0.002,-0.28875 2.48695,-6.6675 5.52177,-14.175 l 5.51786,-13.65 1.56374,0 1.56374,0 5.3602,13.65 c 2.94813,7.5075 5.36214,13.88625 5.36451,14.175 0.003,0.40057 -0.24399,0.525 -1.04319,0.525 -1.28253,0 -1.28817,-0.009 -3.25233,-4.95 l -1.55022,-3.9 -6.48351,-0.0807 c -4.96273,-0.0618 -6.5522,0.009 -6.77637,0.3 -0.16108,0.20941 -0.94085,2.06824 -1.73283,4.13074 -0.79198,2.0625 -1.57289,3.91875 -1.73536,4.125 -0.16247,0.20625 -0.75137,0.375 -1.30866,0.375 -0.76652,0 -1.01232,-0.12785 -1.00935,-0.525 z m 17.82601,-10.84255 c 0.15468,-0.25024 -4.16329,-12.09998 -4.93367,-13.53943 -0.20762,-0.38794 -0.46215,-0.54713 -0.62093,-0.38835 -0.49319,0.49319 -5.39896,13.40105 -5.24535,13.80134 0.11685,0.30452 1.34155,0.39399 5.3929,0.39399 2.88294,0 5.31612,-0.1204 5.40705,-0.26755 z m 14.71824,11.01171 c -0.0812,-0.21679 -0.18156,-6.13166 -0.22293,-13.14416 l -0.0752,-12.75 -4.95,-0.15 -4.95,-0.15 0,-0.9 0,-0.9 11.15364,-0.0786 c 11.03262,-0.0778 11.15574,-0.0719 11.34978,0.5394 0.40782,1.2849 -0.20793,1.46892 -5.20896,1.55677 l -4.69446,0.0825 -0.15,13.05 -0.15,13.05 -0.97707,0.0942 c -0.60501,0.0583 -1.03329,-0.0559 -1.12476,-0.3 z m 15.59658,0 c -0.0831,-0.21679 -0.11595,-6.60416 -0.0729,-14.19416 l 0.0782,-13.8 1.12794,-0.0933 1.12797,-0.0933 -0.078,14.19329 -0.0779,14.19328 -0.97707,0.0942 c -0.6039,0.0582 -1.03476,-0.0564 -1.12818,-0.3 z m 38.62878,0.009 c -0.28689,-0.28689 -0.37353,-3.48489 -0.37353,-13.78898 0,-7.37851 0.0819,-13.62901 0.1821,-13.89 0.12705,-0.33113 0.57276,-0.47454 1.4748,-0.47454 1.59483,0 0.89871,-0.866011 10.32147,12.84018 4.00431,5.8246 7.43604,10.53838 7.62609,10.47507 0.25095,-0.0836 0.36705,-3.29056 0.42405,-11.71518 l 0.0785,-11.60007 1.1994,0 1.19943,0 -0.0779,14.175 -0.0779,14.175 -1.26996,0.092 c -1.503,0.10889 -0.5235,1.3385 -10.81221,-13.57341 -3.74982,-5.43478 -6.98499,-9.93425 -7.18932,-9.99883 -0.29013,-0.0917 -0.38871,2.46703 -0.45,11.68141 l -0.0785,11.79883 -0.90147,0.0885 c -0.49581,0.0487 -1.06956,-0.0796 -1.275,-0.285 z M 303.77542,89.987132 c -5.52652,-0.865605 -9.03777,-2.471796 -12.03195,-5.503914 -2.32685,-2.356319 -3.40241,-4.282421 -4.4233,-7.921163 -0.62605,-2.231382 -0.65221,-2.939223 -0.74979,-20.284855 -0.0817,-14.51426 -0.026,-18.020444 0.28926,-18.220406 0.48899,-0.310164 14.36113,-0.329784 14.84677,-0.021 0.26622,0.169272 0.38124,4.437804 0.45468,16.870403 0.0975,16.508564 0.10383,16.657621 0.78141,18.345478 1.21635,3.029763 3.43149,4.444971 6.95751,4.444971 2.52705,0 3.89751,-0.501024 5.27118,-1.927101 2.2038,-2.28786 2.22882,-2.524119 2.22882,-21.054232 0,-12.196358 0.0889,-16.284209 0.36,-16.555319 0.57246,-0.572451 14.74539,-0.505974 15.22458,0.07141 0.27156,0.327231 0.32811,4.691976 0.23418,18.074999 -0.13785,19.639546 -0.13911,19.65307 -2.24424,24.093589 -1.30731,2.757684 -4.15539,5.709638 -6.89841,7.150007 -1.03062,0.541191 -3.19062,1.328076 -4.8,1.748634 -2.49843,0.652887 -3.71541,0.779397 -8.32611,0.865548 -2.97,0.05549 -6.19857,-0.02418 -7.17459,-0.177051 z m -151.7732,-1.08492 C 151.891,88.79099 151.8,77.409495 151.8,63.609994 c 0,-19.114441 0.0857,-25.175737 0.36,-25.449997 0.38056,-0.380556 13.81553,-0.54243 14.76547,-0.177903 0.4256,0.163317 0.47501,2.104563 0.47913,18.824999 0.002,10.253594 0.1107,18.809959 0.24038,19.014145 0.17889,0.281652 2.91075,0.390246 11.32041,0.45 l 11.08461,0.07876 0,6.3 0,6.299999 -18.92278,0.07722 c -10.40753,0.04247 -19.01378,-0.01377 -19.125,-0.125001 z m 48.87988,-0.276756 c -0.10015,-0.260994 -0.18209,-11.641493 -0.18209,-25.289998 0,-18.900913 0.0858,-24.901264 0.36,-25.175461 0.51162,-0.511623 14.66837,-0.511623 15.18,0 0.27419,0.274197 0.36,6.274548 0.36,25.175461 0,13.648505 -0.082,25.029004 -0.1821,25.289998 -0.15941,0.415404 -1.12739,0.474537 -7.7679,0.474537 -6.64052,0 -7.6085,-0.05913 -7.76791,-0.474537 z m 27.9232,0.279837 c -0.11291,-0.112914 -0.20529,-11.575856 -0.20529,-25.473202 0,-22.764274 0.047,-25.285942 0.47453,-25.449997 0.67974,-0.260841 14.90677,-0.216735 15.32095,0.0475 0.19001,0.121224 3.58516,6.155871 7.54477,13.410329 3.95961,7.254458 7.34789,13.239458 7.52952,13.299998 0.23696,0.07899 0.33023,-3.608151 0.33023,-13.054922 0,-9.839441 0.0909,-13.255937 0.36,-13.524998 0.25876,-0.258762 2.26666,-0.36 7.14,-0.36 4.87333,0 6.88123,0.101238 7.14,0.36 0.27419,0.274197 0.36,6.274548 0.36,25.175461 0,13.648505 -0.082,25.029004 -0.1821,25.289998 -0.15928,0.415083 -1.1152,0.474537 -7.62957,0.474537 l -7.44748,0 -0.57344,-0.825 c -0.31539,-0.45375 -3.51987,-6.089999 -7.12107,-12.524999 -7.33485,-13.106702 -7.83339,-13.949999 -8.24705,-13.949999 -0.18544,0 -0.32187,4.988787 -0.37124,13.574999 l -0.078,13.574999 -7.06971,0.0803 c -3.88833,0.04417 -7.16208,-0.01209 -7.275,-0.124998 z m 111.69471,-0.07264 c 0,-0.147033 3.92814,-6.053282 8.72919,-13.124999 9.60042,-14.140946 9.37731,-13.792625 9.11064,-14.224097 -0.10332,-0.16722 -3.81723,-5.458217 -8.25306,-11.757773 -5.57457,-7.91672 -7.9527,-11.525204 -7.70097,-11.68517 0.42573,-0.27054 16.74021,-0.326928 17.43513,-0.06026 0.25851,0.0992 2.10774,3.136698 4.1094,6.75 2.00166,3.613301 3.81246,6.569639 4.02399,6.569639 0.21153,0 1.96878,-2.907351 3.90501,-6.460778 1.93623,-3.553428 3.76359,-6.590928 4.0608,-6.75 0.65931,-0.352839 15.86652,-0.383658 16.41885,-0.03327 0.28557,0.181149 -1.70139,3.310872 -7.47264,11.770406 -4.32393,6.338004 -7.91721,11.735915 -7.98507,11.995355 -0.11367,0.434631 17.12253,26.39875 17.67711,26.628286 0.1329,0.055 0.24162,0.223752 0.24162,0.375 0,0.453237 -18.50448,0.355389 -18.91158,-0.1 -0.18438,-0.20625 -2.11593,-3.478629 -4.29234,-7.271957 -2.17644,-3.793326 -4.15812,-6.935661 -4.40376,-6.982968 -0.30084,-0.05793 -1.79079,2.196684 -4.56429,6.906777 -2.26473,3.846032 -4.28199,7.15712 -4.48284,7.357967 -0.43887,0.438858 -17.64519,0.53427 -17.64519,0.09784 z M 162.21422,28.914216 c -0.11782,-0.11782 -0.21628,-5.895468 -0.21881,-12.839217 -0.002,-6.9437497 -0.10954,-12.790179 -0.2378,-12.9920654 -0.16413,-0.2583353 -1.65126,-0.3916327 -5.02041,-0.4500001 l -4.7872,-0.082934 0,-0.8999999 0,-0.89999996 11.14152,-0.0786179 c 10.12949,-0.0714767 11.1588,-0.033575 11.3318,0.41726326 0.10466,0.2727345 0.11168,0.743557 0.0156,1.0462721 -0.15848,0.4993459 -0.62515,0.5580281 -5.0318,0.6327367 l -4.85712,0.082346 -0.15,13.0499992 -0.15,13.049999 -0.91078,0.08922 c -0.50093,0.04907 -1.00718,-0.0072 -1.125,-0.125 z m 15.22318,-0.189218 c -0.0791,-0.20625 -0.10859,-6.585 -0.0656,-14.174999 l 0.0782,-13.79999906 1.01855,-0.0972549 c 0.61255,-0.0584897 1.11893,0.0610884 1.2704,0.29999998 0.13853,0.21849018 0.25394,2.99600468 0.25646,6.17225448 l 0.005,5.7749995 8.54379,0 8.54379,0 0.0812,-6.0749995 0.0812,-6.07499954 1.20001,0 1.2,0 0,14.09999904 0,14.099999 -1.2,0 -1.20001,0 -0.15,-6.75 -0.15,-6.749999 -8.475,-0.07967 -8.475,-0.07967 0,6.430135 c 0,3.536574 -0.0819,6.643677 -0.18209,6.904672 -0.22088,0.575599 -2.16679,0.656964 -2.38051,0.09954 z m 28.5016,0.0042 c -0.0799,-0.208542 -0.11019,-6.589167 -0.0672,-14.179166 l 0.0782,-13.79999906 9.6,0 9.6,0 0,0.89999996 0,0.8999999 -8.4,0.15 -8.4,0.15 0,5.0999996 0,5.0999996 7.76763,0.15 c 6.97339,0.134662 7.80146,0.203681 8.09846,0.675 0.24112,0.38262 0.24112,0.66738 0,1.05 -0.297,0.471319 -1.12507,0.540337 -8.09846,0.675 l -7.76763,0.15 0,5.549999 0,5.55 8.55,0.15 8.55,0.15 0,0.9 0,0.9 -9.68282,0.07917 c -7.58477,0.06201 -9.71432,-0.003 -9.82819,-0.3 z"
       id="path3346"
       inkscape:connector-curvature="0" />
    <path
       style="fill:#4e718c"
       d="m 182.4,129.70381 c -1.78269,-0.35924 -5.03627,-2.22347 -6.37106,-3.65047 -2.72611,-2.91443 -3.97322,-6.47313 -3.96114,-11.30335 0.0163,-6.50166 2.71623,-11.18342 7.83144,-13.5798 1.61475,-0.75648 2.04209,-0.8202 5.50076,-0.8202 3.57037,0 3.84341,0.0444 5.7,0.92711 2.51649,1.19643 3.73481,2.24706 5.15656,4.44679 2.28595,3.5368 3.11334,8.32527 2.20937,12.78655 -1.00925,4.98083 -3.32345,8.177 -7.30836,10.09367 -2.05828,0.98999 -2.54129,1.10011 -5.13967,1.17176 -1.57734,0.0435 -3.2054,0.0111 -3.6179,-0.0721 z m 7.57195,-3.01025 c 2.81095,-1.26148 4.69795,-3.68373 5.78633,-7.42764 0.72509,-2.49422 0.49746,-7.75039 -0.43539,-10.05322 -1.96616,-4.85372 -5.50034,-7.13569 -10.60602,-6.84818 -2.96488,0.16696 -4.76328,0.92926 -6.65487,2.82084 -3.85725,3.85725 -4.67055,11.90933 -1.7457,17.28324 2.54847,4.68237 8.51971,6.52983 13.65565,4.22496 z m 20.47806,2.80449 c -3.58297,-1.19197 -5.7818,-3.28401 -6.75153,-6.42363 -0.54808,-1.77448 -0.59847,-2.79381 -0.59847,-12.10603 l 0,-10.1684 1.2,0 1.2,0 0,9.20043 c 0,9.72628 0.22244,12.13576 1.29729,14.05194 1.56922,2.79751 5.24967,4.19099 9.22139,3.49139 2.77157,-0.48821 4.4179,-1.61466 5.52672,-3.78149 l 0.9046,-1.76774 0.15,-10.52227 0.15,-10.52226 1.01854,-0.0973 c 0.61255,-0.0585 1.11893,0.0611 1.2704,0.3 0.36096,0.56932 0.31636,17.72848 -0.052,19.99843 -0.60923,3.7545 -2.49887,6.35719 -5.64156,7.77042 -1.36479,0.61372 -2.28042,0.78319 -4.6954,0.86904 -1.96657,0.0699 -3.41338,-0.0309 -4.2,-0.29258 z m 138.19869,-0.17677 c -2.40786,-0.89485 -3.96444,-1.90519 -5.55498,-3.60561 -4.20774,-4.49839 -5.01351,-12.84397 -1.8258,-18.91019 1.33827,-2.54672 3.12465,-4.24899 5.77821,-5.50613 1.91784,-0.90859 2.16522,-0.94936 5.76069,-0.94936 3.65016,0 3.81432,0.0283 5.78388,0.99818 4.88535,2.40563 7.54611,7.2579 7.51344,13.70182 -0.0332,6.5452 -2.82114,11.42234 -7.84323,13.7207 -1.72206,0.7881 -2.44182,0.93648 -5.0109,1.03299 -2.44833,0.092 -3.29448,0.003 -4.60131,-0.4824 z m 8.86371,-2.74082 c 3.90567,-1.89928 6.0876,-6.12227 6.0876,-11.7822 0,-5.27173 -2.27508,-9.53681 -6.15,-11.52936 -1.96137,-1.00857 -5.58609,-1.26263 -8.00046,-0.56075 -3.25518,0.94631 -5.72703,3.62849 -6.89862,7.48561 -0.52185,1.71812 -0.60291,2.62246 -0.49821,5.55889 0.11253,3.15626 0.21858,3.70685 1.06053,5.50603 2.16093,4.61785 5.66256,6.72421 10.58676,6.36836 1.33968,-0.0968 2.5329,-0.42437 3.8124,-1.04658 z m -266.77436,2.34656 c -0.07966,-0.20757 -0.109551,-5.97982 -0.06644,-12.82722 l 0.07839,-12.44981 6.3,-0.15 6.3,-0.15 0,-38.699995 0,-38.699997 -38.7,0 -38.700001,0 -0.15,6.3 -0.15,6.299999 L 12.825,38.628219 0,38.706438 0,19.353219 0,0 l 64.650686,0 64.650684,0 -0.0757,64.574995 -0.0757,64.574995 -19.13356,0.0772 c -15.152337,0.0612 -19.163697,-0.001 -19.27839,-0.30019 z m 61.19935,-0.002 c -0.0791,-0.20625 -0.10859,-6.585 -0.0656,-14.17499 l 0.0782,-13.8 8.94435,-0.0795 8.94434,-0.0795 -0.0943,0.97949 -0.0943,0.97956 -7.58206,0.0802 -7.58206,0.0802 0.0821,5.16984 0.0821,5.16983 6.65659,0.0807 c 6.1607,0.0747 6.66965,0.12182 6.83181,0.63274 0.0964,0.30363 0.0912,0.77102 -0.0115,1.03865 -0.16312,0.42507 -1.02704,0.4968 -6.83181,0.56726 l -6.64507,0.0807 -0.0811,6.42663 c -0.0521,4.12352 -0.1996,6.5694 -0.41174,6.825 -0.41859,0.50438 -2.02884,0.52133 -2.21975,0.0234 z m 79.27682,0.18922 c -0.11782,-0.11775 -0.21421,-6.53665 -0.21421,-14.26415 l 0,-14.05 1.43563,0 1.43564,0 8.05954,11.7 c 4.43274,6.435 8.24012,11.7 8.46084,11.7 0.32681,0 0.41588,-2.15776 0.47982,-11.625 l 0.0785,-11.625 1.12795,-0.0933 1.12794,-0.0933 -0.0779,14.19329 -0.078,14.19328 -1.21553,0.0893 c -0.87712,0.0645 -1.34565,-0.0608 -1.68294,-0.45 -0.25709,-0.29664 -3.47664,-4.92684 -7.15457,-10.28934 -7.68676,-11.20746 -8.90738,-12.9 -9.3032,-12.9 -0.17619,0 -0.31707,4.54105 -0.36528,11.775 l -0.0785,11.775 -0.91079,0.0892 c -0.50093,0.0491 -1.00718,-0.007 -1.125,-0.125 z m 28.13602,-0.15577 c -0.0861,-0.22458 -0.12142,-6.61838 -0.0784,-14.20838 l 0.0782,-13.8 5.7,-0.0904 c 8.37517,-0.13286 11.05117,0.57575 13.88544,3.67689 2.43233,2.66136 3.64787,7.30135 3.21898,12.28752 -0.53881,6.26397 -3.10538,10.01301 -7.95442,11.61914 -1.6762,0.55521 -2.84465,0.6654 -8.32158,0.78483 -5.19449,0.11327 -6.40052,0.0635 -6.52819,-0.26951 z m 13.49977,-2.47474 c 4.65916,-1.43865 6.75,-4.94875 6.75,-11.3319 0,-3.38395 -0.39532,-5.55105 -1.35934,-7.45174 -0.90544,-1.78519 -2.00864,-2.78751 -4.19066,-3.80745 -1.75032,-0.81814 -1.94078,-0.84138 -6.9,-0.84196 l -5.1,-6e-4 -0.0786,11.69929 c -0.0432,6.4346 -0.006,11.88763 0.082,12.11783 0.22197,0.57846 8.65083,0.27907 10.79657,-0.38348 z m 11.25392,2.29136 c 0.002,-0.28875 2.48695,-6.6675 5.52177,-14.175 l 5.51786,-13.65 1.56374,0 1.56374,0 5.3602,13.65 c 2.94813,7.5075 5.36214,13.88625 5.36451,14.175 0.003,0.40057 -0.24399,0.525 -1.04319,0.525 -1.28253,0 -1.28817,-0.009 -3.25233,-4.95 l -1.55022,-3.9 -6.48351,-0.0807 c -4.96273,-0.0618 -6.5522,0.009 -6.77637,0.3 -0.16108,0.20941 -0.94085,2.06824 -1.73283,4.13074 -0.79198,2.0625 -1.57289,3.91875 -1.73536,4.125 -0.16247,0.20625 -0.75137,0.375 -1.30866,0.375 -0.76652,0 -1.01232,-0.12785 -1.00935,-0.525 z m 17.82601,-10.84255 c 0.15468,-0.25024 -4.16329,-12.09998 -4.93367,-13.53943 -0.20762,-0.38794 -0.46215,-0.54713 -0.62093,-0.38835 -0.49319,0.49319 -5.39896,13.40105 -5.24535,13.80134 0.11685,0.30452 1.34155,0.39399 5.3929,0.39399 2.88294,0 5.31612,-0.1204 5.40705,-0.26755 z m 14.71824,11.01171 c -0.0812,-0.21679 -0.18156,-6.13166 -0.22293,-13.14416 l -0.0752,-12.75 -4.95,-0.15 -4.95,-0.15 0,-0.9 0,-0.9 11.15364,-0.0786 c 11.03262,-0.0778 11.15574,-0.0719 11.34978,0.5394 0.40782,1.2849 -0.20793,1.46892 -5.20896,1.55677 l -4.69446,0.0825 -0.15,13.05 -0.15,13.05 -0.97707,0.0942 c -0.60501,0.0583 -1.03329,-0.0559 -1.12476,-0.3 z m 15.59658,0 c -0.0831,-0.21679 -0.11595,-6.60416 -0.0729,-14.19416 l 0.0782,-13.8 1.12794,-0.0933 1.12797,-0.0933 -0.078,14.19329 -0.0779,14.19328 -0.97707,0.0942 c -0.6039,0.0582 -1.03476,-0.0564 -1.12818,-0.3 z m 38.62878,0.009 c -0.28689,-0.28689 -0.37353,-3.48489 -0.37353,-13.78898 0,-7.37851 0.0819,-13.62901 0.1821,-13.89 0.12705,-0.33113 0.57276,-0.47454 1.4748,-0.47454 1.59483,0 0.89871,-0.866011 10.32147,12.84018 4.00431,5.8246 7.43604,10.53838 7.62609,10.47507 0.25095,-0.0836 0.36705,-3.29056 0.42405,-11.71518 l 0.0785,-11.60007 1.1994,0 1.19943,0 -0.0779,14.175 -0.0779,14.175 -1.26996,0.092 c -1.503,0.10889 -0.5235,1.3385 -10.81221,-13.57341 -3.74982,-5.43478 -6.98499,-9.93425 -7.18932,-9.99883 -0.29013,-0.0917 -0.38871,2.46703 -0.45,11.68141 l -0.0785,11.79883 -0.90147,0.0885 c -0.49581,0.0487 -1.06956,-0.0796 -1.275,-0.285 z M 303.77542,89.987132 c -5.52652,-0.865605 -9.03777,-2.471796 -12.03195,-5.503914 -2.32685,-2.356319 -3.40241,-4.282421 -4.4233,-7.921163 -0.62605,-2.231382 -0.65221,-2.939223 -0.74979,-20.284855 -0.0817,-14.51426 -0.026,-18.020444 0.28926,-18.220406 0.48899,-0.310164 14.36113,-0.329784 14.84677,-0.021 0.26622,0.169272 0.38124,4.437804 0.45468,16.870403 0.0975,16.508564 0.10383,16.657621 0.78141,18.345478 1.21635,3.029763 3.43149,4.444971 6.95751,4.444971 2.52705,0 3.89751,-0.501024 5.27118,-1.927101 2.2038,-2.28786 2.22882,-2.524119 2.22882,-21.054232 0,-12.196358 0.0889,-16.284209 0.36,-16.555319 0.57246,-0.572451 14.74539,-0.505974 15.22458,0.07141 0.27156,0.327231 0.32811,4.691976 0.23418,18.074999 -0.13785,19.639546 -0.13911,19.65307 -2.24424,24.093589 -1.30731,2.757684 -4.15539,5.709638 -6.89841,7.150007 -1.03062,0.541191 -3.19062,1.328076 -4.8,1.748634 -2.49843,0.652887 -3.71541,0.779397 -8.32611,0.865548 -2.97,0.05549 -6.19857,-0.02418 -7.17459,-0.177051 z m -151.7732,-1.08492 C 151.891,88.79099 151.8,77.409495 151.8,63.609994 c 0,-19.114441 0.0857,-25.175737 0.36,-25.449997 0.38056,-0.380556 13.81553,-0.54243 14.76547,-0.177903 0.4256,0.163317 0.47501,2.104563 0.47913,18.824999 0.002,10.253594 0.1107,18.809959 0.24038,19.014145 0.17889,0.281652 2.91075,0.390246 11.32041,0.45 l 11.08461,0.07876 0,6.3 0,6.299999 -18.92278,0.07722 c -10.40753,0.04247 -19.01378,-0.01377 -19.125,-0.125001 z m 48.87988,-0.276756 c -0.10015,-0.260994 -0.18209,-11.641493 -0.18209,-25.289998 0,-18.900913 0.0858,-24.901264 0.36,-25.175461 0.51162,-0.511623 14.66837,-0.511623 15.18,0 0.27419,0.274197 0.36,6.274548 0.36,25.175461 0,13.648505 -0.082,25.029004 -0.1821,25.289998 -0.15941,0.415404 -1.12739,0.474537 -7.7679,0.474537 -6.64052,0 -7.6085,-0.05913 -7.76791,-0.474537 z m 27.9232,0.279837 c -0.11291,-0.112914 -0.20529,-11.575856 -0.20529,-25.473202 0,-22.764274 0.047,-25.285942 0.47453,-25.449997 0.67974,-0.260841 14.90677,-0.216735 15.32095,0.0475 0.19001,0.121224 3.58516,6.155871 7.54477,13.410329 3.95961,7.254458 7.34789,13.239458 7.52952,13.299998 0.23696,0.07899 0.33023,-3.608151 0.33023,-13.054922 0,-9.839441 0.0909,-13.255937 0.36,-13.524998 0.25876,-0.258762 2.26666,-0.36 7.14,-0.36 4.87333,0 6.88123,0.101238 7.14,0.36 0.27419,0.274197 0.36,6.274548 0.36,25.175461 0,13.648505 -0.082,25.029004 -0.1821,25.289998 -0.15928,0.415083 -1.1152,0.474537 -7.62957,0.474537 l -7.44748,0 -0.57344,-0.825 c -0.31539,-0.45375 -3.51987,-6.089999 -7.12107,-12.524999 -7.33485,-13.106702 -7.83339,-13.949999 -8.24705,-13.949999 -0.18544,0 -0.32187,4.988787 -0.37124,13.574999 l -0.078,13.574999 -7.06971,0.0803 c -3.88833,0.04417 -7.16208,-0.01209 -7.275,-0.124998 z m 111.69471,-0.07264 c 0,-0.147033 3.92814,-6.053282 8.72919,-13.124999 9.60042,-14.140946 9.37731,-13.792625 9.11064,-14.224097 -0.10332,-0.16722 -3.81723,-5.458217 -8.25306,-11.757773 -5.57457,-7.91672 -7.9527,-11.525204 -7.70097,-11.68517 0.42573,-0.27054 16.74021,-0.326928 17.43513,-0.06026 0.25851,0.0992 2.10774,3.136698 4.1094,6.75 2.00166,3.613301 3.81246,6.569639 4.02399,6.569639 0.21153,0 1.96878,-2.907351 3.90501,-6.460778 1.93623,-3.553428 3.76359,-6.590928 4.0608,-6.75 0.65931,-0.352839 15.86652,-0.383658 16.41885,-0.03327 0.28557,0.181149 -1.70139,3.310872 -7.47264,11.770406 -4.32393,6.338004 -7.91721,11.735915 -7.98507,11.995355 -0.11367,0.434631 17.12253,26.39875 17.67711,26.628286 0.1329,0.055 0.24162,0.223752 0.24162,0.375 0,0.453237 -18.50448,0.355389 -18.91158,-0.1 -0.18438,-0.20625 -2.11593,-3.478629 -4.29234,-7.271957 -2.17644,-3.793326 -4.15812,-6.935661 -4.40376,-6.982968 -0.30084,-0.05793 -1.79079,2.196684 -4.56429,6.906777 -2.26473,3.846032 -4.28199,7.15712 -4.48284,7.357967 -0.43887,0.438858 -17.64519,0.53427 -17.64519,0.09784 z M 162.21422,28.914216 c -0.11782,-0.11782 -0.21628,-5.895468 -0.21881,-12.839217 -0.002,-6.9437497 -0.10954,-12.790179 -0.2378,-12.9920654 -0.16413,-0.2583353 -1.65126,-0.3916327 -5.02041,-0.4500001 l -4.7872,-0.082934 0,-0.8999999 0,-0.89999996 11.14152,-0.0786179 c 10.12949,-0.0714767 11.1588,-0.033575 11.3318,0.41726326 0.10466,0.2727345 0.11168,0.743557 0.0156,1.0462721 -0.15848,0.4993459 -0.62515,0.5580281 -5.0318,0.6327367 l -4.85712,0.082346 -0.15,13.0499992 -0.15,13.049999 -0.91078,0.08922 c -0.50093,0.04907 -1.00718,-0.0072 -1.125,-0.125 z m 15.22318,-0.189218 c -0.0791,-0.20625 -0.10859,-6.585 -0.0656,-14.174999 l 0.0782,-13.79999906 1.01855,-0.0972549 c 0.61255,-0.0584897 1.11893,0.0610884 1.2704,0.29999998 0.13853,0.21849018 0.25394,2.99600468 0.25646,6.17225448 l 0.005,5.7749995 8.54379,0 8.54379,0 0.0812,-6.0749995 0.0812,-6.07499954 1.20001,0 1.2,0 0,14.09999904 0,14.099999 -1.2,0 -1.20001,0 -0.15,-6.75 -0.15,-6.749999 -8.475,-0.07967 -8.475,-0.07967 0,6.430135 c 0,3.536574 -0.0819,6.643677 -0.18209,6.904672 -0.22088,0.575599 -2.16679,0.656964 -2.38051,0.09954 z m 28.5016,0.0042 c -0.0799,-0.208542 -0.11019,-6.589167 -0.0672,-14.179166 l 0.0782,-13.79999906 9.6,0 9.6,0 0,0.89999996 0,0.8999999 -8.4,0.15 -8.4,0.15 0,5.0999996 0,5.0999996 7.76763,0.15 c 6.97339,0.134662 7.80146,0.203681 8.09846,0.675 0.24112,0.38262 0.24112,0.66738 0,1.05 -0.297,0.471319 -1.12507,0.540337 -8.09846,0.675 l -7.76763,0.15 0,5.549999 0,5.55 8.55,0.15 8.55,0.15 0,0.9 0,0.9 -9.68282,0.07917 c -7.58477,0.06201 -9.71432,-0.003 -9.82819,-0.3 z"
       id="path3344"
       inkscape:connector-curvature="0" />
    <path
       style="fill:#214d6f"
       d="m 182.85,129.71979 c -2.28958,-0.57518 -5.18415,-2.2422 -6.72834,-3.87496 -5.29645,-5.60021 -5.24145,-16.56421 0.10992,-21.91235 2.8593,-2.85758 7.24705,-4.176239 11.47586,-3.44887 6.65208,1.14418 10.42007,5.86003 10.79965,13.51638 0.18523,3.73626 -0.32559,6.36264 -1.76151,9.05669 -1.17055,2.19619 -3.93186,4.80076 -5.85406,5.52179 -0.79283,0.2974 -1.52294,0.65854 -1.62245,0.80253 -0.20305,0.29381 -5.48783,0.57273 -6.41907,0.33879 z m 7.41497,-2.91506 c 7.03431,-3.44156 8.45501,-15.8868 2.49757,-21.87862 -0.6669,-0.67074 -1.95504,-1.56836 -2.86254,-1.99473 -2.24615,-1.05528 -6.58789,-1.11486 -8.76516,-0.12028 -4.4746,2.04402 -7.18312,7.35437 -6.74706,13.22835 0.32013,4.31234 1.91692,7.71826 4.56222,9.73112 2.10648,1.60286 3.65796,2.03781 6.9168,1.93908 2.24798,-0.0681 3.00695,-0.22425 4.39817,-0.90492 z m 20.86004,2.89886 c -0.45375,-0.0789 -0.825,-0.24812 -0.825,-0.37604 0,-0.12792 -0.55226,-0.39804 -1.22723,-0.60027 -1.8193,-0.54508 -4.22966,-3.04438 -5.08948,-5.27729 -0.67434,-1.75122 -0.69366,-2.08049 -0.71321,-12.15 l -0.0201,-10.35 1.05,0 1.05,0 0.15448,10.65 c 0.16781,11.56947 0.1787,11.64554 1.97215,13.77694 1.25792,1.49494 2.9447,2.20284 5.63101,2.3632 4.62352,0.27599 7.40033,-1.12539 8.92432,-4.50384 0.6984,-1.54825 0.71919,-1.83456 0.8668,-11.9363 l 0.15124,-10.35 0.9,0 0.9,0 0,10.65 0,10.65 -0.77704,1.65 c -1.13159,2.40282 -2.11508,3.40967 -4.55193,4.65999 -1.95975,1.00553 -2.43379,1.12236 -4.87103,1.2005 -1.485,0.0476 -3.07125,0.022 -3.525,-0.0569 z m 138.75,-0.002 c -0.53625,-0.0768 -0.975,-0.24469 -0.975,-0.37311 0,-0.12843 -0.51522,-0.38788 -1.14495,-0.57654 -1.76682,-0.52936 -4.37481,-2.56686 -5.52774,-4.3186 -1.76928,-2.68818 -2.39478,-4.76977 -2.54919,-8.48334 -0.22743,-5.46954 1.12728,-9.46987 4.17117,-12.31708 4.82061,-4.509108 13.39056,-4.421634 17.99589,0.18368 4.30854,4.30854 5.42826,12.78496 2.48385,18.80309 -1.01586,2.07639 -3.33384,4.58196 -4.97001,5.37223 -0.71997,0.34775 -1.78152,0.86518 -2.35902,1.14985 -1.06515,0.52506 -5.13468,0.84481 -7.125,0.55982 z m 7.56717,-2.79706 c 3.01899,-1.46297 5.20641,-4.49965 6.02574,-8.36521 1.42155,-6.70664 -1.3026,-13.40156 -6.39021,-15.70463 -1.12809,-0.51066 -2.02578,-0.64967 -4.2777,-0.66239 -2.47155,-0.014 -3.075,0.089 -4.5444,0.77518 -4.1445,1.93553 -6.56046,6.39367 -6.55203,12.09055 0.009,6.16997 2.85819,10.80245 7.59369,12.34701 2.01831,0.65831 6.31836,0.40463 8.14491,-0.48051 z m -266.542178,-10.50444 0,-12.6 6.113268,0 c 4.78181,0 6.18686,-0.0887 6.45114,-0.40711 0.24751,-0.29823 0.31751,-10.708802 0.26173,-38.924997 l -0.0761,-38.517885 -38.999998,0 -39.000001,0 -0.08109,6.225 -0.08109,6.224999 -12.269378,0 c -6.7481575,0 -12.4829188,0.08194 -12.74391374,0.182097 C 0.04483888,38.746983 0,36.932778 0,19.382095 L 0,0 64.682099,0 C 123.54046,0 129.3478,0.04272549 129.1821,0.47453621 129.08195,0.73553112 129,29.760529 129,64.974532 l 0,64.025458 -19.05,0 -19.049998,0 0,-12.6 z m 61.272038,-1.425 0.078,-14.025 8.7,0 8.7,0 0,0.75 0,0.75 -7.65,0.16298 c -4.2075,0.0896 -7.68375,0.19089 -7.725,0.225 -0.0413,0.0341 -0.075,2.33002 -0.075,5.10202 0,3.52 0.10857,5.14857 0.36,5.4 0.25805,0.25805 2.21777,0.36 6.91993,0.36 l 6.55993,0 -0.0949,0.825 -0.0949,0.825 -6.75,0.15 -6.75,0.15 -0.0807,6.675 -0.0807,6.675 -1.04723,0 -1.04723,0 0.078,-14.025 z m 78.96534,13.65 c -0.0791,-0.20625 -0.10859,-6.5175 -0.0656,-14.025 l 0.0782,-13.65 1.05,-0.0884 c 0.5775,-0.0486 1.26749,0.0864 1.53332,0.3 0.26583,0.21359 4.03313,5.55795 8.37176,11.87634 5.50482,8.01671 8.03295,11.4602 8.36668,11.39601 0.42481,-0.0817 0.49499,-1.39863 0.62824,-11.78799 l 0.15,-11.69601 0.9,0 0.9,0 0,13.95 0,13.95 -1.34993,0 -1.34993,0 -8.10007,-11.77362 c -5.26647,-7.65491 -8.2575,-11.74644 -8.55007,-11.69595 -0.38946,0.0672 -0.46056,1.66128 -0.52849,11.84861 l -0.0785,11.77096 -0.90593,0 c -0.49827,0 -0.97064,-0.16875 -1.04973,-0.375 z m 28.43464,-13.62103 0.078,-14.05397 4.65,-0.0887 c 2.5575,-0.0488 5.72575,0.0535 7.04056,0.2274 7.50985,0.99308 11.06944,6.09612 10.57409,15.15904 -0.35616,6.51619 -2.50439,9.98404 -7.37121,11.89915 -1.52672,0.60077 -2.35093,0.67842 -8.37143,0.78872 l -6.67798,0.12234 0.078,-14.05397 z m 14.10125,11.46578 c 1.92724,-0.71085 4.19938,-2.813 4.96557,-4.59405 0.92817,-2.15759 1.36416,-5.22697 1.18028,-8.30913 -0.36935,-6.19072 -2.80242,-9.43806 -7.87686,-10.51296 -2.60167,-0.5511 -9.46045,-0.61542 -9.98225,-0.0936 -0.26774,0.26774 -0.36,3.36889 -0.36,12.1 0,6.457 0.10125,11.84224 0.225,11.96719 0.12375,0.12496 2.52,0.16877 5.325,0.0973 3.86255,-0.0983 5.44533,-0.25721 6.52326,-0.65479 z m 10.51269,2.13897 c 0.89066,-2.32101 10.84566,-26.88685 11.05639,-27.28372 0.19309,-0.36364 0.6411,-0.525 1.45766,-0.525 0.81632,0 1.26481,0.16147 1.45826,0.525 0.20404,0.38343 8.78698,22.15253 10.70449,27.15 0.16809,0.4381 0.0285,0.525 -0.84393,0.525 -0.57495,0 -1.17024,-0.16875 -1.32285,-0.375 -0.15264,-0.20625 -0.92946,-2.0625 -1.72626,-4.125 -0.79683,-2.0625 -1.65927,-3.91875 -1.91658,-4.125 -0.56709,-0.4546 -12.24241,-0.52957 -12.95313,-0.0832 -0.2475,0.15545 -1.1925,2.14463 -2.1,4.42041 l -1.65,4.13777 -1.16496,0.0955 c -0.91514,0.075 -1.12939,0.003 -0.99909,-0.33677 z m 17.43951,-10.29082 c 0.261,-0.10015 0.47454,-0.39342 0.47454,-0.6517 0,-0.70714 -4.78443,-13.35705 -5.22178,-13.80625 -0.31163,-0.32008 -0.43384,-0.32008 -0.68119,0 -0.16578,0.21453 -1.47369,3.40979 -2.90647,7.10059 -2.02997,5.22916 -2.52911,6.80203 -2.26107,7.125 0.2669,0.32159 1.43945,0.41446 5.23271,0.41446 2.6888,0 5.10226,-0.0819 5.36326,-0.1821 z m 15.02271,10.32626 c -0.0812,-0.21679 -0.18156,-6.13166 -0.22293,-13.14416 l -0.0752,-12.75 -4.8942,-0.0825 -4.8942,-0.0825 0.0942,-0.81747 0.0942,-0.81748 10.95,0 10.95,0 0.0942,0.81748 0.0942,0.81747 -4.8942,0.0825 -4.8942,0.0825 -0.15,13.05 -0.15,13.05 -0.97707,0.0942 c -0.60501,0.0583 -1.03329,-0.0559 -1.12476,-0.3 z m 15.82386,-13.64993 0.078,-14.04423 0.9,0 0.9,0 0,13.95 0,13.95 -0.97797,0.0942 -0.978,0.0942 0.078,-14.04423 z m 38.4,-0.0192 0.078,-14.025 1.11303,-0.0924 c 0.82086,-0.0682 1.24836,0.0656 1.62849,0.50959 0.2835,0.33109 3.98463,5.63767 8.22474,11.79239 4.24011,6.15473 7.92696,11.23375 8.193,11.28673 0.43734,0.0871 0.49125,-1.03477 0.56223,-11.69999 l 0.0785,-11.79633 1.05,0 1.05,0 0,13.95 0,13.95 -1.25307,0.0912 c -1.51443,0.11019 -0.84192,0.94931 -10.29168,-12.84118 -3.67458,-5.3625 -6.9204,-10.00263 -7.2129,-10.31141 -0.2925,-0.30877 -0.68046,-0.46955 -0.86208,-0.35729 -0.23121,0.14289 -0.33027,3.70823 -0.33027,11.88641 l 0,11.68229 -1.05297,0 -1.05297,0 0.078,-14.025 z M 305.95249,89.994398 c -8.91685,-0.825438 -14.49903,-4.044897 -17.17592,-9.906008 -1.83209,-4.01142 -1.79794,-3.587868 -1.9046,-23.618572 l -0.0979,-18.380177 7.58796,0.08018 7.58796,0.08018 0.15,16.949999 0.15,16.949998 0.71289,1.577184 c 0.91503,2.024436 2.30652,3.230883 4.44273,3.851889 3.16479,0.920031 6.71289,0.03658 8.32113,-2.071905 1.82931,-2.398371 1.80198,-2.114529 1.96968,-20.457166 l 0.15357,-16.799999 7.59198,-0.08019 7.59198,-0.08019 -0.11277,18.230186 c -0.12396,20.044711 -0.11466,19.9354 -2.04381,23.977594 -1.04829,2.196462 -3.56415,5.046542 -5.61846,6.364778 -4.10511,2.634249 -12.04413,4.004493 -19.30644,3.332217 z M 152.1,63.447082 l 0,-25.357387 7.575,0.08015 7.575,0.08015 0.0772,18.974999 c 0.0425,10.436249 0.10998,19.004626 0.15,19.040839 0.04,0.03621 5.13526,0.13746 11.32276,0.225 l 11.25,0.159159 0,6 0,5.999999 -18.975,0.07724 -18.975,0.07724 0,-25.357384 z m 48.9733,0.07791 0.0767,-25.274998 7.5,0 7.5,0 0.0767,25.274998 0.0767,25.274998 -7.6534,0 -7.65341,0 0.0767,-25.274998 z m 27.66481,24.899998 c -0.0787,-0.20625 -0.1082,-11.579999 -0.0656,-25.274998 l 0.0775,-24.899998 7.90366,0 7.90366,0 7.26582,13.349999 c 4.36645,8.022791 7.43762,13.349999 7.69634,13.349999 0.36645,0 0.44214,-1.998657 0.50861,-13.43042 l 0.0781,-13.430423 7.12191,0.08042 7.12191,0.08042 0.0767,25.274998 0.0767,25.274998 -7.5767,-0.0058 -7.5767,-0.0058 -7.65,-13.651373 c -5.32713,-9.506228 -7.78664,-13.625201 -8.1,-13.565177 -0.39072,0.07484 -0.46029,1.874031 -0.52806,13.657133 l -0.0781,13.57094 -7.05636,0 c -5.36878,0 -7.09057,-0.08969 -7.19942,-0.375 z m 112.0619,0.198963 c 0,-0.09682 3.99399,-6.059057 8.87553,-13.249415 6.28977,-9.264623 8.83908,-13.255631 8.75043,-13.698962 -0.0688,-0.34407 -3.72186,-5.727377 -8.11794,-11.962904 -4.94763,-7.017866 -7.85142,-11.391599 -7.62159,-11.47979 0.20418,-0.07836 4.20198,-0.106566 8.88399,-0.06268 l 8.51271,0.07979 3.69753,6.6 c 2.43636,4.348805 3.8628,6.599999 4.182,6.599999 0.32121,0 1.63803,-2.111352 3.90768,-6.265394 1.8828,-3.445965 3.57621,-6.449715 3.76317,-6.675 0.27213,-0.327888 1.9785,-0.409605 8.55321,-0.409605 4.51731,0 8.21328,0.08099 8.21328,0.17997 0,0.09898 -3.58821,5.441247 -7.97376,11.871698 -4.38558,6.430452 -7.90419,11.87309 -7.81911,12.094757 0.085,0.221664 4.07823,6.208812 8.87376,13.304768 4.7955,7.095957 8.71911,12.979829 8.71911,13.075271 0,0.09544 -4.09365,0.173532 -9.09699,0.173532 l -9.09699,0 -4.17801,-7.271963 c -2.29791,-3.999582 -4.38414,-7.31118 -4.63608,-7.359111 -0.31581,-0.06007 -1.80687,2.198361 -4.8,7.270263 l -4.34193,7.357409 -8.625,0.0018 c -4.74375,9e-4 -8.625,-0.07752 -8.625,-0.174336 z m -178.6,-60.023958 C 162.09,28.489998 162,22.631942 162,15.582095 162,4.1705922 161.94794,2.7442132 161.52547,2.5820964 c -0.261,-0.1001531 -2.4885,-0.1820966 -4.95,-0.1820966 l -4.47547,0 0,-0.7499999 0,-0.74999997 11.1,0 11.1,0 0,0.74999997 0,0.7499999 -4.62857,0 c -3.80779,0 -4.71217,0.083598 -5.1,0.4714286 C 164.15768,3.2851848 164.1,4.8999995 164.1,16.071427 l 0,12.728571 -0.84999,0 c -0.46751,0 -0.94001,-0.09 -1.05,-0.2 z M 177.6,14.849999 l 0,-13.94999907 1.04379,0 1.04379,0 0.0812,6.07499957 0.0812,6.0749995 8.52936,0.07976 c 6.62379,0.06194 8.5832,-0.0051 8.7704,-0.3 0.13258,-0.20887 0.24313,-2.9785138 0.24565,-6.1547635 l 0.005,-5.77499957 1.05001,0 1.05,0 0,13.94999907 0,13.949999 -1.05,0 -1.05001,0 0,-6.54 c 0,-4.686666 -0.10201,-6.642018 -0.36,-6.899999 -0.26203,-0.262035 -2.54121,-0.36 -8.37546,-0.36 -4.4085,0 -8.229,0.08194 -8.49,0.182097 -0.41316,0.158546 -0.47454,1.050897 -0.47454,6.899999 l 0,6.717903 -1.05,0 -1.05,0 0,-13.949999 z m 28.33737,13.574999 c -0.0791,-0.20625 -0.10861,-6.45 -0.0656,-13.874999 l 0.0782,-13.4999991 9.6,0 c 9.39999,0 9.6,0.0125 9.6,0.6 0,0.5820063 -0.25,0.6044983 -8.33631,0.7499999 -6.97002,0.1254158 -8.38286,0.2237528 -8.6204,0.6 -0.46599,0.7380908 -0.37173,9.7614362 0.10611,10.1580082 0.26249,0.217851 3.01333,0.358987 8.025,0.411733 l 7.6256,0.08026 0,0.75 0,0.75 -7.6256,0.08026 c -5.01167,0.05275 -7.76251,0.193882 -8.025,0.411733 -0.30439,0.252616 -0.3994,1.566642 -0.3994,5.523313 0,4.319853 0.0792,5.271016 0.47142,5.663266 0.40566,0.405655 1.61949,0.471429 8.7,0.471429 l 8.22858,0 0,0.75 0,0.75 -9.60942,0 c -7.41084,0 -9.64232,-0.0858 -9.75322,-0.375 z"
       id="path3342"
       inkscape:connector-curvature="0" />
    <path
       style="fill:#093a60"
       d="m 182.7,129.59999 c -0.60114,-0.12653 -0.7935,-0.24479 -0.45,-0.27664 0.33,-0.0306 -0.16458,-0.30015 -1.09908,-0.59901 -2.19967,-0.70347 -3.4926,-1.51852 -4.99577,-3.14927 -2.6542,-2.87947 -3.79679,-6.57896 -3.57497,-11.57508 0.28444,-6.40641 3.01162,-10.66083 8.1416,-12.70094 2.25778,-0.89788 7.16962,-0.86187 9.55385,0.07 4.93321,1.92822 7.66545,6.26938 7.95314,12.63652 0.16535,3.65924 -0.18516,5.71562 -1.41886,8.32427 -1.53348,3.24254 -3.89273,5.3493 -7.16082,6.39447 -0.9345,0.29886 -1.42909,0.56617 -1.09909,0.59402 0.33,0.0278 0.06,0.16233 -0.6,0.29884 -1.43229,0.29626 -3.7976,0.2885 -5.25,-0.0172 z m 7.25271,-2.31669 c 6.73823,-3.0256 9.01777,-14.27166 4.27889,-21.10986 -3.20374,-4.623 -10.11671,-5.7794 -15.04591,-2.51689 -4.85277,3.21193 -6.628,11.87275 -3.70182,18.06015 1.42156,3.00589 3.2649,4.76378 6.09649,5.81388 2.12869,0.78944 6.34054,0.66504 8.37235,-0.24728 z m 21.3973,2.38625 c -0.79423,-0.12403 -0.82949,-0.16916 -0.3,-0.38397 0.54629,-0.22163 0.53286,-0.2459 -0.15,-0.27109 -2.06071,-0.076 -5.00327,-2.25153 -6.17619,-4.56616 -1.10017,-2.17111 -1.35736,-5.15908 -1.26081,-14.64834 l 0.087,-8.55 0.75,0 0.75,0 0.15,10.35 c 0.14614,10.08431 0.16824,10.39037 0.86086,11.92249 1.48839,3.29245 4.35987,4.75664 8.86474,4.52019 4.55439,-0.23904 7.17597,-2.53418 7.9461,-6.95664 0.18881,-1.08421 0.3283,-5.73051 0.3283,-10.93561 l 0,-9.05043 0.7643,0 0.76429,0 -0.0893,10.60616 -0.0893,10.60616 -1.05244,2.06884 c -1.16832,2.29666 -2.8193,3.6675 -5.35862,4.44938 -0.79254,0.24403 -1.13131,0.45145 -0.78894,0.48307 0.33,0.0305 0.06,0.16709 -0.6,0.3036 -1.26789,0.26225 -3.89289,0.2877 -5.4,0.0523 z m 138.6,0 c -0.79422,-0.12403 -0.82947,-0.16916 -0.3,-0.38397 0.5457,-0.22139 0.53211,-0.24559 -0.15,-0.26743 -2.12052,-0.0679 -6.11211,-2.96714 -7.60668,-5.525 -2.54781,-4.36038 -2.7177,-11.71511 -0.37707,-16.3232 2.42787,-4.77981 7.72401,-7.327516 13.4046,-6.44825 5.3472,0.82767 9.00315,4.4265 10.36527,10.20329 0.63405,2.68911 0.40794,7.30134 -0.48423,9.87713 -1.31487,3.79616 -4.2129,6.78307 -7.65189,7.88658 -0.99,0.31767 -1.53,0.6007 -1.2,0.62894 0.33,0.0282 0.06,0.16305 -0.6,0.29956 -1.26789,0.26225 -3.89289,0.2877 -5.4,0.0523 z m 6.38091,-2.05394 c 4.82379,-1.55791 7.72158,-6.41268 7.67943,-12.86562 -0.0425,-6.5109 -3.19464,-11.26462 -8.34837,-12.59013 -5.28042,-1.35809 -10.21581,0.81153 -12.61467,5.54546 -2.71794,5.36359 -1.96965,12.98014 1.66236,16.92039 2.29122,2.48569 4.45254,3.42113 7.9809,3.45421 1.20705,0.0113 2.79459,-0.19117 3.64035,-0.46431 z m -265.130918,-11.21562 0,-12.3 5.978571,0 c 5.035067,0 6.052967,-0.0744 6.449997,-0.47143 0.42367,-0.42367 0.47143,-4.368567 0.47143,-38.939994 0,-29.519998 -0.0837,-38.552311 -0.36,-38.828568 -0.52296,-0.522967 -77.657033,-0.522967 -78.179999,0 -0.255758,0.255757 -0.36,2.08 -0.36,6.3 l 0,5.939999 -12.300001,0 c -8,0 -12.29999998,0.104877 -12.29999998,0.3 0,0.165 -0.13500001,0.3 -0.30000001,0.3 C 0.10310078,38.699997 0,32.049997 0,19.349999 L 0,0 64.650002,0 C 107.55,0 129.3,0.10092807 129.3,0.29999998 c 0,0.16499998 -0.135,0.29999997 -0.3,0.29999997 -0.19906,0 -0.3,21.54999805 -0.3,64.04999505 l 0,64.049995 -18.75,0 -18.749998,0 0,-12.3 z M 152.4,114.89532 l 0,-13.80467 8.47101,0.0797 c 7.79247,0.0733 8.4791,0.12173 8.572,0.60467 0.094,0.48864 -0.41587,0.525 -7.36101,0.525 -5.40377,0 -7.56129,0.0993 -7.822,0.36 -0.25229,0.2523 -0.36,1.91499 -0.36,5.55743 l 0,5.19742 0.76953,0.29258 c 0.42324,0.16091 3.52824,0.29257 6.9,0.29257 5.93047,0 6.13047,0.0196 6.13047,0.6 0,0.58214 -0.2,0.6 -6.7179,0.6 -5.8491,0 -6.74145,0.0614 -6.9,0.47454 -0.10015,0.26099 -0.1821,3.29849 -0.1821,6.75 l 0,6.27546 -0.75,0 -0.75,0 0,-13.80467 z m 78.97198,0.0797 0.078,-13.725 1.05,-0.0833 1.05,-0.0833 8.1,11.75838 c 4.455,6.46711 8.32977,11.89984 8.61061,12.07273 0.28083,0.17289 0.61833,0.20674 0.75,0.0752 0.13166,-0.13151 0.27765,-5.56928 0.32441,-12.08394 l 0.085,-11.84483 0.66497,0.0945 0.66498,0.0945 0.078,13.725 0.078,13.725 -1.18086,0 -1.18085,0 -8.14812,-11.85 c -8.19485,-11.91795 -8.96337,-12.83091 -9.40714,-11.175 -0.0995,0.37125 -0.18274,5.70375 -0.18499,11.85 l -0.004,11.175 -0.75303,0 -0.75303,0 0.078,-13.725 z m 28.42803,-0.0496 0,-13.82536 5.025,0.002 c 5.78492,0.003 8.25513,0.32477 10.575,1.37916 4.5173,2.05314 6.50026,6.34663 6.22049,13.46858 -0.26292,6.69297 -2.20978,9.93771 -7.1563,11.92703 -1.44357,0.58056 -2.30388,0.66104 -8.13919,0.76143 l -6.525,0.11225 0,-13.82535 z m 13.62512,11.84914 c 4.73787,-1.70976 6.59152,-4.99605 6.61325,-11.7245 0.0161,-4.97817 -0.72206,-7.37281 -2.96356,-9.61432 -2.26817,-2.26817 -4.27707,-2.86834 -10.24342,-3.06025 -3.96388,-0.12751 -4.58078,-0.0832 -5.025,0.36104 -0.45798,0.45797 -0.50639,1.63155 -0.50639,12.27496 0,9.00996 0.0879,11.85862 0.375,12.15275 0.59641,0.61102 9.82525,0.30495 11.75012,-0.38968 z m 11.24832,1.26949 c 0.15017,-0.38169 2.595,-6.43149 5.43295,-13.44399 2.83796,-7.0125 5.22694,-12.91875 5.30886,-13.125 0.0825,-0.20774 0.65554,-0.375 1.28475,-0.375 0.62816,0 1.20326,0.16761 1.28672,0.375 0.083,0.20625 2.2444,5.7075 4.80313,12.225 2.55873,6.5175 4.93671,12.56741 5.28438,13.44425 l 0.63219,1.59424 -0.94473,-0.0942 c -0.91785,-0.0916 -0.98931,-0.20954 -2.51043,-4.14425 -1.17669,-3.04389 -1.74396,-4.14494 -2.28345,-4.43218 -0.5304,-0.28239 -2.3367,-0.36072 -6.91842,-0.3 -3.41034,0.0452 -6.28292,0.16476 -6.38352,0.2657 -0.1006,0.10094 -0.91063,2.05844 -1.80005,4.35 -1.56137,4.02278 -1.64902,4.16972 -2.54128,4.26047 -0.8566,0.0871 -0.90418,0.0433 -0.6511,-0.6 z m 17.05156,-9.43308 c 0.4359,-0.11682 0.67263,-0.40758 0.66834,-0.8209 -0.004,-0.352 -1.18605,-3.74501 -2.62756,-7.54001 -2.15714,-5.67906 -2.72236,-6.9 -3.19428,-6.9 -0.4689,0 -1.05698,1.23006 -3.22709,6.75 -3.2842,8.35377 -3.193,8.02173 -2.30139,8.37882 0.77836,0.31174 9.60438,0.42088 10.68198,0.13209 z m 15.075,-2.75091 c 0,-9.58667 -0.0912,-12.93121 -0.36,-13.2 -0.24864,-0.24863 -1.77999,-0.36 -4.95,-0.36 -4.38999,0 -4.59,-0.0262 -4.59,-0.6 0,-0.58889 0.20001,-0.6 10.8,-0.6 10.59999,0 10.8,0.0111 10.8,0.6 0,0.57386 -0.20001,0.6 -4.59,0.6 -3.17001,0 -4.70136,0.11137 -4.95,0.36 -0.2688,0.26879 -0.36,3.61333 -0.36,13.2 l 0,12.84 -0.9,0 -0.9,0 0,-12.84 z m 15.9,-0.98086 0,-13.82087 0.675,0.0959 0.675,0.0959 0.078,13.725 0.078,13.725 -0.75303,0 -0.75303,0 0,-13.82086 z m 38.4,0.0208 0,-13.8 1.0035,0 c 0.58065,0 1.19715,0.22121 1.46304,0.525 0.25272,0.28875 3.94083,5.5875 8.19576,11.775 4.25493,6.1875 7.8828,11.34905 8.06196,11.47012 0.17916,0.12107 0.46074,0.17737 0.62574,0.12512 0.18993,-0.0601 0.35502,-4.43329 0.45,-11.92012 l 0.15,-11.82512 0.75,0 0.75,0 0.078,13.74239 0.0781,13.7424 -1.2501,-0.0924 -1.2501,-0.0924 -8.04726,-11.6788 c -4.42602,-6.42333 -8.21406,-11.78186 -8.41791,-11.90783 -1.06635,-0.65905 -1.14072,0.12817 -1.14072,12.07336 l 0,11.66327 -0.75,0 -0.75,0 0,-13.8 z m -65.85,-25.237112 c -3.19104,-0.302586 -7.46384,-1.463613 -9.57077,-2.600631 -2.6479,-1.428954 -5.1427,-4.040027 -6.47429,-6.776036 -2.05067,-4.213464 -2.10494,-4.844517 -2.10494,-24.473557 l 0,-17.412647 7.33822,0 7.33823,0 0.0868,16.874999 0.0868,16.874998 0.71085,1.572492 c 0.83073,1.837632 2.48055,3.439815 4.12494,4.005828 0.64032,0.220401 2.04171,0.400731 3.11421,0.400731 3.6483,0 6.01491,-1.491687 7.26216,-4.577367 0.68442,-1.693203 0.68829,-1.785027 0.77688,-18.426682 l 0.0891,-16.724999 7.35096,0 7.35099,0 -0.10809,18.224999 c -0.11916,20.089915 -0.0663,19.490059 -2.09538,23.774998 -1.09104,2.304075 -4.10124,5.445047 -6.38319,6.6605 -2.35515,1.254471 -6.37449,2.282451 -10.25544,2.622924 -3.95625,0.347082 -4.78176,0.34512 -8.63796,-0.02052 z M 152.4,63.449995 l 0,-25.049998 7.35,0 7.35,0 0,18.907424 0,18.907423 0.76953,0.292575 c 0.44745,0.170118 5.21892,0.292575 11.4,0.292575 l 10.63047,0 0,5.85 0,5.849999 -18.75,0 -18.75,0 0,-25.049998 z m 48.90001,0 0,-25.049998 7.35,0 7.35,0 0,25.049998 0,25.049998 -7.35,0 -7.35,0 0,-25.049998 z m 27.6,0 0,-25.049998 7.725,6e-4 7.725,6e-4 7.35,13.509827 c 6.2028,11.401187 7.44364,13.496474 7.95,13.424285 0.58844,-0.08389 0.6015,-0.34401 0.67809,-13.510541 l 0.0781,-13.424999 6.89692,0 6.89691,0 0,25.055239 0,25.055239 -7.38245,-0.08024 -7.38244,-0.08001 -7.49302,-13.349999 c -4.12116,-7.342499 -7.69231,-13.552499 -7.93589,-13.799999 -0.39326,-0.399582 -0.49124,-0.384756 -0.87454,0.132339 -0.3603,0.48606 -0.43166,2.780055 -0.43166,13.874999 l 0,13.29266 -6.9,0 -6.9,0 0,-25.049998 z m 112.42008,24.674998 c 0.16146,-0.20625 4.17387,-6.091121 8.91645,-13.077491 6.23712,-9.187946 8.58849,-12.881642 8.49852,-13.349999 -0.0684,-0.35613 -3.65928,-5.664917 -7.9797,-11.797304 -4.32045,-6.132386 -7.85535,-11.228636 -7.85535,-11.324999 0,-0.09636 3.82608,-0.175203 8.50242,-0.175203 l 8.50242,0 3.68892,6.625284 c 2.02893,3.643907 3.88191,6.699332 4.11777,6.789833 0.23583,0.0905 0.58518,0.0082 0.77628,-0.18294 0.19113,-0.191118 1.91442,-3.212796 3.82953,-6.714833 l 3.48204,-6.367344 8.1762,-0.07987 8.1762,-0.07987 -2.22309,3.229869 c -5.54196,8.051672 -13.07685,19.194649 -13.41261,19.835236 -0.41289,0.787758 -1.06455,-0.25278 11.35056,18.124094 l 6.03258,8.929463 -8.92461,-0.07946 -8.92461,-0.07946 L 371.9272,81.15 c -2.90166,-5.06742 -4.29546,-7.227645 -4.70571,-7.293339 -0.47388,-0.07588 -1.4022,1.28472 -4.96362,7.275 l -4.38069,7.368338 -8.42532,0 c -6.69681,0 -8.36508,-0.07693 -8.13177,-0.375 z M 162.3,15.592573 l 0,-12.9074237 -0.76953,-0.2925747 c -0.42324,-0.1609161 -2.65074,-0.2925748 -4.95,-0.2925748 -3.51597,0 -4.18047,-0.071529 -4.18047,-0.4499999 0,-0.3916667 1.4,-0.45 10.8,-0.45 9.10137,0 10.8,0.066631 10.8,0.4236427 0,0.34287 -0.91052,0.4429677 -4.77556,0.525 -2.62656,0.055747 -4.88781,0.2137271 -5.025,0.3510681 -0.13719,0.1373411 -0.28865,6.0435905 -0.33658,13.1249993 l -0.0871,12.875288 -0.73786,0 -0.73786,0 0,-12.907425 z m 15.6,-0.742574 0,-13.6499991 0.75,0 0.75,0 0,5.7899996 c 0,4.1033335 0.10488,5.8948695 0.36,6.1499995 0.51362,0.513615 17.06639,0.513615 17.58,0 0.25513,-0.25513 0.36001,-2.046666 0.36001,-6.1499995 l 0,-5.7899996 0.75,0 0.75,0 0,13.6499991 0,13.649999 -0.75,0 -0.75,0 0,-6.428571 c 0,-5.444156 -0.0722,-6.500762 -0.47143,-6.899999 -0.40591,-0.405903 -1.62767,-0.471429 -8.79,-0.471429 -6.07,0 -8.41589,0.09731 -8.67858,0.36 -0.25798,0.257982 -0.36,2.213333 -0.36,6.899999 l 0,6.54 -0.75,0 -0.75,0 0,-13.649999 z m 28.20001,0 0,-13.6499991 9.45,0 c 8.03125,0 9.45,0.06495 9.45,0.4326189 0,0.3642887 -1.32288,0.4472101 -8.3755,0.525 -4.60652,0.05081 -8.48777,0.2046258 -8.625,0.3418139 -0.38355,0.3834391 -0.497,9.5169893 -0.13011,10.4755663 l 0.31576,0.825 7.80742,0 c 7.60742,0 7.80743,0.01537 7.80743,0.6 0,0.58463 -0.20001,0.6 -7.80743,0.6 l -7.80742,0 -0.31503,0.825 c -0.36775,0.96308 -0.25368,10.99273 0.12938,11.375608 0.13723,0.137165 4.01848,0.290962 8.625,0.341772 7.05262,0.07779 8.3755,0.160711 8.3755,0.525 0,0.367669 -1.41875,0.432619 -9.45,0.432619 l -9.45,0 0,-13.649999 z"
       id="path3340"
       inkscape:connector-curvature="0" />
  </g>
</svg>
