<?xml version="1.0" encoding="UTF-8" standalone="no"?>
<svg id="svg2" xmlns="http://www.w3.org/2000/svg" height="129.9" viewBox="0 0 395.21647 129.89999" width="395.22" version="1.1">
 <g id="g3338">
  <path id="path3354" d="m0 64.95v-64.95h395.1v129.9h-395.1v-64.95z" fill="#fdfdfe"/>
  <path id="path3352" d="m180.68 129.45c-5.4892-1.3404-9.1801-7.1973-9.169-14.55 0.014-9.3047 5.5634-15.312 14.131-15.296 6.432 0.0114 11.439 4.0319 13.17 10.576 0.77243 2.9197 0.64874 7.6059-0.2758 10.45-1.1748 3.6134-3.5333 6.677-6.2133 8.0708-2.2123 1.1505-8.3761 1.5473-11.643 0.74953zm7.7348-2.731c4.0778-1.211 6.4333-4.3984 7.1892-9.7283 0.35406-2.4965 0.004-5.4506-0.94585-7.9903-0.89208-2.3843-3.3992-4.9006-5.6166-5.6371-2.3555-0.78238-6.2589-0.54356-8.2889 0.50714-3.6919 1.9108-5.6341 5.7834-5.6071 11.18 0.0227 4.5296 1.6357 8.3834 4.2744 10.212 2.6569 1.8412 5.9203 2.3697 8.9949 1.4566zm21.046 2.7266c-2.1656-0.52824-3.7563-1.6502-4.9967-3.5242-1.8355-2.7732-1.979-3.942-1.8901-15.394l0.0791-10.177h3.3l0.15 10.65 0.15 10.65 0.85455 1.7403c0.55561 1.1315 1.2378 1.9922 1.95 2.4603 2.9487 1.938 8.1987 1.7014 10.685-0.48153 0.61441-0.53946 1.2794-1.5692 1.6458-2.5484 0.57447-1.5354 0.61479-2.2977 0.61479-11.625 0-7.6617 0.0897-10.104 0.38587-10.509 0.29057-0.39738 0.71664-0.50416 1.725-0.43234l1.3391 0.0954 0.0791 10.65c0.0694 9.3455 0.0165 10.849-0.4324 12.277-0.96992 3.0849-3.4202 5.4968-6.2777 6.1792-2.1736 0.51912-7.2125 0.51326-9.3613-0.0109zm138.69 0.0194c-2.9513-0.72605-4.9486-2.2217-6.8135-5.1022-1.7778-2.746-2.4714-5.3652-2.4662-9.3125 0.007-5.0147 1.2296-8.4112 4.1346-11.483 2.4905-2.6334 5.7154-3.957 9.6571-3.9636 6.7795-0.01143 11.753 3.9124 13.479 10.634 0.60216 2.345 0.59511 7.2006-0.0138 9.5507-1.2922 4.9866-4.6293 8.6935-8.702 9.666-2.1457 0.5124-7.2104 0.5178-9.275 0.01zm8.8143-3.1779c2.0192-0.86861 4.278-3.3279 5.1553-5.6128 1.0091-2.6282 1.1605-7.4442 0.32088-10.209-1.1272-3.7111-3.5893-6.423-6.5873-7.2557-1.6543-0.45947-5.1631-0.37219-6.748 0.16786-4.6338 1.5789-7.5681 7.9749-6.5122 14.195 0.78624 4.6313 3.3969 8.029 7.0285 9.1472 2.0542 0.63255 5.3128 0.44044 7.3429-0.43292zm-356.96-35.658c0-35.257 0.045191-38.985 0.47454-39.15 0.26099-0.1 5.9889-0.182 12.728-0.182 10.74 0 12.312 0.05824 12.725 0.47143 0.42117 0.42117 0.47143 3.1877 0.47143 25.95v25.479h25.618c23.083 0 25.636 0.0469 25.8 0.47454 0.10016 0.26099 0.1821 6.039 0.1821 12.84 0 9.2176-0.09164 12.457-0.36 12.725-0.27627 0.27627-9.3467 0.36-39 0.36h-38.639v-38.968zm90.36 38.608c-0.2685-0.2685-0.36-3.5419-0.36-12.879 0-10.981 0.05792-12.576 0.47143-12.99 0.39703-0.39703 1.4149-0.47143 6.45-0.47143h5.9786v-76.5h-76.5v5.8697c0 3.4724-0.12684 6.1067-0.31056 6.45-0.29936 0.55935-0.75824 0.58028-12.725 0.58028-6.8282 0-12.628-0.08194-12.889-0.1821-0.42643-0.164-0.475-2.175-0.475-19.65v-19.468h64.768c58.782 0 64.782 0.043849 64.952 0.47454 0.1 0.26099 0.18 29.259 0.18 64.44 0 49.351-0.0823 64.048-0.36 64.325-0.52033 0.52034-38.66 0.52034-39.18 0zm61.213 0.0134c-0.54278-0.54278-0.54129-27.81 0.001-28.551 0.34163-0.46654 1.1891-0.50501 9.525-0.43234l9.15 0.0798 0.0969 1.188c0.15747 1.9305 0.0251 1.962-8.262 1.962h-7.3005l0.0828 4.575 0.0828 4.575 6.75 0.15 6.75 0.15v3l-6.75 0.15-6.75 0.15-0.15 6.6-0.15 6.6-1.3516 0.0884c-0.79171 0.0518-1.5062-0.0662-1.725-0.285zm78.964-0.0284c-0.079-0.20625-0.10856-6.7875-0.0656-14.625l0.0781-14.25 1.7049-0.0894 1.7049-0.0894 1.1637 1.5894c0.64005 0.87415 4.2603 6.0911 8.0451 11.593l6.8814 10.004 0.0787-11.177c0.0555-7.8778 0.18055-11.3 0.42372-11.593 0.22572-0.27197 0.82091-0.38479 1.7213-0.32628l1.3763 0.0894v29.1l-1.65 0.0778c-0.9075 0.0428-1.7998-0.0247-1.9829-0.15-0.18308-0.12529-3.6742-5.0878-7.7582-11.028-4.0839-5.94-7.6128-10.998-7.8421-11.239-0.3562-0.37536-0.41685 1.2023-0.41685 10.843 0 12.564 0.1682 11.646-2.134 11.646-0.67125 0-1.2472-0.16256-1.3286-0.375zm28.423 0.015c-0.47342-0.47342-0.52052-27.58-0.0495-28.46 0.29055-0.5429 0.68313-0.58028 6.0949-0.58028 3.1814 0 6.5854 0.14759 7.5644 0.32798 5.1563 0.95004 8.6305 4.4166 9.7433 9.722 0.54065 2.5775 0.46363 7.6957-0.15096 10.032-1.4456 5.4952-4.9612 8.5648-10.362 9.0474-4.2473 0.37958-12.428 0.32259-12.84-0.0895zm14.49-3.5358c2.5763-0.98155 4.1465-2.6911 4.974-5.4153 0.55544-1.8287 0.62849-2.6722 0.52829-6.101-0.11075-3.7901-0.16375-4.0754-1.1163-6.0103-0.78785-1.6003-1.2956-2.2189-2.393-2.915-2.2608-1.434-3.8725-1.7626-8.6474-1.7626h-4.2956v23.172l4.575-0.14148c3.814-0.11794 4.8744-0.25555 6.375-0.82726zm10.05 3.2756c0-0.81437 11.065-28.264 11.509-28.55 0.18778-0.12123 0.94893-0.22041 1.6914-0.22041 0.7425 0 1.5048 0.0992 1.6941 0.22041 0.43783 0.28045 11.206 27.713 11.206 28.548 0 0.54292-0.18159 0.62162-1.425 0.61761-0.78375-0.002-1.5905-0.10977-1.7929-0.23832-0.20235-0.12854-1.0845-2.0502-1.9603-4.2704l-1.5924-4.0367h-12.579l-1.5401 3.9c-0.84706 2.145-1.6961 4.0688-1.8868 4.275-0.1907 0.20625-1.0164 0.375-1.8349 0.375-1.3044 0-1.4882-0.0766-1.4882-0.62023zm17.7-11.775c0-0.77336-4.4282-12.052-4.6868-11.938-0.21465 0.0952-4.1433 9.7804-4.7765 11.775-0.16762 0.52814 0.0805 0.55796 4.6431 0.55796 3.79 0 4.8202-0.0846 4.8202-0.3956zm14.913 12.209c-0.11742-0.11742-0.21348-5.996-0.21348-13.063v-12.85h-4.6286c-3.8078 0-4.7122-0.0836-5.1-0.47143-0.56685-0.56687-0.61071-1.6239-0.0964-2.3254 0.34377-0.46891 1.3241-0.5049 11.775-0.43234l11.4 0.0791 0.0944 1.1459c0.15852 1.9251-0.0475 2.0041-5.2279 2.0041h-4.6101l-0.0782 12.975-0.0782 12.975-1.5115 0.0885c-0.83133 0.0487-1.6076-0.008-1.725-0.125zm15.762-0.005c-0.5928-0.25029-0.54132-28.397 0.0528-28.89 0.23529-0.19529 1.0115-0.31307 1.725-0.26174l1.2972 0.0933v29.1l-1.35 0.0583c-0.7425 0.0321-1.5188-0.0129-1.725-0.1zm38.462-0.18333c-0.079-0.20625-0.10857-6.7875-0.0656-14.625l0.0781-14.25h3.5983l7.7447 11.25c4.2596 6.1875 7.8696 11.294 8.0222 11.349 0.16605 0.0591 0.30915-4.4611 0.35619-11.25l0.0786-11.349h3.3v29.1l-1.6502 0.0877c-1.0229 0.0544-1.8342-0.0597-2.1342-0.3-0.26619-0.21326-3.9111-5.3816-8.0998-11.485l-7.6158-11.098-0.0788 11.071c-0.0538 7.5621-0.18429 11.198-0.41172 11.473-0.42603 0.51333-2.9273 0.53434-3.1221 0.0262zm-66.24-38.662c-5.458-0.70035-9.7241-2.5784-12.743-5.6097-2.2914-2.3009-3.6165-4.74-4.6211-8.5055-0.65207-2.4441-0.66515-2.8502-0.66515-20.643v-18.15h16.5l0.16299 16.95c0.11133 11.578 0.27207 17.262 0.50712 17.936 1.1073 3.1716 2.7036 4.3207 6.2615 4.5074 3.8744 0.20336 5.6449-0.90338 6.9044-4.3158 0.49503-1.3412 0.55989-3.024 0.70461-18.277l0.15942-16.8 7.9132-0.08006c5.5868-0.05652 8.0342 0.02043 8.325 0.26173 0.3393 0.2816 0.411 3.0167 0.4071 15.53-0.003 8.3535-0.1341 16.749-0.2922 18.656-0.49278 5.9453-2.1068 9.8999-5.3505 13.109-3.9834 3.9411-10.186 5.8335-18.795 5.7348-1.8193-0.02088-4.2398-0.15753-5.3788-0.30368zm-152.57-1.438c-0.21-0.387-0.31-8.978-0.31-25.764 0-20.982 0.0687-25.24 0.41183-25.525 0.29076-0.24131 2.7382-0.31825 8.325-0.26173l7.9132 0.08006 0.0772 18.975 0.0772 18.975h11.038c8.1849 0 11.131 0.09305 11.398 0.36 0.50964 0.50963 0.50964 12.87 0 13.38-0.27247 0.27247-5.011 0.36-19.489 0.36-18.606 0-19.138-0.0159-19.44-0.58028zm49.029 0.21019c-0.0797-0.20895-0.11007-11.922-0.0675-26.03l0.0775-25.65h16.2v51.9l-8.0325 0.07991c-6.2641 0.06232-8.0644-0.0037-8.1775-0.3zm27.795-0.03769c-0.24675-0.29731-0.31765-7.3475-0.26174-26.025l0.0767-25.617 8.3012-0.0797 8.3012-0.0797 0.57049 0.8297c0.31377 0.45634 3.5307 6.2854 7.1488 12.953l6.5783 12.124 0.0783-12.547c0.0546-8.749 0.18052-12.67 0.41593-12.954 0.27111-0.32666 1.8218-0.39102 7.8717-0.32672l7.5341 0.08006v51.9l-7.8511 0.07994-7.8511 0.07993-0.56938-0.82994c-0.31316-0.45646-3.7327-6.4811-7.5989-13.388l-7.0296-12.558-0.0782 12.981c-0.0541 8.9753-0.18114 13.105-0.41173 13.383-0.49114 0.59179-14.734 0.58624-15.225-0.0059zm111.77 0.2121c-0.11238-0.11238-0.20433-0.38435-0.20433-0.6044 0-0.22004 3.8258-6.0363 8.5018-12.925s8.7385-12.892 9.0278-13.34l0.52602-0.81474-8.1687-11.606c-4.4928-6.3831-8.184-11.821-8.2028-12.085-0.0304-0.42825 0.9576-0.48809 9.2299-0.55898 6.4946-0.05566 9.3848 0.02088 9.6681 0.256 0.22227 0.18447 1.9748 3.1639 3.8944 6.621s3.5647 6.2112 3.6557 6.1202c0.091-0.09098 1.7378-3.0347 3.6596-6.5416l3.4942-6.3762 8.9147-0.07948c7.4724-0.06662 8.9411-0.01062 9.078 0.34609 0.095 0.24752-3.1715 5.3177-7.8077 12.119-4.384 6.4314-7.971 11.82-7.971 11.975 0 0.15508 3.8475 5.9907 8.55 12.968 4.7025 6.9774 8.55 12.847 8.55 13.044 0 0.19657 0.16761 0.52503 0.37248 0.7299 0.79689 0.79689-0.65889 0.93839-9.701 0.94292-8.3693 0.0042-9.2191-0.04169-9.6393-0.52041-0.25341-0.28875-2.1736-3.5265-4.2671-7.1951-2.0935-3.6685-3.9059-6.7316-4.0276-6.8068-0.12168-0.07521-2.1712 3.1288-4.5544 7.1201l-4.3331 7.2568-9.0207 0.07932c-4.9614 0.04363-9.1126-0.01263-9.225-0.125zm-178.35-60.164c-0.27-0.269-0.36-3.612-0.36-13.193v-12.833l-4.8681-0.082432-4.8681-0.082431-0.29539-0.84083c-0.20054-0.57084-0.19226-1.0043 0.0258-1.35 0.29297-0.46447 1.3322-0.50917 11.838-0.50917h11.517v2.7l-4.875 0.082431-4.875 0.082432v12.833c0 9.5809-0.0912 12.924-0.36 13.193-0.46574 0.46574-2.4142 0.46574-2.88 0zm15.259-0.20461c-0.21-0.396-0.32-5.218-0.32-14.379 0-11.568 0.0688-13.84 0.42783-14.138 0.23531-0.19529 1.0116-0.31307 1.725-0.26173l1.2972 0.093333 0.15 6 0.15 6 8.025 0.0799 8.025 0.0799v-5.7949c0-4.1071 0.10485-5.8997 0.36-6.1549 0.4663-0.4663 2.7137-0.4663 3.18 0 0.47341 0.47342 0.52051 27.58 0.0494 28.46-0.23528 0.43963-0.63265 0.58028-1.6394 0.58028s-1.4042-0.14065-1.6394-0.58028c-0.19-0.347-0.31-3.117-0.31-6.899v-6.3197h-16.189l-0.0806 6.825-0.0806 6.825-1.4061 0.09066c-1.1512 0.07423-1.4639-0.01734-1.725-0.50528zm28.515 0.1553c-0.24487-0.29504-0.31793-4.3779-0.26174-14.625l0.078-14.216h20.4l0.0955 0.9946c0.1791 1.8658 0.22886 1.8554-8.8398 1.8554h-8.2209l0.0826 4.725 0.0826 4.725 7.8 0.15 7.8 0.15v2.7l-7.8 0.15-7.8 0.15-0.0821 5.1703-0.0821 5.1703 8.475 0.07968 8.475 0.07968 0.28576 0.81291c0.19397 0.55181 0.17423 1.0577-0.0615 1.575l-0.34723 0.76209h-9.8697c-7.971 0-9.935-0.07874-10.209-0.40931z" fill="#b3c7d5"/>
  <path id="path3350" d="m181.13 129.46c-2.0051-0.55191-3.7827-1.6697-5.3929-3.3912-6.5022-6.9514-4.8715-20.462 2.9663-24.577 2.483-1.3035 4.4752-1.6918 7.7899-1.5185 2.4795 0.1297 3.0897 0.28031 5.039 1.2437 3.4636 1.7118 5.6925 4.5222 6.9389 8.7494 0.64978 2.2038 0.73423 7.1078 0.1625 9.4372-1.2424 5.062-4.7158 8.9034-9.1074 10.072-1.9449 0.51775-6.4884 0.50896-8.3964-0.0162zm8.3209-2.827c1.9272-0.85247 3.0625-1.7187 4.0633-3.1003 2.6254-3.6243 3.2324-9.736 1.4384-14.482-0.97457-2.5783-3.6627-5.2299-6.0567-5.9745-2.501-0.77782-6.1033-0.55651-8.1486 0.50063-2.7745 1.434-4.8423 4.2966-5.5764 7.7197-0.51542 2.4033-0.20687 7.3068 0.58853 9.3532 1.7705 4.5549 5.5622 7.0284 10.303 6.7213 1.1085-0.0718 2.6332-0.4038 3.3882-0.73777zm20.396 2.8511c-2.003-0.63345-3.0089-1.2852-4.4398-2.8768-2.393-2.6616-2.4602-3.0794-2.4602-15.304v-10.65h2.7l0.16815 10.35c0.0988 6.0794 0.29996 10.729 0.48758 11.268 0.99653 2.8625 2.6561 4.3744 5.435 4.9513 3.3824 0.7022 6.899-0.19589 8.6714-2.2146 1.7343-1.9752 1.8879-3.105 1.8879-13.884 0-5.3191 0.0819-9.8846 0.18209-10.146 0.12781-0.33307 0.57499-0.47454 1.5-0.47454h1.3179v10.658c0 9.8892-0.0433 10.781-0.60014 12.365-1.0628 3.0238-3.3069 5.1348-6.3072 5.9333-2.0018 0.53269-6.8915 0.54677-8.5426 0.0246zm138.75-0.009c-5.516-1.5308-8.9622-6.3223-9.4905-13.195-0.52098-6.7777 2.5732-12.756 7.8898-15.244 1.6714-0.78213 2.444-0.95031 4.9111-1.0691 5.0529-0.24331 8.6614 1.3193 11.425 4.9478 2.013 2.6426 2.7058 4.8639 2.8814 9.2385 0.11118 2.7709 0.0285 4.0441-0.35844 5.5286-1.3106 5.0264-4.6086 8.6437-8.9295 9.7939-1.9214 0.5115-6.4849 0.51106-8.3292-0.0009zm8.5337-2.9756c3.8953-1.7833 6.1546-5.9839 6.1627-11.458 0.008-5.3554-2.1061-9.5224-5.8274-11.486-1.3672-0.72158-1.8338-0.8017-4.669-0.8017-2.6859 0-3.3575 0.10222-4.5585 0.69376-3.0321 1.4935-4.9721 4.3571-5.8436 8.6256-1.0985 5.3806 0.98679 11.435 4.7585 13.816 2.7738 1.751 6.9303 2.0053 9.9772 0.61037zm-357.13-35.89v-38.7h25.796l0.07668 25.725 0.07668 25.725 25.725 0.0767 25.725 0.0767v25.796h-77.4v-38.7zm90.502 38.502c-0.11119-0.11119-0.20217-5.8227-0.20217-12.692 0-9.3144 0.09153-12.582 0.36-12.85 0.25636-0.25636 2.1136-0.36 6.4511-0.36h6.0911l-0.0761-38.475-0.0761-38.475h-76.8l-0.08152 5.9771c-0.05169 3.7903-0.20233 6.1227-0.41173 6.375-0.2648 0.31906-2.8488 0.39789-13.043 0.39789h-12.713v-39h129.29l0.16272 0.675c0.0895 0.37125 0.12581 29.43 0.0807 64.575l-0.082 63.9-19.373 0.0772c-10.655 0.0424-19.464-0.0138-19.575-0.125zm61.198 0c-0.28738-0.28738-0.23859-27.775 0.0501-28.23 0.18739-0.29521 2.2364-0.36187 9.2204-0.3l8.9795 0.0795 0.0931 1.125c0.0512 0.61875 0.0512 1.1529 0 1.187s-3.5356 0.13536-7.7431 0.225l-7.65 0.16298-0.0863 4.2c-0.0474 2.31-0.0118 4.5012 0.0793 4.8693 0.16428 0.66423 0.21578 0.66988 6.8362 0.75l6.6707 0.0807 0.0923 1.275 0.0922 1.275h-6.7352c-5.8648 0-6.7587 0.0613-6.9172 0.47454-0.10015 0.26099-0.1821 3.2985-0.1821 6.75v6.2755h-1.3c-0.715 0-1.39-0.09-1.5-0.2zm79.072-14.109 0.0779-14.342h3.2324l7.0143 10.2c3.8579 5.61 7.5181 10.875 8.1338 11.7l1.1195 1.5 0.15-11.7 0.15-11.7h2.7l0.0779 14.325 0.0779 14.325h-1.6434c-1.9589 0-0.85233 1.3446-10.801-13.125-3.7722-5.4862-6.97-9.975-7.1063-9.975s-0.28318 5.1638-0.32639 11.475l-0.0786 11.475-1.4279 0.0916-1.4279 0.0916 0.0779-14.342zm28.328 14.108c-0.2956-0.2956-0.23428-27.781 0.063-28.25 0.20285-0.32001 1.603-0.37809 6.9704-0.28915 7.4554 0.12355 8.7555 0.38893 11.476 2.3426 3.6678 2.634 5.4784 8.3323 4.696 14.78-0.72524 5.9768-3.2446 9.4249-8.0366 10.999-1.6672 0.54773-2.6262 0.61809-8.425 0.61809-3.599 0-6.6337-0.09-6.7437-0.2zm12.443-2.6329c2.6211-0.55557 4.1552-1.3694 5.4645-2.899 1.7582-2.054 2.1423-3.6364 2.1423-8.825 0-4.4953-0.002-4.512-0.99307-6.5235-1.0661-2.165-2.0556-3.0993-4.4234-4.1766-1.306-0.59423-2.0846-0.68865-6.5085-0.78925l-5.025-0.11427v11.68c0 6.4241 0.09 11.77 0.2 11.88 0.3673 0.3673 7.1234 0.19522 9.1432-0.23288zm12.257 2.3592c0-0.53637 10.738-27.372 11.184-27.951 0.15946-0.2069 0.92846-0.375 1.7156-0.375 0.78608 0 1.5571 0.16836 1.7174 0.375 0.43345 0.55877 10.883 27.394 10.883 27.948 0 0.3703-0.3261 0.47664-1.4617 0.47664h-1.4617l-1.7136-4.3558-1.7136-4.3558-6.4576 0.0808-6.4576 0.0808-1.6595 4.275-1.6595 4.275h-1.4577c-1.1282 0-1.4577-0.10709-1.4577-0.47373zm17.797-11.151c0.21045-0.35889-4.7147-13.13-5.0435-13.078-0.28871 0.0456-5.2028 12.178-5.2363 12.928-0.0127 0.2859 1.1908 0.375 5.0656 0.375 2.7953 0 5.1417-0.10125 5.2142-0.225zm14.532-1.35-0.0782-12.975-4.768-0.15c-5.2027-0.16367-5.5729-0.29996-5.1704-1.9036l0.19989-0.79644h22.824l-0.0922 1.275-0.0922 1.275-4.8 0.15-4.8 0.15-0.0782 12.975-0.0782 12.975h-2.9872l-0.0782-12.975zm15.809 12.6c-0.079-0.20625-0.10857-6.6525-0.0656-14.325l0.0782-13.95h2.7l0.0779 14.325 0.0779 14.325h-1.3623c-0.81318 0-1.4203-0.15116-1.5061-0.375zm38.563-14.009v-14.416h3.2332l7.9628 11.564c4.3795 6.3603 8.0733 11.558 8.2084 11.55 0.13509-0.008 0.31311-5.1778 0.39561-11.489l0.15-11.475h2.7l0.0779 14.325 0.0779 14.325-1.7279-0.0009-1.7279-0.0009-7.9451-11.549c-4.3698-6.3522-8.047-11.549-8.1714-11.549-0.12447 0-0.26169 5.1638-0.30489 11.475l-0.0786 11.475-1.425 0.0914-1.425 0.0914v-14.416zm-67.05-24.751c-10.291-1.6086-15.679-6.909-16.941-16.665-0.21492-1.6615-0.30012-8.2991-0.24453-19.05l0.0853-16.5 8.025-0.0799 8.025-0.0799v15.85c0 10.166 0.11736 16.485 0.3273 17.62 0.79632 4.3076 2.9338 6.1363 7.1727 6.1363 3.6201 0 5.7355-1.4622 6.7464-4.6632 0.51609-1.6341 0.57291-3.1712 0.67884-18.363l0.11559-16.58 8.0046 0.07986 8.0046 0.07986 0.0883 15c0.11889 20.201-0.21462 23.709-2.7013 28.41-1.0257 1.9391-3.8909 4.8288-6.0185 6.0698-4.6596 2.718-13.908 3.902-21.368 2.7358zm-151.61-1.175c-0.24913-0.30018-0.31973-7.1916-0.26357-25.727l0.0767-25.317 8.0228-0.0799 8.0228-0.0799 0.0772 18.98 0.0772 18.98 11.25 0.15 11.25 0.15v13.2l-19.086 0.07721c-15.842 0.06408-19.144 0.0075-19.427-0.3328zm49.068 0.21055c-0.11273-0.11272-0.20495-11.725-0.20495-25.805v-25.6h15.903l-0.0767 25.725-0.0767 25.725-7.67 0.07995c-4.2185 0.04397-7.7623-0.01227-7.875-0.125zm27.6 0.000168c-0.11282-0.11282-0.20512-11.727-0.20512-25.81v-25.605l8.3022 0.07975 8.3022 0.07975 6.7103 12.3c3.6907 6.765 6.9409 12.705 7.2228 13.2 0.49076 0.86184 0.51885 0.34035 0.66249-12.3l0.15-13.2 7.5767-0.08015 7.5767-0.08016-0.0767 25.73-0.0767 25.73-7.5485 0.0801c-6.0312 0.064-7.6292-0.0015-7.95-0.32602-0.22084-0.22336-3.7084-6.3007-7.7501-13.505-4.0417-7.2044-7.4491-13.099-7.5719-13.099-0.12285 0-0.25851 6.0412-0.30145 13.425l-0.0781 13.425-7.3699 0.08012c-4.0534 0.04407-7.4622-0.01218-7.575-0.125zm111.69-0.22946c0-0.23338 4.05-6.3942 9-13.691 4.95-7.2964 8.996-13.349 8.9912-13.451-0.005-0.10142-3.7174-5.445-8.25-11.875-4.5326-6.4297-8.2412-11.798-8.2412-11.929 0-0.13142 4.2182-0.20327 9.3736-0.15967l9.3736 0.07928 3.6028 6.45c1.9816 3.5475 3.7368 6.45 3.9005 6.45 0.16371 0 1.9062-2.9362 3.8722-6.525l3.5745-6.525h8.8013c5.3514 0 8.8013 0.11158 8.8013 0.28466 0 0.15657-3.5301 5.4553-7.8448 11.775-4.3146 6.3197-7.9006 11.699-7.969 11.954-0.0683 0.25506 0.33282 1.1326 0.89139 1.95 0.5586 0.81743 4.6433 6.8862 9.0772 13.486l8.0616 12-9.4305 0.07937c-5.1868 0.04366-9.5805 0.02181-9.7638-0.04852-0.18333-0.07034-2.197-3.384-4.4748-7.3637s-4.282-7.189-4.4536-7.1318c-0.17163 0.05721-2.1841 3.265-4.4721 7.1284s-4.3202 7.1262-4.5159 7.2507c-0.19572 0.12445-4.3046 0.22835-9.1309 0.23087-7.3663 0.0039-8.775-0.06353-8.775-0.41974zm-178.35-59.934c-0.0809-0.21581-0.18088-6.1299-0.22226-13.142l-0.08-12.75-4.768-0.15c-5.2028-0.16368-5.5729-0.29997-5.1705-1.9036l0.19989-0.79643h22.824l-0.0923 1.275-0.0923 1.275-4.8 0.15-4.8 0.15-0.15 13.05-0.15 13.05-1.2777 0.09238c-0.84772 0.06129-1.3272-0.03967-1.4248-0.3zm15.526 0.01133c-0.29-0.287-0.38-3.541-0.38-14.088 0-7.5435 0.082-13.929 0.1821-14.19 0.12781-0.33307 0.57499-0.47454 1.5-0.47454h1.3179v5.9633c0 4.6891 0.088 6.0363 0.41184 6.3051 0.29075 0.24131 2.7382 0.31825 8.325 0.26173l7.9132-0.08006 0.16573-6.15c0.0911-3.3825 0.1924-6.1837 0.225-6.225 0.0326-0.04125 0.65233-0.075 1.3772-0.075 0.92501 0 1.3722 0.14147 1.5 0.47454 0.10015 0.26099 0.1821 6.6465 0.1821 14.19 0 10.268-0.0905 13.806-0.36 14.075-0.46503 0.46502-2.115 0.46502-2.58 0-0.26-0.258-0.36-2.214-0.36-6.905v-6.5447l-8.325 0.07975-8.325 0.07975-0.15 6.75-0.15 6.75-1.0513 0.08871c-0.57821 0.04879-1.2195-0.07946-1.425-0.285zm28.326 0.14628c-0.11-0.11-0.2-6.6575-0.2-14.55v-14.35h20.134l-0.0923 1.275-0.0923 1.275-8.4 0.15-8.4 0.15-0.0829 4.7774c-0.0628 3.621 0.01 4.8362 0.3 5.0204 0.21059 0.13364 3.7916 0.24505 7.9579 0.24758l7.575 0.0046v2.4l-7.575 0.0046c-4.1662 0.0025-7.747 0.11378-7.9573 0.24722-0.29117 0.18479-0.36268 1.4889-0.3 5.4704l0.0823 5.2278 8.2252 0.07991c5.4556 0.053 8.3598 0.19164 8.625 0.41173 0.49752 0.41291 0.51955 1.5186 0.0398 1.9984-0.26507 0.26506-2.9022 0.36-10 0.36-5.302 0-9.73-0.09-9.84-0.2z" fill="#8ea4b5"/>
  <path id="path3348" d="m180.86 129.22c-1.0962-0.38391-2.5614-1.0918-3.2559-1.5731-5.5306-3.8327-7.3821-13.187-4.0531-20.476 3.6236-7.9348 15.307-9.6937 21.424-3.2254 2.6404 2.7919 3.9316 6.4254 3.9232 11.041-0.0116 6.451-2.8284 11.5-7.683 13.772-1.794 0.83952-2.3898 0.96044-5.1945 1.0543-2.7194 0.091-3.4504 0.007-5.1612-0.59203zm8.1484-2.2322c1.9613-0.63342 4.5494-2.9274 5.5659-4.9333 2.8426-5.6095 1.7963-13.494-2.2765-17.156-2.497-2.245-6.1044-3.0699-9.557-2.1854-4.6371 1.188-7.5442 5.116-8.0353 10.857-0.5551 6.4894 2.6047 12.091 7.6977 13.646 1.3783 0.42078 4.9818 0.29648 6.6053-0.22786zm21.274 2.4982c-3.2167-0.86732-5.6482-3.1469-6.7554-6.3334-0.44598-1.2835-0.54262-3.0056-0.65325-11.64-0.0987-7.7019-0.0419-10.239 0.23675-10.575 0.45247-0.5452 1.906-0.57868 2.3414-0.0539 0.21133 0.25464 0.35268 3.9366 0.41173 10.725l0.0899 10.337 0.81632 1.6622c1.3355 2.7192 3.5168 3.8891 7.2464 3.8862 3.4909-0.003 5.6072-0.90045 7.002-2.9702 1.2787-1.8975 1.3807-2.781 1.5613-13.524 0.16322-9.709 0.20773-10.353 0.72266-10.452 0.30181-0.0579 0.88332-0.0213 1.2923 0.0813l0.74354 0.18662-0.10396 10.715c-0.12163 12.537-0.13629 12.614-2.9312 15.412-1.4 1.4015-2.0491 1.8062-3.7288 2.325-2.3247 0.71802-6.0718 0.81652-8.2918 0.21796zm138.81 0.0765c-4.4287-1.0397-8.011-4.8824-9.3262-10.004-0.59205-2.3057-0.59196-7.026 0.00024-9.2995 1.8511-7.1068 7.9647-11.201 15.095-10.109 7.3701 1.1285 11.82 7.319 11.354 15.797-0.47277 8.6142-5.7177 14.016-13.515 13.92-1.3439-0.0166-2.9675-0.15318-3.6081-0.30356zm8.397-3.0448c4.3032-2.214 6.7011-7.8574 5.8614-13.795-0.39138-2.7676-1.5506-5.5305-3.0252-7.2099-0.53343-0.60755-1.8632-1.5444-2.955-2.0819-1.7407-0.85696-2.2822-0.97743-4.3993-0.97866-3.0865-0.002-5.1011 0.6855-6.9916 2.3852-2.8203 2.5357-4.1325 6.2302-3.8922 10.958 0.29085 5.7234 2.7789 9.6424 7.1212 11.217 2.1252 0.7705 6.3066 0.52046 8.2807-0.49516zm-357.49-35.901v-38.735l12.825 0.07822 12.825 0.07822 0.07667 25.69 0.07667 25.69 0.67333 0.18045c0.37033 0.0993 11.98 0.1823 25.798 0.18456l25.125 0.004v25.2h-38.225c-21.024 0-38.439 0.0819-38.7 0.1821-0.43167 0.18-0.475-3.34-0.475-38.541zm90.738 38.298c-0.07966-0.20757-0.10955-5.9798-0.06644-12.827l0.07839-12.45 6.3-0.15 6.3-0.15v-77.1h-77.4l-0.08109 6.225-0.08109 6.225h-25.788v-38.7h129.3l-0.0757 64.575-0.0757 64.575-19.134 0.0772c-15.152 0.0612-19.164-0.001-19.278-0.30019zm61.206 0.0162c-0.0829-0.2163-0.11558-6.6708-0.0726-14.343l0.0782-13.95 8.6636-0.0797c9.2948-0.0855 9.5945-0.0408 9.4265 1.404l-0.0902 0.77568-7.65 0.15-7.65 0.15-0.0823 5.025c-0.0452 2.7638-0.0452 5.0522 0 5.0855s3.1198 0.13453 6.8322 0.225l6.75 0.1645 0.094 0.975c0.0517 0.53625 0.0517 1.0022 0 1.0355s-3.1315 0.13453-6.844 0.225l-6.75 0.1645-0.15 6.6-0.15 6.6-1.1274 0.0932c-0.72526 0.06-1.1812-0.047-1.2782-0.3zm78.96 0.15c-0.11-0.11001-0.2-6.428-0.2-14.04 0-10.364 0.0904-13.93 0.36-14.2 0.198-0.198 0.86862-0.36 1.4903-0.36 1.367 0 0.87159-0.6297 10.149 12.9 7.1185 10.381 7.499 10.901 7.7738 10.627 0.0973-0.0971 0.24434-5.3967 0.32684-11.777l0.15-11.6 0.92555-0.0903c0.53164-0.0519 1.0756 0.0904 1.278 0.33438 0.26132 0.31488 0.3323 4.0233 0.27445 14.34l-0.078 13.916-1.5272 0.089-1.5272 0.089-8.0646-11.717c-4.4355-6.4442-8.2033-11.671-8.3728-11.614-0.20196 0.0673-0.33521 4.1001-0.38668 11.703l-0.0785 11.6h-1.1465c-0.63056 0-1.2365-0.09-1.3465-0.2zm28.437-0.17501c-0.0791-0.20625-0.10858-6.6525-0.0656-14.325l0.0782-13.95 6.3 0.004c5.6879 0.004 6.504 0.0692 8.4 0.67459 5.2762 1.6847 7.8396 5.5712 8.1743 12.394 0.27068 5.5164-0.74311 9.1338-3.337 11.907-1.5293 1.635-3.1245 2.5278-5.7282 3.2059-2.3323 0.6075-13.595 0.68082-13.822 0.09zm12.992-2.4525c5.2187-1.3893 7.123-4.5369 7.092-11.722-0.0207-4.7943-0.62448-6.7167-2.7895-8.8817-2.2584-2.2584-3.9842-2.7502-9.7817-2.7874l-4.8-0.0308-0.0786 11.549c-0.0433 6.352-0.0137 11.718 0.0656 11.925 0.20925 0.5453 8.2004 0.50518 10.292-0.0517zm11.471 2.5426c0-0.47762 10.764-27.06 11.273-27.84 0.33421-0.51188 0.72737-0.675 1.6269-0.675 0.90001 0 1.2921 0.16285 1.6252 0.675 0.48124 0.73984 10.975 27.378 10.975 27.86 0 0.16799-0.61749 0.25799-1.4163 0.20642l-1.4163-0.0914-1.591-4.05c-0.87501-2.2275-1.816-4.2188-2.091-4.425-0.36057-0.27037-2.148-0.375-6.406-0.375-5.0776 0-5.9625 0.0682-6.3092 0.48588-0.22178 0.26723-1.0897 2.2585-1.9288 4.425l-1.5255 3.9391-1.408 0.0914c-0.84887 0.0551-1.408-0.0348-1.408-0.2264zm17.525-10.997c0.261-0.10015 0.47454-0.31495 0.47454-0.47733 0-0.34607-4.4208-12.128-4.8582-12.948-0.16368-0.30673-0.41075-0.44159-0.54965-0.3-0.13877 0.14147-1.3934 3.1597-2.7881 6.7072-1.7986 4.5748-2.4478 6.559-2.2332 6.825 0.21828 0.27047 1.5818 0.375 4.8914 0.375 2.5238 0 4.8023-0.0819 5.0633-0.1821zm15.022 10.924c-0.0808-0.21581-0.18087-6.1299-0.22224-13.142l-0.0752-12.75-4.8-0.15-4.8-0.15v-2.1l10.65-0.0837c5.8575-0.046 10.962-0.008 11.343 0.0853 0.57318 0.1397 0.6771 0.33604 0.6 1.1337l-0.0932 0.9647-4.8 0.15-4.8 0.15-0.15 13.05-0.15 13.05-1.2777 0.0924c-0.84774 0.0613-1.3272-0.0397-1.4248-0.3zm15.825-13.95 0.0779-14.342 0.92556-0.0903c0.53163-0.0519 1.0756 0.0904 1.278 0.33438 0.2613 0.31488 0.33228 4.0233 0.27444 14.34l-0.078 13.916-1.2779 0.0924-1.2779 0.0924 0.0779-14.342zm38.542 14.122c-0.11787-0.11786-0.21429-6.5223-0.21429-14.232 0-15.51-0.15366-14.382 1.9593-14.382 1.2214 0 0.44487-0.99707 9.5792 12.3 3.9104 5.6925 7.369 10.616 7.6857 10.942 0.56811 0.58369 0.57588 0.43588 0.57588-10.965 0-8.5885 0.0925-11.649 0.36-11.917 0.48624-0.48623 1.8867-0.45624 2.3063 0.0494 0.24477 0.29493 0.31794 4.2998 0.26175 14.325l-0.078 13.916h-3.2234l-7.9883-11.618c-4.3936-6.3898-8.1555-11.621-8.3598-11.625-0.2877-0.006-0.38916 2.6142-0.45 11.618l-0.0785 11.625-1.0607 0.0893c-0.58341 0.0491-1.1572-0.007-1.275-0.125zm-65.15-38.829c-10.058-0.91852-16.032-5.3113-18.354-13.496-0.50125-1.7666-0.54602-3.4373-0.54602-20.374v-18.45l7.718-0.08005 7.718-0.08005 0.15735 0.68005c0.0865 0.37403 0.19092 8.1051 0.23196 17.18l0.0747 16.5 0.85455 1.7403c1.0348 2.1073 2.3909 3.0969 4.8749 3.5574 2.6487 0.49097 4.9209-0.05913 6.5868-1.5947 2.3983-2.2107 2.345-1.7681 2.5248-20.953l0.15888-16.95h15.6v18c0 16.35-0.05 18.213-0.5457 20.326-2.0129 8.5802-8.0675 13.063-18.944 14.026-3.6744 0.32531-4.2323 0.32318-8.1098-0.03092zm-153.68-26.744 0.08-25.577l7.629-0.08027c5.9033-0.06211 7.6836 0.0058 7.8704 0.3 0.13275 0.20914 0.24344 8.784 0.24596 19.055 0.002 10.271 0.0383 18.705 0.0796 18.741 0.0412 0.03621 5.1375 0.13746 11.325 0.225l11.25 0.15916v12.6l-19.277 0.0772-19.277 0.07721 0.0767-25.577zm48.967 25.203c-0.0797-0.20904-0.11014-11.72-0.0675-25.58l0.0775-25.2h15.6v51l-7.7325 0.08008c-6.0239 0.06238-7.7645-0.0039-7.8775-0.3zm27.66 0.16992c-0.24987-0.24987-0.26746-49.975-0.0179-50.625 0.15968-0.41612 1.156-0.47454 8.0931-0.47454h7.911l0.51528 0.78641c0.2834 0.43252 3.5646 6.3886 7.2914 13.236 3.7269 6.8471 6.9069 12.433 7.0666 12.414 0.17976-0.02193 0.34765-5.0382 0.44048-13.161l0.15-13.125h14.7v51h-15.529l-7.5356-13.425c-4.1446-7.3836-7.6706-13.38-7.8356-13.325-0.19247 0.06395-0.32799 4.9028-0.37809 13.5l-0.0781 13.4h-7.2969c-4.0133 0-7.3869-0.09-7.4969-0.2zm112.07-0.34623c0.0799-0.3054 4.0286-6.2658 8.7749-13.245 4.7463-6.9795 8.6925-12.93 8.7693-13.224 0.0919-0.35136-2.6368-4.4805-7.9888-12.089-4.4706-6.3555-8.1283-11.7-8.1283-11.876 0-0.21967 2.8124-0.32011 8.9633-0.32011 7.9469 0 9.0099 0.05589 9.375 0.49289 0.22644 0.27109 1.9642 3.2748 3.8617 6.675s3.585 6.1697 3.75 6.1546c0.165-0.01515 1.9292-2.9851 3.9203-6.6l3.6204-6.5725 8.6408-0.07966c8.2604-0.07615 8.6345-0.05538 8.4967 0.47175-0.0793 0.30328-3.3146 5.1991-7.1896 10.88-3.875 5.6805-7.4162 10.893-7.8693 11.584l-0.82386 1.256 9.0273 13.367c4.965 7.3521 9.0273 13.438 9.0273 13.523 0 0.08567-4.2862 0.12012-9.525 0.07655l-9.525-0.07921-4.1257-7.2c-2.2691-3.96-4.2773-7.2-4.4627-7.2-0.18534 0-2.2563 3.24-4.6022 7.2l-4.2652 7.2-8.9333 0.07952c-8.5666 0.07625-8.9273 0.05672-8.7881-0.47575zm-178.67-59.654c-0.11-0.11-0.2-5.968-0.2-13.018 0-11.412-0.0521-12.838-0.47453-13-0.261-0.10015-2.4885-0.1821-4.95-0.1821h-4.4755v-2.1072l11.325 0.078608 11.325 0.078608v1.8l-4.7367 0.15c-3.7667 0.11928-4.7948 0.24215-5.0204 0.6-0.16653 0.26413-0.28563 5.6854-0.28832 13.125l-0.005 12.675h-1.15c-0.63251 0-1.24-0.09-1.35-0.2zm15.4-14.05v-14.284l1.275 0.092249 1.275 0.092249 0.15 6 0.15 6h16.8l0.0812-6.075 0.0812-6.075h2.6876v28.5h-2.6888l-0.0806-6.825-0.0806-6.825h-16.8l-0.15 6.75-0.15 6.75-1.275 0.09225-1.275 0.09225v-14.284zm28.337 13.875c-0.0791-0.20625-0.10859-6.585-0.0656-14.175l0.0782-13.8h19.8v1.8l-8.3363 0.15c-6.97 0.12542-8.3829 0.22375-8.6204 0.6-0.34086 0.53989-0.38454 8.9919-0.0492 9.5198 0.17408 0.27406 2.2508 0.39058 8.0204 0.45l7.7855 0.08019v2.1l-7.7855 0.08019c-5.7696 0.05942-7.8463 0.17594-8.0204 0.45-0.1292 0.2034-0.23698 2.5539-0.2395 5.2234-0.004 4.0166 0.0767 4.9349 0.46683 5.325 0.40566 0.40566 1.6195 0.47143 8.7 0.47143h8.2286v2.1h-9.9094c-7.6508 0-9.9422-0.08547-10.053-0.375z" fill="#708ca2"/>
  <path id="path3346" d="m182.4 129.7c-1.7827-0.35924-5.0363-2.2235-6.3711-3.6505-2.7261-2.9144-3.9732-6.4731-3.9611-11.303 0.0163-6.5017 2.7162-11.183 7.8314-13.58 1.6148-0.75648 2.0421-0.8202 5.5008-0.8202 3.5704 0 3.8434 0.0444 5.7 0.92711 2.5165 1.1964 3.7348 2.2471 5.1566 4.4468 2.286 3.5368 3.1133 8.3253 2.2094 12.787-1.0092 4.9808-3.3234 8.177-7.3084 10.094-2.0583 0.98999-2.5413 1.1001-5.1397 1.1718-1.5773 0.0435-3.2054 0.0111-3.6179-0.0721zm7.572-3.0102c2.811-1.2615 4.698-3.6837 5.7863-7.4276 0.72509-2.4942 0.49746-7.7504-0.43539-10.053-1.9662-4.8537-5.5003-7.1357-10.606-6.8482-2.9649 0.16696-4.7633 0.92926-6.6549 2.8208-3.8572 3.8572-4.6706 11.909-1.7457 17.283 2.5485 4.6824 8.5197 6.5298 13.656 4.225zm20.478 2.8045c-3.583-1.192-5.7818-3.284-6.7515-6.4236-0.54808-1.7745-0.59847-2.7938-0.59847-12.106v-10.168h2.4v9.2004c0 9.7263 0.22244 12.136 1.2973 14.052 1.5692 2.7975 5.2497 4.191 9.2214 3.4914 2.7716-0.48821 4.4179-1.6147 5.5267-3.7815l0.9046-1.7677 0.15-10.522 0.15-10.522 1.0185-0.0973c0.61255-0.0585 1.1189 0.0611 1.2704 0.3 0.36096 0.56932 0.31636 17.728-0.052 19.998-0.60923 3.7545-2.4989 6.3572-5.6416 7.7704-1.3648 0.61372-2.2804 0.78319-4.6954 0.86904-1.9666 0.0699-3.4134-0.0309-4.2-0.29258zm138.2-0.17677c-2.4079-0.89485-3.9644-1.9052-5.555-3.6056-4.2077-4.4984-5.0135-12.844-1.8258-18.91 1.3383-2.5467 3.1246-4.249 5.7782-5.5061 1.9178-0.90859 2.1652-0.94936 5.7607-0.94936 3.6502 0 3.8143 0.0283 5.7839 0.99818 4.8854 2.4056 7.5461 7.2579 7.5134 13.702-0.0332 6.5452-2.8211 11.422-7.8432 13.721-1.7221 0.7881-2.4418 0.93648-5.0109 1.033-2.4483 0.092-3.2945 0.003-4.6013-0.4824zm8.8637-2.7408c3.9057-1.8993 6.0876-6.1223 6.0876-11.782 0-5.2717-2.2751-9.5368-6.15-11.529-1.9614-1.0086-5.5861-1.2626-8.0005-0.56075-3.2552 0.94631-5.727 3.6285-6.8986 7.4856-0.52185 1.7181-0.60291 2.6225-0.49821 5.5589 0.11253 3.1563 0.21858 3.7068 1.0605 5.506 2.1609 4.6178 5.6626 6.7242 10.587 6.3684 1.3397-0.0968 2.5329-0.42437 3.8124-1.0466zm-357.51-35.941v-38.735l12.825 0.07822 12.825 0.07822 0.07667 25.69 0.07667 25.69 0.67333 0.18045c0.37033 0.0993 11.98 0.1823 25.798 0.18456l25.125 0.004v25.2h-38.225c-21.024 0-38.439 0.0819-38.7 0.1821-0.43167 0.18-0.475-3.34-0.475-38.541zm90.738 38.298c-0.07966-0.20757-0.10955-5.9798-0.06644-12.827l0.07839-12.45 6.3-0.15 6.3-0.15v-77.4h-77.4l-0.15 6.3-0.15 6.3-12.825 0.078-12.825 0.078v-38.706h129.3l-0.0757 64.575-0.0757 64.575-19.134 0.0772c-15.152 0.0612-19.164-0.001-19.278-0.30019zm61.199-0.002c-0.0791-0.20625-0.10859-6.585-0.0656-14.175l0.0782-13.8 8.9444-0.0795 8.9443-0.0795-0.0943 0.97949-0.0943 0.97956-7.5821 0.0802-7.5821 0.0802 0.0821 5.1698 0.0821 5.1698 6.6566 0.0807c6.1607 0.0747 6.6696 0.12182 6.8318 0.63274 0.0964 0.30363 0.0912 0.77102-0.0115 1.0386-0.16312 0.42507-1.027 0.4968-6.8318 0.56726l-6.6451 0.0807-0.0811 6.4266c-0.0521 4.1235-0.1996 6.5694-0.41174 6.825-0.41859 0.50438-2.0288 0.52133-2.2198 0.0234zm79.277 0.18922c-0.11782-0.11775-0.21421-6.5366-0.21421-14.264v-14.05h2.8712l8.0595 11.7c4.4327 6.435 8.2401 11.7 8.4608 11.7 0.32681 0 0.41588-2.1578 0.47982-11.625l0.0785-11.625 1.128-0.0933 1.1279-0.0933-0.0779 14.193-0.078 14.193-1.2155 0.0893c-0.87712 0.0645-1.3456-0.0608-1.6829-0.45-0.25709-0.29664-3.4766-4.9268-7.1546-10.289-7.6868-11.207-8.9074-12.9-9.3032-12.9-0.17619 0-0.31707 4.541-0.36528 11.775l-0.0785 11.775-0.91079 0.0892c-0.50093 0.0491-1.0072-0.007-1.125-0.125zm28.136-0.15577c-0.0861-0.22458-0.12142-6.6184-0.0784-14.208l0.0782-13.8 5.7-0.0904c8.3752-0.13286 11.051 0.57575 13.885 3.6769 2.4323 2.6614 3.6479 7.3014 3.219 12.288-0.53881 6.264-3.1054 10.013-7.9544 11.619-1.6762 0.55521-2.8446 0.6654-8.3216 0.78483-5.1945 0.11327-6.4005 0.0635-6.5282-0.26951zm13.5-2.4747c4.6592-1.4386 6.75-4.9488 6.75-11.332 0-3.384-0.39532-5.551-1.3593-7.4517-0.90544-1.7852-2.0086-2.7875-4.1907-3.8074-1.7503-0.81814-1.9408-0.84138-6.9-0.84196l-5.1-0.0006-0.0786 11.699c-0.0432 6.4346-0.006 11.888 0.082 12.118 0.22197 0.57846 8.6508 0.27907 10.797-0.38348zm11.254 2.2914c0.002-0.28875 2.487-6.6675 5.5218-14.175l5.5179-13.65h3.1274l5.3602 13.65c2.9481 7.5075 5.3621 13.886 5.3645 14.175 0.003 0.40057-0.24399 0.525-1.0432 0.525-1.2825 0-1.2882-0.009-3.2523-4.95l-1.5502-3.9-6.4835-0.0807c-4.9627-0.0618-6.5522 0.009-6.7764 0.3-0.16108 0.20941-0.94085 2.0682-1.7328 4.1307-0.79198 2.0625-1.5729 3.9188-1.7354 4.125-0.16247 0.20625-0.75137 0.375-1.3087 0.375-0.76652 0-1.0123-0.12785-1.0094-0.525zm17.826-10.843c0.15468-0.25024-4.1633-12.1-4.9337-13.539-0.20762-0.38794-0.46215-0.54713-0.62093-0.38835-0.49319 0.49319-5.399 13.401-5.2454 13.801 0.11685 0.30452 1.3416 0.39399 5.3929 0.39399 2.8829 0 5.3161-0.1204 5.407-0.26755zm14.718 11.012c-0.0812-0.21679-0.18156-6.1317-0.22293-13.144l-0.0752-12.75-4.95-0.15-4.95-0.15v-1.8l11.154-0.0786c11.033-0.0778 11.156-0.0719 11.35 0.5394 0.40782 1.2849-0.20793 1.4689-5.209 1.5568l-4.6945 0.0825-0.15 13.05-0.15 13.05-0.97707 0.0942c-0.60501 0.0583-1.0333-0.0559-1.1248-0.3zm15.597 0c-0.0831-0.21679-0.11595-6.6042-0.0729-14.194l0.0782-13.8 1.1279-0.0933 1.128-0.0933-0.078 14.193-0.0779 14.193-0.97707 0.0942c-0.6039 0.0582-1.0348-0.0564-1.1282-0.3zm38.629 0.009c-0.28689-0.28689-0.37353-3.4849-0.37353-13.789 0-7.3785 0.0819-13.629 0.1821-13.89 0.12705-0.33113 0.57276-0.47454 1.4748-0.47454 1.5948 0 0.89871-0.86601 10.321 12.84 4.0043 5.8246 7.436 10.538 7.6261 10.475 0.25095-0.0836 0.36705-3.2906 0.42405-11.715l0.0785-11.6h2.3988l-0.0779 14.175-0.0779 14.175-1.27 0.092c-1.503 0.10889-0.5235 1.3385-10.812-13.573-3.7498-5.4348-6.985-9.9342-7.1893-9.9988-0.29013-0.0917-0.38871 2.467-0.45 11.681l-0.0785 11.799-0.90147 0.0885c-0.49581 0.0487-1.0696-0.0796-1.275-0.285zm-67.11-38.973c-5.5265-0.8656-9.0378-2.4718-12.032-5.5039-2.3268-2.3563-3.4024-4.2824-4.4233-7.9212-0.62605-2.2314-0.65221-2.9392-0.74979-20.285-0.0817-14.514-0.026-18.02 0.28926-18.22 0.48899-0.31016 14.361-0.32978 14.847-0.021 0.26622 0.16927 0.38124 4.4378 0.45468 16.87 0.0975 16.509 0.10383 16.658 0.78141 18.345 1.2164 3.0298 3.4315 4.445 6.9575 4.445 2.527 0 3.8975-0.50102 5.2712-1.9271 2.2038-2.2879 2.2288-2.5241 2.2288-21.054 0-12.196 0.0889-16.284 0.36-16.555 0.57246-0.57245 14.745-0.50597 15.225 0.07141 0.27156 0.32723 0.32811 4.692 0.23418 18.075-0.13785 19.64-0.13911 19.653-2.2442 24.094-1.3073 2.7577-4.1554 5.7096-6.8984 7.15-1.0306 0.54119-3.1906 1.3281-4.8 1.7486-2.4984 0.65289-3.7154 0.7794-8.3261 0.86555-2.97 0.05549-6.1986-0.02418-7.1746-0.17705zm-151.77-1.0849c-0.12-0.111-0.21-11.493-0.21-25.292 0-19.114 0.0857-25.176 0.36-25.45 0.38056-0.38056 13.816-0.54243 14.765-0.1779 0.4256 0.16332 0.47501 2.1046 0.47913 18.825 0.002 10.254 0.1107 18.81 0.24038 19.014 0.17889 0.28165 2.9108 0.39025 11.32 0.45l11.085 0.07876v12.6l-18.923 0.07722c-10.408 0.04247-19.014-0.01377-19.125-0.125zm48.88-0.27676c-0.10015-0.26099-0.18209-11.641-0.18209-25.29 0-18.901 0.0858-24.901 0.36-25.175 0.51162-0.51162 14.668-0.51162 15.18 0 0.27419 0.2742 0.36 6.2745 0.36 25.175 0 13.649-0.082 25.029-0.1821 25.29-0.15941 0.4154-1.1274 0.47454-7.7679 0.47454s-7.6085-0.05913-7.7679-0.47454zm27.923 0.27984c-0.11291-0.11291-0.20529-11.576-0.20529-25.473 0-22.764 0.047-25.286 0.47453-25.45 0.67974-0.26084 14.907-0.21674 15.321 0.0475 0.19001 0.12122 3.5852 6.1559 7.5448 13.41 3.9596 7.2545 7.3479 13.239 7.5295 13.3 0.23696 0.07899 0.33023-3.6082 0.33023-13.055 0-9.8394 0.0909-13.256 0.36-13.525 0.25876-0.25876 2.2667-0.36 7.14-0.36s6.8812 0.10124 7.14 0.36c0.27419 0.2742 0.36 6.2745 0.36 25.175 0 13.649-0.082 25.029-0.1821 25.29-0.15928 0.41508-1.1152 0.47454-7.6296 0.47454h-7.4475l-0.57344-0.825c-0.31539-0.45375-3.5199-6.09-7.1211-12.525-7.3348-13.107-7.8334-13.95-8.247-13.95-0.18544 0-0.32187 4.9888-0.37124 13.575l-0.078 13.575-7.0697 0.0803c-3.8883 0.04417-7.1621-0.01209-7.275-0.125zm111.69-0.07264c0-0.14703 3.9281-6.0533 8.7292-13.125 9.6004-14.141 9.3773-13.793 9.1106-14.224-0.10332-0.16722-3.8172-5.4582-8.2531-11.758-5.5746-7.9167-7.9527-11.525-7.701-11.685 0.42573-0.27054 16.74-0.32693 17.435-0.06026 0.25851 0.0992 2.1077 3.1367 4.1094 6.75s3.8125 6.5696 4.024 6.5696c0.21153 0 1.9688-2.9074 3.905-6.4608s3.7636-6.5909 4.0608-6.75c0.65931-0.35284 15.867-0.38366 16.419-0.03327 0.28557 0.18115-1.7014 3.3109-7.4726 11.77-4.3239 6.338-7.9172 11.736-7.9851 11.995-0.11367 0.43463 17.123 26.399 17.677 26.628 0.1329 0.055 0.24162 0.22375 0.24162 0.375 0 0.45324-18.504 0.35539-18.912-0.1-0.18438-0.20625-2.1159-3.4786-4.2923-7.272-2.1764-3.7933-4.1581-6.9357-4.4038-6.983-0.30084-0.05793-1.7908 2.1967-4.5643 6.9068-2.2647 3.846-4.282 7.1571-4.4828 7.358-0.43887 0.43886-17.645 0.53427-17.645 0.09784zm-178.29-59.918c-0.11782-0.11782-0.21628-5.8955-0.21881-12.839-0.002-6.9437-0.10954-12.79-0.2378-12.992-0.16413-0.25834-1.6513-0.39163-5.0204-0.45l-4.7872-0.082934v-1.8l11.142-0.078618c10.129-0.071477 11.159-0.033575 11.332 0.41726 0.10466 0.27273 0.11168 0.74356 0.0156 1.0463-0.15848 0.49935-0.62515 0.55803-5.0318 0.63274l-4.8571 0.082346-0.15 13.05-0.15 13.05-0.91078 0.08922c-0.50093 0.04907-1.0072-0.0072-1.125-0.125zm15.223-0.18922c-0.0791-0.20625-0.10859-6.585-0.0656-14.175l0.0782-13.8 1.0186-0.097255c0.61255-0.05849 1.1189 0.061088 1.2704 0.3 0.13853 0.21849 0.25394 2.996 0.25646 6.1723l0.005 5.775h17.088l0.0812-6.075 0.0812-6.075h2.4v28.2h-2.4l-0.15-6.75-0.15-6.75-8.475-0.07967-8.475-0.07967v6.4301c0 3.5366-0.0819 6.6437-0.18209 6.9047-0.22088 0.5756-2.1668 0.65696-2.3805 0.09954zm28.502 0.0042c-0.0799-0.20854-0.11019-6.5892-0.0672-14.179l0.0782-13.8h19.2v1.8l-8.4 0.15-8.4 0.15v10.2l7.7676 0.15c6.9734 0.13466 7.8015 0.20368 8.0985 0.675 0.24112 0.38262 0.24112 0.66738 0 1.05-0.297 0.47132-1.1251 0.54034-8.0985 0.675l-7.7676 0.15v11.1l8.55 0.15 8.55 0.15v1.8l-9.6828 0.07917c-7.5848 0.06201-9.7143-0.003-9.8282-0.3z" fill="#1899d5"/>
  <path id="path3344" d="m182.4 129.7c-1.7827-0.35924-5.0363-2.2235-6.3711-3.6505-2.7261-2.9144-3.9732-6.4731-3.9611-11.303 0.0163-6.5017 2.7162-11.183 7.8314-13.58 1.6148-0.75648 2.0421-0.8202 5.5008-0.8202 3.5704 0 3.8434 0.0444 5.7 0.92711 2.5165 1.1964 3.7348 2.2471 5.1566 4.4468 2.286 3.5368 3.1133 8.3253 2.2094 12.787-1.0092 4.9808-3.3234 8.177-7.3084 10.094-2.0583 0.98999-2.5413 1.1001-5.1397 1.1718-1.5773 0.0435-3.2054 0.0111-3.6179-0.0721zm7.572-3.0102c2.811-1.2615 4.698-3.6837 5.7863-7.4276 0.72509-2.4942 0.49746-7.7504-0.43539-10.053-1.9662-4.8537-5.5003-7.1357-10.606-6.8482-2.9649 0.16696-4.7633 0.92926-6.6549 2.8208-3.8572 3.8572-4.6706 11.909-1.7457 17.283 2.5485 4.6824 8.5197 6.5298 13.656 4.225zm20.478 2.8045c-3.583-1.192-5.7818-3.284-6.7515-6.4236-0.54808-1.7745-0.59847-2.7938-0.59847-12.106v-10.168h2.4v9.2004c0 9.7263 0.22244 12.136 1.2973 14.052 1.5692 2.7975 5.2497 4.191 9.2214 3.4914 2.7716-0.48821 4.4179-1.6147 5.5267-3.7815l0.9046-1.7677 0.15-10.522 0.15-10.522 1.0185-0.0973c0.61255-0.0585 1.1189 0.0611 1.2704 0.3 0.36096 0.56932 0.31636 17.728-0.052 19.998-0.60923 3.7545-2.4989 6.3572-5.6416 7.7704-1.3648 0.61372-2.2804 0.78319-4.6954 0.86904-1.9666 0.0699-3.4134-0.0309-4.2-0.29258zm138.2-0.17677c-2.4079-0.89485-3.9644-1.9052-5.555-3.6056-4.2077-4.4984-5.0135-12.844-1.8258-18.91 1.3383-2.5467 3.1246-4.249 5.7782-5.5061 1.9178-0.90859 2.1652-0.94936 5.7607-0.94936 3.6502 0 3.8143 0.0283 5.7839 0.99818 4.8854 2.4056 7.5461 7.2579 7.5134 13.702-0.0332 6.5452-2.8211 11.422-7.8432 13.721-1.7221 0.7881-2.4418 0.93648-5.0109 1.033-2.4483 0.092-3.2945 0.003-4.6013-0.4824zm8.8637-2.7408c3.9057-1.8993 6.0876-6.1223 6.0876-11.782 0-5.2717-2.2751-9.5368-6.15-11.529-1.9614-1.0086-5.5861-1.2626-8.0005-0.56075-3.2552 0.94631-5.727 3.6285-6.8986 7.4856-0.52185 1.7181-0.60291 2.6225-0.49821 5.5589 0.11253 3.1563 0.21858 3.7068 1.0605 5.506 2.1609 4.6178 5.6626 6.7242 10.587 6.3684 1.3397-0.0968 2.5329-0.42437 3.8124-1.0466zm-266.77 2.3466c-0.07966-0.20757-0.10955-5.9798-0.06644-12.827l0.07839-12.45 6.3-0.15 6.3-0.15v-77.4h-77.4l-0.15 6.3-0.15 6.3-12.827 0.088-12.825 0.078v-38.706h129.3l-0.0757 64.575-0.0757 64.575-19.134 0.0772c-15.152 0.0612-19.164-0.001-19.278-0.30019zm61.199-0.002c-0.0791-0.20625-0.10859-6.585-0.0656-14.175l0.0782-13.8 8.9444-0.0795 8.9443-0.0795-0.0943 0.97949-0.0943 0.97956-7.5821 0.0802-7.5821 0.0802 0.0821 5.1698 0.0821 5.1698 6.6566 0.0807c6.1607 0.0747 6.6696 0.12182 6.8318 0.63274 0.0964 0.30363 0.0912 0.77102-0.0115 1.0386-0.16312 0.42507-1.027 0.4968-6.8318 0.56726l-6.6451 0.0807-0.0811 6.4266c-0.0521 4.1235-0.1996 6.5694-0.41174 6.825-0.41859 0.50438-2.0288 0.52133-2.2198 0.0234zm79.277 0.18922c-0.11782-0.11775-0.21421-6.5366-0.21421-14.264v-14.05h2.8712l8.0595 11.7c4.4327 6.435 8.2401 11.7 8.4608 11.7 0.32681 0 0.41588-2.1578 0.47982-11.625l0.0785-11.625 1.128-0.0933 1.1279-0.0933-0.0779 14.193-0.078 14.193-1.2155 0.0893c-0.87712 0.0645-1.3456-0.0608-1.6829-0.45-0.25709-0.29664-3.4766-4.9268-7.1546-10.289-7.6868-11.207-8.9074-12.9-9.3032-12.9-0.17619 0-0.31707 4.541-0.36528 11.775l-0.0785 11.775-0.91079 0.0892c-0.50093 0.0491-1.0072-0.007-1.125-0.125zm28.136-0.15577c-0.0861-0.22458-0.12142-6.6184-0.0784-14.208l0.0782-13.8 5.7-0.0904c8.3752-0.13286 11.051 0.57575 13.885 3.6769 2.4323 2.6614 3.6479 7.3014 3.219 12.288-0.53881 6.264-3.1054 10.013-7.9544 11.619-1.6762 0.55521-2.8446 0.6654-8.3216 0.78483-5.1945 0.11327-6.4005 0.0635-6.5282-0.26951zm13.5-2.4747c4.6592-1.4386 6.75-4.9488 6.75-11.332 0-3.384-0.39532-5.551-1.3593-7.4517-0.90544-1.7852-2.0086-2.7875-4.1907-3.8074-1.7503-0.81814-1.9408-0.84138-6.9-0.84196l-5.1-0.0006-0.0786 11.699c-0.0432 6.4346-0.006 11.888 0.082 12.118 0.22197 0.57846 8.6508 0.27907 10.797-0.38348zm11.254 2.2914c0.002-0.28875 2.487-6.6675 5.5218-14.175l5.5179-13.65h3.1274l5.3602 13.65c2.9481 7.5075 5.3621 13.886 5.3645 14.175 0.003 0.40057-0.24399 0.525-1.0432 0.525-1.2825 0-1.2882-0.009-3.2523-4.95l-1.5502-3.9-6.4835-0.0807c-4.9627-0.0618-6.5522 0.009-6.7764 0.3-0.16108 0.20941-0.94085 2.0682-1.7328 4.1307-0.79198 2.0625-1.5729 3.9188-1.7354 4.125-0.16247 0.20625-0.75137 0.375-1.3087 0.375-0.76652 0-1.0123-0.12785-1.0094-0.525zm17.826-10.843c0.15468-0.25024-4.1633-12.1-4.9337-13.539-0.20762-0.38794-0.46215-0.54713-0.62093-0.38835-0.49319 0.49319-5.399 13.401-5.2454 13.801 0.11685 0.30452 1.3416 0.39399 5.3929 0.39399 2.8829 0 5.3161-0.1204 5.407-0.26755zm14.718 11.012c-0.0812-0.21679-0.18156-6.1317-0.22293-13.144l-0.0752-12.75-4.95-0.15-4.95-0.15v-1.8l11.154-0.0786c11.033-0.0778 11.156-0.0719 11.35 0.5394 0.40782 1.2849-0.20793 1.4689-5.209 1.5568l-4.6945 0.0825-0.15 13.05-0.15 13.05-0.97707 0.0942c-0.60501 0.0583-1.0333-0.0559-1.1248-0.3zm15.597 0c-0.0831-0.21679-0.11595-6.6042-0.0729-14.194l0.0782-13.8 1.1279-0.0933 1.128-0.0933-0.078 14.193-0.0779 14.193-0.97707 0.0942c-0.6039 0.0582-1.0348-0.0564-1.1282-0.3zm38.629 0.009c-0.28689-0.28689-0.37353-3.4849-0.37353-13.789 0-7.3785 0.0819-13.629 0.1821-13.89 0.12705-0.33113 0.57276-0.47454 1.4748-0.47454 1.5948 0 0.89871-0.86601 10.321 12.84 4.0043 5.8246 7.436 10.538 7.6261 10.475 0.25095-0.0836 0.36705-3.2906 0.42405-11.715l0.0785-11.6h2.3988l-0.0779 14.175-0.0779 14.175-1.27 0.092c-1.503 0.10889-0.5235 1.3385-10.812-13.573-3.7498-5.4348-6.985-9.9342-7.1893-9.9988-0.29013-0.0917-0.38871 2.467-0.45 11.681l-0.0785 11.799-0.90147 0.0885c-0.49581 0.0487-1.0696-0.0796-1.275-0.285zm-67.11-38.963c-5.5265-0.8656-9.0378-2.4718-12.032-5.5039-2.3268-2.3563-3.4024-4.2824-4.4233-7.9212-0.62605-2.2314-0.65221-2.9392-0.74979-20.285-0.0817-14.514-0.026-18.02 0.28926-18.22 0.48899-0.31016 14.361-0.32978 14.847-0.021 0.26622 0.16927 0.38124 4.4378 0.45468 16.87 0.0975 16.509 0.10383 16.658 0.78141 18.345 1.2164 3.0298 3.4315 4.445 6.9575 4.445 2.527 0 3.8975-0.50102 5.2712-1.9271 2.2038-2.2879 2.2288-2.5241 2.2288-21.054 0-12.196 0.0889-16.284 0.36-16.555 0.57246-0.57245 14.745-0.50597 15.225 0.07141 0.27156 0.32723 0.32811 4.692 0.23418 18.075-0.13785 19.64-0.13911 19.653-2.2442 24.094-1.3073 2.7577-4.1554 5.7096-6.8984 7.15-1.0306 0.54119-3.1906 1.3281-4.8 1.7486-2.4984 0.65289-3.7154 0.7794-8.3261 0.86555-2.97 0.05549-6.1986-0.02418-7.1746-0.17705zm-151.77-1.0849c-0.12-0.111-0.21-11.493-0.21-25.292 0-19.114 0.0857-25.176 0.36-25.45 0.38056-0.38056 13.816-0.54243 14.765-0.1779 0.4256 0.16332 0.47501 2.1046 0.47913 18.825 0.002 10.254 0.1107 18.81 0.24038 19.014 0.17889 0.28165 2.9108 0.39025 11.32 0.45l11.085 0.07876v12.6l-18.923 0.07722c-10.408 0.04247-19.014-0.01377-19.125-0.125zm48.88-0.27676c-0.10015-0.26099-0.18209-11.641-0.18209-25.29 0-18.901 0.0858-24.901 0.36-25.175 0.51162-0.51162 14.668-0.51162 15.18 0 0.27419 0.2742 0.36 6.2745 0.36 25.175 0 13.649-0.082 25.029-0.1821 25.29-0.15941 0.4154-1.1274 0.47454-7.7679 0.47454s-7.6085-0.05913-7.7679-0.47454zm27.923 0.27984c-0.11291-0.11291-0.20529-11.576-0.20529-25.473 0-22.764 0.047-25.286 0.47453-25.45 0.67974-0.26084 14.907-0.21674 15.321 0.0475 0.19001 0.12122 3.5852 6.1559 7.5448 13.41 3.9596 7.2545 7.3479 13.239 7.5295 13.3 0.23696 0.07899 0.33023-3.6082 0.33023-13.055 0-9.8394 0.0909-13.256 0.36-13.525 0.25876-0.25876 2.2667-0.36 7.14-0.36s6.8812 0.10124 7.14 0.36c0.27419 0.2742 0.36 6.2745 0.36 25.175 0 13.649-0.082 25.029-0.1821 25.29-0.15928 0.41508-1.1152 0.47454-7.6296 0.47454h-7.4475l-0.57344-0.825c-0.31539-0.45375-3.5199-6.09-7.1211-12.525-7.3348-13.107-7.8334-13.95-8.247-13.95-0.18544 0-0.32187 4.9888-0.37124 13.575l-0.078 13.575-7.0697 0.0803c-3.8883 0.04417-7.1621-0.01209-7.275-0.125zm111.69-0.07264c0-0.14703 3.9281-6.0533 8.7292-13.125 9.6004-14.141 9.3773-13.793 9.1106-14.224-0.10332-0.16722-3.8172-5.4582-8.2531-11.758-5.5746-7.9167-7.9527-11.525-7.701-11.685 0.42573-0.27054 16.74-0.32693 17.435-0.06026 0.25851 0.0992 2.1077 3.1367 4.1094 6.75s3.8125 6.5696 4.024 6.5696c0.21153 0 1.9688-2.9074 3.905-6.4608s3.7636-6.5909 4.0608-6.75c0.65931-0.35284 15.867-0.38366 16.419-0.03327 0.28557 0.18115-1.7014 3.3109-7.4726 11.77-4.3239 6.338-7.9172 11.736-7.9851 11.995-0.11367 0.43463 17.123 26.399 17.677 26.628 0.1329 0.055 0.24162 0.22375 0.24162 0.375 0 0.45324-18.504 0.35539-18.912-0.1-0.18438-0.20625-2.1159-3.4786-4.2923-7.272-2.1764-3.7933-4.1581-6.9357-4.4038-6.983-0.30084-0.05793-1.7908 2.1967-4.5643 6.9068-2.2647 3.846-4.282 7.1571-4.4828 7.358-0.43887 0.43886-17.645 0.53427-17.645 0.09784zm-178.29-59.918c-0.11782-0.11782-0.21628-5.8955-0.21881-12.839-0.002-6.9437-0.10954-12.79-0.2378-12.992-0.16413-0.25834-1.6513-0.39163-5.0204-0.45l-4.7872-0.082934v-1.8l11.142-0.078618c10.129-0.071477 11.159-0.033575 11.332 0.41726 0.10466 0.27273 0.11168 0.74356 0.0156 1.0463-0.15848 0.49935-0.62515 0.55803-5.0318 0.63274l-4.8571 0.082346-0.15 13.05-0.15 13.05-0.91078 0.08922c-0.50093 0.04907-1.0072-0.0072-1.125-0.125zm15.223-0.18922c-0.0791-0.20625-0.10859-6.585-0.0656-14.175l0.0782-13.8 1.0186-0.097255c0.61255-0.05849 1.1189 0.061088 1.2704 0.3 0.13853 0.21849 0.25394 2.996 0.25646 6.1723l0.005 5.775h17.088l0.0812-6.075 0.0812-6.075h2.4v28.2h-2.4l-0.15-6.75-0.15-6.75-8.475-0.07967-8.475-0.07967v6.4301c0 3.5366-0.0819 6.6437-0.18209 6.9047-0.22088 0.5756-2.1668 0.65696-2.3805 0.09954zm28.502 0.0042c-0.0799-0.20854-0.11019-6.5892-0.0672-14.179l0.0782-13.8h19.2v1.8l-8.4 0.15-8.4 0.15v10.2l7.7676 0.15c6.9734 0.13466 7.8015 0.20368 8.0985 0.675 0.24112 0.38262 0.24112 0.66738 0 1.05-0.297 0.47132-1.1251 0.54034-8.0985 0.675l-7.7676 0.15v11.1l8.55 0.15 8.55 0.15v1.8l-9.6828 0.07917c-7.5848 0.06201-9.7143-0.003-9.8282-0.3z" fill="#4e718c"/>
  <path id="path3342" d="m182.85 129.72c-2.2896-0.57518-5.1842-2.2422-6.7283-3.875-5.2964-5.6002-5.2414-16.564 0.10992-21.912 2.8593-2.8576 7.247-4.1762 11.476-3.4489 6.6521 1.1442 10.42 5.86 10.8 13.516 0.18523 3.7363-0.32559 6.3626-1.7615 9.0567-1.1706 2.1962-3.9319 4.8008-5.8541 5.5218-0.79283 0.2974-1.5229 0.65854-1.6224 0.80253-0.20305 0.29381-5.4878 0.57273-6.4191 0.33879zm7.415-2.9151c7.0343-3.4416 8.455-15.887 2.4976-21.879-0.6669-0.67074-1.955-1.5684-2.8625-1.9947-2.2462-1.0553-6.5879-1.1149-8.7652-0.12028-4.4746 2.044-7.1831 7.3544-6.7471 13.228 0.32013 4.3123 1.9169 7.7183 4.5622 9.7311 2.1065 1.6029 3.658 2.0378 6.9168 1.9391 2.248-0.0681 3.007-0.22425 4.3982-0.90492zm20.86 2.8989c-0.45375-0.0789-0.825-0.24812-0.825-0.37604s-0.55226-0.39804-1.2272-0.60027c-1.8193-0.54508-4.2297-3.0444-5.0895-5.2773-0.67434-1.7512-0.69366-2.0805-0.71321-12.15l-0.0201-10.35h2.1l0.15448 10.65c0.16781 11.569 0.1787 11.646 1.9722 13.777 1.2579 1.4949 2.9447 2.2028 5.631 2.3632 4.6235 0.27599 7.4003-1.1254 8.9243-4.5038 0.6984-1.5482 0.71919-1.8346 0.8668-11.936l0.15124-10.35h1.8v21.3l-0.77704 1.65c-1.1316 2.4028-2.1151 3.4097-4.5519 4.66-1.9598 1.0055-2.4338 1.1224-4.871 1.2005-1.485 0.0476-3.0712 0.022-3.525-0.0569zm138.75-0.002c-0.53625-0.0768-0.975-0.24469-0.975-0.37311 0-0.12843-0.51522-0.38788-1.145-0.57654-1.7668-0.52936-4.3748-2.5669-5.5277-4.3186-1.7693-2.6882-2.3948-4.7698-2.5492-8.4833-0.22743-5.4695 1.1273-9.4699 4.1712-12.317 4.8206-4.5091 13.391-4.4216 17.996 0.18368 4.3085 4.3085 5.4283 12.785 2.4838 18.803-1.0159 2.0764-3.3338 4.582-4.97 5.3722-0.71997 0.34775-1.7815 0.86518-2.359 1.1498-1.0652 0.52506-5.1347 0.84481-7.125 0.55982zm7.5672-2.7971c3.019-1.463 5.2064-4.4996 6.0257-8.3652 1.4216-6.7066-1.3026-13.402-6.3902-15.705-1.1281-0.51066-2.0258-0.64967-4.2777-0.66239-2.4716-0.014-3.075 0.089-4.5444 0.77518-4.1445 1.9355-6.5605 6.3937-6.552 12.091 0.009 6.17 2.8582 10.802 7.5937 12.347 2.0183 0.65831 6.3184 0.40463 8.1449-0.48051zm-266.54-10.504v-12.6h6.1133c4.7818 0 6.1869-0.0887 6.4511-0.40711 0.24751-0.29823 0.31751-10.709 0.26173-38.925l-0.0761-38.518h-78l-0.08109 6.225-0.08109 6.225h-12.269c-6.7482 0-12.483 0.08194-12.744 0.1821-0.43416 0.165-0.479-1.649-0.479-19.2v-19.382h64.682c58.858 0 64.668 0.042725 64.498 0.47454-0.1 0.26099-0.18 29.286-0.18 64.5v64.025h-38.1v-12.6zm61.272-1.425 0.078-14.025h17.4v1.5l-7.65 0.16298c-4.2075 0.0896-7.6838 0.19089-7.725 0.225-0.0413 0.0341-0.075 2.33-0.075 5.102 0 3.52 0.10857 5.1486 0.36 5.4 0.25805 0.25805 2.2178 0.36 6.9199 0.36h6.5599l-0.0949 0.825-0.0949 0.825-6.75 0.15-6.75 0.15-0.0807 6.675-0.0807 6.675h-2.0944l0.078-14.025zm78.965 13.65c-0.0791-0.20625-0.10859-6.5175-0.0656-14.025l0.0782-13.65 1.05-0.0884c0.5775-0.0486 1.2675 0.0864 1.5333 0.3 0.26583 0.21359 4.0331 5.558 8.3718 11.876 5.5048 8.0167 8.033 11.46 8.3667 11.396 0.42481-0.0817 0.49499-1.3986 0.62824-11.788l0.15-11.696h1.8v27.9h-2.6998l-8.1001-11.774c-5.2665-7.6549-8.2575-11.746-8.5501-11.696-0.38946 0.0672-0.46056 1.6613-0.52849 11.849l-0.0785 11.771h-0.90593c-0.49827 0-0.97064-0.16875-1.0497-0.375zm28.435-13.621 0.078-14.054 4.65-0.0887c2.5575-0.0488 5.7258 0.0535 7.0406 0.2274 7.5098 0.99308 11.069 6.0961 10.574 15.159-0.35616 6.5162-2.5044 9.984-7.3712 11.899-1.5267 0.60077-2.3509 0.67842-8.3714 0.78872l-6.678 0.12234 0.078-14.054zm14.101 11.466c1.9272-0.71085 4.1994-2.813 4.9656-4.594 0.92817-2.1576 1.3642-5.227 1.1803-8.3091-0.36935-6.1907-2.8024-9.4381-7.8769-10.513-2.6017-0.5511-9.4604-0.61542-9.9822-0.0936-0.26774 0.26774-0.36 3.3689-0.36 12.1 0 6.457 0.10125 11.842 0.225 11.967 0.12375 0.12496 2.52 0.16877 5.325 0.0973 3.8626-0.0983 5.4453-0.25721 6.5233-0.65479zm10.513 2.139c0.89066-2.321 10.846-26.887 11.056-27.284 0.19309-0.36364 0.6411-0.525 1.4577-0.525 0.81632 0 1.2648 0.16147 1.4583 0.525 0.20404 0.38343 8.787 22.153 10.704 27.15 0.16809 0.4381 0.0285 0.525-0.84393 0.525-0.57495 0-1.1702-0.16875-1.3228-0.375-0.15264-0.20625-0.92946-2.0625-1.7263-4.125-0.79683-2.0625-1.6593-3.9188-1.9166-4.125-0.56709-0.4546-12.242-0.52957-12.953-0.0832-0.2475 0.15545-1.1925 2.1446-2.1 4.4204l-1.65 4.1378-1.165 0.0955c-0.91514 0.075-1.1294 0.003-0.99909-0.33677zm17.44-10.291c0.261-0.10015 0.47454-0.39342 0.47454-0.6517 0-0.70714-4.7844-13.357-5.2218-13.806-0.31163-0.32008-0.43384-0.32008-0.68119 0-0.16578 0.21453-1.4737 3.4098-2.9065 7.1006-2.03 5.2292-2.5291 6.802-2.2611 7.125 0.2669 0.32159 1.4394 0.41446 5.2327 0.41446 2.6888 0 5.1023-0.0819 5.3633-0.1821zm15.023 10.326c-0.0812-0.21679-0.18156-6.1317-0.22293-13.144l-0.0752-12.75-4.8942-0.0825-4.8942-0.0825 0.0942-0.81747 0.0942-0.81748h21.9l0.0942 0.81748 0.0942 0.81747-4.8942 0.0825-4.8942 0.0825-0.15 13.05-0.15 13.05-0.97707 0.0942c-0.60501 0.0583-1.0333-0.0559-1.1248-0.3zm15.824-13.65 0.078-14.044h1.8v27.9l-0.97797 0.0942-0.978 0.0942 0.078-14.044zm38.4-0.0192 0.078-14.025 1.113-0.0924c0.82086-0.0682 1.2484 0.0656 1.6285 0.50959 0.2835 0.33109 3.9846 5.6377 8.2247 11.792 4.2401 6.1547 7.927 11.234 8.193 11.287 0.43734 0.0871 0.49125-1.0348 0.56223-11.7l0.0785-11.796h2.1v27.9l-1.2531 0.0912c-1.5144 0.11019-0.84192 0.94931-10.292-12.841-3.6746-5.3625-6.9204-10.003-7.2129-10.311-0.2925-0.30877-0.68046-0.46955-0.86208-0.35729-0.23121 0.14289-0.33027 3.7082-0.33027 11.886v11.682h-2.106l0.078-14.025zm-64.92-24.996c-8.9168-0.82544-14.499-4.0449-17.176-9.906-1.8321-4.0114-1.7979-3.5879-1.9046-23.619l-0.0979-18.38 7.588 0.08018 7.588 0.08018 0.15 16.95 0.15 16.95 0.71289 1.5772c0.91503 2.0244 2.3065 3.2309 4.4427 3.8519 3.1648 0.92003 6.7129 0.03658 8.3211-2.0719 1.8293-2.3984 1.802-2.1145 1.9697-20.457l0.15357-16.8 7.592-0.08019 7.592-0.08019-0.11277 18.23c-0.12396 20.045-0.11466 19.935-2.0438 23.978-1.0483 2.1965-3.5642 5.0465-5.6185 6.3648-4.1051 2.6342-12.044 4.0045-19.306 3.3322zm-153.85-26.547v-25.357l7.575 0.08015 7.575 0.08015 0.0772 18.975c0.0425 10.436 0.10998 19.005 0.15 19.041 0.04 0.03621 5.1353 0.13746 11.323 0.225l11.25 0.15916v12l-18.975 0.07724-18.975 0.07724v-25.357zm48.973 0.07791 0.0767-25.275h15l0.0767 25.275 0.0767 25.275h-15.307l0.0767-25.275zm27.665 24.9c-0.0787-0.20625-0.1082-11.58-0.0656-25.275l0.0775-24.9h15.807l7.2658 13.35c4.3664 8.0228 7.4376 13.35 7.6963 13.35 0.36645 0 0.44214-1.9987 0.50861-13.43l0.0781-13.43 7.1219 0.08042 7.1219 0.08042 0.0767 25.275 0.0767 25.275-7.5767-0.0058-7.5767-0.0058-7.65-13.651c-5.3271-9.5062-7.7866-13.625-8.1-13.565-0.39072 0.07484-0.46029 1.874-0.52806 13.657l-0.0781 13.571h-7.0564c-5.3688 0-7.0906-0.08969-7.1994-0.375zm112.06 0.19896c0-0.09682 3.994-6.0591 8.8755-13.249 6.2898-9.2646 8.8391-13.256 8.7504-13.699-0.0688-0.34407-3.7219-5.7274-8.1179-11.963-4.9476-7.0179-7.8514-11.392-7.6216-11.48 0.20418-0.07836 4.202-0.10657 8.884-0.06268l8.5127 0.07979 3.6975 6.6c2.4364 4.3488 3.8628 6.6 4.182 6.6 0.32121 0 1.638-2.1114 3.9077-6.2654 1.8828-3.446 3.5762-6.4497 3.7632-6.675 0.27213-0.32789 1.9785-0.4096 8.5532-0.4096 4.5173 0 8.2133 0.08099 8.2133 0.17997s-3.5882 5.4412-7.9738 11.872c-4.3856 6.4305-7.9042 11.873-7.8191 12.095 0.085 0.22166 4.0782 6.2088 8.8738 13.305 4.7955 7.096 8.7191 12.98 8.7191 13.075 0 0.09544-4.0936 0.17353-9.097 0.17353h-9.097l-4.178-7.272c-2.2979-3.9996-4.3841-7.3112-4.6361-7.3591-0.31581-0.06007-1.8069 2.1984-4.8 7.2703l-4.3419 7.3574-8.625 0.0018c-4.7438 0.0009-8.625-0.07752-8.625-0.17434zm-178.6-60.024c-0.11-0.11-0.2-5.968-0.2-13.018 0-11.411-0.05-12.838-0.47-13-0.261-0.10015-2.4885-0.1821-4.95-0.1821h-4.4755v-1.5h22.2v1.5h-4.6286c-3.8078 0-4.7122 0.083598-5.1 0.47143-0.42 0.4139-0.48 2.0287-0.48 13.2v12.729h-0.84999c-0.46751 0-0.94001-0.09-1.05-0.2zm15.4-13.75v-13.95h2.0876l0.0812 6.075 0.0812 6.075 8.5294 0.07976c6.6238 0.06194 8.5832-0.0051 8.7704-0.3 0.13258-0.20887 0.24313-2.9785 0.24565-6.1548l0.005-5.775h2.1v27.9h-2.1v-6.54c0-4.6867-0.10201-6.642-0.36-6.9-0.26203-0.26204-2.5412-0.36-8.3755-0.36-4.4085 0-8.229 0.08194-8.49 0.1821-0.41316 0.15855-0.47454 1.0509-0.47454 6.9v6.7179h-2.1v-13.95zm28.337 13.575c-0.0791-0.20625-0.10861-6.45-0.0656-13.875l0.0782-13.5h9.6c9.4 0 9.6 0.0125 9.6 0.6 0 0.58201-0.25 0.6045-8.3363 0.75-6.97 0.12542-8.3829 0.22375-8.6204 0.6-0.46599 0.73809-0.37173 9.7614 0.10611 10.158 0.26249 0.21785 3.0133 0.35899 8.025 0.41173l7.6256 0.08026v1.5l-7.6256 0.08026c-5.0117 0.05275-7.7625 0.19388-8.025 0.41173-0.30439 0.25262-0.3994 1.5666-0.3994 5.5233 0 4.3199 0.0792 5.271 0.47142 5.6633 0.40566 0.40566 1.6195 0.47143 8.7 0.47143h8.2286v1.5h-9.6094c-7.4108 0-9.6423-0.0858-9.7532-0.375z" fill="#214d6f"/>
  <path id="path3340" d="m182.7 129.6c-0.60114-0.12653-0.7935-0.24479-0.45-0.27664 0.33-0.0306-0.16458-0.30015-1.0991-0.59901-2.1997-0.70347-3.4926-1.5185-4.9958-3.1493-2.6542-2.8795-3.7968-6.579-3.575-11.575 0.28444-6.4064 3.0116-10.661 8.1416-12.701 2.2578-0.89788 7.1696-0.86187 9.5538 0.07 4.9332 1.9282 7.6654 6.2694 7.9531 12.637 0.16535 3.6592-0.18516 5.7156-1.4189 8.3243-1.5335 3.2425-3.8927 5.3493-7.1608 6.3945-0.9345 0.29886-1.4291 0.56617-1.0991 0.59402 0.33 0.0278 0.06 0.16233-0.6 0.29884-1.4323 0.29626-3.7976 0.2885-5.25-0.0172zm7.2527-2.3167c6.7382-3.0256 9.0178-14.272 4.2789-21.11-3.2037-4.623-10.117-5.7794-15.046-2.5169-4.8528 3.2119-6.628 11.873-3.7018 18.06 1.4216 3.0059 3.2649 4.7638 6.0965 5.8139 2.1287 0.78944 6.3405 0.66504 8.3724-0.24728zm21.397 2.3862c-0.79423-0.12403-0.82949-0.16916-0.3-0.38397 0.54629-0.22163 0.53286-0.2459-0.15-0.27109-2.0607-0.076-5.0033-2.2515-6.1762-4.5662-1.1002-2.1711-1.3574-5.1591-1.2608-14.648l0.087-8.55h1.5l0.15 10.35c0.14614 10.084 0.16824 10.39 0.86086 11.922 1.4884 3.2924 4.3599 4.7566 8.8647 4.5202 4.5544-0.23904 7.176-2.5342 7.9461-6.9566 0.18881-1.0842 0.3283-5.7305 0.3283-10.936v-9.0504h1.5286l-0.0893 10.606-0.0893 10.606-1.0524 2.0688c-1.1683 2.2967-2.8193 3.6675-5.3586 4.4494-0.79254 0.24403-1.1313 0.45145-0.78894 0.48307 0.33 0.0305 0.06 0.16709-0.6 0.3036-1.2679 0.26225-3.8929 0.2877-5.4 0.0523zm138.6 0c-0.79422-0.12403-0.82947-0.16916-0.3-0.38397 0.5457-0.22139 0.53211-0.24559-0.15-0.26743-2.1205-0.0679-6.1121-2.9671-7.6067-5.525-2.5478-4.3604-2.7177-11.715-0.37707-16.323 2.4279-4.7798 7.724-7.3275 13.405-6.4482 5.3472 0.82767 9.0032 4.4265 10.365 10.203 0.63405 2.6891 0.40794 7.3013-0.48423 9.8771-1.3149 3.7962-4.2129 6.7831-7.6519 7.8866-0.99 0.31767-1.53 0.6007-1.2 0.62894 0.33 0.0282 0.06 0.16305-0.6 0.29956-1.2679 0.26225-3.8929 0.2877-5.4 0.0523zm6.3809-2.0539c4.8238-1.5579 7.7216-6.4127 7.6794-12.866-0.0425-6.5109-3.1946-11.265-8.3484-12.59-5.2804-1.3581-10.216 0.81153-12.615 5.5455-2.7179 5.3636-1.9696 12.98 1.6624 16.92 2.2912 2.4857 4.4525 3.4211 7.9809 3.4542 1.207 0.0113 2.7946-0.19117 3.6404-0.46431zm-265.13-11.216v-12.3h5.9786c5.0351 0 6.053-0.0744 6.45-0.47143 0.42367-0.42367 0.47143-4.3686 0.47143-38.94 0-29.52-0.0837-38.552-0.36-38.829-0.52296-0.52297-77.657-0.52297-78.18 0-0.25576 0.25576-0.36 2.08-0.36 6.3v5.94h-12.3c-8 0-12.3 0.10488-12.3 0.3 0 0.165-0.135 0.3-0.3 0.3-0.1969 0-0.3-6.65-0.3-19.35v-19.35h64.65c42.9 0 64.65 0.10093 64.65 0.3 0 0.165-0.135 0.3-0.3 0.3-0.19906 0-0.3 21.55-0.3 64.05v64.05h-37.5v-12.3zm61.2-1.5v-13.805l8.471 0.0797c7.7925 0.0733 8.4791 0.12173 8.572 0.60467 0.094 0.48864-0.41587 0.525-7.361 0.525-5.4038 0-7.5613 0.0993-7.822 0.36-0.25229 0.2523-0.36 1.915-0.36 5.5574v5.1974l0.76953 0.29258c0.42324 0.16091 3.5282 0.29257 6.9 0.29257 5.9305 0 6.1305 0.0196 6.1305 0.6 0 0.58214-0.2 0.6-6.7179 0.6-5.8491 0-6.7414 0.0614-6.9 0.47454-0.10015 0.26099-0.1821 3.2985-0.1821 6.75v6.2755h-1.5v-13.805zm78.972 0.0797 0.078-13.725 1.05-0.0833 1.05-0.0833 8.1 11.758c4.455 6.4671 8.3298 11.9 8.6106 12.073 0.28083 0.17289 0.61833 0.20674 0.75 0.0752 0.13166-0.13151 0.27765-5.5693 0.32441-12.084l0.085-11.845 0.66497 0.0945 0.66498 0.0945 0.078 13.725 0.078 13.725h-2.3617l-8.1481-11.85c-8.1948-11.918-8.9634-12.831-9.4071-11.175-0.0995 0.37125-0.18274 5.7038-0.18499 11.85l-0.004 11.175h-1.5061l0.078-13.725zm28.428-0.0496v-13.825l5.025 0.002c5.7849 0.003 8.2551 0.32477 10.575 1.3792 4.5173 2.0531 6.5003 6.3466 6.2205 13.469-0.26292 6.693-2.2098 9.9377-7.1563 11.927-1.4436 0.58056-2.3039 0.66104-8.1392 0.76143l-6.525 0.11225v-13.825zm13.625 11.849c4.7379-1.7098 6.5915-4.996 6.6132-11.724 0.0161-4.9782-0.72206-7.3728-2.9636-9.6143-2.2682-2.2682-4.2771-2.8683-10.243-3.0602-3.9639-0.12751-4.5808-0.0832-5.025 0.36104-0.45798 0.45797-0.50639 1.6316-0.50639 12.275 0 9.01 0.0879 11.859 0.375 12.153 0.59641 0.61102 9.8252 0.30495 11.75-0.38968zm11.248 1.2695c0.15017-0.38169 2.595-6.4315 5.433-13.444s5.2269-12.919 5.3089-13.125c0.0825-0.20774 0.65554-0.375 1.2848-0.375 0.62816 0 1.2033 0.16761 1.2867 0.375 0.083 0.20625 2.2444 5.7075 4.8031 12.225s4.9367 12.567 5.2844 13.444l0.63219 1.5942-0.94473-0.0942c-0.91785-0.0916-0.98931-0.20954-2.5104-4.1442-1.1767-3.0439-1.744-4.1449-2.2834-4.4322-0.5304-0.28239-2.3367-0.36072-6.9184-0.3-3.4103 0.0452-6.2829 0.16476-6.3835 0.2657s-0.91063 2.0584-1.8 4.35c-1.5614 4.0228-1.649 4.1697-2.5413 4.2605-0.8566 0.0871-0.90418 0.0433-0.6511-0.6zm17.052-9.4331c0.4359-0.11682 0.67263-0.40758 0.66834-0.8209-0.004-0.352-1.186-3.745-2.6276-7.54-2.1571-5.6791-2.7224-6.9-3.1943-6.9-0.4689 0-1.057 1.2301-3.2271 6.75-3.2842 8.3538-3.193 8.0217-2.3014 8.3788 0.77836 0.31174 9.6044 0.42088 10.682 0.13209zm15.075-2.7509c0-9.5867-0.0912-12.931-0.36-13.2-0.24864-0.24863-1.78-0.36-4.95-0.36-4.39 0-4.59-0.0262-4.59-0.6 0-0.58889 0.20001-0.6 10.8-0.6s10.8 0.0111 10.8 0.6c0 0.57386-0.20001 0.6-4.59 0.6-3.17 0-4.7014 0.11137-4.95 0.36-0.2688 0.26879-0.36 3.6133-0.36 13.2v12.84h-1.8v-12.84zm15.9-0.98086v-13.821l0.675 0.0959 0.675 0.0959 0.078 13.725 0.078 13.725h-1.5061v-13.821zm38.4 0.0208v-13.8h1.0035c0.58065 0 1.1972 0.22121 1.463 0.525 0.25272 0.28875 3.9408 5.5875 8.1958 11.775 4.2549 6.1875 7.8828 11.349 8.062 11.47 0.17916 0.12107 0.46074 0.17737 0.62574 0.12512 0.18993-0.0601 0.35502-4.4333 0.45-11.92l0.15-11.825h1.5l0.078 13.742 0.0781 13.742-1.2501-0.0924-1.2501-0.0924-8.0473-11.679c-4.426-6.4233-8.2141-11.782-8.4179-11.908-1.0664-0.65905-1.1407 0.12817-1.1407 12.073v11.663h-1.5v-13.8zm-65.85-25.237c-3.191-0.30259-7.4638-1.4636-9.5708-2.6006-2.6479-1.429-5.1427-4.04-6.4743-6.776-2.0507-4.2135-2.1049-4.8445-2.1049-24.474v-17.413h14.676l0.0868 16.875 0.0868 16.875 0.71085 1.5725c0.83073 1.8376 2.4806 3.4398 4.1249 4.0058 0.64032 0.2204 2.0417 0.40073 3.1142 0.40073 3.6483 0 6.0149-1.4917 7.2622-4.5774 0.68442-1.6932 0.68829-1.785 0.77688-18.427l0.0891-16.725h14.702l-0.10809 18.225c-0.11916 20.09-0.0663 19.49-2.0954 23.775-1.091 2.3041-4.1012 5.445-6.3832 6.6605-2.3552 1.2545-6.3745 2.2825-10.255 2.6229-3.9562 0.34708-4.7818 0.34512-8.638-0.02052zm-152.85-26.223v-25.05h14.7v37.814l0.76953 0.29258c0.44745 0.17012 5.2189 0.29258 11.4 0.29258h10.63v11.7h-37.5v-25.05zm48.9 0v-25.05h14.7v50.1h-14.7v-25.05zm27.6 0v-25.05l7.725 0.0006 7.725 0.0006 7.35 13.51c6.2028 11.401 7.4436 13.496 7.95 13.424 0.58844-0.08389 0.6015-0.34401 0.67809-13.511l0.0781-13.425h13.794v50.11l-7.3824-0.08024-7.3824-0.08001-7.493-13.35c-4.1212-7.3425-7.6923-13.552-7.9359-13.8-0.39326-0.39958-0.49124-0.38476-0.87454 0.13234-0.3603 0.48606-0.43166 2.7801-0.43166 13.875v13.293h-13.8v-25.05zm112.42 24.675c0.16146-0.20625 4.1739-6.0911 8.9164-13.077 6.2371-9.1879 8.5885-12.882 8.4985-13.35-0.0684-0.35613-3.6593-5.6649-7.9797-11.797-4.3204-6.1324-7.8554-11.229-7.8554-11.325 0-0.09636 3.8261-0.1752 8.5024-0.1752h8.5024l3.6889 6.6253c2.0289 3.6439 3.8819 6.6993 4.1178 6.7898 0.23583 0.0905 0.58518 0.0082 0.77628-0.18294 0.19113-0.19112 1.9144-3.2128 3.8295-6.7148l3.482-6.3673 8.1762-0.07987 8.1762-0.07987-2.2231 3.2299c-5.542 8.0517-13.077 19.195-13.413 19.835-0.41289 0.78776-1.0646-0.25278 11.351 18.124l6.0326 8.9295-8.9246-0.07946-8.9246-0.07946-4.11-7.2c-2.9017-5.0674-4.2955-7.2276-4.7057-7.2933-0.47388-0.07588-1.4022 1.2847-4.9636 7.275l-4.3807 7.3683h-8.4253c-6.6968 0-8.3651-0.07693-8.1318-0.375zm-179.02-72.532v-12.907l-0.76953-0.29257c-0.42324-0.16092-2.6507-0.29257-4.95-0.29257-3.516 0-4.1805-0.071529-4.1805-0.45 0-0.39167 1.4-0.45 10.8-0.45 9.1014 0 10.8 0.066631 10.8 0.42364 0 0.34287-0.91052 0.44297-4.7756 0.525-2.6266 0.055747-4.8878 0.21373-5.025 0.35107-0.13719 0.13734-0.28865 6.0436-0.33658 13.125l-0.0871 12.875h-1.4757v-12.907zm15.6-0.74257v-13.65h1.5v5.79c0 4.1033 0.10488 5.8949 0.36 6.15 0.51362 0.51362 17.066 0.51362 17.58 0 0.25513-0.25513 0.36001-2.0467 0.36001-6.15v-5.79h1.5v27.3h-1.5v-6.4286c0-5.4442-0.0722-6.5008-0.47143-6.9-0.40591-0.4059-1.6277-0.47143-8.79-0.47143-6.07 0-8.4159 0.09731-8.6786 0.36-0.25798 0.25798-0.36 2.2133-0.36 6.9v6.54h-1.5v-13.65zm28.2 0v-13.65h9.45c8.0312 0 9.45 0.06495 9.45 0.43262 0 0.36429-1.3229 0.44721-8.3755 0.525-4.6065 0.05081-8.4878 0.20463-8.625 0.34181-0.38355 0.38344-0.497 9.517-0.13011 10.476l0.31576 0.825h7.8074c7.6074 0 7.8074 0.01537 7.8074 0.6s-0.20001 0.6-7.8074 0.6h-7.8074l-0.31503 0.825c-0.36775 0.96308-0.25368 10.993 0.12938 11.376 0.13723 0.13716 4.0185 0.29096 8.625 0.34177 7.0526 0.07779 8.3755 0.16071 8.3755 0.525 0 0.36767-1.4188 0.43262-9.45 0.43262h-9.45v-13.65z" fill="#093a60"/>
 </g>
</svg>
