<?xml version="1.0" encoding="UTF-8" standalone="no"?>
<!-- Created with Inkscape (http://www.inkscape.org/) -->

<svg
   xmlns:dc="http://purl.org/dc/elements/1.1/"
   xmlns:cc="http://creativecommons.org/ns#"
   xmlns:rdf="http://www.w3.org/1999/02/22-rdf-syntax-ns#"
   xmlns:svg="http://www.w3.org/2000/svg"
   xmlns="http://www.w3.org/2000/svg"
   xmlns:sodipodi="http://sodipodi.sourceforge.net/DTD/sodipodi-0.dtd"
   xmlns:inkscape="http://www.inkscape.org/namespaces/inkscape"
   width="1010"
   height="205"
   id="svg2"
   version="1.1"
   inkscape:version="0.48.3.1 r9886"
   sodipodi:docname="mojatatu-full-12.svg"
   inkscape:export-filename="/home/bjb/work/mojatatu/admin/2016/debconf/mojatatu-full.png"
   inkscape:export-xdpi="90"
   inkscape:export-ydpi="90">
  <defs
     id="defs30" />
  <sodipodi:namedview
     id="base"
     pagecolor="#ffffff"
     bordercolor="#666666"
     borderopacity="1.0"
     inkscape:pageopacity="0"
     inkscape:pageshadow="2"
     inkscape:zoom="1.2383505"
     inkscape:cx="673.31802"
     inkscape:cy="48.741267"
     inkscape:document-units="px"
     inkscape:current-layer="layer1"
     showgrid="false"
     inkscape:window-width="1716"
     inkscape:window-height="688"
     inkscape:window-x="75"
     inkscape:window-y="37"
     inkscape:window-maximized="0"
     fit-margin-top="0"
     fit-margin-left="0"
     fit-margin-right="0"
     fit-margin-bottom="0" />
  <metadata
     id="metadata7">
    <rdf:RDF>
      <cc:Work
         rdf:about="">
        <dc:format>image/svg+xml</dc:format>
        <dc:type
           rdf:resource="http://purl.org/dc/dcmitype/StillImage" />
        <dc:title></dc:title>
      </cc:Work>
    </rdf:RDF>
  </metadata>
  <g
     inkscape:label="Layer 1"
     inkscape:groupmode="layer"
     id="layer1"
     transform="translate(-4.0046532,-321.36145)"
     style="display:inline">
    <flowRoot
       xml:space="preserve"
       id="flowRoot2985"
       style="font-size:40px;font-style:italic;font-weight:bold;line-height:125%;letter-spacing:0px;word-spacing:0px;fill:#000000;fill-opacity:1;stroke:none;font-family:Sans;-inkscape-font-specification:Sans Bold Italic"
       transform="translate(0,308.2677)"><flowRegion
         id="flowRegion2987"><rect
           id="rect2989"
           width="680"
           height="168"
           x="288"
           y="43.094482"
           style="font-style:italic;font-weight:bold;-inkscape-font-specification:Sans Bold Italic" /></flowRegion><flowPara
         id="flowPara2991" /></flowRoot>    <path
       style="fill:#e1e1e1;fill-opacity:1;stroke:#3c3c3c;stroke-width:2;stroke-linecap:butt;stroke-linejoin:round;stroke-miterlimit:4;stroke-opacity:1;stroke-dasharray:none"
       d="m 48,14.094482 198,0 -13.5,45.5 25.5,-35.5 25,0 -41,53 -1,139.999998 -191,0 1,-142.499998 -46,-51.5 28,0 31.5,36.5 z"
       id="path3001"
       inkscape:connector-curvature="0"
       transform="translate(0,308.2677)"
       sodipodi:nodetypes="ccccccccccccc">
      <title
         id="title3009">OpenBox</title>
    </path>
    <path
       style="fill:#696969;fill-opacity:1;stroke:#3c3c3c;stroke-width:2;stroke-linecap:butt;stroke-linejoin:miter;stroke-miterlimit:4;stroke-opacity:1;stroke-dasharray:none"
       d="m 190.92278,373.76535 c 6.05447,0 9.68715,0 22.19971,0 9.20531,0 10.18678,-0.0186 10.49441,11.84195 0.17033,6.56688 -0.19376,23.2787 0,29.40071 0.40363,12.75319 0.006,13.30436 -10.89804,13.47533 -17.35116,0.27204 -20.58519,0 -38.34496,0 -10.74486,0 -10.66261,0.005 -10.49441,-13.47533 0.18339,-14.69754 -0.32403,-17.14839 0,-31.85077 0.18245,-8.27815 -0.002,-8.62354 9.28352,-8.98355 13.72995,-0.53233 17.75977,-0.40834 17.75977,-0.40834 z"
       id="path3781"
       inkscape:connector-curvature="0"
       sodipodi:nodetypes="cssssssssc" />
    <path
       sodipodi:nodetypes="cssssssssc"
       inkscape:connector-curvature="0"
       id="path3784"
       d="m 97.92278,373.76535 c 6.05447,0 9.68715,0 22.19971,0 9.20531,0 10.18678,-0.0186 10.49441,11.84195 0.17033,6.56688 -0.19376,23.2787 0,29.40071 0.40363,12.75319 0.006,13.30436 -10.89804,13.47533 -17.35116,0.27204 -20.58519,0 -38.34496,0 -10.74486,0 -10.66261,0.005 -10.49441,-13.47533 0.18339,-14.69754 -0.32403,-17.14839 0,-31.85077 0.18245,-8.27815 -0.002,-8.62354 9.28352,-8.98355 13.72995,-0.53233 17.75977,-0.40834 17.75977,-0.40834 z"
       style="fill:#696969;fill-opacity:1;stroke:#3c3c3c;stroke-width:2;stroke-linecap:butt;stroke-linejoin:miter;stroke-miterlimit:4;stroke-opacity:1;stroke-dasharray:none" />
    <path
       style="fill:#a5a5a5;fill-opacity:1;stroke:#3c3c3c;stroke-width:2;stroke-linecap:butt;stroke-linejoin:miter;stroke-miterlimit:4;stroke-opacity:1;stroke-dasharray:none"
       d="m 97.92278,460.26535 c 6.05447,0 9.68715,0 22.19971,0 9.20531,0 10.18678,-0.0186 10.49441,11.84195 0.17033,6.56688 -0.19376,23.2787 0,29.40071 0.40363,12.75319 0.006,13.30436 -10.89804,13.47533 -17.35116,0.27204 -20.58519,0 -38.34496,0 -10.74486,0 -10.66261,0.005 -10.49441,-13.47533 0.18339,-14.69754 -0.32403,-17.14839 0,-31.85077 0.18245,-8.27815 -0.002,-8.62354 9.28352,-8.98355 13.72995,-0.53233 17.75977,-0.40834 17.75977,-0.40834 z"
       id="path3786"
       inkscape:connector-curvature="0"
       sodipodi:nodetypes="cssssssssc" />
    <path
       sodipodi:nodetypes="cssssssssc"
       inkscape:connector-curvature="0"
       id="path3788"
       d="m 190.42278,459.76535 c 6.05447,0 9.68715,0 22.19971,0 9.20531,0 10.18678,-0.0186 10.49441,11.84195 0.17033,6.56688 -0.19376,23.2787 0,29.40071 0.40363,12.75319 0.006,13.30436 -10.89804,13.47533 -17.35116,0.27204 -20.58519,0 -38.34496,0 -10.74486,0 -10.66261,0.005 -10.49441,-13.47533 0.18339,-14.69754 -0.32403,-17.14839 0,-31.85077 0.18245,-8.27815 -0.002,-8.62354 9.28352,-8.98355 13.72995,-0.53233 17.75977,-0.40834 17.75977,-0.40834 z"
       style="fill:#a5a5a5;fill-opacity:1;stroke:#3c3c3c;stroke-width:2;stroke-linecap:butt;stroke-linejoin:miter;stroke-miterlimit:4;stroke-opacity:1;stroke-dasharray:none" />
    <rect
       style="fill:#ffffff;fill-opacity:1;stroke:#3c3c3c;stroke-width:2;stroke-linejoin:round;stroke-miterlimit:4;stroke-opacity:1;stroke-dasharray:none"
       id="rect3794"
       width="33.5"
       height="4.5"
       x="130.5"
       y="90.094482"
       transform="translate(0,308.2677)"
       ry="0.5" />
    <rect
       ry="0.5"
       y="398.36218"
       x="130.5"
       height="4.5"
       width="33"
       id="rect3796"
       style="fill:#ffffff;fill-opacity:1;stroke:#3c3c3c;stroke-width:2;stroke-linejoin:miter;stroke-miterlimit:4;stroke-opacity:1;stroke-dasharray:none" />
    <rect
       style="fill:#ffffff;fill-opacity:1;stroke:#3c3c3c;stroke-width:1.95471108;stroke-linejoin:round;stroke-miterlimit:4;stroke-opacity:1;stroke-dasharray:none"
       id="rect3800"
       width="32"
       height="4.5"
       x="131"
       y="483.86218"
       ry="0.5" />
    <rect
       style="fill:#ffffff;fill-opacity:1;stroke:#3c3c3c;stroke-width:2;stroke-linejoin:miter;stroke-miterlimit:4;stroke-opacity:1;stroke-dasharray:none"
       id="rect3802"
       width="31.5"
       height="4.25"
       x="-460.11218"
       y="97.5"
       ry="0.5"
       transform="matrix(0,-1,1,0,0,0)" />
    <rect
       transform="matrix(0,-1,1,0,0,0)"
       ry="0.5"
       y="191.75"
       x="-459.61218"
       height="4.5"
       width="31"
       id="rect3804"
       style="fill:#ffffff;fill-opacity:1;stroke:#3c3c3c;stroke-width:2;stroke-linejoin:miter;stroke-miterlimit:4;stroke-opacity:1;stroke-dasharray:none" />
    <path
       style="fill:#ffffff;fill-opacity:1;stroke:#3c3c3c;stroke-width:2;stroke-linecap:butt;stroke-linejoin:miter;stroke-miterlimit:4;stroke-opacity:1;stroke-dasharray:none"
       d="m 191.5,459.86218 -38.75,-15.5 38.75,-15.75 -6.75,0 -36,12.75 -36.5,-12.75 -7.5,0 40.25,15.75 -41.75,14.75 8.25,0.75 37.5,-12.5 35.25,12.5 z"
       id="path3806"
       inkscape:connector-curvature="0"
       sodipodi:nodetypes="ccccccccccccc" />
    <g
       style="display:inline"
       inkscape:label="path"
       id="layer2"
       transform="translate(282.81414,170.39808)">
      <title
         id="title3007">CompanyName</title>
      <g
         transform="matrix(4.1683598,0,0,4.1683598,-620.06563,-1049.8735)"
         id="g3000">
        <path
           style="fill:#ff0000;fill-opacity:1;stroke:none;display:inline"
           d="m 156.8922,312.44215 c 1.26269,0.75761 2.593,2.61466 4.10823,2.10958 5.31216,-7.41636 5.62374,-11.53911 7.43455,-22.90065 1.73341,-0.94253 2.18356,-1.10579 3.48323,-1.51523 3.85793,10.70439 5.13125,14.70224 9.54415,20.7694 8.54141,-6.76391 24.25385,-20.60782 24.83261,-20.45373 0.23471,0.81003 0.12652,1.5085 -0.0947,2.77792 -0.12627,0.88389 -2.2097,14.33154 -2.2097,15.46796 0,1.13642 -0.37881,4.79822 0.3788,5.17703 1.91202,0.52326 3.03707,-0.71662 4.79823,-1.01015 0,0 0.63134,0.63134 0.63134,1.13642 -3.38473,3.30765 -4.91297,3.94612 -10.35406,3.283 -1.2646,-0.98146 0.19173,-6.92949 1.38896,-18.68783 l -20.4556,17.42513 c -5.37431,-7.06734 -8.10603,-12.28437 -9.9816,-19.79251 -1.88938,6.19342 -2.07056,13.124 -5.54949,18.40355 -0.63135,0.88389 -3.78808,4.29315 -4.9245,4.41942 -2.37402,-0.0547 -5.11169,-0.33437 -5.9806,-3.18474 -0.17222,-1.77673 2.95015,-3.42457 2.95015,-3.42457 z"
           id="path4120-7"
           inkscape:connector-curvature="0"
           sodipodi:nodetypes="cccccccsccccccccccc" />
        <text
           xml:space="preserve"
           style="font-size:28px;font-style:italic;font-weight:bold;line-height:125%;letter-spacing:0px;word-spacing:0px;fill:#ff0000;fill-opacity:1;stroke:none;font-family:Bitstream Vera Sans;-inkscape-font-specification:Sans Bold"
           x="210.86935"
           y="317.47623"
           id="text4183"
           sodipodi:linespacing="125%"><tspan
             sodipodi:role="line"
             id="tspan4185"
             x="210.86935"
             y="317.47623">ojatatu</tspan></text>
        <path
           style="fill:#ff0000;fill-opacity:1;stroke:none;display:inline"
           d="m 248.5526,331.60262 c -0.50508,0.63134 -1.24869,2.15872 -1.18555,2.6638 1.46457,0.29592 3.07825,0.2716 3.58149,-0.0612 1.5624,-2.55383 1.77729,-6.62038 2.93986,-9.4007 1.84971,4.3442 5.64194,9.69472 5.64194,9.69472 0.93186,0.11681 1.00654,0.24074 1.54773,-0.0108 0.75762,-0.88388 1.09945,-2.25118 1.28885,-3.07193 0.71573,-2.60424 1.64387,-6.55061 2.81173,-8.81268 0.81494,-0.63273 1.97868,-0.71635 2.90419,-0.82075 0.3788,0 0.1894,-2.27284 0.1894,-2.27284 0,0 -1.71547,0.2602 -2.40995,0.639 -0.69448,0.37881 -1.59368,1.31051 -1.94633,2.13892 -1.35431,2.6671 -2.26593,9.02579 -3.25684,10.01672 -2.50456,-3.70457 -4.49965,-7.76479 -5.52653,-10.35538 -1.1652,-0.40995 -1.60148,0.10187 -1.90038,0.31437 -0.77745,4.26273 -1.40395,6.4519 -2.32197,9.747 -1.00986,0.21846 -1.48937,0.026 -2.35764,-0.40817 z"
           id="path4122-0"
           inkscape:connector-curvature="0"
           sodipodi:nodetypes="ccccccccccsccccccc" />
        <text
           xml:space="preserve"
           style="font-size:12px;font-style:italic;font-weight:bold;line-height:125%;letter-spacing:0px;word-spacing:0px;fill:#ff0000;fill-opacity:1;stroke:none;font-family:Bitstream Vera Sans;-inkscape-font-specification:Sans Bold"
           x="265.4176"
           y="334.14374"
           id="text4187"
           sodipodi:linespacing="125%"><tspan
             sodipodi:role="line"
             id="tspan4189"
             x="265.4176"
             y="334.14374">etworks</tspan></text>
      </g>
    </g>
  </g>
  <g
     inkscape:groupmode="layer"
     id="layer3"
     inkscape:label="Layer"
     style="display:none" />
</svg>
