<?xml version="1.0" encoding="UTF-8" standalone="no"?>
<svg id="svg2" xmlns="http://www.w3.org/2000/svg" height="205" width="1010" version="1.1">
 <g id="layer1" transform="translate(-4.0047 -321.36)">
  <flowRoot id="flowRoot2985" style="word-spacing:0px;letter-spacing:0px" font-family="Sans" transform="translate(0 308.27)" xml:space="preserve" font-size="40px" line-height="125%" font-style="italic" font-weight="bold" fill="#000000"><flowRegion id="flowRegion2987"><rect id="rect2989" y="43.094" width="680" x="288" height="168"/></flowRegion><flowPara id="flowPara2991"/></flowRoot>
  <path id="path3001" stroke-linejoin="round" d="m48 14.094h198l-13.5 45.5 25.5-35.5h25l-41 53-1 140h-191l1-142.5-46-51.5h28l31.5 36.5z" transform="translate(0 308.27)" stroke="#3c3c3c" stroke-width="2" fill="#e1e1e1">
   <title id="title3009">OpenBox</title>
  </path>
  <path id="path3781" stroke="#3c3c3c" stroke-width="2" fill="#696969" d="m190.92 373.77h22.2c9.2053 0 10.187-0.0186 10.494 11.842 0.17033 6.5669-0.19376 23.279 0 29.401 0.40363 12.753 0.006 13.304-10.898 13.475-17.351 0.27204-20.585 0-38.345 0-10.745 0-10.663 0.005-10.494-13.475 0.18339-14.698-0.32403-17.148 0-31.851 0.18245-8.2782-0.002-8.6235 9.2835-8.9836 13.73-0.53233 17.76-0.40834 17.76-0.40834z"/>
  <path id="path3784" stroke="#3c3c3c" stroke-width="2" fill="#696969" d="m97.923 373.77h22.2c9.2053 0 10.187-0.0186 10.494 11.842 0.17033 6.5669-0.19376 23.279 0 29.401 0.40363 12.753 0.006 13.304-10.898 13.475-17.351 0.27204-20.585 0-38.345 0-10.745 0-10.663 0.005-10.494-13.475 0.18339-14.698-0.32403-17.148 0-31.851 0.18245-8.2782-0.002-8.6235 9.2835-8.9836 13.73-0.53233 17.76-0.40834 17.76-0.40834z"/>
  <path id="path3786" stroke="#3c3c3c" stroke-width="2" fill="#a5a5a5" d="m97.923 460.27h22.2c9.2053 0 10.187-0.0186 10.494 11.842 0.17033 6.5669-0.19376 23.279 0 29.401 0.40363 12.753 0.006 13.304-10.898 13.475-17.351 0.27204-20.585 0-38.345 0-10.745 0-10.663 0.005-10.494-13.475 0.18339-14.698-0.32403-17.148 0-31.851 0.18245-8.2782-0.002-8.6235 9.2835-8.9836 13.73-0.53233 17.76-0.40834 17.76-0.40834z"/>
  <path id="path3788" stroke="#3c3c3c" stroke-width="2" fill="#a5a5a5" d="m190.42 459.77h22.2c9.2053 0 10.187-0.0186 10.494 11.842 0.17033 6.5669-0.19376 23.279 0 29.401 0.40363 12.753 0.006 13.304-10.898 13.475-17.351 0.27204-20.585 0-38.345 0-10.745 0-10.663 0.005-10.494-13.475 0.18339-14.698-0.32403-17.148 0-31.851 0.18245-8.2782-0.002-8.6235 9.2835-8.9836 13.73-0.53233 17.76-0.40834 17.76-0.40834z"/>
  <rect id="rect3794" stroke-linejoin="round" ry=".5" transform="translate(0 308.27)" height="4.5" width="33.5" stroke="#3c3c3c" y="90.094" x="130.5" stroke-width="2" fill="#fff"/>
  <rect id="rect3796" ry=".5" height="4.5" width="33" stroke="#3c3c3c" y="398.36" x="130.5" stroke-width="2" fill="#fff"/>
  <rect id="rect3800" stroke-linejoin="round" ry=".5" height="4.5" width="32" stroke="#3c3c3c" y="483.86" x="131" stroke-width="1.9547" fill="#fff"/>
  <rect id="rect3802" transform="rotate(-90)" ry=".5" height="4.25" width="31.5" stroke="#3c3c3c" y="97.5" x="-460.11" stroke-width="2" fill="#fff"/>
  <rect id="rect3804" ry=".5" transform="rotate(-90)" height="4.5" width="31" stroke="#3c3c3c" y="191.75" x="-459.61" stroke-width="2" fill="#fff"/>
  <path id="path3806" stroke="#3c3c3c" stroke-width="2" fill="#fff" d="m191.5 459.86-38.75-15.5 38.75-15.75h-6.75l-36 12.75-36.5-12.75h-7.5l40.25 15.75-41.75 14.75 8.25 0.75 37.5-12.5 35.25 12.5z"/>
  <g id="layer2" transform="translate(282.81 170.4)">
   <title id="title3007">CompanyName</title>
   <g id="g3000" transform="matrix(4.1684 0 0 4.1684 -620.07 -1049.9)">
    <path id="path4120-7" fill="#f00" d="m156.89 312.44c1.2627 0.75761 2.593 2.6147 4.1082 2.1096 5.3122-7.4164 5.6237-11.539 7.4346-22.901 1.7334-0.94253 2.1836-1.1058 3.4832-1.5152 3.8579 10.704 5.1312 14.702 9.5442 20.769 8.5414-6.7639 24.254-20.608 24.833-20.454 0.23471 0.81003 0.12652 1.5085-0.0947 2.7779-0.12627 0.88389-2.2097 14.332-2.2097 15.468 0 1.1364-0.37881 4.7982 0.3788 5.177 1.912 0.52326 3.0371-0.71662 4.7982-1.0102 0 0 0.63134 0.63134 0.63134 1.1364-3.3847 3.3076-4.913 3.9461-10.354 3.283-1.2646-0.98146 0.19173-6.9295 1.389-18.688l-20.456 17.425c-5.3743-7.0673-8.106-12.284-9.9816-19.793-1.8894 6.1934-2.0706 13.124-5.5495 18.404-0.63135 0.88389-3.7881 4.2932-4.9245 4.4194-2.374-0.0547-5.1117-0.33437-5.9806-3.1847-0.17222-1.7767 2.9502-3.4246 2.9502-3.4246z"/>
    <text id="text4183" style="word-spacing:0px;letter-spacing:0px" font-family="Bitstream Vera Sans" xml:space="preserve" font-size="28px" font-style="italic" line-height="125%" y="317.47623" x="210.86935" font-weight="bold" fill="#ff0000"><tspan id="tspan4185" y="317.47623" x="210.86935">ojatatu</tspan></text>
    <path id="path4122-0" fill="#f00" d="m248.55 331.6c-0.50508 0.63134-1.2487 2.1587-1.1856 2.6638 1.4646 0.29592 3.0782 0.2716 3.5815-0.0612 1.5624-2.5538 1.7773-6.6204 2.9399-9.4007 1.8497 4.3442 5.6419 9.6947 5.6419 9.6947 0.93186 0.11681 1.0065 0.24074 1.5477-0.0108 0.75762-0.88388 1.0994-2.2512 1.2888-3.0719 0.71573-2.6042 1.6439-6.5506 2.8117-8.8127 0.81494-0.63273 1.9787-0.71635 2.9042-0.82075 0.3788 0 0.1894-2.2728 0.1894-2.2728s-1.7155 0.2602-2.41 0.639c-0.69448 0.37881-1.5937 1.3105-1.9463 2.1389-1.3543 2.6671-2.2659 9.0258-3.2568 10.017-2.5046-3.7046-4.4996-7.7648-5.5265-10.355-1.1652-0.40995-1.6015 0.10187-1.9004 0.31437-0.77745 4.2627-1.404 6.4519-2.322 9.747-1.0099 0.21846-1.4894 0.026-2.3576-0.40817z"/>
    <text id="text4187" style="word-spacing:0px;letter-spacing:0px" font-family="Bitstream Vera Sans" xml:space="preserve" font-size="12px" font-style="italic" line-height="125%" y="334.14374" x="265.4176" font-weight="bold" fill="#ff0000"><tspan id="tspan4189" y="334.14374" x="265.4176">etworks</tspan></text>
   </g>
  </g>
 </g>
</svg>
