<?xml version="1.0" encoding="UTF-8" standalone="no"?>
<svg id="svg2" xmlns="http://www.w3.org/2000/svg" xml:space="preserve" width="200" version="1.1" height="103.82" viewBox="-0.7 -0.123 200 103.81615">
<g id="g2997" fill="#007ac2" transform="matrix(3.6623 0 0 3.6623 -.7 -.123)"><path id="path6" d="m36.941 10.88c-0.342-0.256-0.88-0.41-1.402-0.402-0.567 0.008-1.109 0.19-1.486 0.491v-3.58h-1.771v11.675h1.771v-6.094c0-0.425 0.356-0.893 1.016-0.921 0.294-0.013 0.702 0.115 0.908 0.424 0.22 0.327 0.207 0.762 0.207 1.237l-0.002 5.354h1.771v-5.421c-0.001-1.599-0.209-2.168-1.012-2.763"/><path id="path8" d="m22.537 14.889c0 1.142-0.036 1.464-0.045 1.563-0.062 0.634-0.332 1.305-1.07 1.305-0.737 0-1.036-0.717-1.068-1.335-0.002-0.004-0.046-0.391-0.046-1.533 0-1.145 0.045-1.621 0.046-1.625 0.009-0.645 0.343-1.29 1.068-1.29s1.06 0.645 1.069 1.283c0.001 0.011 0.046 0.487 0.046 1.632m1.713-1.378c-0.251-2.496-1.668-3.032-2.831-3.032-1.648 0-2.651 1.049-2.832 3.028-0.016 0.158-0.04 0.449-0.049 1.382-0.006 0.679 0.037 1.235 0.046 1.376 0.112 1.848 1.174 2.987 2.835 2.987 1.662 0 2.72-1.158 2.836-2.987 0.008-0.13 0.046-0.697 0.046-1.376 0-0.308-0.029-1.144-0.051-1.378z"/><path id="path10" d="m40.908 13.837c0.013-0.386 0.013-0.468 0.021-0.58 0.05-0.699 0.362-1.278 1.079-1.283 0.849-0.006 1.049 0.826 1.079 1.287 0.015 0.242 0.034 0.404 0.031 0.576h-2.21m2.187 2.34s0.003 0.13-0.017 0.288c-0.05 0.412-0.212 1.292-1.074 1.292-0.734 0-1.017-0.667-1.066-1.332-0.009-0.189-0.044-0.4-0.042-1.117h3.949s0.007-0.588-0.004-0.941c-0.006-0.139-0.013-0.37-0.046-0.857-0.054-0.749-0.334-1.567-0.763-2.096-0.496-0.612-1.197-0.935-2.028-0.935-1.595 0-2.592 1.039-2.788 3.029-0.018 0.178-0.047 0.427-0.047 1.381 0 0.679 0.038 1.247 0.045 1.376 0.107 1.818 1.182 2.987 2.79 2.987 1.604 0 2.679-1.139 2.791-3.075h-1.7z"/><path id="path12" d="m12.937 1.43h28.78l11.005 12.877-11.002 12.7h-28.785l-11.045-12.743 11.047-12.834m29.476-1.43h-30.171l-12.242 14.219 12.243 14.128h30.169l12.198-14.082-12.197-14.265z"/><path id="path14" d="m13.293 8.974h0.838c0.911 0 1.405 0.483 1.427 1.346 0.002 0.063 0.009 0.136 0.009 0.27 0 0.157-0.002 0.213-0.008 0.273-0.051 0.513-0.276 1.407-1.343 1.407h-0.923v-3.296m4.194 9.367c0 0.002-0.182-2.866-0.182-2.866-0.079-1.282-0.413-2.038-1.076-2.425 0.479-0.288 1.099-1.001 1.092-2.489-0.008-2.267-1.415-3.062-3.071-3.08h-2.706v11.583h1.748l0.001-5.299h0.973c0.563 0 1.197 0.492 1.293 1.875l0.182 2.712c0.015 0.384 0.088 0.713 0.088 0.713h1.749c-0.001 0-0.076-0.32-0.091-0.724z"/><path id="path16" d="m29.423 16.097c-0.007 0.128-0.016 0.243-0.022 0.325-0.05 0.647-0.277 1.335-1.068 1.335-0.738 0-1.029-0.746-1.083-1.295-0.032-0.334-0.024-0.592-0.031-1.573-0.008-1.145 0.029-1.439 0.045-1.625 0.063-0.724 0.343-1.285 1.069-1.29 0.746-0.005 1.06 0.645 1.068 1.283 0 0.007 0.016 0.161 0.027 0.5h1.752c-0.006-0.117-0.011-0.214-0.015-0.271-0.199-2.421-1.673-3.007-2.836-3.007-1.648 0-2.652 1.049-2.833 3.028-0.016 0.158-0.04 0.449-0.048 1.382-0.008 0.679 0.035 1.235 0.045 1.376 0.113 1.848 1.174 2.983 2.836 2.987 1.721 0.006 2.671-1.044 2.836-2.987 0.005-0.071 0.015-0.12 0.01-0.168h-1.752"/></g>
</svg>
