<?xml version="1.0" encoding="UTF-8" standalone="no"?>
<svg id="Logo" xmlns="http://www.w3.org/2000/svg" xml:space="preserve" height="96.48px" viewBox="-1.554 -0.74 338.4 96.48" width="338.4px" version="1.1" y="0px" x="0px" enable-background="new -1.554 -0.74 338.4 96.48">
<g fill="#A1A0A1">
	<path d="m134.55 18.441c-1.949 0-4.233-2.244-8.04-2.244-3.387 0-5.579 1.918-5.579 4.479 0 2.163 1.261 4.016 6.597 4.733 7.445 1.045 10.237 2.967 10.237 6.812 0 4.973-4.319 8.019-11.595 8.019-5.5 0-9.902-2.318-9.902-3.522 0-0.886 1.018-0.769 1.862-0.769 1.78 0 3.692 2.077 8.349 2.077 3.895 0 5.305-2.238 5.305-4.641 0-3.047-0.705-4.527-5.445-5.088-6.854-0.8-10.07-2.645-10.07-6.814 0-4.646 3.895-7.69 10.326-7.69 4.23 0 9.396 2.082 9.396 3.526-0.03 0.639-0.88 1.122-1.47 1.122"/>
	<path d="m148.43 38.482c3.215 0 5.925-2.25 5.925-5.131 0-1.849-1.523-3.369-3.806-3.369-2.796 0-6.183 2.24-6.183 4.805-0.01 2.088 1.86 3.695 4.06 3.695m-7.45-3.129c0-3.289 3.134-5.129 7.027-5.613 3.978-0.477 6.176-2.002 6.176-3.686 0-2.404-1.862-4.172-4.062-4.172h-0.676c-2.455 0-3.553 2.406-5.418 2.406-0.51 0-1.014 0.08-1.014-0.559 0-1.6 3.385-2.648 6.432-2.648 8.969 0 8.295 3.129 8.295 10.906v5.848c0 1.046-0.513 1.604-1.528 1.604-0.847 0-2.367-0.558-3.724-0.558-2.535 0-3.213 1.118-5.922 1.118-3.05 0.001-5.59-1.765-5.59-4.646"/>
	<path d="m170.18 32.146c1.182 0 2.191-0.883 2.701-2.563l1.777-6.335c0.426-1.363 1.355-2.079 2.629-2.079 0.25 0 1.438 0.076 1.521 1.119 0.084 0.562-0.597 2.083-0.597 2.165l-4.821 13.307c-0.513 1.439-1.438 2.164-2.875 2.164-1.865 0-3.049-0.482-3.811-2.645l-4.739-13.229c-0.764-2.077-0.342-2.806 1.014-2.806 1.944 0 2.538 0.324 3.383 4.01 1.11 4.728 1.78 6.892 3.82 6.892"/>
	<path d="m191.88 38.32c3.389 0 6.773-2.647 6.773-7.615 0-5.609-3.301-7.855-6.854-7.855-3.391 0-6.854 2.646-6.854 7.211 0 5.128 2.7 8.259 6.93 8.259m-0.08 1.764c-6.264 0-10.158-3.771-10.158-9.541 0-5.449 3.979-9.461 9.312-9.461 7.104 0 11.082 3.287 11.082 9.54 0.01 5.772-3.97 9.462-10.23 9.462"/>
	<path d="m208.85 16.197c-1.27 0-1.688-0.398-1.688-1.043 0-0.646 0.42-1.047 1.354-1.047 0.846 0 1.689 0.248 1.689 1.047 0 0.643-0.84 1.043-1.35 1.043m1.78 20.758c0 1.843-0.59 2.807-1.775 2.807-1.857 0-2.117-0.479-2.117-4.168v-11.383c0-1.924 0.428-2.885 1.863-2.885 2.029 0 2.029 0.88 2.029 4.327v11.302z"/>
	<path d="m225.73 21.568c0.68 0 1.439 0.078 1.439 1.279 0 0.963-1.439 1.201-2.793 1.924-2.201 1.125-2.031 1.205-2.791 1.926-0.762 1.041-1.188 2.162-1.188 3.525v6.893c0 1.843-0.592 2.724-1.691 2.724-2.203 0-2.539-0.481-2.539-3.849v-12.102c0-1.845 0.682-2.808 2.115-2.808 1.188 0 3.639 0.646 4.061 0.646 1.36 0.002 2.21-0.158 3.39-0.158"/>
	<path d="m239.92 30.478c0 1.553-0.846 2.336-2.283 2.336h-2.795c-1.436 0-2.195-1.103-2.195-2.336 0-1.373 0.68-2.221 1.943-2.221h3.217c1.37 0 2.12 0.975 2.12 2.221"/>
	<path d="m255.1 16.754c-0.332 0.244-0.932 1.521-0.932 2.007 0 0.398 0.172 0.879 0.428 1.276 0.252 0.403 1.604 1.205 1.604 1.933 0 0.715-0.51 0.635-1.604 1.596-0.682 0.567-1.613 1.846-1.613 3.451v8.254c0 3.687-0.334 4.33-2.025 4.33-1.697 0-2.031-0.645-2.031-4.33l-0.086-8.096c0-1.765-0.506-2.482-1.188-3.365-0.506-0.64-1.523-1.125-1.523-1.768 0-0.801 0.6-0.801 1.523-1.919 0.426-0.562 0.594-0.927 1.865-4.091 0.422-1.041 1.438-2.524 4.736-2.524 1.857 0 2.451 0.522 2.451 1.397-0.01 0.728 0.08 0.569-1.61 1.849"/>
	<path d="m266.86 38.482c3.221 0 5.928-2.25 5.928-5.131 0-1.849-1.527-3.369-3.811-3.369-2.793 0-6.18 2.24-6.18 4.805 0 2.088 1.86 3.695 4.06 3.695m-7.45-3.129c0-3.289 3.133-5.129 7.027-5.613 3.977-0.477 6.176-2.002 6.176-3.686 0-2.404-1.861-4.172-4.061-4.172h-0.682c-2.451 0-3.557 2.406-5.414 2.406-0.506 0-1.018 0.08-1.018-0.559 0-1.6 3.387-2.648 6.432-2.648 8.979 0 8.299 3.129 8.299 10.906v5.848c0 1.046-0.506 1.604-1.521 1.604-0.846 0-2.373-0.558-3.727-0.558-2.541 0-3.217 1.118-5.928 1.118-3.05 0.001-5.59-1.765-5.59-4.646"/>
	<path d="m284.04 16.197c-1.27 0-1.688-0.398-1.688-1.043 0-0.646 0.42-1.047 1.354-1.047 0.846 0 1.689 0.248 1.689 1.047 0 0.643-0.84 1.043-1.35 1.043m1.78 20.758c0 1.843-0.59 2.807-1.777 2.807-1.854 0-2.115-0.479-2.115-4.168v-11.383c0-1.924 0.43-2.885 1.861-2.885 2.031 0 2.031 0.88 2.031 4.327v11.302z"/>
	<path d="m300.08 21.568c0.676 0 1.438 0.078 1.438 1.279 0 0.963-0.593 1.201-1.941 1.924-2.202 1.125-2.034 1.205-2.795 1.926-0.76 1.041-1.185 2.162-1.185 3.525v6.893c0 1.843-0.596 2.724-1.692 2.724-2.2 0-2.539-0.481-2.539-3.849v-12.102c0-1.845 0.677-2.808 2.115-2.808 1.185 0 3.642 0.646 4.062 0.646 1.35 0.002 1.35-0.158 2.54-0.158"/>
	<path d="m312.94 29.663h1.439c2.031 0 3.977-1.445 3.977-3.048 0-2.006-1.693-3.93-4.734-3.93-3.217 0-5.166 1.604-5.166 3.688 0 1.925 1.94 3.29 4.48 3.29m7.54 0.559l-5.336-0.078c-5.248 0-7.107 0.881-7.107 3.604 0 2.407 2.791 4.733 5.666 4.733 1.359 0 2.377-0.162 2.963-0.562l2.199-1.369c0.428-0.239 0.51-0.562 1.354-0.562 2.287 0-0.168 4.092-6.768 4.092-5.586 0-9.309-3.605-9.309-9.225 0-5.924 3.217-9.776 9.309-9.776 7.279 0 8.885 5.614 8.885 7.698 0.01 0.963-0.5 1.445-1.84 1.445"/>
</g>
<g fill="#56B0C9">
	<path d="m128.33 73.492c1.818 1.832 8.021 2.262 19.568 2.262 2.885 0 4.859 0.758 4.859 2.266 0 1.836-1.672 2.809-4.859 2.809h-25.953c-2.885 0-4.404-0.973-4.404-3.668v-26.568c0-2.262 1.67-3.338 4.555-3.338 3.346 0 4.712 1.183 4.712 3.338-0.15 22.858-0.15 21.168 1.52 22.899"/>
	<path d="m170.23 77.791c0 2.051-1.404 3.033-3.686 3.033-2.018 0-3.299-0.432-3.299-5.393v-24.566c0.045-1.832 1.467-2.906 3.493-2.906 2.427 0 3.484 0.969 3.49 5.268v24.564h0.01z"/>
	<path d="m192.5 50.126l9.867 12.672c3.957 5.16 8.646 6.726 11.688 6.726 3.797 0 5.928-2.688 5.928-6.049v-12.9c0-1.566 0.604-2.354 1.973-2.354 1.219 0 1.822 1.12 1.822 3.254v27.245c0 1.688-0.908 2.585-2.887 2.585h-1.213c-1.826 0-3.496-0.787-4.562-2.021l-14.873-15.361c-1.675-2.135-4.103-3.812-6.384-3.812-4.104 0-6.229 2.242-6.229 6.168v11.998c0 1.57-0.303 2.808-1.975 2.808-1.217 0-1.818-0.787-1.818-3.252v-27.257c0-1.68 0.762-2.58 2.275-2.58h1.977c1.82-0.002 3.18 0.447 4.4 2.13"/>
	<path d="m243.54 51.279v17.791c0 5.822 5.021 9.812 12.615 9.812 7.596 0 12.605-3.989 12.605-9.812v-17.791c0-2.27 0.611-3.561 3.496-3.561 2.582 0 3.646 0.539 3.646 5.064v15.854c0 6.146-4.254 13.581-19.75 13.581-14.586 0-19.754-6.254-19.754-13.581v-17.359c0-2.051 0.76-3.451 2.433-3.451h1.979c1.8 0 2.72 1.185 2.72 3.453"/>
	<path d="m314.09 49.552c1.066-1.073 2.43-2.051 6.234-2.051 1.668 0 2.582 0.105 2.582 1.076 0 0.975-0.771 1.836-4.258 5.071-6.535 6.037-7.297 7.543-7.297 9.483 0 2.05 1.521 3.562 2.436 4.533 11.852 11.967 12.154 11.854 12.154 12.821 0 0.867-0.766 1.188-2.893 1.188-4.561 0-5.475-0.538-10.641-6.571-3.643-4.312-5.768-5.394-7.746-5.394-3.646 0-5.012 0.856-10.178 6.901-4.561 5.279-6.229 5.062-9.266 5.062-1.975 0-3.041-0.43-3.041-1.189 0-0.854 2.125-2.477 4.713-5.17-2.588 2.586 7.74-7.65 8.199-8.195 1.221-1.4 1.979-2.803 1.979-3.988 0-1.293-1.367-3.445-2.127-4.205l-8.355-8.301c-3.037-2.91-0.148-3.129 0.908-3.129 5.17 0 5.479 0.219 10.029 5.395 2.279 2.586 4.254 3.775 6.531 3.775 1.523 0 3.498-0.436 5.014-1.832 1.56-1.398 3.37-3.663 5.05-5.28"/>
		<path d="m333.98 49.031c-0.908-0.977-2.189-1.515-3.607-1.515-2.744 0-4.893 2.149-4.893 4.892 0 2.637 2.252 4.865 4.918 4.865 1.252 0 2.488-0.492 3.396-1.352 0.965-0.914 1.496-2.172 1.496-3.543-0.01-1.23-0.49-2.451-1.32-3.347zm0.56 3.461c0 2.383-1.83 4.25-4.166 4.25-1.145 0-2.188-0.449-2.941-1.266-0.756-0.82-1.172-1.959-1.172-3.207 0-2.406 1.807-4.224 4.195-4.224 1.129 0 2.168 0.46 2.924 1.294 0.75 0.827 1.16 1.946 1.16 3.153z"/>
		<path d="m331.09 50.044h-1.516c-0.881 0-1.029 0.396-1.029 1.281v2.723c0 0.166 0 0.668 0.361 0.668 0.268 0 0.303-0.297 0.32-0.493 0.008-0.029 0.01-0.058 0.014-0.082 0.08-0.526 0.342-0.869 0.668-0.869 0.453 0 0.727 0.403 1.061 0.974 0.252 0.422 0.377 0.502 0.521 0.502s0.223-0.08 0.223-0.226c0-0.097-0.059-0.239-0.127-0.407-0.084-0.207-0.178-0.441-0.178-0.621 0-0.441 0.146-0.623 0.455-0.961 0.428-0.455 0.545-0.664 0.545-1.263 0.03-0.618-0.62-1.226-1.29-1.226zm0.32 1.448c0 0.508-0.434 0.861-1.055 0.861-0.613 0-0.945-0.459-0.945-0.893 0-0.455 0.486-0.887 1.002-0.887 0.58 0.003 0.99 0.486 0.99 0.919z"/>
</g>
	<path d="m51.563 0.176c-26.139-2.239-49.14 17.13-51.386 43.263-2.241 26.137 17.123 49.141 43.263 51.383 26.139 2.246 49.141-17.119 51.383-43.258 2.242-26.135-17.121-49.139-43.26-51.388" fill="#56B0C9"/>
	<path d="m83.463 61.93c-1.086 1.245-6.658-5.69-9.956-6.695-4.03-1.221-8.682-3.274-12.113-4.704 0.711 2.803 1.405 8.778 1.364 12.758-0.091 9.313-3.412 20.071-13.647 20.071-10.088 0-15.695-8.394-14.162-17.573 0.82-4.902 2.438-10.904 2.271-11.054-0.009-0.01-1.476-0.213-2.97-0.151-1.813 0.071-2.916 0.586-5.2 0.83-2.351 0.258-4.87 1.252-7.964 2.771-3.535 1.729-6.994 7.274-8.087 5.563-1.594-2.498 3.917-13.021 10.551-17.629 5.998-4.154 9.582-6.188 11.058-7.432 1.481-1.25 3.014-2.595 3.412-4.197 0.229-0.907-0.226-2.611-0.681-3.971-0.32-0.953-1.532-2.914-2.44-5.462-0.906-2.55-0.229-5.925 2.141-8.403 2.369-2.481 7.976-2.639 11.252-2.571 3.277 0.063 1.801-0.243 4.47-0.716 2.673-0.471 3.687 0.024 5.278 0.766 0 0 0.109 0.87-0.559 1.279-0.607 0.365-1.543 1.14-2.953 1.977-1.41 0.836-2.967 2.872-4.418 4.419-1.453 1.54-1.685 3.735-1.283 5.257 0.36 1.359 2.324 2.985 3.531 4.432 1.758 1.512 3.633 2.994 3.633 2.994s5.062 2.615 11.033 6.804c14.559 10.197 18.911 17.775 16.439 20.637" fill="#fff"/>
</svg>
