<?xml version="1.0" encoding="utf-8"?>
<!-- Generator: Adobe Illustrator 21.0.0, SVG Export Plug-In . SVG Version: 6.00 Build 0)  -->
<svg version="1.1" id="Layer_1" xmlns="http://www.w3.org/2000/svg" xmlns:xlink="http://www.w3.org/1999/xlink" x="0px" y="0px"
	 viewBox="0 0 1010 288" style="enable-background:new 0 0 1010 288;" xml:space="preserve">
<style type="text/css">
	.st0{fill:#F58A23;}
	.st1{fill:#363636;}
</style>
<path class="st0" d="M123.1,281.1c-27.8,0-41.4-9.5-41.4-30.3c0-1.5,0-3,0.2-4.6c0-0.1,0-0.3,0-0.4c0,0,0-0.1,0-0.1
	c0.1-0.3,0.2-0.7,0.3-1c-0.1,0.1-0.1,0.2-0.1,0.3c0.8-2.7,3.6-4.6,6.6-4.1c0.8,0.1,1.5,0.4,2.1,0.8c7.6,4.1,17.1,5.8,26,5.8
	c12.4,0,12.4-4.8,12.4-6.4c0-3.5-4.5-5.9-13.8-10.6l-0.8-0.4C100.8,223,83,214.2,83,189.3c0-22.2,19.1-44.4,60.6-44.4
	c10.3,0,20.5,0.8,30.7,2.5c1.1,0.2,2,0.8,2.6,1.7c0.6,0.9,0.9,2,0.7,3l-5.2,27.4c-0.2,1.1-0.9,2.1-1.9,2.7c-1,0.6-2.2,0.7-3.3,0.4
	c-9-2.8-16.9-4-23.3-4c-4,0-10.8,0.6-10.8,5c0,3.4,8.4,7.5,16.4,11.5c10.9,5.3,31.8,15.7,31.8,40.7
	C181.5,256.9,165.7,281.1,123.1,281.1"/>
<path class="st0" d="M543.3,142.2c-44.8,0-72.6,27.7-72.6,69.6c0,42.7,25.9,69.3,67.6,69.3c42.7,0,71.4-29.9,71.4-74.5
	C609.7,166.8,585.5,142.2,543.3,142.2 M538.9,239.4c-16.3,0-26.6-9.7-26.6-26.5c0-16.4,11.5-27.7,29.1-27.7
	c16.5,0,26.6,9.6,26.6,25.3C568,227.8,555.6,239.4,538.9,239.4"/>
<path class="st0" d="M975.9,278.7h-81.8c-2.2,0-4-1.8-4-4v-25.9c0-15,14.6-30.6,27.4-43.3l3.1-3c7.2-7.1,14.1-17.9,16.7-23.4h-39.3
	c-2.2,0-4-1.8-4-4v-27.3c0-2.2,1.8-4,4-4h95.5c2.2,0,4,1.8,4,4v27.4c0,15.4-14.9,33.6-27.8,46.2l-0.9,0.9
	c-7.2,7.1-18.5,21.2-17.3,21.4c1.2,0.3,5.2,0.5,9.6,0.7c4.5,0.2,31.4-0.7,37.5-2.1c1.3-0.3,1.8-0.1,2,0c2.7,0.4,4.5,2.6,4.5,5.3
	C1005,268.7,995.5,278.7,975.9,278.7"/>
<path class="st0" d="M837.6,281.3c-30.9,0-50-18.8-50-49v-53.3h-14.9c-0.2,0-0.4,0-0.6-0.1c0,0,0,0-0.1,0c-0.1,0-0.4-0.1-0.6-0.2
	c-0.1,0-0.2-0.1-0.3-0.1c-1.8-0.7-3.1-2.2-3.4-4.1c-0.1-0.4-0.1-0.9-0.1-1.3c0-0.1,0-0.2,0-0.3c0,0,0-0.1,0-0.1c0,0,0-0.1,0-0.1
	c1.5-13.8,14-19.7,23.7-26.4l38.4-24.7c0.7-0.5,1.5-0.7,2.3-0.7h3.5c2.2,0,4,1.8,4,4v18.7H867c2.2,0,4,1.8,4,4v27.3c0,2.2-1.8,4-4,4
	h-27.5v52c0,10.1,4.5,15.6,14.5,15.6c4.9,0,9.5-2,12.1-4.4c0.1-0.1,0.3-0.2,0.5-0.4c1.1-0.8,2.4-1.1,3.7-0.9
	c2.2,0.4,3.7,2.1,4.1,4.6c0.5,2.9,0.5,4.7,0.5,6.6C874.9,273.3,855,281.3,837.6,281.3"/>
<path class="st0" d="M347,255.2c-1.3-1.6-3.5-2.2-5.5-1.5c-1.5,0.5-2.9,0.7-4.6,0.7c-4.7,0-15.6-5.4-31.7-36.4
	c16.6-10.3,25.3-30.2,25.3-53c0-4.4-1.3-10-2.1-14.3c-0.3-1.9-2-3.3-4-3.3h-41.7c-1.2,0-2.3,0.5-3.1,1.5c-0.8,0.9-1.1,2.1-0.9,3.3
	l0.3,1.7c0.8,4.3,1.6,8.4,1.6,13.6c0,20.3-5.7,33-22.2,33.5v-97.5c0-2.2-1.8-4-4-4h-43.7c-2.2,0-4,1.8-4,4v171.3c0,2.2,1.8,4,4,4
	h43.7c2.2,0,4-1.8,4-4v-40.7l0,0c0,0,0.2-0.9,0.9-1c0.7-0.1,1,0.3,1.2,0.9c4.1,15.9,14.7,47.4,51.8,47.4c8.3,0,29.4-0.6,34.3-17.1
	c0.5-1.7,1.3-4.7,1.3-4.8C348.4,257.9,348,256.4,347,255.2"/>
<path class="st0" d="M460.4,146.1c-2.4-0.8-4.9-1.2-7.7-1.2c-16.4,0-27.1,9.7-35.2,20.4c-1.3,1.2-2.1-0.2-2.2-0.3
	c-4.4-12.7-17.5-17.6-30.5-17.6c-17.3,0-29.4,9.5-31.6,24.5c0,0.1,0,0.2,0,0.4c-0.2,2.6,1.6,5,4.2,5.4c0.2,0,0.4,0.1,0.7,0.1
	c0.5,0,1.6-0.1,2.5-0.6c1.1-0.6,1.9-0.9,3.1-0.9c1.4,0,3.4-0.2,3.4,7.2v91.3c0,2.2,1.8,4,4,4h43.7h0c1.1,0,2.1-0.4,2.9-1.2
	c0.8-0.8,1.2-1.8,1.2-2.9v-70.5V204c0-6.9,16.1-13,25.9-13c3.9,0,7.2,0.5,10.4,1.6c1.2,0.4,2.5,0.2,3.6-0.4c1-0.7,1.7-1.9,1.8-3.1
	l2.6-38.9C463.2,148.4,462.1,146.7,460.4,146.1"/>
<path class="st0" d="M764.1,250.4c-0.8-1.1-1.9-1.8-3.2-2c-1.3-0.2-2.6,0.1-3.6,0.9c-0.1,0.1-0.2,0.2-0.3,0.2
	c-0.5,0.4-1.5,1.2-2.7,1.2c-1.4,0-3.9,0-3.9-7.2v-96c0-2.2-1.8-4-4-4h-43c-2.2,0-4,1.8-4,4v76.8c-3.4,4.2-10.8,12.2-16.7,12.2
	c-1,0-4.7,0-4.7-6.3v-82.6c0-2.2-1.8-4-4-4h-42.4c-2.2,0-4,1.8-4,4v95.3c0,11.3,1.2,22.9,10.2,30.8c5.4,4.8,12.7,7.6,20.2,7.6
	c16.8,0,29.6-8.8,40.8-19.6l0.2-0.1c2-1.5,3.1,0.5,3.1,0.5c0.1,0.1,0.1,0.2,0.2,0.4c3.8,8.6,13.3,17.6,30.8,17.6
	c20.9,0,30.3-13.9,32-25.8c0,0,0-0.1,0-0.1C765.1,252.8,764.8,251.5,764.1,250.4"/>
<g>
	<path class="st1" d="M110.4,130.6c-6.8,1-17.4,0.8-32.5,13.1c-13,10.6-18.1,15.1-28.7,18c-10.1,2.7-24.7,2.1-28.8-5.2
		c-4.1-7.3-2.1-18.9,3.7-24.5c11.7-11.4,23.9-17.1,64.3-7.5C102.2,127.7,106.9,129,110.4,130.6z"/>
	<path class="st1" d="M133.2,91.9c-2.6,1.6-5.3,3.5-8.1,5.5c-8.5-36.9-3.3-67.6-3.5-75.4c-0.4-11.6-6.9-12.8-13.2-14.7
		c-7-2-38.4,1.3-60.1,9.7C3.8,34.2,4.4,54.2,5.2,59.3c1.2,5.9,3.3,8,9.5,15.1c14.4,16.3,27.8,37.7,27.8,37.7
		c4.5-1.4,9.1-2.3,13.6-2.7c-4.8-11.9-15.7-30.5-20.9-37.9c-8.6-12.2-8.5-11-10.2-14.4c-0.8-1.7-0.8-3.2,2.2-5.7
		c2.6-2.2,8-4.7,10.7-5.3c2.5-0.6,5.1,1,7,4.8c4.9,10.2,16.2,32.1,25.6,58.3c13.8,0.8,25.7,4.4,31.9,6.2c0,0-0.1,0.1-0.1,0.1
		c14.3,3.6,19.9,4.7,34.8,5.2c13.4,0.4,28.8-5.4,30.4-20.9C168.8,87.6,161.6,74.1,133.2,91.9z"/>
</g>
</svg>
