<?xml version="1.0" encoding="UTF-8" standalone="no"?>
<!-- Created with Inkscape (http://www.inkscape.org/) -->

<svg
   xmlns:dc="http://purl.org/dc/elements/1.1/"
   xmlns:cc="http://creativecommons.org/ns#"
   xmlns:rdf="http://www.w3.org/1999/02/22-rdf-syntax-ns#"
   xmlns:svg="http://www.w3.org/2000/svg"
   xmlns="http://www.w3.org/2000/svg"
   xmlns:sodipodi="http://sodipodi.sourceforge.net/DTD/sodipodi-0.dtd"
   xmlns:inkscape="http://www.inkscape.org/namespaces/inkscape"
   version="1.1"
   id="svg80"
   xml:space="preserve"
   width="391.50668"
   height="95.026665"
   viewBox="0 0 391.50668 95.026665"
   sodipodi:docname="Univ_Logo_pos_CMYK.svg"
   inkscape:version="0.92.0 r15299"><metadata
     id="metadata86"><rdf:RDF><cc:Work
         rdf:about=""><dc:format>image/svg+xml</dc:format><dc:type
           rdf:resource="http://purl.org/dc/dcmitype/StillImage" /><dc:title></dc:title></cc:Work></rdf:RDF></metadata><defs
     id="defs84" /><sodipodi:namedview
     pagecolor="#ffffff"
     bordercolor="#666666"
     borderopacity="1"
     objecttolerance="10"
     gridtolerance="10"
     guidetolerance="10"
     inkscape:pageopacity="0"
     inkscape:pageshadow="2"
     inkscape:window-width="1024"
     inkscape:window-height="720"
     id="namedview82"
     showgrid="false"
     inkscape:zoom="1.4508054"
     inkscape:cx="308.794"
     inkscape:cy="47.513332"
     inkscape:window-x="0"
     inkscape:window-y="29"
     inkscape:window-maximized="1"
     inkscape:current-layer="g90" /><g
     id="g88"
     inkscape:groupmode="layer"
     inkscape:label="ink_ext_XXXXXX"
     transform="matrix(1.3333333,0,0,-1.3333333,0,95.026667)"><g
       id="g90"
       transform="scale(0.1)"><path
         d="M 293.43,705.672 H 117.379 c -32.4337,0 -58.6915,-26.277 -58.6915,-58.699 H 111.48 V 476.465 c 1.098,-13.02 20.059,-27.254 59.282,-29.754 32.121,-2.023 62.32,10.016 69.945,28.016 v 172.078 c 6.715,-0.625 44.371,-10.371 51.449,-46.875 0.465,-2 0.832,-4.11 1.024,-6.414 l 0.008,0.007 v -0.105 c 0.14,-1.641 0.23,-3.32 0.23,-5.137 V 412.227 h -0.23 -44.926 -7.633 v 25.574 c -8.481,-11.832 -23.598,-23.067 -36.641,-25.574 H 117.359 C 81.8125,414.051 59.5586,437.82 58.6602,470.926 V 646.973 C 26.2656,646.961 0,620.699 0,588.281 V 412.227 C 0,379.813 26.2734,353.523 58.6797,353.523 H 234.742 c 32.422,0 58.692,26.29 58.692,58.704 32.418,0 58.683,26.269 58.683,58.691 v 176.055 c 0,32.422 -26.265,58.699 -58.687,58.699"
         style="fill:#e4183a;fill-opacity:1;fill-rule:nonzero;stroke:none"
         id="path92"
         inkscape:connector-curvature="0" /><path
         d="m 2760.63,645.398 c -33.44,-0.996 -53.32,0 -69.73,-25.867 -11.98,19.617 -37.31,24.578 -52.35,25.282 V 412.297 l 53.54,0.055 -0.58,167.191 c 0.88,18.797 31.79,33.484 68.64,31.141 38.89,-2.461 57.72,-16.575 58.78,-29.485 V 412.137 h 52.38 V 586.68 c -4.44,40.965 -20.65,61.425 -110.68,58.718"
         style="fill:#e4183a;fill-opacity:1;fill-rule:nonzero;stroke:none"
         id="path94"
         inkscape:connector-curvature="0" /><path
         d="m 1164.49,645.059 c 3.8,-7.59 96.13,-193.332 102.8,-204.258 6.65,-10.938 24.46,-26.414 40.93,-28.77 7.6,-1.113 31.68,-2.187 40.3,0.266 2.01,1.375 71.25,181.465 72.67,185.73 1.41,4.297 3.79,25.653 -19.5,46.094 -31.34,-78.398 -59.37,-154.863 -78.35,-199.973 -32.3,63.633 -61.46,126.321 -87.39,169.551 -15.69,26.133 -38.96,31.36 -43.72,31.36 h -27.74"
         style="fill:#e4183a;fill-opacity:1;fill-rule:nonzero;stroke:none"
         id="path96"
         inkscape:connector-curvature="0" /><path
         d="m 896.391,644.09 c -33.446,-1.004 -53.321,0 -69.75,-25.84 -11.957,19.609 -37.301,24.543 -52.328,25.254 V 410.977 l 53.531,0.046 -0.563,167.207 c 0.848,18.809 31.762,33.489 68.633,31.145 38.875,-2.473 57.691,-16.562 58.77,-29.504 V 410.848 h 52.376 v 174.543 c -4.42,40.945 -20.65,61.394 -110.669,58.699"
         style="fill:#e4183a;fill-opacity:1;fill-rule:nonzero;stroke:none"
         id="path98"
         inkscape:connector-curvature="0" /><path
         d="m 1885.1,644.09 c -33.4,-1.004 -53.3,0 -69.75,-25.84 -11.95,19.609 -37.3,24.543 -52.28,25.254 V 410.977 l 53.47,0.046 -0.54,167.207 c 0.88,18.809 31.77,33.489 68.63,31.145 38.88,-2.473 57.69,-16.562 58.79,-29.504 V 410.848 h 52.36 v 174.543 c -4.41,40.945 -20.66,61.394 -110.68,58.699"
         style="fill:#e4183a;fill-opacity:1;fill-rule:nonzero;stroke:none"
         id="path100"
         inkscape:connector-curvature="0" /><path
         d="m 1124.1,669.004 c 0,-5.149 -4.15,-9.289 -9.3,-9.289 h -33.75 c -5.14,0 -9.31,4.14 -9.31,9.289 v 33.75 c 0,5.164 4.17,9.336 9.31,9.336 h 33.75 c 5.15,0 9.3,-4.172 9.3,-9.336 v -33.75"
         style="fill:#e4183a;fill-opacity:1;fill-rule:nonzero;stroke:none"
         id="path102"
         inkscape:connector-curvature="0" /><path
         d="m 2125.92,642.246 v 70.41 h -19.59 v -12.98 c 0,-32.168 -26.05,-58.192 -58.19,-58.192 h -9.69 v -33.496 h 35.5 v -197.14 h 51.97 v 196.488 h 57.99 v 34.91 h -57.99"
         style="fill:#e4183a;fill-opacity:1;fill-rule:nonzero;stroke:none"
         id="path104"
         inkscape:connector-curvature="0" /><path
         d="m 2518.03,643.563 h -116.37 c -32.1,0 -58.16,-26.055 -58.16,-58.172 V 469.012 c 0,-32.137 26.06,-58.164 58.16,-58.164 h 116.37 c 32.15,0 58.19,26.027 58.19,58.164 v 116.379 c 0,32.117 -26.04,58.172 -58.19,58.172 m 5.83,-162.899 c 0,-19.297 -15.66,-34.922 -34.91,-34.922 h -58.17 c -19.3,0 -34.95,15.625 -34.95,34.922 v 93.098 c 0,19.273 15.65,34.89 34.95,34.89 h 58.17 c 19.25,0 34.91,-15.617 34.91,-34.89 v -93.098"
         style="fill:#e4183a;fill-opacity:1;fill-rule:nonzero;stroke:none"
         id="path106"
         inkscape:connector-curvature="0" /><path
         d="m 1697.23,524.676 v 0 h 2.3 v 61.691 c 0,32.129 -26.05,58.192 -58.18,58.192 H 1525 c -32.15,0 -58.17,-26.063 -58.17,-58.192 V 470.039 c 0,-32.148 20.45,-61.984 111.03,-60.312 73.18,1.328 118.51,5.949 121.54,56.14 h -54.85 c -3.69,-6.719 -18.46,-23.367 -66.23,-21.472 -51.26,2.109 -59.66,19.285 -59.66,38.574 v 41.707 z m -143.68,86.281 h 58.17 c 19.3,0 34.92,-15.613 34.92,-34.922 v -18.34 h -127.98 v 18.34 c 0,19.309 15.62,34.922 34.89,34.922"
         style="fill:#e4183a;fill-opacity:1;fill-rule:nonzero;stroke:none"
         id="path108"
         inkscape:connector-curvature="0" /><path
         d="m 1123.7,411.23 v 175.282 c 0,30.488 -22.75,55.547 -51.96,58.711 V 411.23 h 51.96"
         style="fill:#e4183a;fill-opacity:1;fill-rule:nonzero;stroke:none"
         id="path110"
         inkscape:connector-curvature="0" /><path
         d="M 657.066,645.223 V 474.617 c -2.972,-17.793 -32.871,-31.308 -68.332,-29.062 -38.89,2.472 -57.687,16.543 -58.757,29.504 V 644.082 H 477.594 V 469.531 c 4.418,-40.929 20.648,-61.418 110.683,-58.683 32.786,0.976 52.559,0.16 68.789,24.613 V 411.23 h 51.957 v 175.274 c 0,30.488 -22.75,55.555 -51.957,58.719"
         style="fill:#e4183a;fill-opacity:1;fill-rule:nonzero;stroke:none"
         id="path112"
         inkscape:connector-curvature="0" /><path
         d="m 2280.31,669.004 c 0,-5.149 -4.12,-9.289 -9.29,-9.289 h -33.74 c -5.14,0 -9.32,4.14 -9.32,9.289 v 33.75 c 0,5.164 4.18,9.336 9.32,9.336 h 33.74 c 5.17,0 9.29,-4.172 9.29,-9.336 v -33.75"
         style="fill:#e4183a;fill-opacity:1;fill-rule:nonzero;stroke:none"
         id="path114"
         inkscape:connector-curvature="0" /><path
         d="m 2279.94,411.23 v 175.282 c 0,30.488 -22.75,55.547 -51.99,58.711 V 411.23 h 51.99"
         style="fill:#e4183a;fill-opacity:1;fill-rule:nonzero;stroke:none"
         id="path116"
         inkscape:connector-curvature="0" /><path
         d="m 2804.39,232.922 c -20.21,-0.598 -32.21,0 -42.14,-15.609 -7.23,11.835 -22.54,14.824 -31.62,15.253 V 92.0781 l 32.35,0.0313 -0.35,101.0276 c 0.51,11.355 19.19,20.222 41.47,18.816 23.49,-1.492 34.85,-10.012 35.51,-17.832 V 92.0039 h 31.65 V 197.449 c -2.69,24.758 -12.48,37.102 -66.87,35.473"
         style="fill:#e4183a;fill-opacity:1;fill-rule:nonzero;stroke:none"
         id="path118"
         inkscape:connector-curvature="0" /><path
         d="m 2522.05,198.816 c -0.06,0.625 -0.1,1.301 -0.23,1.821 -3.24,22.593 -14.47,33.843 -66.45,32.285 -20.21,-0.609 -32.22,0 -42.15,-15.609 -7.22,11.835 -22.54,14.835 -31.62,15.265 L 2381.6,0 2413.96,0.0273438 2413.77,92.2656 c 1,-0.0781 1.95,-0.3008 2.97,-0.3008 h 70.31 c 19.42,0 35.16,15.7302 35.16,35.1332 v 25.273 h 0.03 v 45.078 c -0.05,0.473 -0.13,0.899 -0.19,1.367 m -31.46,-4.695 v -3.73 l -0.01,-0.008 v -56.242 c 0,-11.661 -9.46,-21.086 -21.1,-21.086 h -35.13 c -10.15,0 -18.61,7.14 -20.64,16.679 l -0.1,63.403 c 0.51,11.355 19.19,20.222 41.47,18.816 23.48,-1.484 34.85,-10.019 35.51,-17.832"
         style="fill:#e4183a;fill-opacity:1;fill-rule:nonzero;stroke:none"
         id="path120"
         inkscape:connector-curvature="0" /><path
         d="m 1902.67,118.602 c -0.06,-0.625 -0.1,-1.297 -0.25,-1.817 -3.22,-22.5975 -14.45,-33.8475 -66.44,-32.2928 -20.22,0.6133 -32.21,0 -42.14,15.6128 -7.24,-11.8355 -22.54,-14.8316 -31.62,-15.2612 V 326.973 c 26.74,-1.055 32.35,-24.368 32.35,-24.368 l -0.19,-77.449 c 0.99,0.078 1.96,0.305 2.98,0.305 h 70.31 c 19.42,0 35.16,-15.734 35.16,-35.148 v -25.262 h 0.02 v -45.082 c -0.06,-0.477 -0.13,-0.906 -0.18,-1.367 m -31.48,4.699 v 3.73 0.012 56.238 c 0,11.66 -9.45,21.082 -21.09,21.082 h -35.14 c -10.15,0 -18.6,-7.136 -20.64,-16.679 l -0.09,-63.399 c 0.51,-11.355 19.19,-20.234 41.45,-18.816 23.5,1.484 34.87,10.019 35.51,17.832"
         style="fill:#e4183a;fill-opacity:1;fill-rule:nonzero;stroke:none"
         id="path122"
         inkscape:connector-curvature="0" /><path
         d="m 2312.56,233.066 h -70.31 c -19.39,0 -35.14,-15.742 -35.14,-35.144 v -70.317 c 0,-19.421 15.75,-35.1558 35.14,-35.1558 h 70.31 c 19.41,0 35.15,15.7348 35.15,35.1558 v 70.317 c 0,19.402 -15.74,35.144 -35.15,35.144 m 3.51,-98.418 c 0,-11.66 -9.45,-21.101 -21.08,-21.101 h -35.15 c -11.66,0 -21.11,9.441 -21.11,21.101 v 56.239 c 0,11.652 9.45,21.086 21.11,21.086 h 35.15 c 11.63,0 21.08,-9.434 21.08,-21.086 v -56.239"
         style="fill:#e4183a;fill-opacity:1;fill-rule:nonzero;stroke:none"
         id="path124"
         inkscape:connector-curvature="0" /><path
         d="m 2695.24,160.637 v 0 h 1.39 v 37.273 c 0,19.414 -15.73,35.156 -35.15,35.156 h -70.3 c -19.42,0 -35.14,-15.742 -35.14,-35.156 v -70.281 c 0,-19.426 12.36,-37.4532 67.09,-36.4376 44.21,0.8008 71.6,3.582 73.43,33.9136 h -33.14 c -2.23,-4.07 -11.15,-14.121 -40.02,-12.968 -30.97,1.269 -36.04,11.652 -36.04,23.301 v 25.199 z m -86.8,52.125 h 35.14 c 11.66,0 21.11,-9.434 21.11,-21.09 v -11.086 h -77.33 v 11.086 c 0,11.656 9.44,21.09 21.08,21.09"
         style="fill:#e4183a;fill-opacity:1;fill-rule:nonzero;stroke:none"
         id="path126"
         inkscape:connector-curvature="0" /><path
         d="m 2075.86,152.91 v 0 h 1.39 v 37.274 c 0,19.414 -15.74,35.16 -35.16,35.16 h -70.29 c -19.43,0 -35.14,-15.746 -35.14,-35.16 v -70.282 c 0,-19.425 12.34,-37.4528 67.07,-36.445 44.22,0.8008 71.6,3.5938 73.44,33.926 h -33.14 c -2.23,-4.074 -11.16,-14.121 -40.02,-12.969 -30.96,1.27 -36.04,11.649 -36.04,23.301 v 25.195 z m -86.82,52.129 h 35.16 c 11.66,0 21.09,-9.434 21.09,-21.094 v -11.086 h -77.32 v 11.086 c 0,11.66 9.43,21.094 21.07,21.094"
         style="fill:#e4183a;fill-opacity:1;fill-rule:nonzero;stroke:none"
         id="path128"
         inkscape:connector-curvature="0" /><path
         d="m 2936.25,127.059 h -31.87 V 91.7773 h 31.87 v 35.2817"
         style="fill:#e4183a;fill-opacity:1;fill-rule:nonzero;stroke:none"
         id="path130"
         inkscape:connector-curvature="0" /></g></g></svg>