<?xml version="1.0" encoding="UTF-8" standalone="no"?>
<svg id="svg2" xmlns="http://www.w3.org/2000/svg" xml:space="preserve" height="68" viewBox="13.5 16.5 233 68" width="233" version="1.1"><g id="g10" transform="matrix(1.25 0 0 -1.25 -67.173 277.4)"><g id="g12" transform="scale(.1)"><g id="g3372" fill="#231f20" transform="translate(-24.554 10.299)"><path id="path30" d="m743.2 2000.8v-393.83h1655.5v393.83h-1655.5zm-50.633 52.04h1756.8v-496.51h-1756.8v496.51"/><path id="path32" d="m1281.9 1900.9-30.94-123.77h64.69l-33.75 123.77zm-37.99 49.22h78.78l82.99-292.56h-59.08l-19.7 73.13h-87.19s-15.13-58.85-18.29-71.73c-17.59-1.35-60.48 0-60.48 0l82.97 291.16"/><path id="path34" d="m2148.3 1950.1h122.38v-37.98h-78.76v-42.19h71.72v-37.97h-71.72v-43.61h78.76v-37.98h-122.35l-0.03 199.73"/><path id="path36" d="m1798.1 1950.1h59.11l56.26-218.01 54.83 218.01h59.06l-88.6-292.56h-52.02l-88.64 292.56"/><path id="path38" d="m1547.8 1950.1h57.64v-243.33h122.37v-49.23h-180.05l0.04 292.56"/><path id="path40" d="m845.88 1950.1h57.668l56.27-220.82 54.856 220.82h60.48l-88.63-292.56h-53.425l-87.219 292.56"/><path id="path42" d="m2486.6 2026.6h3.91c4.4 0 8.17 1.62 8.17 5.77 0 2.96-2.16 5.91-8.17 5.91-1.75 0-2.96-0.14-3.91-0.28v-11.4zm0-18.63h-5.38v33.66c2.82 0.39 5.53 0.8 9.53 0.8 5.1 0 8.46-1.08 10.48-2.54 2-1.5 3.08-3.77 3.08-6.97 0-4.45-2.96-7.12-6.57-8.19v-0.26c2.93-0.54 4.97-3.21 5.62-8.19 0.81-5.22 1.62-7.25 2.17-8.31h-5.66c-0.79 1.06-1.6 4.17-2.25 8.57-0.81 4.3-2.96 5.92-7.27 5.92h-3.75v-14.49zm5.65 43.04c-13.28 0-24.15-11.39-24.15-25.49 0-14.34 10.87-25.59 24.27-25.59 13.4-0.13 24.14 11.25 24.14 25.47s-10.74 25.61-24.14 25.61h-0.12zm0.12 4.69c16.52 0 29.63-13.4 29.63-30.18 0-17-13.11-30.29-29.75-30.29-16.49 0-29.89 13.29-29.89 30.29 0 16.78 13.4 30.18 29.89 30.18h0.12"/></g><rect id="rect3370" transform="scale(1,-1)" height="782.6" width="2067.5" y="-2207.6" x="548.98" fill="none"/></g></g></svg>
