<?xml version="1.0" encoding="utf-8"?>
<!-- Generator: Adobe Illustrator 16.0.0, SVG Export Plug-In . SVG Version: 6.00 Build 0)  -->
<!DOCTYPE svg PUBLIC "-//W3C//DTD SVG 1.1//EN" "http://www.w3.org/Graphics/SVG/1.1/DTD/svg11.dtd">
<svg version="1.1" id="Layer_1" xmlns="http://www.w3.org/2000/svg" xmlns:xlink="http://www.w3.org/1999/xlink" x="0px" y="0px"
	 width="201.26px" height="34.333px" viewBox="0 0 201.26 34.333" enable-background="new 0 0 201.26 34.333" xml:space="preserve">
<g>
	<g>
		<g>
			<path fill="#595959" d="M43.725,28.513h11.954v4.972H36.765v-3.21l11.66-24.698H36.674V0.584h18.757v3.094L43.725,28.513z"/>
			<path fill="#595959" d="M76.061,18.953H66.007v9.56h12.044v4.972H59.635v-32.9h18.372v4.992H66.007v8.405h10.054V18.953z"/>
			<path fill="#595959" d="M92.084,25.078l0.271,1.378h0.136l0.272-1.311l5.694-24.561h6.711l-9.423,32.9h-6.622l-9.378-32.9h6.712
				L92.084,25.078z"/>
			<path fill="#595959" d="M124.309,18.953h-10.058v9.56h12.047v4.972h-18.421v-32.9h18.374v4.992h-12v8.405h10.058V18.953z"/>
			<path fill="#595959" d="M153.663,33.485h-6.374l-10.438-20.993l-0.137,0.023v20.97h-6.37v-32.9h6.37l10.44,21.014l0.135-0.024
				V0.584h6.374V33.485z"/>
			<path fill="#595959" d="M175.153,18.953h-10.058v9.56h12.047v4.972h-18.418v-32.9h18.372v4.992h-12.001v8.405h10.058V18.953z"/>
			<path fill="#595959" d="M200.983,5.577h-7.729v27.908h-6.395V5.577h-7.524V0.584h21.648V5.577z"/>
		</g>
	</g>
	<path fill-rule="evenodd" clip-rule="evenodd" fill="#21B573" d="M0.276,23.712v9.772h31.935v-9.772H0.276z M29.279,30.227h-7.821
		v-3.258h7.821V30.227z"/>
	<path fill-rule="evenodd" clip-rule="evenodd" fill="#21B573" d="M0.276,12.01v9.772h31.935V12.01H0.276z M29.279,18.523h-7.821
		v-3.256h7.821V18.523z"/>
	<path fill-rule="evenodd" clip-rule="evenodd" fill="#21B573" d="M0.276,0.584v9.772h31.935V0.584H0.276z M29.279,7.098h-7.821
		V3.84h7.821V7.098z"/>
</g>
</svg>
