<?xml version="1.0" encoding="UTF-8" standalone="no"?>
<svg id="svg2" xmlns:rdf="http://www.w3.org/1999/02/22-rdf-syntax-ns#" xmlns="http://www.w3.org/2000/svg" height="377.69" width="377.69" version="1.1" xmlns:cc="http://creativecommons.org/ns#" xmlns:dc="http://purl.org/dc/elements/1.1/" viewBox="0 0 377.68723 377.68723">
 <g id="g8" stroke="#bc312e" transform="matrix(1.1367 0 0 1.1367 191.38 -894.88)">
  <g id="g10" stroke-linejoin="round" transform="translate(-1.4764e-6,-0.016222)" stroke="#ff0000" stroke-linecap="round" stroke-width="3.5" fill="none">
   <path id="path01" class="path" d="m134.2 991.4c10.397-10.374 17.402-24.095 19.707-38.6 2.1934-13.811 0.11378-28.306-6.095-40.835-4.0974-8.2669-9.9536-15.657-17.065-21.535"/>
   <path id="path02" class="path" d="m61.465 1029.2c10.586 6.1171 22.049 10.716 33.928 13.612 10.424 2.5414 21.167 3.773 31.896 3.6569"/>
   <path id="path03" class="path" d="m8.2374 926.96c-5.1669 16.122-6.5004 33.458-3.8599 50.18 1.7135 10.852 5.0826 21.44 9.9547 31.287"/>
   <path id="path04" class="path" d="m31.194 912.17c-11.488 18.677-15.974 41.55-12.393 63.183 4.0738 24.606 18.755 47.391 39.819 60.745 10.891 6.9041 23.353 11.315 36.162 12.799"/>
   <path id="path05" class="path" d="m112.26 901.6c-6.3253-6.6106-14.336-11.596-23.06-14.351-8.7248-2.7551-18.145-3.2747-27.12-1.4958-12.054 2.3893-23.142 8.8982-31.653 17.762-8.5108 8.8642-14.496 20.006-17.918 31.809-5.966 20.576-4.0973 43.231 4.6728 62.776 5.7694 12.859 14.445 24.403 25.192 33.521"/>
   <path id="path06" class="path" d="m98.237 966.01c3.8826-3.1538 6.4189-7.9131 6.8718-12.895 0.45277-4.9816-1.1836-10.12-4.4339-13.922-2.0822-2.4359-4.7979-4.3256-7.806-5.4314-3.0077-1.1058-6.3008-1.4252-9.4652-0.91813-3.1642 0.5071-6.1924 1.8396-8.704 3.8299-2.5118 1.9903-4.5008 4.634-5.7178 7.5986"/>
   <path id="path07" class="path" d="m140.7 948.94c0.4981-15.049-4.1781-30.221-13.061-42.379-8.8831-12.158-21.917-21.224-36.405-25.322-12.684-3.5883-26.415-3.3826-38.985 0.58388s-23.933 11.679-32.26 21.897"/>
   <path id="path08" class="path" d="m53.998 976.57c8.1288 13.109 22.941 21.819 38.348 22.551 13.499 0.64106 27.067-4.6939 36.926-13.937 9.8589-9.2435 16.005-22.204 17.521-35.634 1.5805-14.003-1.7825-28.425-8.8943-40.59s-17.873-22.073-30.315-28.687c-8.5916-4.5674-17.991-7.6086-27.63-8.939"/>
   <path id="path09" class="path" d="m65.732 927.41c-4.9503 3.5956-8.8606 8.6064-11.145 14.282-2.2846 5.6757-2.9362 11.998-1.8573 18.02 1.3523 7.5498 5.4065 14.524 11.03 19.739 5.6237 5.2154 12.761 8.6988 20.256 10.329 13.237 2.8789 27.648-0.15479 38.6-8.1264"/>
   <path id="path10" class="path" d="m102.1 931.88c-4.3153-3.3312-9.6689-5.2967-15.114-5.5492-5.4454-0.25243-10.958 1.2094-15.563 4.127-4.5056 2.8549-8.1217 7.0857-10.266 11.97-2.1445 4.884-2.8123 10.401-1.9237 15.66 1.2991 7.6881 5.9989 14.738 12.596 18.894"/>
  </g>
 </g>
 <path id="torre" stroke-linejoin="round" d="m-215.13 330.95c73.939-25.575 143.98-62.38 206.99-108.76 49.297-36.293 94.55-78.73 129.85-128.74 8.7079-12.337 16.796-25.111 24.223-38.258 14.648-4.1269 29.152-8.7656 43.477-13.905 17.108-6.1379 33.96-12.99 50.498-20.532l0.32516 62.479c-32.731 20.757-62.281 46.52-87.304 76.117-39.747 47.011-67.902 103.75-81.299 163.84m-156.98 42.708h-116.79m127.27-15.384h-97.418m107.76-14.37h-81.648m92.153-14.12h-67.938m78.286-14.124h-56.004m67.697-14.118h-45.745m57.243-14.443h-37.011m49.659-14.267h-29.728m42.764-14.267h-23.899m36.557-14.211h-19.319m32.931-14.441h-15.962m30.763-14.271h-13.944m28.049-14.443h-13.124m28.204-14.267h-13.482m-282.61 142.94 2.3891-0.73052s239.31-72.825 359.95-275.45c0.83445-0.22574 17.228-4.6419 37.339-11.304 20.614-6.8298 44.071-15.574 56.399-24.23l2.0388-1.4462m-323.13 377.17c103.25-56.445 222.24-83.723 339.76-77.89 95.72 4.75 190.29 31.281 274.51 77.01m-592.27-0.23c97.86-48.995 208.46-72.239 317.76-66.78 88.25 4.408 175.53 27.388 254.51 67.01m-549.52-0.77c92.03-41.707 194.09-61.344 295.01-56.24 79.56 4.023 158.3 23.327 230.84 56.24m-531.09-19.093c29.56-39.379 59.385-78.559 89.471-117.54 42.45-54.994 85.466-109.64 132.15-161.09 20.576-22.678 41.851-44.722 63.786-66.088" stroke="#003aff" stroke-linecap="round" stroke-dasharray="1000" stroke-width="4.5" fill="none"/>
</svg>
