<?xml version="1.0" encoding="UTF-8" standalone="no"?>
<!-- Created with Inkscape (http://www.inkscape.org/) -->

<svg
   xmlns:dc="http://purl.org/dc/elements/1.1/"
   xmlns:cc="http://creativecommons.org/ns#"
   xmlns:rdf="http://www.w3.org/1999/02/22-rdf-syntax-ns#"
   xmlns:svg="http://www.w3.org/2000/svg"
   xmlns="http://www.w3.org/2000/svg"
   xmlns:sodipodi="http://sodipodi.sourceforge.net/DTD/sodipodi-0.dtd"
   xmlns:inkscape="http://www.inkscape.org/namespaces/inkscape"
   width="58mm"
   height="58mm"
   viewBox="0 0 205.51181 205.51181"
   id="svg4185"
   version="1.1"
   inkscape:version="0.91 r13725"
   sodipodi:docname="swirl.svg">
  <defs
     id="defs4187" />
  <sodipodi:namedview
     id="base"
     pagecolor="#ffffff"
     bordercolor="#666666"
     borderopacity="1.0"
     inkscape:pageopacity="0.0"
     inkscape:pageshadow="2"
     inkscape:zoom="0.35"
     inkscape:cx="-5.7420676"
     inkscape:cy="22.910843"
     inkscape:document-units="px"
     inkscape:current-layer="layer1"
     showgrid="false"
     fit-margin-top="0"
     fit-margin-left="0"
     fit-margin-right="0"
     fit-margin-bottom="0"
     inkscape:window-width="958"
     inkscape:window-height="1053"
     inkscape:window-x="0"
     inkscape:window-y="25"
     inkscape:window-maximized="0" />
  <metadata
     id="metadata4190">
    <rdf:RDF>
      <cc:Work
         rdf:about="">
        <dc:format>image/svg+xml</dc:format>
        <dc:type
           rdf:resource="http://purl.org/dc/dcmitype/StillImage" />
        <dc:title></dc:title>
      </cc:Work>
    </rdf:RDF>
  </metadata>
  <g
     inkscape:label="Layer 1"
     inkscape:groupmode="layer"
     id="layer1"
     transform="translate(185.3502,733.09587)">
    <g
       style="stroke:#bc312e"
       transform="matrix(1.1367,0,0,1.1367,-172.28612,-1721.6845)"
       id="g6">
      <g
         style="fill:none;stroke:#bc312e;stroke-width:3.5;stroke-linecap:round;stroke-linejoin:round"
         transform="translate(-1.4764e-6,-0.016222)"
         id="g8">
        <path
           inkscape:connector-curvature="0"
           class="path"
           id="path01"
           d="m 134.2,991.4 c 10.397,-10.374 17.402,-24.095 19.707,-38.6 2.1934,-13.811 0.11378,-28.306 -6.095,-40.835 -4.0974,-8.2669 -9.9536,-15.657 -17.065,-21.535" />
        <path
           inkscape:connector-curvature="0"
           class="path"
           id="path02"
           d="m 61.465,1029.2 c 10.586,6.1171 22.049,10.716 33.928,13.612 10.424,2.5414 21.167,3.773 31.896,3.6569" />
        <path
           inkscape:connector-curvature="0"
           class="path"
           id="path03"
           d="m 8.2374,926.96 c -5.1669,16.122 -6.5004,33.458 -3.8599,50.18 1.7135,10.852 5.0826,21.44 9.9547,31.287" />
        <path
           inkscape:connector-curvature="0"
           class="path"
           id="path04"
           d="m 31.194,912.17 c -11.488,18.677 -15.974,41.55 -12.393,63.183 4.0738,24.606 18.755,47.391 39.819,60.745 10.891,6.9041 23.353,11.315 36.162,12.799" />
        <path
           inkscape:connector-curvature="0"
           class="path"
           id="path05"
           d="m 112.26,901.6 c -6.3253,-6.6106 -14.336,-11.596 -23.06,-14.351 -8.7248,-2.7551 -18.145,-3.2747 -27.12,-1.4958 -12.054,2.3893 -23.142,8.8982 -31.653,17.762 -8.5108,8.8642 -14.496,20.006 -17.918,31.809 -5.966,20.576 -4.0973,43.231 4.6728,62.776 5.7694,12.859 14.445,24.403 25.192,33.521" />
        <path
           inkscape:connector-curvature="0"
           class="path"
           id="path06"
           d="m 98.237,966.01 c 3.8826,-3.1538 6.4189,-7.9131 6.8718,-12.895 0.45277,-4.9816 -1.1836,-10.12 -4.4339,-13.922 -2.0822,-2.4359 -4.7979,-4.3256 -7.806,-5.4314 -3.0077,-1.1058 -6.3008,-1.4252 -9.4652,-0.91813 -3.1642,0.5071 -6.1924,1.8396 -8.704,3.8299 -2.5118,1.9903 -4.5008,4.634 -5.7178,7.5986" />
        <path
           inkscape:connector-curvature="0"
           class="path"
           id="path07"
           d="m 140.7,948.94 c 0.4981,-15.049 -4.1781,-30.221 -13.061,-42.379 -8.8831,-12.158 -21.917,-21.224 -36.405,-25.322 -12.684,-3.5883 -26.415,-3.3826 -38.985,0.58388 -12.57,3.96648 -23.933,11.679 -32.26,21.897" />
        <path
           inkscape:connector-curvature="0"
           class="path"
           id="path08"
           d="m 53.998,976.57 c 8.1288,13.109 22.941,21.819 38.348,22.551 13.499,0.64106 27.067,-4.6939 36.926,-13.937 9.8589,-9.2435 16.005,-22.204 17.521,-35.634 1.5805,-14.003 -1.7825,-28.425 -8.8943,-40.59 -7.1118,-12.165 -17.873,-22.073 -30.315,-28.687 -8.5916,-4.5674 -17.991,-7.6086 -27.63,-8.939" />
        <path
           inkscape:connector-curvature="0"
           class="path"
           id="path09"
           d="m 65.732,927.41 c -4.9503,3.5956 -8.8606,8.6064 -11.145,14.282 -2.2846,5.6757 -2.9362,11.998 -1.8573,18.02 1.3523,7.5498 5.4065,14.524 11.03,19.739 5.6237,5.2154 12.761,8.6988 20.256,10.329 13.237,2.8789 27.648,-0.15479 38.6,-8.1264" />
        <path
           inkscape:connector-curvature="0"
           class="path"
           id="path10"
           d="m 102.1,931.88 c -4.3153,-3.3312 -9.6689,-5.2967 -15.114,-5.5492 -5.4454,-0.25243 -10.958,1.2094 -15.563,4.127 -4.5056,2.8549 -8.1217,7.0857 -10.266,11.97 -2.1445,4.884 -2.8123,10.401 -1.9237,15.66 1.2991,7.6881 5.9989,14.738 12.596,18.894" />
      </g>
    </g>
  </g>
</svg>
